  0
SECTION
  2
HEADER
  9
$ACADVER
  1
AC1009
  9
$INSBASE
 10
0.0
 20
0.0
 30
0.0
  9
$EXTMIN
 10
0.0
 20
0.0
 30
0.0
  9
$EXTMAX
 10
0.0
 20
0.0
 30
0.0
  0
ENDSEC
  0
SECTION
  2
TABLES
  0
TABLE
  2
VPORT
 70
1
  0
VPORT
  2
*ACTIVE
 70
0
 10
0.0
 20
0.0
 11
1.0
 21
1.0
 12
-5.0
 22
1.0
 13
0.0
 23
0.0
 14
0.1
 24
0.1
 15
0.1
 25
0.1
 16
0.0
 26
0.0
 36
1.0
 17
0.0
 27
0.0
 37
0.0
 40
10.0
 41
1.0
 42
50.0
 43
0.0
 44
0.0
 50
0.0
 51
0.0
 71
0
 72
100
 73
1
 74
1
 75
0
 76
0
 77
0
 78
0
  0
ENDTAB
  0
TABLE
  2
LTYPE
 70
8
  0
LTYPE
  2
CONTINUOUS
 70
0
  3
Solid line
 72
65
 73
0
 40
0.0
  0
LTYPE
  2
DOT
 70
0
  3
. . . . . . .
 72
65
 73
2
 40
0.25
 49
0.0
 49
-0.25
  0
LTYPE
  2
DASHED
 70
0
  3
__ __ __ __ __
 72
65
 73
2
 40
0.8
 49
0.5
 49
-0.3
  0
LTYPE
  2
DASHDOT
 70
0
  3
__ . __ . __ .
 72
65
 73
4
 40
1.0
 49
0.5
 49
-0.25
 49
0.0
 49
-0.25
  0
LTYPE
  2
DIVIDE
 70
0
  3
____ . . ____ . . 
 72
65
 73
6
 40
1.25
 49
0.5
 49
-0.25
 49
0.0
 49
-0.25
 49
0.0
 49
-0.25
  0
LTYPE
  2
BORDER
 70
0
  3
__ __ . __ __ . 
 72
65
 73
6
 40
1.75
 49
0.5
 49
-0.25
 49
0.5
 49
-0.25
 49
0.0
 49
-0.25
  0
LTYPE
  2
HIDDEN
 70
0
  3
__ __ __ __ __
 72
65
 73
2
 40
0.4
 49
0.25
 49
-0.25
  0
LTYPE
  2
CENTER
 70
0
  3
____ _ ____ _ __
 72
65
 73
4
 40
2.0
 49
1.25
 49
-0.25
 49
0.25
 49
-0.25
  0
ENDTAB
  0
TABLE
  2
LAYER
 70
1
  0
LAYER
  2
PYDXF
 70
64
 62
7
  6
continuous
  0
ENDTAB
  0
TABLE
  2
STYLE
 70
1
  0
STYLE
  2
STANDARD
 70
0
 40
0
 41
1.0
 50
0.0
 71
0
 42
1
 3
ARIAL.TTF
 4

  0
ENDTAB
  0
TABLE
  2
VIEW
 70
1
  0
VIEW
  2
BF_TOPVIEW
 70
0
 40
120.0
 10
0.0
 20
0.0
 41
200.0
 11
0.0
 21
0.0
 31
1.0
 12
0.0
 22
0.0
 32
0.0
 42
50.0
 43
0.0
 44
0.0
 50
0.0
 71
0
  0
ENDTAB
  0
ENDSEC
  0
SECTION
  2
BLOCKS
  0
ENDSEC
  0
SECTION
  2
ENTITIES
  0
3DFACE
  8
0
 10
-0.36395230889320374
 20
0.3125426471233368
 30
0.7460497617721558
 11
-0.3639524281024933
 21
-0.35367658734321594
 31
0.7460497617721558
 12
0.369523823261261
 22
-0.3536767363548279
 32
0.7460497617721558
 13
0.369523823261261
 23
-0.3536767363548279
 33
0.7460497617721558
  0
3DFACE
  8
0
 10
-0.3639524281024933
 20
-0.35367658734321594
 30
0.7460497617721558
 11
-0.36395251750946045
 21
-0.40189915895462036
 31
0.7243700623512268
 12
0.369523823261261
 22
-0.4018993377685547
 32
0.724370002746582
 13
0.369523823261261
 23
-0.4018993377685547
 33
0.724370002746582
  0
3DFACE
  8
0
 10
-0.36395251750946045
 20
-0.40189915895462036
 30
0.7243700623512268
 11
-0.3639524281024933
 21
-0.35367658734321594
 31
0.7460497617721558
 12
-0.3639524281024933
 22
-0.35367658734321594
 32
0.726808488368988
 13
-0.3639524281024933
 23
-0.35367658734321594
 33
0.726808488368988
  0
3DFACE
  8
0
 10
-0.36395230889320374
 20
0.3125426471233368
 30
0.7460497617721558
 11
-0.36395230889320374
 21
0.3125426471233368
 31
0.726808488368988
 12
-0.3639524281024933
 22
-0.35367658734321594
 32
0.726808488368988
 13
-0.3639524281024933
 23
-0.35367658734321594
 33
0.726808488368988
  0
3DFACE
  8
0
 10
0.369523823261261
 20
-0.4018993377685547
 30
0.724370002746582
 11
0.369523823261261
 21
-0.38924354314804077
 31
0.7089248299598694
 12
0.369523823261261
 22
-0.3536767363548279
 32
0.726808488368988
 13
0.369523823261261
 23
-0.3536767363548279
 33
0.726808488368988
  0
3DFACE
  8
0
 10
0.369523823261261
 20
-0.3536767363548279
 30
0.7460497617721558
 11
0.369523823261261
 21
-0.3536767363548279
 31
0.726808488368988
 12
0.36952394247055054
 22
0.3125426173210144
 32
0.726808488368988
 13
0.36952394247055054
 23
0.3125426173210144
 33
0.726808488368988
  0
3DFACE
  8
0
 10
0.36952394247055054
 20
0.3125426173210144
 30
0.7460497617721558
 11
0.36952394247055054
 21
0.3125426173210144
 31
0.726808488368988
 12
-0.36395230889320374
 22
0.3125426471233368
 32
0.726808488368988
 13
-0.36395230889320374
 23
0.3125426471233368
 33
0.726808488368988
  0
3DFACE
  8
0
 10
0.369523823261261
 20
-0.38924354314804077
 30
0.7089248299598694
 11
-0.36395251750946045
 21
-0.38924336433410645
 31
0.7089249491691589
 12
-0.3639524281024933
 22
-0.35367658734321594
 32
0.726808488368988
 13
-0.3639524281024933
 23
-0.35367658734321594
 33
0.726808488368988
  0
3DFACE
  8
0
 10
0.369523823261261
 20
-0.3536767363548279
 30
0.726808488368988
 11
-0.3639524281024933
 21
-0.35367658734321594
 31
0.726808488368988
 12
-0.36395230889320374
 22
0.3125426471233368
 32
0.726808488368988
 13
-0.36395230889320374
 23
0.3125426471233368
 33
0.726808488368988
  0
3DFACE
  8
0
 10
0.3482179641723633
 20
0.37523671984672546
 30
0.7203249931335449
 11
0.3068297803401947
 21
0.37523671984672546
 31
0.7203249931335449
 12
0.3068297803401947
 22
0.3338485360145569
 32
0.7203249931335449
 13
0.3068297803401947
 23
0.3338485360145569
 33
0.7203249931335449
  0
3DFACE
  8
0
 10
-0.3069821000099182
 20
0.37523677945137024
 30
0.7203249931335449
 11
-0.3483702838420868
 21
0.37523677945137024
 31
0.7203249931335449
 12
-0.3483702838420868
 22
0.33384859561920166
 32
0.7203249931335449
 13
-0.3483702838420868
 23
0.33384859561920166
 33
0.7203249931335449
  0
3DFACE
  8
0
 10
-0.3069821000099182
 20
0.33384859561920166
 30
0.7203249931335449
 11
-0.3069821000099182
 21
0.33384859561920166
 31
0.6890578866004944
 12
-0.3069821000099182
 22
0.37523677945137024
 32
0.6890578866004944
 13
-0.3069821000099182
 23
0.37523677945137024
 33
0.6890578866004944
  0
3DFACE
  8
0
 10
-0.3069821000099182
 20
0.37523677945137024
 30
0.7203249931335449
 11
-0.3069821000099182
 21
0.37523677945137024
 31
0.6890578866004944
 12
-0.3483702838420868
 22
0.37523677945137024
 32
0.6890578866004944
 13
-0.3483702838420868
 23
0.37523677945137024
 33
0.6890578866004944
  0
3DFACE
  8
0
 10
0.3068297803401947
 20
0.37523671984672546
 30
0.7203249931335449
 11
0.3068297803401947
 21
0.37523671984672546
 31
0.6890578866004944
 12
0.3068297803401947
 22
0.3338485360145569
 32
0.6890578866004944
 13
0.3068297803401947
 23
0.3338485360145569
 33
0.6890578866004944
  0
3DFACE
  8
0
 10
0.3482179641723633
 20
0.37523671984672546
 30
0.7203249931335449
 11
0.3482179641723633
 21
0.37523671984672546
 31
0.6890578866004944
 12
0.3068297803401947
 22
0.37523671984672546
 32
0.6890578866004944
 13
0.3068297803401947
 23
0.37523671984672546
 33
0.6890578866004944
  0
3DFACE
  8
0
 10
0.3482179641723633
 20
0.37523671984672546
 30
0.6890578866004944
 11
0.3482179641723633
 21
0.3338485360145569
 31
0.6890578866004944
 12
0.3068297803401947
 22
0.3338485360145569
 32
0.6890578866004944
 13
0.3068297803401947
 23
0.3338485360145569
 33
0.6890578866004944
  0
3DFACE
  8
0
 10
-0.3069821000099182
 20
0.37523677945137024
 30
0.6890578866004944
 11
-0.3069821000099182
 21
0.33384859561920166
 31
0.6890578866004944
 12
-0.3483702838420868
 22
0.33384859561920166
 32
0.6890578866004944
 13
-0.3483702838420868
 23
0.33384859561920166
 33
0.6890578866004944
  0
3DFACE
  8
0
 10
0.3482179641723633
 20
0.3338485360145569
 30
0.7203249931335449
 11
0.3482179045677185
 21
-0.34789204597473145
 31
0.7203249931335449
 12
0.3482179045677185
 22
-0.34789204597473145
 32
0.6890578866004944
 13
0.3482179045677185
 23
-0.34789204597473145
 33
0.6890578866004944
  0
3DFACE
  8
0
 10
0.3482179641723633
 20
0.3338485360145569
 30
0.6890578866004944
 11
0.3482179045677185
 21
-0.34789204597473145
 31
0.6890578866004944
 12
0.3068297207355499
 22
-0.34789204597473145
 32
0.6890578866004944
 13
0.3068297207355499
 23
-0.34789204597473145
 33
0.6890578866004944
  0
3DFACE
  8
0
 10
0.3068297803401947
 20
0.3338485360145569
 30
0.6890578866004944
 11
0.3068297207355499
 21
-0.34789204597473145
 31
0.6890578866004944
 12
0.3068297207355499
 22
-0.34789204597473145
 32
0.7203249931335449
 13
0.3068297207355499
 23
-0.34789204597473145
 33
0.7203249931335449
  0
3DFACE
  8
0
 10
-0.3069821000099182
 20
0.33384859561920166
 30
0.6890578866004944
 11
-0.3069821298122406
 21
-0.34789198637008667
 31
0.6890578866004944
 12
-0.3483703136444092
 22
-0.34789198637008667
 32
0.6890578866004944
 13
-0.3483703136444092
 23
-0.34789198637008667
 33
0.6890578866004944
  0
3DFACE
  8
0
 10
-0.3483702838420868
 20
0.33384859561920166
 30
0.6890578866004944
 11
-0.3483703136444092
 21
-0.34789198637008667
 31
0.6890578866004944
 12
-0.3483703136444092
 22
-0.34789198637008667
 32
0.7203249931335449
 13
-0.3483703136444092
 23
-0.34789198637008667
 33
0.7203249931335449
  0
3DFACE
  8
0
 10
-0.3069821000099182
 20
0.33384859561920166
 30
0.7203249931335449
 11
-0.3069821298122406
 21
-0.34789198637008667
 31
0.7203249931335449
 12
-0.3069821298122406
 22
-0.34789198637008667
 32
0.6890578866004944
 13
-0.3069821298122406
 23
-0.34789198637008667
 33
0.6890578866004944
  0
3DFACE
  8
0
 10
-0.3483702838420868
 20
0.33384859561920166
 30
0.7203249931335449
 11
-0.3483703136444092
 21
-0.34789198637008667
 31
0.7203249931335449
 12
-0.3069821298122406
 22
-0.34789198637008667
 32
0.7203249931335449
 13
-0.3069821298122406
 23
-0.34789198637008667
 33
0.7203249931335449
  0
3DFACE
  8
0
 10
0.3068297803401947
 20
0.3338485360145569
 30
0.7203249931335449
 11
0.3068297207355499
 21
-0.34789204597473145
 31
0.7203249931335449
 12
0.3482179045677185
 22
-0.34789204597473145
 32
0.7203249931335449
 13
0.3482179045677185
 23
-0.34789204597473145
 33
0.7203249931335449
  0
3DFACE
  8
0
 10
-0.3069821298122406
 20
-0.34789198637008667
 30
0.6890578866004944
 11
-0.3066117465496063
 21
-0.355712890625
 31
0.6823520660400391
 12
-0.3483703136444092
 22
-0.355712890625
 32
0.6823520660400391
 13
-0.3483703136444092
 23
-0.355712890625
 33
0.6823520660400391
  0
3DFACE
  8
0
 10
0.3482179045677185
 20
-0.34789204597473145
 30
0.6890578866004944
 11
0.3482179045677185
 21
-0.3557129204273224
 31
0.6823520660400391
 12
0.3070676922798157
 22
-0.3557129204273224
 32
0.6823520660400391
 13
0.3070676922798157
 23
-0.3557129204273224
 33
0.6823520660400391
  0
3DFACE
  8
0
 10
0.3482179641723633
 20
0.37523671984672546
 30
0.7203249931335449
 11
0.39032918214797974
 21
0.37581363320350647
 31
0.7207608222961426
 12
0.39032918214797974
 22
0.37581363320350647
 32
0.6886220574378967
 13
0.39032918214797974
 23
0.37581363320350647
 33
0.6886220574378967
  0
3DFACE
  8
0
 10
0.3482179641723633
 20
0.3338485360145569
 30
0.6890578866004944
 11
0.39032918214797974
 21
0.33327165246009827
 31
0.6886220574378967
 12
0.39032918214797974
 22
0.33327165246009827
 32
0.7207608222961426
 13
0.39032918214797974
 23
0.33327165246009827
 33
0.7207608222961426
  0
3DFACE
  8
0
 10
-0.3483702838420868
 20
0.33384859561920166
 30
0.7203249931335449
 11
-0.39048147201538086
 21
0.33327168226242065
 31
0.7207608222961426
 12
-0.39048147201538086
 22
0.33327168226242065
 32
0.6886220574378967
 13
-0.39048147201538086
 23
0.33327168226242065
 33
0.6886220574378967
  0
3DFACE
  8
0
 10
-0.3483702838420868
 20
0.37523677945137024
 30
0.6890578866004944
 11
-0.39048147201538086
 21
0.37581369280815125
 31
0.6886220574378967
 12
-0.39048147201538086
 22
0.37581369280815125
 32
0.7207608222961426
 13
-0.39048147201538086
 23
0.37581369280815125
 33
0.7207608222961426
  0
3DFACE
  8
0
 10
0.39032918214797974
 20
0.33327165246009827
 30
0.7207608222961426
 11
0.39032918214797974
 21
0.33327165246009827
 31
0.6886220574378967
 12
0.39032918214797974
 22
0.37581363320350647
 32
0.6886220574378967
 13
0.39032918214797974
 23
0.37581363320350647
 33
0.6886220574378967
  0
3DFACE
  8
0
 10
-0.39048147201538086
 20
0.37581369280815125
 30
0.7207608222961426
 11
-0.39048147201538086
 21
0.37581369280815125
 31
0.6886220574378967
 12
-0.39048147201538086
 22
0.33327168226242065
 32
0.6886220574378967
 13
-0.39048147201538086
 23
0.33327168226242065
 33
0.6886220574378967
  0
3DFACE
  8
0
 10
-0.39048147201538086
 20
0.37581369280815125
 30
0.6886220574378967
 11
-0.3483702838420868
 21
0.37523677945137024
 31
0.6890578866004944
 12
-0.3483702540397644
 22
0.3844406008720398
 32
0.003652186831459403
 13
-0.3483702540397644
 23
0.3844406008720398
 33
0.003652186831459403
  0
3DFACE
  8
0
 10
-0.39048147201538086
 20
0.37581369280815125
 30
0.6886220574378967
 11
-0.39048147201538086
 21
0.3850174844264984
 31
0.003216339973732829
 12
-0.39048147201538086
 22
0.3424755036830902
 32
0.003216339973732829
 13
-0.39048147201538086
 23
0.3424755036830902
 33
0.003216339973732829
  0
3DFACE
  8
0
 10
-0.39048147201538086
 20
0.33327168226242065
 30
0.6886220574378967
 11
-0.39048147201538086
 21
0.3424755036830902
 31
0.003216339973732829
 12
-0.3483702540397644
 22
0.3430524170398712
 32
0.003652186831459403
 13
-0.3483702540397644
 23
0.3430524170398712
 33
0.003652186831459403
  0
3DFACE
  8
0
 10
0.39032918214797974
 20
0.33327165246009827
 30
0.6886220574378967
 11
0.3482179641723633
 21
0.3338485360145569
 31
0.6890578866004944
 12
0.34821799397468567
 22
0.34305235743522644
 32
0.003652186831459403
 13
0.34821799397468567
 23
0.34305235743522644
 33
0.003652186831459403
  0
3DFACE
  8
0
 10
0.39032918214797974
 20
0.37581363320350647
 30
0.6886220574378967
 11
0.39032918214797974
 21
0.33327165246009827
 31
0.6886220574378967
 12
0.3903292119503021
 22
0.34247544407844543
 32
0.003216339973732829
 13
0.3903292119503021
 23
0.34247544407844543
 33
0.003216339973732829
  0
3DFACE
  8
0
 10
0.39032918214797974
 20
0.37581363320350647
 30
0.6886220574378967
 11
0.3903292119503021
 21
0.385017454624176
 31
0.003216339973732829
 12
0.34821799397468567
 22
0.3844405710697174
 32
0.003652186831459403
 13
0.34821799397468567
 23
0.3844405710697174
 33
0.003652186831459403
  0
3DFACE
  8
0
 10
0.3482179045677185
 20
-0.39018765091896057
 30
0.6815908551216125
 11
0.3482179343700409
 21
-0.3809838593006134
 31
-0.003814863273873925
 12
0.3482179343700409
 22
-0.3465091288089752
 32
-0.0030536178965121508
 13
0.3482179343700409
 23
-0.3465091288089752
 33
-0.0030536178965121508
  0
3DFACE
  8
0
 10
0.3070676922798157
 20
-0.3557129204273224
 30
0.6823520660400391
 11
0.3482179045677185
 21
-0.3557129204273224
 31
0.6823520660400391
 12
0.3482179343700409
 22
-0.3465091288089752
 32
-0.0030536178965121508
 13
0.3482179343700409
 23
-0.3465091288089752
 33
-0.0030536178965121508
  0
3DFACE
  8
0
 10
0.3070676922798157
 20
-0.39018765091896057
 30
0.6815908551216125
 11
0.3070676922798157
 21
-0.3557129204273224
 31
0.6823520660400391
 12
0.3070676922798157
 22
-0.3465091288089752
 32
-0.0030537087004631758
 13
0.3070676922798157
 23
-0.3465091288089752
 33
-0.0030537087004631758
  0
3DFACE
  8
0
 10
-0.3066117465496063
 20
-0.355712890625
 30
0.6823520660400391
 11
-0.3066117465496063
 21
-0.34650909900665283
 31
-0.0030536632984876633
 12
-0.3483702838420868
 22
-0.34650909900665283
 32
-0.0030536632984876633
 13
-0.3483702838420868
 23
-0.34650909900665283
 33
-0.0030536632984876633
  0
3DFACE
  8
0
 10
-0.3483703136444092
 20
-0.3901876211166382
 30
0.6815907955169678
 11
-0.3483703136444092
 21
-0.355712890625
 31
0.6823520660400391
 12
-0.3483702838420868
 22
-0.34650909900665283
 32
-0.0030536632984876633
 13
-0.3483702838420868
 23
-0.34650909900665283
 33
-0.0030536632984876633
  0
3DFACE
  8
0
 10
-0.3066117465496063
 20
-0.3901876211166382
 30
0.6815907955169678
 11
-0.3066117465496063
 21
-0.380983829498291
 31
-0.0038149086758494377
 12
-0.3066117465496063
 22
-0.34650909900665283
 32
-0.0030536632984876633
 13
-0.3066117465496063
 23
-0.34650909900665283
 33
-0.0030536632984876633
  0
3DFACE
  8
0
 10
-0.3483703136444092
 20
-0.3901876211166382
 30
0.6815907955169678
 11
-0.3483702838420868
 21
-0.380983829498291
 31
-0.0038149086758494377
 12
-0.3066117465496063
 22
-0.380983829498291
 32
-0.0038149086758494377
 13
-0.3066117465496063
 23
-0.380983829498291
 33
-0.0038149086758494377
  0
3DFACE
  8
0
 10
0.3070676922798157
 20
-0.39018765091896057
 30
0.6815908551216125
 11
0.3070676922798157
 21
-0.3809838593006134
 31
-0.0038149086758494377
 12
0.3482179343700409
 22
-0.3809838593006134
 32
-0.003814863273873925
 13
0.3482179343700409
 23
-0.3809838593006134
 33
-0.003814863273873925
  0
3DFACE
  8
0
 10
0.3482179641723633
 20
0.37523671984672546
 30
0.6890578866004944
 11
0.34821799397468567
 21
0.3844405710697174
 31
0.003652186831459403
 12
0.34821799397468567
 22
0.34305235743522644
 32
0.003652186831459403
 13
0.34821799397468567
 23
0.34305235743522644
 33
0.003652186831459403
  0
3DFACE
  8
0
 10
-0.3483702838420868
 20
0.37523677945137024
 30
0.6890578866004944
 11
-0.3483702838420868
 21
0.33384859561920166
 31
0.6890578866004944
 12
-0.3483702540397644
 22
0.3430524170398712
 32
0.003652186831459403
 13
-0.3483702540397644
 23
0.3430524170398712
 33
0.003652186831459403
  0
3DFACE
  8
0
 10
-0.3483702540397644
 20
0.3430524170398712
 30
0.003652186831459403
 11
-0.39048147201538086
 21
0.3424755036830902
 31
0.003216339973732829
 12
-0.39048147201538086
 22
0.3850174844264984
 32
0.003216339973732829
 13
-0.39048147201538086
 23
0.3850174844264984
 33
0.003216339973732829
  0
3DFACE
  8
0
 10
0.34821799397468567
 20
0.34305235743522644
 30
0.003652186831459403
 11
0.34821799397468567
 21
0.3844405710697174
 31
0.003652186831459403
 12
0.3903292119503021
 22
0.385017454624176
 32
0.003216339973732829
 13
0.3903292119503021
 23
0.385017454624176
 33
0.003216339973732829
  0
3DFACE
  8
0
 10
0.3482179343700409
 20
-0.3809838593006134
 30
-0.003814863273873925
 11
0.3070676922798157
 21
-0.3809838593006134
 31
-0.0038149086758494377
 12
0.3070676922798157
 22
-0.3465091288089752
 32
-0.0030537087004631758
 13
0.3070676922798157
 23
-0.3465091288089752
 33
-0.0030537087004631758
  0
3DFACE
  8
0
 10
-0.3483702838420868
 20
-0.380983829498291
 30
-0.0038149086758494377
 11
-0.3483702838420868
 21
-0.34650909900665283
 31
-0.0030536632984876633
 12
-0.3066117465496063
 22
-0.34650909900665283
 32
-0.0030536632984876633
 13
-0.3066117465496063
 23
-0.34650909900665283
 33
-0.0030536632984876633
  0
3DFACE
  8
0
 10
0.3068297207355499
 20
-0.37733450531959534
 30
0.7067777514457703
 11
0.3482179045677185
 21
-0.37733450531959534
 31
0.7067777514457703
 12
0.3482179045677185
 22
-0.34789204597473145
 32
0.7203249931335449
 13
0.3482179045677185
 23
-0.34789204597473145
 33
0.7203249931335449
  0
3DFACE
  8
0
 10
0.3070676922798157
 20
-0.39018765091896057
 30
0.6815908551216125
 11
0.3482179045677185
 21
-0.39018765091896057
 31
0.6815908551216125
 12
0.3482179045677185
 22
-0.37733450531959534
 32
0.7067777514457703
 13
0.3482179045677185
 23
-0.37733450531959534
 33
0.7067777514457703
  0
3DFACE
  8
0
 10
-0.3483703136444092
 20
-0.37733447551727295
 30
0.7067777514457703
 11
-0.3069821298122406
 21
-0.37733447551727295
 31
0.7067777514457703
 12
-0.3069821298122406
 22
-0.34789198637008667
 32
0.7203249931335449
 13
-0.3069821298122406
 23
-0.34789198637008667
 33
0.7203249931335449
  0
3DFACE
  8
0
 10
-0.3483703136444092
 20
-0.3901876211166382
 30
0.6815907955169678
 11
-0.3066117465496063
 21
-0.3901876211166382
 31
0.6815907955169678
 12
-0.3069821298122406
 22
-0.37733447551727295
 32
0.7067777514457703
 13
-0.3069821298122406
 23
-0.37733447551727295
 33
0.7067777514457703
  0
3DFACE
  8
0
 10
-0.3069821298122406
 20
-0.37733447551727295
 30
0.7067777514457703
 11
-0.3066117465496063
 21
-0.355712890625
 31
0.6823520660400391
 12
-0.3069821298122406
 22
-0.34789198637008667
 32
0.6890578866004944
 13
-0.3069821298122406
 23
-0.34789198637008667
 33
0.6890578866004944
  0
3DFACE
  8
0
 10
-0.3069821298122406
 20
-0.34789198637008667
 30
0.7203249931335449
 11
-0.3069821298122406
 21
-0.37733447551727295
 31
0.7067777514457703
 12
-0.3069821298122406
 22
-0.34789198637008667
 32
0.6890578866004944
 13
-0.3069821298122406
 23
-0.34789198637008667
 33
0.6890578866004944
  0
3DFACE
  8
0
 10
-0.3069821298122406
 20
-0.37733447551727295
 30
0.7067777514457703
 11
-0.3066117465496063
 21
-0.3901876211166382
 31
0.6815907955169678
 12
-0.3066117465496063
 22
-0.355712890625
 32
0.6823520660400391
 13
-0.3066117465496063
 23
-0.355712890625
 33
0.6823520660400391
  0
3DFACE
  8
0
 10
-0.3483703136444092
 20
-0.37733447551727295
 30
0.7067777514457703
 11
-0.3483703136444092
 21
-0.34789198637008667
 31
0.6890578866004944
 12
-0.3483703136444092
 22
-0.355712890625
 32
0.6823520660400391
 13
-0.3483703136444092
 23
-0.355712890625
 33
0.6823520660400391
  0
3DFACE
  8
0
 10
-0.3483703136444092
 20
-0.3901876211166382
 30
0.6815907955169678
 11
-0.3483703136444092
 21
-0.37733447551727295
 31
0.7067777514457703
 12
-0.3483703136444092
 22
-0.355712890625
 32
0.6823520660400391
 13
-0.3483703136444092
 23
-0.355712890625
 33
0.6823520660400391
  0
3DFACE
  8
0
 10
-0.3483703136444092
 20
-0.37733447551727295
 30
0.7067777514457703
 11
-0.3483703136444092
 21
-0.34789198637008667
 31
0.7203249931335449
 12
-0.3483703136444092
 22
-0.34789198637008667
 32
0.6890578866004944
 13
-0.3483703136444092
 23
-0.34789198637008667
 33
0.6890578866004944
  0
3DFACE
  8
0
 10
0.3068297207355499
 20
-0.37733450531959534
 30
0.7067777514457703
 11
0.3068297207355499
 21
-0.34789204597473145
 31
0.6890578866004944
 12
0.3070676922798157
 22
-0.3557129204273224
 32
0.6823520660400391
 13
0.3070676922798157
 23
-0.3557129204273224
 33
0.6823520660400391
  0
3DFACE
  8
0
 10
0.3070676922798157
 20
-0.39018765091896057
 30
0.6815908551216125
 11
0.3068297207355499
 21
-0.37733450531959534
 31
0.7067777514457703
 12
0.3070676922798157
 22
-0.3557129204273224
 32
0.6823520660400391
 13
0.3070676922798157
 23
-0.3557129204273224
 33
0.6823520660400391
  0
3DFACE
  8
0
 10
0.3068297207355499
 20
-0.37733450531959534
 30
0.7067777514457703
 11
0.3068297207355499
 21
-0.34789204597473145
 31
0.7203249931335449
 12
0.3068297207355499
 22
-0.34789204597473145
 32
0.6890578866004944
 13
0.3068297207355499
 23
-0.34789204597473145
 33
0.6890578866004944
  0
3DFACE
  8
0
 10
0.3482179045677185
 20
-0.37733450531959534
 30
0.7067777514457703
 11
0.3482179045677185
 21
-0.3557129204273224
 31
0.6823520660400391
 12
0.3482179045677185
 22
-0.34789204597473145
 32
0.6890578866004944
 13
0.3482179045677185
 23
-0.34789204597473145
 33
0.6890578866004944
  0
3DFACE
  8
0
 10
0.3482179045677185
 20
-0.34789204597473145
 30
0.7203249931335449
 11
0.3482179045677185
 21
-0.37733450531959534
 31
0.7067777514457703
 12
0.3482179045677185
 22
-0.34789204597473145
 32
0.6890578866004944
 13
0.3482179045677185
 23
-0.34789204597473145
 33
0.6890578866004944
  0
3DFACE
  8
0
 10
0.3482179045677185
 20
-0.37733450531959534
 30
0.7067777514457703
 11
0.3482179045677185
 21
-0.39018765091896057
 31
0.6815908551216125
 12
0.3482179045677185
 22
-0.3557129204273224
 32
0.6823520660400391
 13
0.3482179045677185
 23
-0.3557129204273224
 33
0.6823520660400391
  0
3DFACE
  8
0
 10
0.39032918214797974
 20
0.37581363320350647
 30
0.7207608222961426
 11
0.39032918214797974
 21
0.37581363320350647
 31
1.1649397611618042
 12
0.39032918214797974
 22
0.33327165246009827
 32
1.1649397611618042
 13
0.39032918214797974
 23
0.33327165246009827
 33
1.1649397611618042
  0
3DFACE
  8
0
 10
-0.39048147201538086
 20
0.33327168226242065
 30
0.7207608222961426
 11
-0.39048147201538086
 21
0.33327168226242065
 31
1.1649397611618042
 12
-0.39048147201538086
 22
0.37581369280815125
 32
1.1649397611618042
 13
-0.39048147201538086
 23
0.37581369280815125
 33
1.1649397611618042
  0
3DFACE
  8
0
 10
-0.39048147201538086
 20
0.37581369280815125
 30
0.7207608222961426
 11
-0.39048147201538086
 21
0.37581369280815125
 31
1.1649397611618042
 12
-0.3483702838420868
 22
0.37523677945137024
 32
1.1649397611618042
 13
-0.3483702838420868
 23
0.37523677945137024
 33
1.1649397611618042
  0
3DFACE
  8
0
 10
-0.39048147201538086
 20
0.33327168226242065
 30
0.7207608222961426
 11
-0.3483702838420868
 21
0.33384859561920166
 31
0.7203249931335449
 12
-0.3483702838420868
 22
0.33384859561920166
 32
1.1649397611618042
 13
-0.3483702838420868
 23
0.33384859561920166
 33
1.1649397611618042
  0
3DFACE
  8
0
 10
0.39032918214797974
 20
0.33327165246009827
 30
0.7207608222961426
 11
0.39032918214797974
 21
0.33327165246009827
 31
1.1649397611618042
 12
0.3482179641723633
 22
0.3338485360145569
 32
1.1649397611618042
 13
0.3482179641723633
 23
0.3338485360145569
 33
1.1649397611618042
  0
3DFACE
  8
0
 10
0.39032918214797974
 20
0.37581363320350647
 30
0.7207608222961426
 11
0.3482179641723633
 21
0.37523671984672546
 31
0.7203249931335449
 12
0.3482179641723633
 22
0.37523671984672546
 32
1.1649397611618042
 13
0.3482179641723633
 23
0.37523671984672546
 33
1.1649397611618042
  0
3DFACE
  8
0
 10
-0.3483702838420868
 20
0.37523677945137024
 30
0.7203249931335449
 11
-0.3483702838420868
 21
0.37523677945137024
 31
1.1649397611618042
 12
-0.3483702838420868
 22
0.33384859561920166
 32
1.1649397611618042
 13
-0.3483702838420868
 23
0.33384859561920166
 33
1.1649397611618042
  0
3DFACE
  8
0
 10
0.3482179641723633
 20
0.3338485360145569
 30
0.7203249931335449
 11
0.3482179641723633
 21
0.3338485360145569
 31
1.1649397611618042
 12
0.3482179641723633
 22
0.37523671984672546
 32
1.1649397611618042
 13
0.3482179641723633
 23
0.37523671984672546
 33
1.1649397611618042
  0
3DFACE
  8
0
 10
0.369523823261261
 20
-0.38924354314804077
 30
0.7089248299598694
 11
0.369523823261261
 21
-0.4063587188720703
 31
0.6831860542297363
 12
-0.36395251750946045
 22
-0.40635859966278076
 32
0.6831861734390259
 13
-0.36395251750946045
 23
-0.40635859966278076
 33
0.6831861734390259
  0
3DFACE
  8
0
 10
0.369523823261261
 20
-0.38924354314804077
 30
0.7089248299598694
 11
0.369523823261261
 21
-0.4018993377685547
 31
0.724370002746582
 12
0.369523823261261
 22
-0.4238201081752777
 32
0.6941211223602295
 13
0.369523823261261
 23
-0.4238201081752777
 33
0.6941211223602295
  0
3DFACE
  8
0
 10
-0.36395251750946045
 20
-0.38924336433410645
 30
0.7089249491691589
 11
-0.36395251750946045
 21
-0.40635859966278076
 31
0.6831861734390259
 12
-0.36395251750946045
 22
-0.423819899559021
 32
0.6941211819648743
 13
-0.36395251750946045
 23
-0.423819899559021
 33
0.6941211819648743
  0
3DFACE
  8
0
 10
-0.36395251750946045
 20
-0.40189915895462036
 30
0.7243700623512268
 11
-0.36395251750946045
 21
-0.423819899559021
 31
0.6941211819648743
 12
0.369523823261261
 22
-0.4238201081752777
 32
0.6941211223602295
 13
0.369523823261261
 23
-0.4238201081752777
 33
0.6941211223602295
  0
3DFACE
  8
0
 10
-0.36395251750946045
 20
-0.423819899559021
 30
0.6941211819648743
 11
-0.36395251750946045
 21
-0.40635859966278076
 31
0.6831861734390259
 12
0.369523823261261
 22
-0.4063587188720703
 32
0.6831860542297363
 13
0.369523823261261
 23
-0.4063587188720703
 33
0.6831860542297363
  0
3DFACE
  8
0
 10
-0.11117544025182724
 20
0.4132922291755676
 30
1.436763882637024
 11
-0.11117543280124664
 21
0.4526033401489258
 31
1.436763882637024
 12
-0.2856524586677551
 22
0.4007309079170227
 32
1.3921643495559692
 13
-0.2856524586677551
 23
0.4007309079170227
 33
1.3921643495559692
  0
3DFACE
  8
0
 10
0.10886743664741516
 20
0.4132922291755676
 30
1.436763882637024
 11
0.10886745154857635
 21
0.4526033401489258
 31
1.436763882637024
 12
-0.11117543280124664
 22
0.4526033401489258
 32
1.436763882637024
 13
-0.11117543280124664
 23
0.4526033401489258
 33
1.436763882637024
  0
3DFACE
  8
0
 10
0.10886743664741516
 20
0.4132922291755676
 30
1.436763882637024
 11
0.28334447741508484
 21
0.3614197373390198
 31
1.3921643495559692
 12
0.28334447741508484
 22
0.40073084831237793
 32
1.3921643495559692
 13
0.28334447741508484
 23
0.40073084831237793
 33
1.3921643495559692
  0
3DFACE
  8
0
 10
0.10886742174625397
 20
0.41329216957092285
 30
0.893115758895874
 11
0.10886742174625397
 21
0.452603280544281
 31
0.893115758895874
 12
0.3409629166126251
 22
0.37383589148521423
 32
0.893115758895874
 13
0.3409629166126251
 23
0.37383589148521423
 33
0.893115758895874
  0
3DFACE
  8
0
 10
-0.11117547005414963
 20
0.41329216957092285
 30
0.893115758895874
 11
-0.11117547005414963
 21
0.452603280544281
 31
0.893115758895874
 12
0.10886742174625397
 22
0.452603280544281
 32
0.893115758895874
 13
0.10886742174625397
 23
0.452603280544281
 33
0.893115758895874
  0
3DFACE
  8
0
 10
-0.11117547005414963
 20
0.41329216957092285
 30
0.893115758895874
 11
-0.3432709872722626
 21
0.33452484011650085
 31
0.893115758895874
 12
-0.3432709872722626
 22
0.3738359212875366
 32
0.893115758895874
 13
-0.3432709872722626
 23
0.3738359212875366
 33
0.893115758895874
  0
3DFACE
  8
0
 10
-0.35702747106552124
 20
0.3439079523086548
 30
0.7759326696395874
 11
0.3482482433319092
 21
0.34390783309936523
 31
0.7759326696395874
 12
0.32966160774230957
 22
0.3330276906490326
 32
0.7490136027336121
 13
0.32966160774230957
 23
0.3330276906490326
 33
0.7490136027336121
  0
3DFACE
  8
0
 10
-0.35702747106552124
 20
0.3439079523086548
 30
0.7759326696395874
 11
-0.3384409546852112
 21
0.3297375440597534
 31
0.8028517365455627
 12
0.32966160774230957
 22
0.3297373950481415
 32
0.8028517365455627
 13
0.32966160774230957
 23
0.3297373950481415
 33
0.8028517365455627
  0
3DFACE
  8
0
 10
0.3482479751110077
 20
-0.39939290285110474
 30
0.7759326696395874
 11
-0.3570276200771332
 21
-0.3993927538394928
 31
0.7759326696395874
 12
-0.33844101428985596
 22
-0.38851267099380493
 32
0.7490136027336121
 13
-0.33844101428985596
 23
-0.38851267099380493
 33
0.7490136027336121
  0
3DFACE
  8
0
 10
0.3482479751110077
 20
-0.39939290285110474
 30
0.7759326696395874
 11
0.32966145873069763
 21
-0.38522249460220337
 31
0.8028517365455627
 12
-0.33844101428985596
 22
-0.3852223753929138
 32
0.8028517365455627
 13
-0.33844101428985596
 23
-0.3852223753929138
 33
0.8028517365455627
  0
3DFACE
  8
0
 10
0.28334447741508484
 20
0.3614197373390198
 30
1.3921643495559692
 11
0.3409629166126251
 21
0.33452481031417847
 31
1.1649397611618042
 12
0.3409629166126251
 22
0.37383589148521423
 32
1.1649397611618042
 13
0.3409629166126251
 23
0.37383589148521423
 33
1.1649397611618042
  0
3DFACE
  8
0
 10
0.3409629166126251
 20
0.3345247805118561
 30
0.893115758895874
 11
0.3409629166126251
 21
0.37383589148521423
 31
0.893115758895874
 12
0.3409629166126251
 22
0.37383589148521423
 32
1.1649397611618042
 13
0.3409629166126251
 23
0.37383589148521423
 33
1.1649397611618042
  0
3DFACE
  8
0
 10
-0.3432709574699402
 20
0.33452486991882324
 30
1.1649397611618042
 11
-0.3432709574699402
 21
0.3738359212875366
 31
1.1649397611618042
 12
-0.3432709872722626
 22
0.3738359212875366
 32
0.893115758895874
 13
-0.3432709872722626
 23
0.3738359212875366
 33
0.893115758895874
  0
3DFACE
  8
0
 10
-0.2856524586677551
 20
0.36141979694366455
 30
1.3921643495559692
 11
-0.2856524586677551
 21
0.4007309079170227
 31
1.3921643495559692
 12
-0.3432709574699402
 22
0.3738359212875366
 32
1.1649397611618042
 13
-0.3432709574699402
 23
0.3738359212875366
 33
1.1649397611618042
  0
3DFACE
  8
0
 10
-0.11117547005414963
 20
0.41329216957092285
 30
0.893115758895874
 11
-0.11117545515298843
 21
0.41329216957092285
 31
1.1649397611618042
 12
-0.3432709574699402
 22
0.33452486991882324
 32
1.1649397611618042
 13
-0.3432709574699402
 23
0.33452486991882324
 33
1.1649397611618042
  0
3DFACE
  8
0
 10
-0.11117545515298843
 20
0.41329216957092285
 30
1.1649397611618042
 11
-0.11117544025182724
 21
0.4132922291755676
 31
1.436763882637024
 12
-0.2856524586677551
 22
0.36141979694366455
 32
1.3921643495559692
 13
-0.2856524586677551
 23
0.36141979694366455
 33
1.3921643495559692
  0
3DFACE
  8
0
 10
0.10886742174625397
 20
0.41329216957092285
 30
1.1649397611618042
 11
-0.11117545515298843
 21
0.41329216957092285
 31
1.1649397611618042
 12
-0.11117547005414963
 22
0.41329216957092285
 32
0.893115758895874
 13
-0.11117547005414963
 23
0.41329216957092285
 33
0.893115758895874
  0
3DFACE
  8
0
 10
0.10886742174625397
 20
0.41329216957092285
 30
1.1649397611618042
 11
0.10886743664741516
 21
0.4132922291755676
 31
1.436763882637024
 12
-0.11117544025182724
 22
0.4132922291755676
 32
1.436763882637024
 13
-0.11117544025182724
 23
0.4132922291755676
 33
1.436763882637024
  0
3DFACE
  8
0
 10
0.3409629166126251
 20
0.33452481031417847
 30
1.1649397611618042
 11
0.10886742174625397
 21
0.41329216957092285
 31
1.1649397611618042
 12
0.10886742174625397
 22
0.41329216957092285
 32
0.893115758895874
 13
0.10886742174625397
 23
0.41329216957092285
 33
0.893115758895874
  0
3DFACE
  8
0
 10
0.28334447741508484
 20
0.3614197373390198
 30
1.3921643495559692
 11
0.10886743664741516
 21
0.4132922291755676
 31
1.436763882637024
 12
0.10886742174625397
 22
0.41329216957092285
 32
1.1649397611618042
 13
0.10886742174625397
 23
0.41329216957092285
 33
1.1649397611618042
  0
3DFACE
  8
0
 10
0.10886743664741516
 20
0.452603280544281
 30
1.1649397611618042
 11
0.3409629166126251
 21
0.37383589148521423
 31
1.1649397611618042
 12
0.3409629166126251
 22
0.37383589148521423
 32
0.893115758895874
 13
0.3409629166126251
 23
0.37383589148521423
 33
0.893115758895874
  0
3DFACE
  8
0
 10
0.10886743664741516
 20
0.452603280544281
 30
1.1649397611618042
 11
0.10886745154857635
 21
0.4526033401489258
 31
1.436763882637024
 12
0.28334447741508484
 22
0.40073084831237793
 32
1.3921643495559692
 13
0.28334447741508484
 23
0.40073084831237793
 33
1.3921643495559692
  0
3DFACE
  8
0
 10
-0.11117544025182724
 20
0.452603280544281
 30
1.1649397611618042
 11
0.10886743664741516
 21
0.452603280544281
 31
1.1649397611618042
 12
0.10886742174625397
 22
0.452603280544281
 32
0.893115758895874
 13
0.10886742174625397
 23
0.452603280544281
 33
0.893115758895874
  0
3DFACE
  8
0
 10
-0.11117543280124664
 20
0.4526033401489258
 30
1.436763882637024
 11
0.10886745154857635
 21
0.4526033401489258
 31
1.436763882637024
 12
0.10886743664741516
 22
0.452603280544281
 32
1.1649397611618042
 13
0.10886743664741516
 23
0.452603280544281
 33
1.1649397611618042
  0
3DFACE
  8
0
 10
-0.3432709574699402
 20
0.3738359212875366
 30
1.1649397611618042
 11
-0.11117544025182724
 21
0.452603280544281
 31
1.1649397611618042
 12
-0.11117547005414963
 22
0.452603280544281
 32
0.893115758895874
 13
-0.11117547005414963
 23
0.452603280544281
 33
0.893115758895874
  0
3DFACE
  8
0
 10
-0.2856524586677551
 20
0.4007309079170227
 30
1.3921643495559692
 11
-0.11117543280124664
 21
0.4526033401489258
 31
1.436763882637024
 12
-0.11117544025182724
 22
0.452603280544281
 32
1.1649397611618042
 13
-0.11117544025182724
 23
0.452603280544281
 33
1.1649397611618042
  0
3DFACE
  8
0
 10
0.3070676922798157
 20
-0.38913699984550476
 30
0.644483745098114
 11
-0.3066117465496063
 21
-0.3891369700431824
 31
0.644483745098114
 12
-0.3066117465496063
 22
-0.3578307032585144
 32
0.644483745098114
 13
-0.3066117465496063
 23
-0.3578307032585144
 33
0.644483745098114
  0
3DFACE
  8
0
 10
0.3070676922798157
 20
-0.3578307628631592
 30
0.644483745098114
 11
-0.3066117465496063
 21
-0.3578307032585144
 31
0.644483745098114
 12
-0.3066117465496063
 22
-0.3578307032585144
 32
0.6737868189811707
 13
-0.3066117465496063
 23
-0.3578307032585144
 33
0.6737868189811707
  0
3DFACE
  8
0
 10
0.3070676922798157
 20
-0.38913699984550476
 30
0.6737868189811707
 11
-0.3066117465496063
 21
-0.3891369700431824
 31
0.6737868189811707
 12
-0.3066117465496063
 22
-0.3891369700431824
 32
0.644483745098114
 13
-0.3066117465496063
 23
-0.3891369700431824
 33
0.644483745098114
  0
3DFACE
  8
0
 10
0.3070676922798157
 20
-0.3578307628631592
 30
0.6737868189811707
 11
-0.3066117465496063
 21
-0.3578307032585144
 31
0.6737868189811707
 12
-0.3066117465496063
 22
-0.3891369700431824
 32
0.6737868189811707
 13
-0.3066117465496063
 23
-0.3891369700431824
 33
0.6737868189811707
  0
3DFACE
  8
0
 10
0.34888172149658203
 20
0.36057761311531067
 30
1.0607589483261108
 11
0.34888172149658203
 21
0.36057761311531067
 31
1.1570675373077393
 12
0.3112412393093109
 22
0.3745252788066864
 32
1.1570675373077393
 13
0.3112412393093109
 23
0.3745252788066864
 33
1.1570675373077393
  0
3DFACE
  8
0
 10
-0.3113935589790344
 20
0.3745253086090088
 30
1.1570675373077393
 11
-0.34903401136398315
 21
0.36057767271995544
 31
1.1570675373077393
 12
-0.34903401136398315
 22
0.36057767271995544
 32
1.0607589483261108
 13
-0.34903401136398315
 23
0.36057767271995544
 33
1.0607589483261108
  0
3DFACE
  8
0
 10
0.3112412393093109
 20
0.3745252788066864
 30
1.060664415359497
 11
0.3112412393093109
 21
0.4000295102596283
 31
1.060664415359497
 12
0.34888172149658203
 22
0.3860817849636078
 32
1.0607589483261108
 13
0.34888172149658203
 23
0.3860817849636078
 33
1.0607589483261108
  0
3DFACE
  8
0
 10
-0.34903401136398315
 20
0.38608184456825256
 30
1.0607589483261108
 11
-0.3113935589790344
 21
0.40002956986427307
 31
1.060664415359497
 12
-0.3113935589790344
 22
0.3745253086090088
 32
1.060664415359497
 13
-0.3113935589790344
 23
0.3745253086090088
 33
1.060664415359497
  0
3DFACE
  8
0
 10
0.34888172149658203
 20
0.3860817849636078
 30
1.0607589483261108
 11
0.34888172149658203
 21
0.3860817849636078
 31
1.1570675373077393
 12
0.34888172149658203
 22
0.36057761311531067
 32
1.1570675373077393
 13
0.34888172149658203
 23
0.36057761311531067
 33
1.1570675373077393
  0
3DFACE
  8
0
 10
-0.34903401136398315
 20
0.38608184456825256
 30
1.1570675373077393
 11
-0.34903401136398315
 21
0.38608184456825256
 31
1.0607589483261108
 12
-0.34903401136398315
 22
0.36057767271995544
 32
1.0607589483261108
 13
-0.34903401136398315
 23
0.36057767271995544
 33
1.0607589483261108
  0
3DFACE
  8
0
 10
-0.3113935589790344
 20
0.3745253086090088
 30
1.1570675373077393
 11
-0.3113935589790344
 21
0.40002956986427307
 31
1.1570675373077393
 12
-0.34903401136398315
 22
0.38608184456825256
 32
1.1570675373077393
 13
-0.34903401136398315
 23
0.38608184456825256
 33
1.1570675373077393
  0
3DFACE
  8
0
 10
-0.3113935589790344
 20
0.40002956986427307
 30
1.060664415359497
 11
-0.3113935589790344
 21
0.40002956986427307
 31
1.1570675373077393
 12
-0.3113935589790344
 22
0.3745253086090088
 32
1.1570675373077393
 13
-0.3113935589790344
 23
0.3745253086090088
 33
1.1570675373077393
  0
3DFACE
  8
0
 10
0.3112412393093109
 20
0.4000295102596283
 30
1.1570675373077393
 11
0.3112412393093109
 21
0.4000295102596283
 31
1.060664415359497
 12
0.3112412393093109
 22
0.3745252788066864
 32
1.060664415359497
 13
0.3112412393093109
 23
0.3745252788066864
 33
1.060664415359497
  0
3DFACE
  8
0
 10
0.34888172149658203
 20
0.3860817849636078
 30
1.1570675373077393
 11
0.3112412393093109
 21
0.4000295102596283
 31
1.1570675373077393
 12
0.3112412393093109
 22
0.3745252788066864
 32
1.1570675373077393
 13
0.3112412393093109
 23
0.3745252788066864
 33
1.1570675373077393
  0
3DFACE
  8
0
 10
-0.3113935589790344
 20
0.40002956986427307
 30
1.1570675373077393
 11
-0.3113935589790344
 21
0.40002956986427307
 31
1.060664415359497
 12
-0.34903401136398315
 22
0.38608184456825256
 32
1.0607589483261108
 13
-0.34903401136398315
 23
0.38608184456825256
 33
1.0607589483261108
  0
3DFACE
  8
0
 10
0.34888172149658203
 20
0.3860817849636078
 30
1.0607589483261108
 11
0.3112412393093109
 21
0.4000295102596283
 31
1.060664415359497
 12
0.3112412393093109
 22
0.4000295102596283
 32
1.1570675373077393
 13
0.3112412393093109
 23
0.4000295102596283
 33
1.1570675373077393
  0
3DFACE
  8
0
 10
-0.3483702838420868
 20
0.37523677945137024
 30
1.1649397611618042
 11
-0.3518795371055603
 21
0.371835857629776
 31
1.1738609075546265
 12
-0.3518795371055603
 22
0.3372495472431183
 32
1.1738609075546265
 13
-0.3518795371055603
 23
0.3372495472431183
 33
1.1738609075546265
  0
3DFACE
  8
0
 10
-0.38697221875190735
 20
0.3722204267978668
 30
1.1738609075546265
 11
-0.3518795371055603
 21
0.371835857629776
 31
1.1738609075546265
 12
-0.3483702838420868
 22
0.37523677945137024
 32
1.1649397611618042
 13
-0.3483702838420868
 23
0.37523677945137024
 33
1.1649397611618042
  0
3DFACE
  8
0
 10
-0.38697221875190735
 20
0.3368649482727051
 30
1.1738609075546265
 11
-0.38697221875190735
 21
0.3722204267978668
 31
1.1738609075546265
 12
-0.39048147201538086
 22
0.37581369280815125
 32
1.1649397611618042
 13
-0.39048147201538086
 23
0.37581369280815125
 33
1.1649397611618042
  0
3DFACE
  8
0
 10
-0.3483702838420868
 20
0.33384859561920166
 30
1.1649397611618042
 11
-0.3518795371055603
 21
0.3372495472431183
 31
1.1738609075546265
 12
-0.38697221875190735
 22
0.3368649482727051
 32
1.1738609075546265
 13
-0.38697221875190735
 23
0.3368649482727051
 33
1.1738609075546265
  0
3DFACE
  8
0
 10
-0.3518795371055603
 20
0.3372495472431183
 30
1.1738609075546265
 11
-0.3518795371055603
 21
0.371835857629776
 31
1.1738609075546265
 12
-0.38697221875190735
 22
0.3722204267978668
 32
1.1738609075546265
 13
-0.38697221875190735
 23
0.3722204267978668
 33
1.1738609075546265
  0
3DFACE
  8
0
 10
0.3517272472381592
 20
0.3372494876384735
 30
1.1738609075546265
 11
0.3517272472381592
 21
0.3718357980251312
 31
1.1738609075546265
 12
0.3482179641723633
 22
0.37523671984672546
 32
1.1649397611618042
 13
0.3482179641723633
 23
0.37523671984672546
 33
1.1649397611618042
  0
3DFACE
  8
0
 10
0.3868199288845062
 20
0.3368648886680603
 30
1.1738609075546265
 11
0.3517272472381592
 21
0.3372494876384735
 31
1.1738609075546265
 12
0.3482179641723633
 22
0.3338485360145569
 32
1.1649397611618042
 13
0.3482179641723633
 23
0.3338485360145569
 33
1.1649397611618042
  0
3DFACE
  8
0
 10
0.3868199288845062
 20
0.37222039699554443
 30
1.1738609075546265
 11
0.3868199288845062
 21
0.3368648886680603
 31
1.1738609075546265
 12
0.39032918214797974
 22
0.33327165246009827
 32
1.1649397611618042
 13
0.39032918214797974
 23
0.33327165246009827
 33
1.1649397611618042
  0
3DFACE
  8
0
 10
0.3482179641723633
 20
0.37523671984672546
 30
1.1649397611618042
 11
0.3517272472381592
 21
0.3718357980251312
 31
1.1738609075546265
 12
0.3868199288845062
 22
0.37222039699554443
 32
1.1738609075546265
 13
0.3868199288845062
 23
0.37222039699554443
 33
1.1738609075546265
  0
3DFACE
  8
0
 10
0.3517272472381592
 20
0.3372494876384735
 30
1.1738609075546265
 11
0.3868199288845062
 21
0.3368648886680603
 31
1.1738609075546265
 12
0.3868199288845062
 22
0.37222039699554443
 32
1.1738609075546265
 13
0.3868199288845062
 23
0.37222039699554443
 33
1.1738609075546265
  0
3DFACE
  8
0
 10
-0.3619635999202728
 20
-0.293244868516922
 30
0.7505626082420349
 11
0.3531840443611145
 21
-0.2932450771331787
 31
0.7505626082420349
 12
0.32966142892837524
 22
-0.38851284980773926
 32
0.7490136027336121
 13
0.32966142892837524
 23
-0.38851284980773926
 33
0.7490136027336121
  0
3DFACE
  8
0
 10
-0.3619635999202728
 20
-0.293244868516922
 30
0.7505626082420349
 11
-0.36196351051330566
 21
0.26646190881729126
 31
0.7505626082420349
 12
0.35318413376808167
 22
0.2664618194103241
 32
0.7505626082420349
 13
0.35318413376808167
 23
0.2664618194103241
 33
0.7505626082420349
  0
3DFACE
  8
0
 10
-0.36196351051330566
 20
0.26646190881729126
 30
0.7505626082420349
 11
-0.33844098448753357
 21
0.3330278992652893
 31
0.7490136027336121
 12
0.32966160774230957
 22
0.3330276906490326
 32
0.7490136027336121
 13
0.32966160774230957
 23
0.3330276906490326
 33
0.7490136027336121
  0
3DFACE
  8
0
 10
-0.3619634807109833
 20
0.26390957832336426
 30
0.8023355007171631
 11
0.35318413376808167
 21
0.2639094293117523
 31
0.8023355007171631
 12
0.32966160774230957
 22
0.3297373950481415
 32
0.8028517365455627
 13
0.32966160774230957
 23
0.3297373950481415
 33
0.8028517365455627
  0
3DFACE
  8
0
 10
-0.3619635999202728
 20
-0.2906924784183502
 30
0.8023355007171631
 11
0.3531840443611145
 21
-0.29069268703460693
 31
0.8023355007171631
 12
0.35318413376808167
 22
0.2639094293117523
 32
0.8023355007171631
 13
0.35318413376808167
 23
0.2639094293117523
 33
0.8023355007171631
  0
3DFACE
  8
0
 10
-0.33844101428985596
 20
-0.3852223753929138
 30
0.8028517365455627
 11
0.32966145873069763
 21
-0.38522249460220337
 31
0.8028517365455627
 12
0.3531840443611145
 22
-0.29069268703460693
 32
0.8023355007171631
 13
0.3531840443611145
 23
-0.29069268703460693
 33
0.8023355007171631
  0
3DFACE
  8
0
 10
-0.3818589746952057
 20
-0.3016846477985382
 30
0.7764490246772766
 11
-0.3619635999202728
 21
-0.293244868516922
 31
0.7505626082420349
 12
-0.33844101428985596
 22
-0.38851267099380493
 32
0.7490136027336121
 13
-0.33844101428985596
 23
-0.38851267099380493
 33
0.7490136027336121
  0
3DFACE
  8
0
 10
-0.38185879588127136
 20
0.27490174770355225
 30
0.7764490246772766
 11
-0.36196351051330566
 21
0.26646190881729126
 31
0.7505626082420349
 12
-0.3619635999202728
 22
-0.293244868516922
 32
0.7505626082420349
 13
-0.3619635999202728
 23
-0.293244868516922
 33
0.7505626082420349
  0
3DFACE
  8
0
 10
-0.38185879588127136
 20
0.27490174770355225
 30
0.7764490246772766
 11
-0.35702747106552124
 21
0.3439079523086548
 31
0.7759326696395874
 12
-0.33844098448753357
 22
0.3330278992652893
 32
0.7490136027336121
 13
-0.33844098448753357
 23
0.3330278992652893
 33
0.7490136027336121
  0
3DFACE
  8
0
 10
-0.33844101428985596
 20
-0.3852223753929138
 30
0.8028517365455627
 11
-0.3619635999202728
 21
-0.2906924784183502
 31
0.8023355007171631
 12
-0.3818589746952057
 22
-0.3016846477985382
 32
0.7764490246772766
 13
-0.3818589746952057
 23
-0.3016846477985382
 33
0.7764490246772766
  0
3DFACE
  8
0
 10
-0.3619635999202728
 20
-0.2906924784183502
 30
0.8023355007171631
 11
-0.3619634807109833
 21
0.26390957832336426
 31
0.8023355007171631
 12
-0.38185879588127136
 22
0.27490174770355225
 32
0.7764490246772766
 13
-0.38185879588127136
 23
0.27490174770355225
 33
0.7764490246772766
  0
3DFACE
  8
0
 10
-0.3384409546852112
 20
0.3297375440597534
 30
0.8028517365455627
 11
-0.35702747106552124
 21
0.3439079523086548
 31
0.7759326696395874
 12
-0.38185879588127136
 22
0.27490174770355225
 32
0.7764490246772766
 13
-0.38185879588127136
 23
0.27490174770355225
 33
0.7764490246772766
  0
3DFACE
  8
0
 10
0.3730795085430145
 20
0.27490147948265076
 30
0.7764490246772766
 11
0.35318413376808167
 21
0.2664618194103241
 31
0.7505626082420349
 12
0.32966160774230957
 22
0.3330276906490326
 32
0.7490136027336121
 13
0.32966160774230957
 23
0.3330276906490326
 33
0.7490136027336121
  0
3DFACE
  8
0
 10
0.3730795085430145
 20
0.27490147948265076
 30
0.7764490246772766
 11
0.3730793297290802
 21
-0.3016849160194397
 31
0.7764490246772766
 12
0.3531840443611145
 22
-0.2932450771331787
 32
0.7505626082420349
 13
0.3531840443611145
 23
-0.2932450771331787
 33
0.7505626082420349
  0
3DFACE
  8
0
 10
0.3730793297290802
 20
-0.3016849160194397
 30
0.7764490246772766
 11
0.3482479751110077
 21
-0.39939290285110474
 31
0.7759326696395874
 12
0.32966142892837524
 22
-0.38851284980773926
 32
0.7490136027336121
 13
0.32966142892837524
 23
-0.38851284980773926
 33
0.7490136027336121
  0
3DFACE
  8
0
 10
0.32966160774230957
 20
0.3297373950481415
 30
0.8028517365455627
 11
0.35318413376808167
 21
0.2639094293117523
 31
0.8023355007171631
 12
0.3730795085430145
 22
0.27490147948265076
 32
0.7764490246772766
 13
0.3730795085430145
 23
0.27490147948265076
 33
0.7764490246772766
  0
3DFACE
  8
0
 10
0.3531840443611145
 20
-0.29069268703460693
 30
0.8023355007171631
 11
0.3730793297290802
 21
-0.3016849160194397
 31
0.7764490246772766
 12
0.3730795085430145
 22
0.27490147948265076
 32
0.7764490246772766
 13
0.3730795085430145
 23
0.27490147948265076
 33
0.7764490246772766
  0
3DFACE
  8
0
 10
0.32966145873069763
 20
-0.38522249460220337
 30
0.8028517365455627
 11
0.3482479751110077
 21
-0.39939290285110474
 31
0.7759326696395874
 12
0.3730793297290802
 22
-0.3016849160194397
 32
0.7764490246772766
 13
0.3730793297290802
 23
-0.3016849160194397
 33
0.7764490246772766
  0
3DFACE
  8
0
 10
-0.3483702540397644
 20
0.3430524170398712
 30
0.003652186831459403
 11
-0.39048147201538086
 21
0.3424755036830902
 31
0.003216339973732829
 12
-0.39048147201538086
 22
0.3850174844264984
 32
0.003216339973732829
 13
-0.39048147201538086
 23
0.3850174844264984
 33
0.003216339973732829
  0
3DFACE
  8
0
 10
0.34821799397468567
 20
0.34305235743522644
 30
0.003652186831459403
 11
0.34821799397468567
 21
0.3844405710697174
 31
0.003652186831459403
 12
0.3903292119503021
 22
0.385017454624176
 32
0.003216339973732829
 13
0.3903292119503021
 23
0.385017454624176
 33
0.003216339973732829
  0
3DFACE
  8
0
 10
0.3482179343700409
 20
-0.3809838593006134
 30
-0.003814863273873925
 11
0.3070676922798157
 21
-0.3809838593006134
 31
-0.0038149086758494377
 12
0.3070676922798157
 22
-0.3465091288089752
 32
-0.0030537087004631758
 13
0.3070676922798157
 23
-0.3465091288089752
 33
-0.0030537087004631758
  0
3DFACE
  8
0
 10
-0.3483702838420868
 20
-0.380983829498291
 30
-0.0038149086758494377
 11
-0.3483702838420868
 21
-0.34650909900665283
 31
-0.0030536632984876633
 12
-0.3066117465496063
 22
-0.34650909900665283
 32
-0.0030536632984876633
 13
-0.3066117465496063
 23
-0.34650909900665283
 33
-0.0030536632984876633
  0
3DFACE
  8
0
 10
0.36952394247055054
 20
0.3125426173210144
 30
0.7460497617721558
 11
-0.36395230889320374
 21
0.3125426471233368
 31
0.7460497617721558
 12
0.369523823261261
 22
-0.3536767363548279
 32
0.7460497617721558
 13
0.369523823261261
 23
-0.3536767363548279
 33
0.7460497617721558
  0
3DFACE
  8
0
 10
0.369523823261261
 20
-0.3536767363548279
 30
0.7460497617721558
 11
-0.3639524281024933
 21
-0.35367658734321594
 31
0.7460497617721558
 12
0.369523823261261
 22
-0.4018993377685547
 32
0.724370002746582
 13
0.369523823261261
 23
-0.4018993377685547
 33
0.724370002746582
  0
3DFACE
  8
0
 10
-0.36395251750946045
 20
-0.38924336433410645
 30
0.7089249491691589
 11
-0.36395251750946045
 21
-0.40189915895462036
 31
0.7243700623512268
 12
-0.3639524281024933
 22
-0.35367658734321594
 32
0.726808488368988
 13
-0.3639524281024933
 23
-0.35367658734321594
 33
0.726808488368988
  0
3DFACE
  8
0
 10
-0.3639524281024933
 20
-0.35367658734321594
 30
0.7460497617721558
 11
-0.36395230889320374
 21
0.3125426471233368
 31
0.7460497617721558
 12
-0.3639524281024933
 22
-0.35367658734321594
 32
0.726808488368988
 13
-0.3639524281024933
 23
-0.35367658734321594
 33
0.726808488368988
  0
3DFACE
  8
0
 10
0.369523823261261
 20
-0.3536767363548279
 30
0.7460497617721558
 11
0.369523823261261
 21
-0.4018993377685547
 31
0.724370002746582
 12
0.369523823261261
 22
-0.3536767363548279
 32
0.726808488368988
 13
0.369523823261261
 23
-0.3536767363548279
 33
0.726808488368988
  0
3DFACE
  8
0
 10
0.36952394247055054
 20
0.3125426173210144
 30
0.7460497617721558
 11
0.369523823261261
 21
-0.3536767363548279
 31
0.7460497617721558
 12
0.36952394247055054
 22
0.3125426173210144
 32
0.726808488368988
 13
0.36952394247055054
 23
0.3125426173210144
 33
0.726808488368988
  0
3DFACE
  8
0
 10
-0.36395230889320374
 20
0.3125426471233368
 30
0.7460497617721558
 11
0.36952394247055054
 21
0.3125426173210144
 31
0.7460497617721558
 12
-0.36395230889320374
 22
0.3125426471233368
 32
0.726808488368988
 13
-0.36395230889320374
 23
0.3125426471233368
 33
0.726808488368988
  0
3DFACE
  8
0
 10
0.369523823261261
 20
-0.3536767363548279
 30
0.726808488368988
 11
0.369523823261261
 21
-0.38924354314804077
 31
0.7089248299598694
 12
-0.3639524281024933
 22
-0.35367658734321594
 32
0.726808488368988
 13
-0.3639524281024933
 23
-0.35367658734321594
 33
0.726808488368988
  0
3DFACE
  8
0
 10
0.36952394247055054
 20
0.3125426173210144
 30
0.726808488368988
 11
0.369523823261261
 21
-0.3536767363548279
 31
0.726808488368988
 12
-0.36395230889320374
 22
0.3125426471233368
 32
0.726808488368988
 13
-0.36395230889320374
 23
0.3125426471233368
 33
0.726808488368988
  0
3DFACE
  8
0
 10
0.3482179641723633
 20
0.3338485360145569
 30
0.7203249931335449
 11
0.3482179641723633
 21
0.37523671984672546
 31
0.7203249931335449
 12
0.3068297803401947
 22
0.3338485360145569
 32
0.7203249931335449
 13
0.3068297803401947
 23
0.3338485360145569
 33
0.7203249931335449
  0
3DFACE
  8
0
 10
-0.3069821000099182
 20
0.33384859561920166
 30
0.7203249931335449
 11
-0.3069821000099182
 21
0.37523677945137024
 31
0.7203249931335449
 12
-0.3483702838420868
 22
0.33384859561920166
 32
0.7203249931335449
 13
-0.3483702838420868
 23
0.33384859561920166
 33
0.7203249931335449
  0
3DFACE
  8
0
 10
-0.3069821000099182
 20
0.37523677945137024
 30
0.7203249931335449
 11
-0.3069821000099182
 21
0.33384859561920166
 31
0.7203249931335449
 12
-0.3069821000099182
 22
0.37523677945137024
 32
0.6890578866004944
 13
-0.3069821000099182
 23
0.37523677945137024
 33
0.6890578866004944
  0
3DFACE
  8
0
 10
-0.3483702838420868
 20
0.37523677945137024
 30
0.7203249931335449
 11
-0.3069821000099182
 21
0.37523677945137024
 31
0.7203249931335449
 12
-0.3483702838420868
 22
0.37523677945137024
 32
0.6890578866004944
 13
-0.3483702838420868
 23
0.37523677945137024
 33
0.6890578866004944
  0
3DFACE
  8
0
 10
0.3068297803401947
 20
0.3338485360145569
 30
0.7203249931335449
 11
0.3068297803401947
 21
0.37523671984672546
 31
0.7203249931335449
 12
0.3068297803401947
 22
0.3338485360145569
 32
0.6890578866004944
 13
0.3068297803401947
 23
0.3338485360145569
 33
0.6890578866004944
  0
3DFACE
  8
0
 10
0.3068297803401947
 20
0.37523671984672546
 30
0.7203249931335449
 11
0.3482179641723633
 21
0.37523671984672546
 31
0.7203249931335449
 12
0.3068297803401947
 22
0.37523671984672546
 32
0.6890578866004944
 13
0.3068297803401947
 23
0.37523671984672546
 33
0.6890578866004944
  0
3DFACE
  8
0
 10
0.3068297803401947
 20
0.37523671984672546
 30
0.6890578866004944
 11
0.3482179641723633
 21
0.37523671984672546
 31
0.6890578866004944
 12
0.3068297803401947
 22
0.3338485360145569
 32
0.6890578866004944
 13
0.3068297803401947
 23
0.3338485360145569
 33
0.6890578866004944
  0
3DFACE
  8
0
 10
-0.3483702838420868
 20
0.37523677945137024
 30
0.6890578866004944
 11
-0.3069821000099182
 21
0.37523677945137024
 31
0.6890578866004944
 12
-0.3483702838420868
 22
0.33384859561920166
 32
0.6890578866004944
 13
-0.3483702838420868
 23
0.33384859561920166
 33
0.6890578866004944
  0
3DFACE
  8
0
 10
0.3482179641723633
 20
0.3338485360145569
 30
0.6890578866004944
 11
0.3482179641723633
 21
0.3338485360145569
 31
0.7203249931335449
 12
0.3482179045677185
 22
-0.34789204597473145
 32
0.6890578866004944
 13
0.3482179045677185
 23
-0.34789204597473145
 33
0.6890578866004944
  0
3DFACE
  8
0
 10
0.3068297803401947
 20
0.3338485360145569
 30
0.6890578866004944
 11
0.3482179641723633
 21
0.3338485360145569
 31
0.6890578866004944
 12
0.3068297207355499
 22
-0.34789204597473145
 32
0.6890578866004944
 13
0.3068297207355499
 23
-0.34789204597473145
 33
0.6890578866004944
  0
3DFACE
  8
0
 10
0.3068297803401947
 20
0.3338485360145569
 30
0.7203249931335449
 11
0.3068297803401947
 21
0.3338485360145569
 31
0.6890578866004944
 12
0.3068297207355499
 22
-0.34789204597473145
 32
0.7203249931335449
 13
0.3068297207355499
 23
-0.34789204597473145
 33
0.7203249931335449
  0
3DFACE
  8
0
 10
-0.3483702838420868
 20
0.33384859561920166
 30
0.6890578866004944
 11
-0.3069821000099182
 21
0.33384859561920166
 31
0.6890578866004944
 12
-0.3483703136444092
 22
-0.34789198637008667
 32
0.6890578866004944
 13
-0.3483703136444092
 23
-0.34789198637008667
 33
0.6890578866004944
  0
3DFACE
  8
0
 10
-0.3483702838420868
 20
0.33384859561920166
 30
0.7203249931335449
 11
-0.3483702838420868
 21
0.33384859561920166
 31
0.6890578866004944
 12
-0.3483703136444092
 22
-0.34789198637008667
 32
0.7203249931335449
 13
-0.3483703136444092
 23
-0.34789198637008667
 33
0.7203249931335449
  0
3DFACE
  8
0
 10
-0.3069821000099182
 20
0.33384859561920166
 30
0.6890578866004944
 11
-0.3069821000099182
 21
0.33384859561920166
 31
0.7203249931335449
 12
-0.3069821298122406
 22
-0.34789198637008667
 32
0.6890578866004944
 13
-0.3069821298122406
 23
-0.34789198637008667
 33
0.6890578866004944
  0
3DFACE
  8
0
 10
-0.3069821000099182
 20
0.33384859561920166
 30
0.7203249931335449
 11
-0.3483702838420868
 21
0.33384859561920166
 31
0.7203249931335449
 12
-0.3069821298122406
 22
-0.34789198637008667
 32
0.7203249931335449
 13
-0.3069821298122406
 23
-0.34789198637008667
 33
0.7203249931335449
  0
3DFACE
  8
0
 10
0.3482179641723633
 20
0.3338485360145569
 30
0.7203249931335449
 11
0.3068297803401947
 21
0.3338485360145569
 31
0.7203249931335449
 12
0.3482179045677185
 22
-0.34789204597473145
 32
0.7203249931335449
 13
0.3482179045677185
 23
-0.34789204597473145
 33
0.7203249931335449
  0
3DFACE
  8
0
 10
-0.3483703136444092
 20
-0.34789198637008667
 30
0.6890578866004944
 11
-0.3069821298122406
 21
-0.34789198637008667
 31
0.6890578866004944
 12
-0.3483703136444092
 22
-0.355712890625
 32
0.6823520660400391
 13
-0.3483703136444092
 23
-0.355712890625
 33
0.6823520660400391
  0
3DFACE
  8
0
 10
0.3068297207355499
 20
-0.34789204597473145
 30
0.6890578866004944
 11
0.3482179045677185
 21
-0.34789204597473145
 31
0.6890578866004944
 12
0.3070676922798157
 22
-0.3557129204273224
 32
0.6823520660400391
 13
0.3070676922798157
 23
-0.3557129204273224
 33
0.6823520660400391
  0
3DFACE
  8
0
 10
0.3482179641723633
 20
0.37523671984672546
 30
0.6890578866004944
 11
0.3482179641723633
 21
0.37523671984672546
 31
0.7203249931335449
 12
0.39032918214797974
 22
0.37581363320350647
 32
0.6886220574378967
 13
0.39032918214797974
 23
0.37581363320350647
 33
0.6886220574378967
  0
3DFACE
  8
0
 10
0.3482179641723633
 20
0.3338485360145569
 30
0.7203249931335449
 11
0.3482179641723633
 21
0.3338485360145569
 31
0.6890578866004944
 12
0.39032918214797974
 22
0.33327165246009827
 32
0.7207608222961426
 13
0.39032918214797974
 23
0.33327165246009827
 33
0.7207608222961426
  0
3DFACE
  8
0
 10
-0.3483702838420868
 20
0.33384859561920166
 30
0.6890578866004944
 11
-0.3483702838420868
 21
0.33384859561920166
 31
0.7203249931335449
 12
-0.39048147201538086
 22
0.33327168226242065
 32
0.6886220574378967
 13
-0.39048147201538086
 23
0.33327168226242065
 33
0.6886220574378967
  0
3DFACE
  8
0
 10
-0.3483702838420868
 20
0.37523677945137024
 30
0.7203249931335449
 11
-0.3483702838420868
 21
0.37523677945137024
 31
0.6890578866004944
 12
-0.39048147201538086
 22
0.37581369280815125
 32
0.7207608222961426
 13
-0.39048147201538086
 23
0.37581369280815125
 33
0.7207608222961426
  0
3DFACE
  8
0
 10
0.39032918214797974
 20
0.37581363320350647
 30
0.7207608222961426
 11
0.39032918214797974
 21
0.33327165246009827
 31
0.7207608222961426
 12
0.39032918214797974
 22
0.37581363320350647
 32
0.6886220574378967
 13
0.39032918214797974
 23
0.37581363320350647
 33
0.6886220574378967
  0
3DFACE
  8
0
 10
-0.39048147201538086
 20
0.33327168226242065
 30
0.7207608222961426
 11
-0.39048147201538086
 21
0.37581369280815125
 31
0.7207608222961426
 12
-0.39048147201538086
 22
0.33327168226242065
 32
0.6886220574378967
 13
-0.39048147201538086
 23
0.33327168226242065
 33
0.6886220574378967
  0
3DFACE
  8
0
 10
-0.39048147201538086
 20
0.3850174844264984
 30
0.003216339973732829
 11
-0.39048147201538086
 21
0.37581369280815125
 31
0.6886220574378967
 12
-0.3483702540397644
 22
0.3844406008720398
 32
0.003652186831459403
 13
-0.3483702540397644
 23
0.3844406008720398
 33
0.003652186831459403
  0
3DFACE
  8
0
 10
-0.39048147201538086
 20
0.33327168226242065
 30
0.6886220574378967
 11
-0.39048147201538086
 21
0.37581369280815125
 31
0.6886220574378967
 12
-0.39048147201538086
 22
0.3424755036830902
 32
0.003216339973732829
 13
-0.39048147201538086
 23
0.3424755036830902
 33
0.003216339973732829
  0
3DFACE
  8
0
 10
-0.3483702838420868
 20
0.33384859561920166
 30
0.6890578866004944
 11
-0.39048147201538086
 21
0.33327168226242065
 31
0.6886220574378967
 12
-0.3483702540397644
 22
0.3430524170398712
 32
0.003652186831459403
 13
-0.3483702540397644
 23
0.3430524170398712
 33
0.003652186831459403
  0
3DFACE
  8
0
 10
0.3903292119503021
 20
0.34247544407844543
 30
0.003216339973732829
 11
0.39032918214797974
 21
0.33327165246009827
 31
0.6886220574378967
 12
0.34821799397468567
 22
0.34305235743522644
 32
0.003652186831459403
 13
0.34821799397468567
 23
0.34305235743522644
 33
0.003652186831459403
  0
3DFACE
  8
0
 10
0.3903292119503021
 20
0.385017454624176
 30
0.003216339973732829
 11
0.39032918214797974
 21
0.37581363320350647
 31
0.6886220574378967
 12
0.3903292119503021
 22
0.34247544407844543
 32
0.003216339973732829
 13
0.3903292119503021
 23
0.34247544407844543
 33
0.003216339973732829
  0
3DFACE
  8
0
 10
0.3482179641723633
 20
0.37523671984672546
 30
0.6890578866004944
 11
0.39032918214797974
 21
0.37581363320350647
 31
0.6886220574378967
 12
0.34821799397468567
 22
0.3844405710697174
 32
0.003652186831459403
 13
0.34821799397468567
 23
0.3844405710697174
 33
0.003652186831459403
  0
3DFACE
  8
0
 10
0.3482179045677185
 20
-0.3557129204273224
 30
0.6823520660400391
 11
0.3482179045677185
 21
-0.39018765091896057
 31
0.6815908551216125
 12
0.3482179343700409
 22
-0.3465091288089752
 32
-0.0030536178965121508
 13
0.3482179343700409
 23
-0.3465091288089752
 33
-0.0030536178965121508
  0
3DFACE
  8
0
 10
0.3070676922798157
 20
-0.3465091288089752
 30
-0.0030537087004631758
 11
0.3070676922798157
 21
-0.3557129204273224
 31
0.6823520660400391
 12
0.3482179343700409
 22
-0.3465091288089752
 32
-0.0030536178965121508
 13
0.3482179343700409
 23
-0.3465091288089752
 33
-0.0030536178965121508
  0
3DFACE
  8
0
 10
0.3070676922798157
 20
-0.3809838593006134
 30
-0.0038149086758494377
 11
0.3070676922798157
 21
-0.39018765091896057
 31
0.6815908551216125
 12
0.3070676922798157
 22
-0.3465091288089752
 32
-0.0030537087004631758
 13
0.3070676922798157
 23
-0.3465091288089752
 33
-0.0030537087004631758
  0
3DFACE
  8
0
 10
-0.3483703136444092
 20
-0.355712890625
 30
0.6823520660400391
 11
-0.3066117465496063
 21
-0.355712890625
 31
0.6823520660400391
 12
-0.3483702838420868
 22
-0.34650909900665283
 32
-0.0030536632984876633
 13
-0.3483702838420868
 23
-0.34650909900665283
 33
-0.0030536632984876633
  0
3DFACE
  8
0
 10
-0.3483702838420868
 20
-0.380983829498291
 30
-0.0038149086758494377
 11
-0.3483703136444092
 21
-0.3901876211166382
 31
0.6815907955169678
 12
-0.3483702838420868
 22
-0.34650909900665283
 32
-0.0030536632984876633
 13
-0.3483702838420868
 23
-0.34650909900665283
 33
-0.0030536632984876633
  0
3DFACE
  8
0
 10
-0.3066117465496063
 20
-0.355712890625
 30
0.6823520660400391
 11
-0.3066117465496063
 21
-0.3901876211166382
 31
0.6815907955169678
 12
-0.3066117465496063
 22
-0.34650909900665283
 32
-0.0030536632984876633
 13
-0.3066117465496063
 23
-0.34650909900665283
 33
-0.0030536632984876633
  0
3DFACE
  8
0
 10
-0.3066117465496063
 20
-0.3901876211166382
 30
0.6815907955169678
 11
-0.3483703136444092
 21
-0.3901876211166382
 31
0.6815907955169678
 12
-0.3066117465496063
 22
-0.380983829498291
 32
-0.0038149086758494377
 13
-0.3066117465496063
 23
-0.380983829498291
 33
-0.0038149086758494377
  0
3DFACE
  8
0
 10
0.3482179045677185
 20
-0.39018765091896057
 30
0.6815908551216125
 11
0.3070676922798157
 21
-0.39018765091896057
 31
0.6815908551216125
 12
0.3482179343700409
 22
-0.3809838593006134
 32
-0.003814863273873925
 13
0.3482179343700409
 23
-0.3809838593006134
 33
-0.003814863273873925
  0
3DFACE
  8
0
 10
0.3482179641723633
 20
0.3338485360145569
 30
0.6890578866004944
 11
0.3482179641723633
 21
0.37523671984672546
 31
0.6890578866004944
 12
0.34821799397468567
 22
0.34305235743522644
 32
0.003652186831459403
 13
0.34821799397468567
 23
0.34305235743522644
 33
0.003652186831459403
  0
3DFACE
  8
0
 10
-0.3483702540397644
 20
0.3844406008720398
 30
0.003652186831459403
 11
-0.3483702838420868
 21
0.37523677945137024
 31
0.6890578866004944
 12
-0.3483702540397644
 22
0.3430524170398712
 32
0.003652186831459403
 13
-0.3483702540397644
 23
0.3430524170398712
 33
0.003652186831459403
  0
3DFACE
  8
0
 10
-0.3483702540397644
 20
0.3844406008720398
 30
0.003652186831459403
 11
-0.3483702540397644
 21
0.3430524170398712
 31
0.003652186831459403
 12
-0.39048147201538086
 22
0.3850174844264984
 32
0.003216339973732829
 13
-0.39048147201538086
 23
0.3850174844264984
 33
0.003216339973732829
  0
3DFACE
  8
0
 10
0.3903292119503021
 20
0.34247544407844543
 30
0.003216339973732829
 11
0.34821799397468567
 21
0.34305235743522644
 31
0.003652186831459403
 12
0.3903292119503021
 22
0.385017454624176
 32
0.003216339973732829
 13
0.3903292119503021
 23
0.385017454624176
 33
0.003216339973732829
  0
3DFACE
  8
0
 10
0.3482179343700409
 20
-0.3465091288089752
 30
-0.0030536178965121508
 11
0.3482179343700409
 21
-0.3809838593006134
 31
-0.003814863273873925
 12
0.3070676922798157
 22
-0.3465091288089752
 32
-0.0030537087004631758
 13
0.3070676922798157
 23
-0.3465091288089752
 33
-0.0030537087004631758
  0
3DFACE
  8
0
 10
-0.3066117465496063
 20
-0.380983829498291
 30
-0.0038149086758494377
 11
-0.3483702838420868
 21
-0.380983829498291
 31
-0.0038149086758494377
 12
-0.3066117465496063
 22
-0.34650909900665283
 32
-0.0030536632984876633
 13
-0.3066117465496063
 23
-0.34650909900665283
 33
-0.0030536632984876633
  0
3DFACE
  8
0
 10
0.3068297207355499
 20
-0.34789204597473145
 30
0.7203249931335449
 11
0.3068297207355499
 21
-0.37733450531959534
 31
0.7067777514457703
 12
0.3482179045677185
 22
-0.34789204597473145
 32
0.7203249931335449
 13
0.3482179045677185
 23
-0.34789204597473145
 33
0.7203249931335449
  0
3DFACE
  8
0
 10
0.3068297207355499
 20
-0.37733450531959534
 30
0.7067777514457703
 11
0.3070676922798157
 21
-0.39018765091896057
 31
0.6815908551216125
 12
0.3482179045677185
 22
-0.37733450531959534
 32
0.7067777514457703
 13
0.3482179045677185
 23
-0.37733450531959534
 33
0.7067777514457703
  0
3DFACE
  8
0
 10
-0.3483703136444092
 20
-0.34789198637008667
 30
0.7203249931335449
 11
-0.3483703136444092
 21
-0.37733447551727295
 31
0.7067777514457703
 12
-0.3069821298122406
 22
-0.34789198637008667
 32
0.7203249931335449
 13
-0.3069821298122406
 23
-0.34789198637008667
 33
0.7203249931335449
  0
3DFACE
  8
0
 10
-0.3483703136444092
 20
-0.37733447551727295
 30
0.7067777514457703
 11
-0.3483703136444092
 21
-0.3901876211166382
 31
0.6815907955169678
 12
-0.3069821298122406
 22
-0.37733447551727295
 32
0.7067777514457703
 13
-0.3069821298122406
 23
-0.37733447551727295
 33
0.7067777514457703
  0
3DFACE
  8
0
 10
0.39032918214797974
 20
0.33327165246009827
 30
0.7207608222961426
 11
0.39032918214797974
 21
0.37581363320350647
 31
0.7207608222961426
 12
0.39032918214797974
 22
0.33327165246009827
 32
1.1649397611618042
 13
0.39032918214797974
 23
0.33327165246009827
 33
1.1649397611618042
  0
3DFACE
  8
0
 10
-0.39048147201538086
 20
0.37581369280815125
 30
0.7207608222961426
 11
-0.39048147201538086
 21
0.33327168226242065
 31
0.7207608222961426
 12
-0.39048147201538086
 22
0.37581369280815125
 32
1.1649397611618042
 13
-0.39048147201538086
 23
0.37581369280815125
 33
1.1649397611618042
  0
3DFACE
  8
0
 10
-0.3483702838420868
 20
0.37523677945137024
 30
0.7203249931335449
 11
-0.39048147201538086
 21
0.37581369280815125
 31
0.7207608222961426
 12
-0.3483702838420868
 22
0.37523677945137024
 32
1.1649397611618042
 13
-0.3483702838420868
 23
0.37523677945137024
 33
1.1649397611618042
  0
3DFACE
  8
0
 10
-0.39048147201538086
 20
0.33327168226242065
 30
1.1649397611618042
 11
-0.39048147201538086
 21
0.33327168226242065
 31
0.7207608222961426
 12
-0.3483702838420868
 22
0.33384859561920166
 32
1.1649397611618042
 13
-0.3483702838420868
 23
0.33384859561920166
 33
1.1649397611618042
  0
3DFACE
  8
0
 10
0.3482179641723633
 20
0.3338485360145569
 30
0.7203249931335449
 11
0.39032918214797974
 21
0.33327165246009827
 31
0.7207608222961426
 12
0.3482179641723633
 22
0.3338485360145569
 32
1.1649397611618042
 13
0.3482179641723633
 23
0.3338485360145569
 33
1.1649397611618042
  0
3DFACE
  8
0
 10
0.39032918214797974
 20
0.37581363320350647
 30
1.1649397611618042
 11
0.39032918214797974
 21
0.37581363320350647
 31
0.7207608222961426
 12
0.3482179641723633
 22
0.37523671984672546
 32
1.1649397611618042
 13
0.3482179641723633
 23
0.37523671984672546
 33
1.1649397611618042
  0
3DFACE
  8
0
 10
-0.3483702838420868
 20
0.33384859561920166
 30
0.7203249931335449
 11
-0.3483702838420868
 21
0.37523677945137024
 31
0.7203249931335449
 12
-0.3483702838420868
 22
0.33384859561920166
 32
1.1649397611618042
 13
-0.3483702838420868
 23
0.33384859561920166
 33
1.1649397611618042
  0
3DFACE
  8
0
 10
0.3482179641723633
 20
0.37523671984672546
 30
0.7203249931335449
 11
0.3482179641723633
 21
0.3338485360145569
 31
0.7203249931335449
 12
0.3482179641723633
 22
0.37523671984672546
 32
1.1649397611618042
 13
0.3482179641723633
 23
0.37523671984672546
 33
1.1649397611618042
  0
3DFACE
  8
0
 10
-0.36395251750946045
 20
-0.38924336433410645
 30
0.7089249491691589
 11
0.369523823261261
 21
-0.38924354314804077
 31
0.7089248299598694
 12
-0.36395251750946045
 22
-0.40635859966278076
 32
0.6831861734390259
 13
-0.36395251750946045
 23
-0.40635859966278076
 33
0.6831861734390259
  0
3DFACE
  8
0
 10
0.369523823261261
 20
-0.4063587188720703
 30
0.6831860542297363
 11
0.369523823261261
 21
-0.38924354314804077
 31
0.7089248299598694
 12
0.369523823261261
 22
-0.4238201081752777
 32
0.6941211223602295
 13
0.369523823261261
 23
-0.4238201081752777
 33
0.6941211223602295
  0
3DFACE
  8
0
 10
-0.36395251750946045
 20
-0.40189915895462036
 30
0.7243700623512268
 11
-0.36395251750946045
 21
-0.38924336433410645
 31
0.7089249491691589
 12
-0.36395251750946045
 22
-0.423819899559021
 32
0.6941211819648743
 13
-0.36395251750946045
 23
-0.423819899559021
 33
0.6941211819648743
  0
3DFACE
  8
0
 10
0.369523823261261
 20
-0.4018993377685547
 30
0.724370002746582
 11
-0.36395251750946045
 21
-0.40189915895462036
 31
0.7243700623512268
 12
0.369523823261261
 22
-0.4238201081752777
 32
0.6941211223602295
 13
0.369523823261261
 23
-0.4238201081752777
 33
0.6941211223602295
  0
3DFACE
  8
0
 10
0.369523823261261
 20
-0.4238201081752777
 30
0.6941211223602295
 11
-0.36395251750946045
 21
-0.423819899559021
 31
0.6941211819648743
 12
0.369523823261261
 22
-0.4063587188720703
 32
0.6831860542297363
 13
0.369523823261261
 23
-0.4063587188720703
 33
0.6831860542297363
  0
3DFACE
  8
0
 10
-0.2856524586677551
 20
0.36141979694366455
 30
1.3921643495559692
 11
-0.11117544025182724
 21
0.4132922291755676
 31
1.436763882637024
 12
-0.2856524586677551
 22
0.4007309079170227
 32
1.3921643495559692
 13
-0.2856524586677551
 23
0.4007309079170227
 33
1.3921643495559692
  0
3DFACE
  8
0
 10
-0.11117544025182724
 20
0.4132922291755676
 30
1.436763882637024
 11
0.10886743664741516
 21
0.4132922291755676
 31
1.436763882637024
 12
-0.11117543280124664
 22
0.4526033401489258
 32
1.436763882637024
 13
-0.11117543280124664
 23
0.4526033401489258
 33
1.436763882637024
  0
3DFACE
  8
0
 10
0.10886745154857635
 20
0.4526033401489258
 30
1.436763882637024
 11
0.10886743664741516
 21
0.4132922291755676
 31
1.436763882637024
 12
0.28334447741508484
 22
0.40073084831237793
 32
1.3921643495559692
 13
0.28334447741508484
 23
0.40073084831237793
 33
1.3921643495559692
  0
3DFACE
  8
0
 10
0.3409629166126251
 20
0.3345247805118561
 30
0.893115758895874
 11
0.10886742174625397
 21
0.41329216957092285
 31
0.893115758895874
 12
0.3409629166126251
 22
0.37383589148521423
 32
0.893115758895874
 13
0.3409629166126251
 23
0.37383589148521423
 33
0.893115758895874
  0
3DFACE
  8
0
 10
0.10886742174625397
 20
0.41329216957092285
 30
0.893115758895874
 11
-0.11117547005414963
 21
0.41329216957092285
 31
0.893115758895874
 12
0.10886742174625397
 22
0.452603280544281
 32
0.893115758895874
 13
0.10886742174625397
 23
0.452603280544281
 33
0.893115758895874
  0
3DFACE
  8
0
 10
-0.11117547005414963
 20
0.452603280544281
 30
0.893115758895874
 11
-0.11117547005414963
 21
0.41329216957092285
 31
0.893115758895874
 12
-0.3432709872722626
 22
0.3738359212875366
 32
0.893115758895874
 13
-0.3432709872722626
 23
0.3738359212875366
 33
0.893115758895874
  0
3DFACE
  8
0
 10
-0.33844098448753357
 20
0.3330278992652893
 30
0.7490136027336121
 11
-0.35702747106552124
 21
0.3439079523086548
 31
0.7759326696395874
 12
0.32966160774230957
 22
0.3330276906490326
 32
0.7490136027336121
 13
0.32966160774230957
 23
0.3330276906490326
 33
0.7490136027336121
  0
3DFACE
  8
0
 10
0.3482482433319092
 20
0.34390783309936523
 30
0.7759326696395874
 11
-0.35702747106552124
 21
0.3439079523086548
 31
0.7759326696395874
 12
0.32966160774230957
 22
0.3297373950481415
 32
0.8028517365455627
 13
0.32966160774230957
 23
0.3297373950481415
 33
0.8028517365455627
  0
3DFACE
  8
0
 10
0.32966142892837524
 20
-0.38851284980773926
 30
0.7490136027336121
 11
0.3482479751110077
 21
-0.39939290285110474
 31
0.7759326696395874
 12
-0.33844101428985596
 22
-0.38851267099380493
 32
0.7490136027336121
 13
-0.33844101428985596
 23
-0.38851267099380493
 33
0.7490136027336121
  0
3DFACE
  8
0
 10
-0.3570276200771332
 20
-0.3993927538394928
 30
0.7759326696395874
 11
0.3482479751110077
 21
-0.39939290285110474
 31
0.7759326696395874
 12
-0.33844101428985596
 22
-0.3852223753929138
 32
0.8028517365455627
 13
-0.33844101428985596
 23
-0.3852223753929138
 33
0.8028517365455627
  0
3DFACE
  8
0
 10
0.28334447741508484
 20
0.40073084831237793
 30
1.3921643495559692
 11
0.28334447741508484
 21
0.3614197373390198
 31
1.3921643495559692
 12
0.3409629166126251
 22
0.37383589148521423
 32
1.1649397611618042
 13
0.3409629166126251
 23
0.37383589148521423
 33
1.1649397611618042
  0
3DFACE
  8
0
 10
0.3409629166126251
 20
0.33452481031417847
 30
1.1649397611618042
 11
0.3409629166126251
 21
0.3345247805118561
 31
0.893115758895874
 12
0.3409629166126251
 22
0.37383589148521423
 32
1.1649397611618042
 13
0.3409629166126251
 23
0.37383589148521423
 33
1.1649397611618042
  0
3DFACE
  8
0
 10
-0.3432709872722626
 20
0.33452484011650085
 30
0.893115758895874
 11
-0.3432709574699402
 21
0.33452486991882324
 31
1.1649397611618042
 12
-0.3432709872722626
 22
0.3738359212875366
 32
0.893115758895874
 13
-0.3432709872722626
 23
0.3738359212875366
 33
0.893115758895874
  0
3DFACE
  8
0
 10
-0.3432709574699402
 20
0.33452486991882324
 30
1.1649397611618042
 11
-0.2856524586677551
 21
0.36141979694366455
 31
1.3921643495559692
 12
-0.3432709574699402
 22
0.3738359212875366
 32
1.1649397611618042
 13
-0.3432709574699402
 23
0.3738359212875366
 33
1.1649397611618042
  0
3DFACE
  8
0
 10
-0.3432709872722626
 20
0.33452484011650085
 30
0.893115758895874
 11
-0.11117547005414963
 21
0.41329216957092285
 31
0.893115758895874
 12
-0.3432709574699402
 22
0.33452486991882324
 32
1.1649397611618042
 13
-0.3432709574699402
 23
0.33452486991882324
 33
1.1649397611618042
  0
3DFACE
  8
0
 10
-0.3432709574699402
 20
0.33452486991882324
 30
1.1649397611618042
 11
-0.11117545515298843
 21
0.41329216957092285
 31
1.1649397611618042
 12
-0.2856524586677551
 22
0.36141979694366455
 32
1.3921643495559692
 13
-0.2856524586677551
 23
0.36141979694366455
 33
1.3921643495559692
  0
3DFACE
  8
0
 10
0.10886742174625397
 20
0.41329216957092285
 30
0.893115758895874
 11
0.10886742174625397
 21
0.41329216957092285
 31
1.1649397611618042
 12
-0.11117547005414963
 22
0.41329216957092285
 32
0.893115758895874
 13
-0.11117547005414963
 23
0.41329216957092285
 33
0.893115758895874
  0
3DFACE
  8
0
 10
-0.11117545515298843
 20
0.41329216957092285
 30
1.1649397611618042
 11
0.10886742174625397
 21
0.41329216957092285
 31
1.1649397611618042
 12
-0.11117544025182724
 22
0.4132922291755676
 32
1.436763882637024
 13
-0.11117544025182724
 23
0.4132922291755676
 33
1.436763882637024
  0
3DFACE
  8
0
 10
0.3409629166126251
 20
0.3345247805118561
 30
0.893115758895874
 11
0.3409629166126251
 21
0.33452481031417847
 31
1.1649397611618042
 12
0.10886742174625397
 22
0.41329216957092285
 32
0.893115758895874
 13
0.10886742174625397
 23
0.41329216957092285
 33
0.893115758895874
  0
3DFACE
  8
0
 10
0.3409629166126251
 20
0.33452481031417847
 30
1.1649397611618042
 11
0.28334447741508484
 21
0.3614197373390198
 31
1.3921643495559692
 12
0.10886742174625397
 22
0.41329216957092285
 32
1.1649397611618042
 13
0.10886742174625397
 23
0.41329216957092285
 33
1.1649397611618042
  0
3DFACE
  8
0
 10
0.10886742174625397
 20
0.452603280544281
 30
0.893115758895874
 11
0.10886743664741516
 21
0.452603280544281
 31
1.1649397611618042
 12
0.3409629166126251
 22
0.37383589148521423
 32
0.893115758895874
 13
0.3409629166126251
 23
0.37383589148521423
 33
0.893115758895874
  0
3DFACE
  8
0
 10
0.3409629166126251
 20
0.37383589148521423
 30
1.1649397611618042
 11
0.10886743664741516
 21
0.452603280544281
 31
1.1649397611618042
 12
0.28334447741508484
 22
0.40073084831237793
 32
1.3921643495559692
 13
0.28334447741508484
 23
0.40073084831237793
 33
1.3921643495559692
  0
3DFACE
  8
0
 10
-0.11117547005414963
 20
0.452603280544281
 30
0.893115758895874
 11
-0.11117544025182724
 21
0.452603280544281
 31
1.1649397611618042
 12
0.10886742174625397
 22
0.452603280544281
 32
0.893115758895874
 13
0.10886742174625397
 23
0.452603280544281
 33
0.893115758895874
  0
3DFACE
  8
0
 10
-0.11117544025182724
 20
0.452603280544281
 30
1.1649397611618042
 11
-0.11117543280124664
 21
0.4526033401489258
 31
1.436763882637024
 12
0.10886743664741516
 22
0.452603280544281
 32
1.1649397611618042
 13
0.10886743664741516
 23
0.452603280544281
 33
1.1649397611618042
  0
3DFACE
  8
0
 10
-0.3432709872722626
 20
0.3738359212875366
 30
0.893115758895874
 11
-0.3432709574699402
 21
0.3738359212875366
 31
1.1649397611618042
 12
-0.11117547005414963
 22
0.452603280544281
 32
0.893115758895874
 13
-0.11117547005414963
 23
0.452603280544281
 33
0.893115758895874
  0
3DFACE
  8
0
 10
-0.3432709574699402
 20
0.3738359212875366
 30
1.1649397611618042
 11
-0.2856524586677551
 21
0.4007309079170227
 31
1.3921643495559692
 12
-0.11117544025182724
 22
0.452603280544281
 32
1.1649397611618042
 13
-0.11117544025182724
 23
0.452603280544281
 33
1.1649397611618042
  0
3DFACE
  8
0
 10
0.3070676922798157
 20
-0.3578307628631592
 30
0.644483745098114
 11
0.3070676922798157
 21
-0.38913699984550476
 31
0.644483745098114
 12
-0.3066117465496063
 22
-0.3578307032585144
 32
0.644483745098114
 13
-0.3066117465496063
 23
-0.3578307032585144
 33
0.644483745098114
  0
3DFACE
  8
0
 10
0.3070676922798157
 20
-0.3578307628631592
 30
0.6737868189811707
 11
0.3070676922798157
 21
-0.3578307628631592
 31
0.644483745098114
 12
-0.3066117465496063
 22
-0.3578307032585144
 32
0.6737868189811707
 13
-0.3066117465496063
 23
-0.3578307032585144
 33
0.6737868189811707
  0
3DFACE
  8
0
 10
0.3070676922798157
 20
-0.38913699984550476
 30
0.644483745098114
 11
0.3070676922798157
 21
-0.38913699984550476
 31
0.6737868189811707
 12
-0.3066117465496063
 22
-0.3891369700431824
 32
0.644483745098114
 13
-0.3066117465496063
 23
-0.3891369700431824
 33
0.644483745098114
  0
3DFACE
  8
0
 10
0.3070676922798157
 20
-0.38913699984550476
 30
0.6737868189811707
 11
0.3070676922798157
 21
-0.3578307628631592
 31
0.6737868189811707
 12
-0.3066117465496063
 22
-0.3891369700431824
 32
0.6737868189811707
 13
-0.3066117465496063
 23
-0.3891369700431824
 33
0.6737868189811707
  0
3DFACE
  8
0
 10
0.3112412393093109
 20
0.3745252788066864
 30
1.060664415359497
 11
0.34888172149658203
 21
0.36057761311531067
 31
1.0607589483261108
 12
0.3112412393093109
 22
0.3745252788066864
 32
1.1570675373077393
 13
0.3112412393093109
 23
0.3745252788066864
 33
1.1570675373077393
  0
3DFACE
  8
0
 10
-0.3113935589790344
 20
0.3745253086090088
 30
1.060664415359497
 11
-0.3113935589790344
 21
0.3745253086090088
 31
1.1570675373077393
 12
-0.34903401136398315
 22
0.36057767271995544
 32
1.0607589483261108
 13
-0.34903401136398315
 23
0.36057767271995544
 33
1.0607589483261108
  0
3DFACE
  8
0
 10
0.34888172149658203
 20
0.36057761311531067
 30
1.0607589483261108
 11
0.3112412393093109
 21
0.3745252788066864
 31
1.060664415359497
 12
0.34888172149658203
 22
0.3860817849636078
 32
1.0607589483261108
 13
0.34888172149658203
 23
0.3860817849636078
 33
1.0607589483261108
  0
3DFACE
  8
0
 10
-0.34903401136398315
 20
0.36057767271995544
 30
1.0607589483261108
 11
-0.34903401136398315
 21
0.38608184456825256
 31
1.0607589483261108
 12
-0.3113935589790344
 22
0.3745253086090088
 32
1.060664415359497
 13
-0.3113935589790344
 23
0.3745253086090088
 33
1.060664415359497
  0
3DFACE
  8
0
 10
0.34888172149658203
 20
0.36057761311531067
 30
1.0607589483261108
 11
0.34888172149658203
 21
0.3860817849636078
 31
1.0607589483261108
 12
0.34888172149658203
 22
0.36057761311531067
 32
1.1570675373077393
 13
0.34888172149658203
 23
0.36057761311531067
 33
1.1570675373077393
  0
3DFACE
  8
0
 10
-0.34903401136398315
 20
0.36057767271995544
 30
1.1570675373077393
 11
-0.34903401136398315
 21
0.38608184456825256
 31
1.1570675373077393
 12
-0.34903401136398315
 22
0.36057767271995544
 32
1.0607589483261108
 13
-0.34903401136398315
 23
0.36057767271995544
 33
1.0607589483261108
  0
3DFACE
  8
0
 10
-0.34903401136398315
 20
0.36057767271995544
 30
1.1570675373077393
 11
-0.3113935589790344
 21
0.3745253086090088
 31
1.1570675373077393
 12
-0.34903401136398315
 22
0.38608184456825256
 32
1.1570675373077393
 13
-0.34903401136398315
 23
0.38608184456825256
 33
1.1570675373077393
  0
3DFACE
  8
0
 10
-0.3113935589790344
 20
0.3745253086090088
 30
1.060664415359497
 11
-0.3113935589790344
 21
0.40002956986427307
 31
1.060664415359497
 12
-0.3113935589790344
 22
0.3745253086090088
 32
1.1570675373077393
 13
-0.3113935589790344
 23
0.3745253086090088
 33
1.1570675373077393
  0
3DFACE
  8
0
 10
0.3112412393093109
 20
0.3745252788066864
 30
1.1570675373077393
 11
0.3112412393093109
 21
0.4000295102596283
 31
1.1570675373077393
 12
0.3112412393093109
 22
0.3745252788066864
 32
1.060664415359497
 13
0.3112412393093109
 23
0.3745252788066864
 33
1.060664415359497
  0
3DFACE
  8
0
 10
0.34888172149658203
 20
0.36057761311531067
 30
1.1570675373077393
 11
0.34888172149658203
 21
0.3860817849636078
 31
1.1570675373077393
 12
0.3112412393093109
 22
0.3745252788066864
 32
1.1570675373077393
 13
0.3112412393093109
 23
0.3745252788066864
 33
1.1570675373077393
  0
3DFACE
  8
0
 10
-0.34903401136398315
 20
0.38608184456825256
 30
1.1570675373077393
 11
-0.3113935589790344
 21
0.40002956986427307
 31
1.1570675373077393
 12
-0.34903401136398315
 22
0.38608184456825256
 32
1.0607589483261108
 13
-0.34903401136398315
 23
0.38608184456825256
 33
1.0607589483261108
  0
3DFACE
  8
0
 10
0.34888172149658203
 20
0.3860817849636078
 30
1.1570675373077393
 11
0.34888172149658203
 21
0.3860817849636078
 31
1.0607589483261108
 12
0.3112412393093109
 22
0.4000295102596283
 32
1.1570675373077393
 13
0.3112412393093109
 23
0.4000295102596283
 33
1.1570675373077393
  0
3DFACE
  8
0
 10
-0.3483702838420868
 20
0.33384859561920166
 30
1.1649397611618042
 11
-0.3483702838420868
 21
0.37523677945137024
 31
1.1649397611618042
 12
-0.3518795371055603
 22
0.3372495472431183
 32
1.1738609075546265
 13
-0.3518795371055603
 23
0.3372495472431183
 33
1.1738609075546265
  0
3DFACE
  8
0
 10
-0.39048147201538086
 20
0.37581369280815125
 30
1.1649397611618042
 11
-0.38697221875190735
 21
0.3722204267978668
 31
1.1738609075546265
 12
-0.3483702838420868
 22
0.37523677945137024
 32
1.1649397611618042
 13
-0.3483702838420868
 23
0.37523677945137024
 33
1.1649397611618042
  0
3DFACE
  8
0
 10
-0.39048147201538086
 20
0.33327168226242065
 30
1.1649397611618042
 11
-0.38697221875190735
 21
0.3368649482727051
 31
1.1738609075546265
 12
-0.39048147201538086
 22
0.37581369280815125
 32
1.1649397611618042
 13
-0.39048147201538086
 23
0.37581369280815125
 33
1.1649397611618042
  0
3DFACE
  8
0
 10
-0.39048147201538086
 20
0.33327168226242065
 30
1.1649397611618042
 11
-0.3483702838420868
 21
0.33384859561920166
 31
1.1649397611618042
 12
-0.38697221875190735
 22
0.3368649482727051
 32
1.1738609075546265
 13
-0.38697221875190735
 23
0.3368649482727051
 33
1.1738609075546265
  0
3DFACE
  8
0
 10
-0.38697221875190735
 20
0.3368649482727051
 30
1.1738609075546265
 11
-0.3518795371055603
 21
0.3372495472431183
 31
1.1738609075546265
 12
-0.38697221875190735
 22
0.3722204267978668
 32
1.1738609075546265
 13
-0.38697221875190735
 23
0.3722204267978668
 33
1.1738609075546265
  0
3DFACE
  8
0
 10
0.3482179641723633
 20
0.3338485360145569
 30
1.1649397611618042
 11
0.3517272472381592
 21
0.3372494876384735
 31
1.1738609075546265
 12
0.3482179641723633
 22
0.37523671984672546
 32
1.1649397611618042
 13
0.3482179641723633
 23
0.37523671984672546
 33
1.1649397611618042
  0
3DFACE
  8
0
 10
0.39032918214797974
 20
0.33327165246009827
 30
1.1649397611618042
 11
0.3868199288845062
 21
0.3368648886680603
 31
1.1738609075546265
 12
0.3482179641723633
 22
0.3338485360145569
 32
1.1649397611618042
 13
0.3482179641723633
 23
0.3338485360145569
 33
1.1649397611618042
  0
3DFACE
  8
0
 10
0.39032918214797974
 20
0.37581363320350647
 30
1.1649397611618042
 11
0.3868199288845062
 21
0.37222039699554443
 31
1.1738609075546265
 12
0.39032918214797974
 22
0.33327165246009827
 32
1.1649397611618042
 13
0.39032918214797974
 23
0.33327165246009827
 33
1.1649397611618042
  0
3DFACE
  8
0
 10
0.39032918214797974
 20
0.37581363320350647
 30
1.1649397611618042
 11
0.3482179641723633
 21
0.37523671984672546
 31
1.1649397611618042
 12
0.3868199288845062
 22
0.37222039699554443
 32
1.1738609075546265
 13
0.3868199288845062
 23
0.37222039699554443
 33
1.1738609075546265
  0
3DFACE
  8
0
 10
0.3517272472381592
 20
0.3718357980251312
 30
1.1738609075546265
 11
0.3517272472381592
 21
0.3372494876384735
 31
1.1738609075546265
 12
0.3868199288845062
 22
0.37222039699554443
 32
1.1738609075546265
 13
0.3868199288845062
 23
0.37222039699554443
 33
1.1738609075546265
  0
3DFACE
  8
0
 10
-0.33844101428985596
 20
-0.38851267099380493
 30
0.7490136027336121
 11
-0.3619635999202728
 21
-0.293244868516922
 31
0.7505626082420349
 12
0.32966142892837524
 22
-0.38851284980773926
 32
0.7490136027336121
 13
0.32966142892837524
 23
-0.38851284980773926
 33
0.7490136027336121
  0
3DFACE
  8
0
 10
0.3531840443611145
 20
-0.2932450771331787
 30
0.7505626082420349
 11
-0.3619635999202728
 21
-0.293244868516922
 31
0.7505626082420349
 12
0.35318413376808167
 22
0.2664618194103241
 32
0.7505626082420349
 13
0.35318413376808167
 23
0.2664618194103241
 33
0.7505626082420349
  0
3DFACE
  8
0
 10
0.35318413376808167
 20
0.2664618194103241
 30
0.7505626082420349
 11
-0.36196351051330566
 21
0.26646190881729126
 31
0.7505626082420349
 12
0.32966160774230957
 22
0.3330276906490326
 32
0.7490136027336121
 13
0.32966160774230957
 23
0.3330276906490326
 33
0.7490136027336121
  0
3DFACE
  8
0
 10
-0.3384409546852112
 20
0.3297375440597534
 30
0.8028517365455627
 11
-0.3619634807109833
 21
0.26390957832336426
 31
0.8023355007171631
 12
0.32966160774230957
 22
0.3297373950481415
 32
0.8028517365455627
 13
0.32966160774230957
 23
0.3297373950481415
 33
0.8028517365455627
  0
3DFACE
  8
0
 10
-0.3619634807109833
 20
0.26390957832336426
 30
0.8023355007171631
 11
-0.3619635999202728
 21
-0.2906924784183502
 31
0.8023355007171631
 12
0.35318413376808167
 22
0.2639094293117523
 32
0.8023355007171631
 13
0.35318413376808167
 23
0.2639094293117523
 33
0.8023355007171631
  0
3DFACE
  8
0
 10
-0.3619635999202728
 20
-0.2906924784183502
 30
0.8023355007171631
 11
-0.33844101428985596
 21
-0.3852223753929138
 31
0.8028517365455627
 12
0.3531840443611145
 22
-0.29069268703460693
 32
0.8023355007171631
 13
0.3531840443611145
 23
-0.29069268703460693
 33
0.8023355007171631
  0
3DFACE
  8
0
 10
-0.3570276200771332
 20
-0.3993927538394928
 30
0.7759326696395874
 11
-0.3818589746952057
 21
-0.3016846477985382
 31
0.7764490246772766
 12
-0.33844101428985596
 22
-0.38851267099380493
 32
0.7490136027336121
 13
-0.33844101428985596
 23
-0.38851267099380493
 33
0.7490136027336121
  0
3DFACE
  8
0
 10
-0.3818589746952057
 20
-0.3016846477985382
 30
0.7764490246772766
 11
-0.38185879588127136
 21
0.27490174770355225
 31
0.7764490246772766
 12
-0.3619635999202728
 22
-0.293244868516922
 32
0.7505626082420349
 13
-0.3619635999202728
 23
-0.293244868516922
 33
0.7505626082420349
  0
3DFACE
  8
0
 10
-0.36196351051330566
 20
0.26646190881729126
 30
0.7505626082420349
 11
-0.38185879588127136
 21
0.27490174770355225
 31
0.7764490246772766
 12
-0.33844098448753357
 22
0.3330278992652893
 32
0.7490136027336121
 13
-0.33844098448753357
 23
0.3330278992652893
 33
0.7490136027336121
  0
3DFACE
  8
0
 10
-0.3570276200771332
 20
-0.3993927538394928
 30
0.7759326696395874
 11
-0.33844101428985596
 21
-0.3852223753929138
 31
0.8028517365455627
 12
-0.3818589746952057
 22
-0.3016846477985382
 32
0.7764490246772766
 13
-0.3818589746952057
 23
-0.3016846477985382
 33
0.7764490246772766
  0
3DFACE
  8
0
 10
-0.3818589746952057
 20
-0.3016846477985382
 30
0.7764490246772766
 11
-0.3619635999202728
 21
-0.2906924784183502
 31
0.8023355007171631
 12
-0.38185879588127136
 22
0.27490174770355225
 32
0.7764490246772766
 13
-0.38185879588127136
 23
0.27490174770355225
 33
0.7764490246772766
  0
3DFACE
  8
0
 10
-0.3619634807109833
 20
0.26390957832336426
 30
0.8023355007171631
 11
-0.3384409546852112
 21
0.3297375440597534
 31
0.8028517365455627
 12
-0.38185879588127136
 22
0.27490174770355225
 32
0.7764490246772766
 13
-0.38185879588127136
 23
0.27490174770355225
 33
0.7764490246772766
  0
3DFACE
  8
0
 10
0.3482482433319092
 20
0.34390783309936523
 30
0.7759326696395874
 11
0.3730795085430145
 21
0.27490147948265076
 31
0.7764490246772766
 12
0.32966160774230957
 22
0.3330276906490326
 32
0.7490136027336121
 13
0.32966160774230957
 23
0.3330276906490326
 33
0.7490136027336121
  0
3DFACE
  8
0
 10
0.35318413376808167
 20
0.2664618194103241
 30
0.7505626082420349
 11
0.3730795085430145
 21
0.27490147948265076
 31
0.7764490246772766
 12
0.3531840443611145
 22
-0.2932450771331787
 32
0.7505626082420349
 13
0.3531840443611145
 23
-0.2932450771331787
 33
0.7505626082420349
  0
3DFACE
  8
0
 10
0.3531840443611145
 20
-0.2932450771331787
 30
0.7505626082420349
 11
0.3730793297290802
 21
-0.3016849160194397
 31
0.7764490246772766
 12
0.32966142892837524
 22
-0.38851284980773926
 32
0.7490136027336121
 13
0.32966142892837524
 23
-0.38851284980773926
 33
0.7490136027336121
  0
3DFACE
  8
0
 10
0.3482482433319092
 20
0.34390783309936523
 30
0.7759326696395874
 11
0.32966160774230957
 21
0.3297373950481415
 31
0.8028517365455627
 12
0.3730795085430145
 22
0.27490147948265076
 32
0.7764490246772766
 13
0.3730795085430145
 23
0.27490147948265076
 33
0.7764490246772766
  0
3DFACE
  8
0
 10
0.35318413376808167
 20
0.2639094293117523
 30
0.8023355007171631
 11
0.3531840443611145
 21
-0.29069268703460693
 31
0.8023355007171631
 12
0.3730795085430145
 22
0.27490147948265076
 32
0.7764490246772766
 13
0.3730795085430145
 23
0.27490147948265076
 33
0.7764490246772766
  0
3DFACE
  8
0
 10
0.3531840443611145
 20
-0.29069268703460693
 30
0.8023355007171631
 11
0.32966145873069763
 21
-0.38522249460220337
 31
0.8028517365455627
 12
0.3730793297290802
 22
-0.3016849160194397
 32
0.7764490246772766
 13
0.3730793297290802
 23
-0.3016849160194397
 33
0.7764490246772766
  0
3DFACE
  8
0
 10
-0.3483702540397644
 20
0.3844406008720398
 30
0.003652186831459403
 11
-0.3483702540397644
 21
0.3430524170398712
 31
0.003652186831459403
 12
-0.39048147201538086
 22
0.3850174844264984
 32
0.003216339973732829
 13
-0.39048147201538086
 23
0.3850174844264984
 33
0.003216339973732829
  0
3DFACE
  8
0
 10
0.3903292119503021
 20
0.34247544407844543
 30
0.003216339973732829
 11
0.34821799397468567
 21
0.34305235743522644
 31
0.003652186831459403
 12
0.3903292119503021
 22
0.385017454624176
 32
0.003216339973732829
 13
0.3903292119503021
 23
0.385017454624176
 33
0.003216339973732829
  0
3DFACE
  8
0
 10
0.3482179343700409
 20
-0.3465091288089752
 30
-0.0030536178965121508
 11
0.3482179343700409
 21
-0.3809838593006134
 31
-0.003814863273873925
 12
0.3070676922798157
 22
-0.3465091288089752
 32
-0.0030537087004631758
 13
0.3070676922798157
 23
-0.3465091288089752
 33
-0.0030537087004631758
  0
3DFACE
  8
0
 10
-0.3066117465496063
 20
-0.380983829498291
 30
-0.0038149086758494377
 11
-0.3483702838420868
 21
-0.380983829498291
 31
-0.0038149086758494377
 12
-0.3066117465496063
 22
-0.34650909900665283
 32
-0.0030536632984876633
 13
-0.3066117465496063
 23
-0.34650909900665283
 33
-0.0030536632984876633
  0
ENDSEC
  0
EOF
