  0
SECTION
  2
HEADER
  9
$ACADVER
  1
AC1009
  9
$INSBASE
 10
0.0
 20
0.0
 30
0.0
  9
$EXTMIN
 10
0.0
 20
0.0
 30
0.0
  9
$EXTMAX
 10
0.0
 20
0.0
 30
0.0
  0
ENDSEC
  0
SECTION
  2
TABLES
  0
TABLE
  2
VPORT
 70
1
  0
VPORT
  2
*ACTIVE
 70
0
 10
0.0
 20
0.0
 11
1.0
 21
1.0
 12
-5.0
 22
1.0
 13
0.0
 23
0.0
 14
0.1
 24
0.1
 15
0.1
 25
0.1
 16
0.0
 26
0.0
 36
1.0
 17
0.0
 27
0.0
 37
0.0
 40
10.0
 41
1.0
 42
50.0
 43
0.0
 44
0.0
 50
0.0
 51
0.0
 71
0
 72
100
 73
1
 74
1
 75
0
 76
0
 77
0
 78
0
  0
ENDTAB
  0
TABLE
  2
LTYPE
 70
8
  0
LTYPE
  2
CONTINUOUS
 70
0
  3
Solid line
 72
65
 73
0
 40
0.0
  0
LTYPE
  2
DOT
 70
0
  3
. . . . . . .
 72
65
 73
2
 40
0.25
 49
0.0
 49
-0.25
  0
LTYPE
  2
DASHED
 70
0
  3
__ __ __ __ __
 72
65
 73
2
 40
0.8
 49
0.5
 49
-0.3
  0
LTYPE
  2
DASHDOT
 70
0
  3
__ . __ . __ .
 72
65
 73
4
 40
1.0
 49
0.5
 49
-0.25
 49
0.0
 49
-0.25
  0
LTYPE
  2
DIVIDE
 70
0
  3
____ . . ____ . . 
 72
65
 73
6
 40
1.25
 49
0.5
 49
-0.25
 49
0.0
 49
-0.25
 49
0.0
 49
-0.25
  0
LTYPE
  2
BORDER
 70
0
  3
__ __ . __ __ . 
 72
65
 73
6
 40
1.75
 49
0.5
 49
-0.25
 49
0.5
 49
-0.25
 49
0.0
 49
-0.25
  0
LTYPE
  2
HIDDEN
 70
0
  3
__ __ __ __ __
 72
65
 73
2
 40
0.4
 49
0.25
 49
-0.25
  0
LTYPE
  2
CENTER
 70
0
  3
____ _ ____ _ __
 72
65
 73
4
 40
2.0
 49
1.25
 49
-0.25
 49
0.25
 49
-0.25
  0
ENDTAB
  0
TABLE
  2
LAYER
 70
1
  0
LAYER
  2
PYDXF
 70
64
 62
7
  6
continuous
  0
ENDTAB
  0
TABLE
  2
STYLE
 70
1
  0
STYLE
  2
STANDARD
 70
0
 40
0
 41
1.0
 50
0.0
 71
0
 42
1
 3
ARIAL.TTF
 4

  0
ENDTAB
  0
TABLE
  2
VIEW
 70
1
  0
VIEW
  2
BF_TOPVIEW
 70
0
 40
120.0
 10
0.0
 20
0.0
 41
200.0
 11
0.0
 21
0.0
 31
1.0
 12
0.0
 22
0.0
 32
0.0
 42
50.0
 43
0.0
 44
0.0
 50
0.0
 71
0
  0
ENDTAB
  0
ENDSEC
  0
SECTION
  2
BLOCKS
  0
ENDSEC
  0
SECTION
  2
ENTITIES
  0
3DFACE
  8
0
 10
-0.4129510521888733
 20
-0.02605857141315937
 30
0.014303648844361305
 11
-0.2290363758802414
 21
-0.026058552786707878
 31
1.6892808675765991
 12
-0.252946138381958
 22
-0.013028961606323719
 32
1.6783815622329712
 13
-0.252946138381958
 23
-0.013028961606323719
 33
1.6783815622329712
  0
3DFACE
  8
0
 10
-0.252946138381958
 20
-0.013028961606323719
 30
1.6783815622329712
 11
-0.252946138381958
 21
0.01303021889179945
 31
1.6783815622329712
 12
-0.4353843033313751
 22
0.013030202127993107
 32
0.016765328124165535
 13
-0.4353843033313751
 23
0.013030202127993107
 33
0.016765328124165535
  0
3DFACE
  8
0
 10
-0.252946138381958
 20
0.01303021889179945
 30
1.6783815622329712
 11
-0.2290363758802414
 21
0.02605980820953846
 31
1.6892808675765991
 12
-0.4129510521888733
 22
0.026059789583086967
 32
0.014303648844361305
 13
-0.4129510521888733
 23
0.026059789583086967
 33
0.014303648844361305
  0
3DFACE
  8
0
 10
-0.2290363758802414
 20
0.02605980820953846
 30
1.6892808675765991
 11
-0.20538949966430664
 21
0.013030217960476875
 31
1.7030987739562988
 12
-0.3905177712440491
 22
0.013030200265347958
 32
0.011842130683362484
 13
-0.3905177712440491
 23
0.013030200265347958
 33
0.011842130683362484
  0
3DFACE
  8
0
 10
-0.3905177712440491
 20
-0.013028975576162338
 30
0.011842130683362484
 11
-0.20538949966430664
 21
-0.01302895788103342
 31
1.7030987739562988
 12
-0.2290363758802414
 22
-0.026058552786707878
 32
1.6892808675765991
 13
-0.2290363758802414
 23
-0.026058552786707878
 33
1.6892808675765991
  0
3DFACE
  8
0
 10
-0.20538949966430664
 20
0.013030217960476875
 30
1.7030987739562988
 11
-0.20538949966430664
 21
-0.01302895788103342
 31
1.7030987739562988
 12
-0.3905177712440491
 22
-0.013028975576162338
 32
0.011842130683362484
 13
-0.3905177712440491
 23
-0.013028975576162338
 33
0.011842130683362484
  0
3DFACE
  8
0
 10
-0.4150221645832062
 20
-0.019646525382995605
 30
-0.004571895115077496
 11
-0.4319356083869934
 21
-0.009822959080338478
 31
-0.0027161631733179092
 12
-0.4319356083869934
 22
0.009824179112911224
 32
-0.0027161631733179092
 13
-0.4319356083869934
 23
0.009824179112911224
 33
-0.0027161631733179092
  0
3DFACE
  8
0
 10
-0.4140188992023468
 20
-0.0270836241543293
 30
0.004571573808789253
 11
-0.4150221645832062
 21
-0.019646525382995605
 31
-0.004571895115077496
 12
-0.3981088101863861
 22
-0.009822957217693329
 32
-0.006427787244319916
 13
-0.3981088101863861
 23
-0.009822957217693329
 33
-0.006427787244319916
  0
3DFACE
  8
0
 10
-0.4373345971107483
 20
-0.01354150753468275
 30
0.007129908073693514
 11
-0.4373345971107483
 21
0.01354273036122322
 31
0.007129908073693514
 12
-0.4319356083869934
 22
0.009824179112911224
 32
-0.0027161631733179092
 13
-0.4319356083869934
 23
0.009824179112911224
 33
-0.0027161631733179092
  0
3DFACE
  8
0
 10
-0.3907032012939453
 20
-0.013541504740715027
 30
0.00201339996419847
 11
-0.3981088101863861
 21
-0.009822957217693329
 31
-0.006427787244319916
 12
-0.3981088101863861
 22
0.00982417818158865
 32
-0.006427787244319916
 13
-0.3981088101863861
 23
0.00982417818158865
 33
-0.006427787244319916
  0
3DFACE
  8
0
 10
-0.4373345971107483
 20
-0.01354150753468275
 30
0.007129908073693514
 11
-0.4319356083869934
 21
-0.009822959080338478
 31
-0.0027161631733179092
 12
-0.4150221645832062
 22
-0.019646525382995605
 32
-0.004571895115077496
 13
-0.4150221645832062
 23
-0.019646525382995605
 33
-0.004571895115077496
  0
3DFACE
  8
0
 10
-0.4140188992023468
 20
0.027084849774837494
 30
0.004571573808789253
 11
-0.3907032012939453
 21
0.013542729429900646
 31
0.00201339996419847
 12
-0.3981088101863861
 22
0.00982417818158865
 32
-0.006427787244319916
 13
-0.3981088101863861
 23
0.00982417818158865
 33
-0.006427787244319916
  0
3DFACE
  8
0
 10
-0.4373345971107483
 20
0.01354273036122322
 30
0.007129908073693514
 11
-0.4140188992023468
 21
0.027084849774837494
 31
0.004571573808789253
 12
-0.4150221645832062
 22
0.01964774914085865
 32
-0.004571895115077496
 13
-0.4150221645832062
 23
0.01964774914085865
 33
-0.004571895115077496
  0
3DFACE
  8
0
 10
-0.4131624102592468
 20
-0.028564447537064552
 30
0.012377431616187096
 11
-0.4140188992023468
 21
-0.0270836241543293
 31
0.004571573808789253
 12
-0.3907032012939453
 22
-0.013541504740715027
 32
0.00201339996419847
 13
-0.3907032012939453
 23
-0.013541504740715027
 33
0.00201339996419847
  0
3DFACE
  8
0
 10
-0.4377528727054596
 20
0.014283141121268272
 30
0.015075611881911755
 11
-0.4373345971107483
 21
0.01354273036122322
 31
0.007129908073693514
 12
-0.4373345971107483
 22
-0.01354150753468275
 32
0.007129908073693514
 13
-0.4373345971107483
 23
-0.01354150753468275
 33
0.007129908073693514
  0
3DFACE
  8
0
 10
-0.38857191801071167
 20
-0.014281912706792355
 30
0.009679412469267845
 11
-0.3907032012939453
 21
-0.013541504740715027
 31
0.00201339996419847
 12
-0.3907032012939453
 22
0.013542729429900646
 32
0.00201339996419847
 13
-0.3907032012939453
 23
0.013542729429900646
 33
0.00201339996419847
  0
3DFACE
  8
0
 10
-0.4131624102592468
 20
-0.028564447537064552
 30
0.012377431616187096
 11
-0.4377528727054596
 21
-0.014281916432082653
 31
0.015075611881911755
 12
-0.4373345971107483
 22
-0.01354150753468275
 32
0.007129908073693514
 13
-0.4373345971107483
 23
-0.01354150753468275
 33
0.007129908073693514
  0
3DFACE
  8
0
 10
-0.4131624102592468
 20
0.028565669432282448
 30
0.012377431616187096
 11
-0.38857191801071167
 21
0.014283139258623123
 31
0.009679412469267845
 12
-0.3907032012939453
 22
0.013542729429900646
 32
0.00201339996419847
 13
-0.3907032012939453
 23
0.013542729429900646
 33
0.00201339996419847
  0
3DFACE
  8
0
 10
-0.4131624102592468
 20
0.028565669432282448
 30
0.012377431616187096
 11
-0.4140188992023468
 21
0.027084849774837494
 31
0.004571573808789253
 12
-0.4373345971107483
 22
0.01354273036122322
 32
0.007129908073693514
 13
-0.4373345971107483
 23
0.01354273036122322
 33
0.007129908073693514
  0
3DFACE
  8
0
 10
-0.38536348938941956
 20
0.010586300864815712
 30
0.4450199007987976
 11
-0.3999234437942505
 21
0.010586300864815712
 31
0.4466175138950348
 12
-0.3976454436779022
 22
0.010586300864815712
 32
0.46737825870513916
 13
-0.3976454436779022
 23
0.010586300864815712
 33
0.46737825870513916
  0
3DFACE
  8
0
 10
-0.3999234437942505
 20
0.010586300864815712
 30
0.4466175138950348
 11
-0.38536348938941956
 21
0.010586300864815712
 31
0.4450199007987976
 12
-0.38536348938941956
 22
-0.01058507151901722
 32
0.4450199007987976
 13
-0.38536348938941956
 23
-0.01058507151901722
 33
0.4450199007987976
  0
3DFACE
  8
0
 10
-0.3723106384277344
 20
0.010586303658783436
 30
0.6982709169387817
 11
-0.35775065422058105
 21
0.01058630645275116
 31
0.6966733932495117
 12
-0.35775065422058105
 22
-0.010585066862404346
 32
0.6966733932495117
 13
-0.35775065422058105
 23
-0.010585066862404346
 33
0.6966733932495117
  0
3DFACE
  8
0
 10
-0.4377528727054596
 20
-0.014281916432082653
 30
0.015075611881911755
 11
-0.4131624102592468
 21
-0.028564447537064552
 31
0.012377431616187096
 12
-0.4129510521888733
 22
-0.02605857141315937
 32
0.014303648844361305
 13
-0.4129510521888733
 23
-0.02605857141315937
 33
0.014303648844361305
  0
3DFACE
  8
0
 10
-0.4377528727054596
 20
-0.014281916432082653
 30
0.015075611881911755
 11
-0.4353843033313751
 21
-0.013028978370130062
 31
0.016765328124165535
 12
-0.4353843033313751
 22
0.013030202127993107
 32
0.016765328124165535
 13
-0.4353843033313751
 23
0.013030202127993107
 33
0.016765328124165535
  0
3DFACE
  8
0
 10
-0.4377528727054596
 20
0.014283141121268272
 30
0.015075611881911755
 11
-0.4353843033313751
 21
0.013030202127993107
 31
0.016765328124165535
 12
-0.4129510521888733
 22
0.026059789583086967
 32
0.014303648844361305
 13
-0.4129510521888733
 23
0.026059789583086967
 33
0.014303648844361305
  0
3DFACE
  8
0
 10
-0.38857191801071167
 20
0.014283139258623123
 30
0.009679412469267845
 11
-0.4131624102592468
 21
0.028565669432282448
 31
0.012377431616187096
 12
-0.4129510521888733
 22
0.026059789583086967
 32
0.014303648844361305
 13
-0.4129510521888733
 23
0.026059789583086967
 33
0.014303648844361305
  0
3DFACE
  8
0
 10
-0.38857191801071167
 20
-0.014281912706792355
 30
0.009679412469267845
 11
-0.38857191801071167
 21
0.014283139258623123
 31
0.009679412469267845
 12
-0.3905177712440491
 22
0.013030200265347958
 32
0.011842130683362484
 13
-0.3905177712440491
 23
0.013030200265347958
 33
0.011842130683362484
  0
3DFACE
  8
0
 10
-0.38857191801071167
 20
-0.014281912706792355
 30
0.009679412469267845
 11
-0.3905177712440491
 21
-0.013028975576162338
 31
0.011842130683362484
 12
-0.4129510521888733
 22
-0.02605857141315937
 32
0.014303648844361305
 13
-0.4129510521888733
 23
-0.02605857141315937
 33
0.014303648844361305
  0
3DFACE
  8
0
 10
-0.4150221645832062
 20
-0.019646525382995605
 30
-0.004571895115077496
 11
-0.4150221645832062
 21
0.01964774914085865
 31
-0.004571895115077496
 12
-0.3981088101863861
 22
0.00982417818158865
 32
-0.006427787244319916
 13
-0.3981088101863861
 23
0.00982417818158865
 33
-0.006427787244319916
  0
3DFACE
  8
0
 10
-0.3976454436779022
 20
-0.01058507151901722
 30
0.46737825870513916
 11
-0.3999234437942505
 21
-0.01058507151901722
 31
0.4466175138950348
 12
-0.38536348938941956
 22
-0.01058507151901722
 32
0.4450199007987976
 13
-0.38536348938941956
 23
-0.01058507151901722
 33
0.4450199007987976
  0
3DFACE
  8
0
 10
-0.3976454436779022
 20
-0.01058507151901722
 30
0.46737825870513916
 11
-0.3830854892730713
 21
-0.01058507151901722
 31
0.4657807946205139
 12
-0.3830854892730713
 22
0.010586300864815712
 32
0.4657807946205139
 13
-0.3830854892730713
 23
0.010586300864815712
 33
0.4657807946205139
  0
3DFACE
  8
0
 10
-0.35775065422058105
 20
0.01058630645275116
 30
0.6966733932495117
 11
-0.3723106384277344
 21
0.010586303658783436
 31
0.6982709169387817
 12
-0.3700326383113861
 22
0.010586303658783436
 32
0.7190317511558533
 13
-0.3700326383113861
 23
0.010586303658783436
 33
0.7190317511558533
  0
3DFACE
  8
0
 10
-0.3700326383113861
 20
-0.01058506965637207
 30
0.7190317511558533
 11
-0.3723106384277344
 21
-0.01058506965637207
 31
0.6982709169387817
 12
-0.35775065422058105
 22
-0.010585066862404346
 32
0.6966733932495117
 13
-0.35775065422058105
 23
-0.010585066862404346
 33
0.6966733932495117
  0
3DFACE
  8
0
 10
-0.3700326383113861
 20
0.010586303658783436
 30
0.7190317511558533
 11
-0.3700326383113861
 21
-0.01058506965637207
 31
0.7190317511558533
 12
-0.3554726839065552
 22
-0.010585066862404346
 32
0.7174341678619385
 13
-0.3554726839065552
 23
-0.010585066862404346
 33
0.7174341678619385
  0
3DFACE
  8
0
 10
-0.3976454436779022
 20
-0.01058507151901722
 30
0.46737825870513916
 11
-0.3976454436779022
 21
0.010586300864815712
 31
0.46737825870513916
 12
-0.3999234437942505
 22
0.010586300864815712
 32
0.4466175138950348
 13
-0.3999234437942505
 23
0.010586300864815712
 33
0.4466175138950348
  0
3DFACE
  8
0
 10
-0.3700326383113861
 20
-0.01058506965637207
 30
0.7190317511558533
 11
-0.3700326383113861
 21
0.010586303658783436
 31
0.7190317511558533
 12
-0.3723106384277344
 22
0.010586303658783436
 32
0.6982709169387817
 13
-0.3723106384277344
 23
0.010586303658783436
 33
0.6982709169387817
  0
3DFACE
  8
0
 10
9.09340030830208e-07
 20
-0.35524722933769226
 30
1.6881879568099976
 11
9.12506607164687e-07
 21
-0.33671432733535767
 31
1.6602290868759155
 12
0.16835837066173553
 22
-0.29160311818122864
 32
1.6602290868759155
 13
0.16835837066173553
 23
-0.29160311818122864
 33
1.6602290868759155
  0
3DFACE
  8
0
 10
-0.1683565229177475
 20
0.29160434007644653
 30
1.7142387628555298
 11
-0.1776229739189148
 21
0.30765432119369507
 31
1.6881879568099976
 12
-0.3076527416706085
 22
0.17762458324432373
 32
1.6881879568099976
 13
-0.3076527416706085
 23
0.17762458324432373
 33
1.6881879568099976
  0
3DFACE
  8
0
 10
0.291604608297348
 20
-0.16835694015026093
 30
1.7142387628555298
 11
0.30765455961227417
 21
-0.17762339115142822
 31
1.6881879568099976
 12
0.3552488386631012
 22
4.797432779923838e-07
 32
1.6881879568099976
 13
0.3552488386631012
 23
4.797432779923838e-07
 33
1.6881879568099976
  0
3DFACE
  8
0
 10
-0.29160276055336
 20
0.16835811734199524
 30
1.7142387628555298
 11
-0.3076527416706085
 21
0.17762458324432373
 31
1.6881879568099976
 12
-0.355246901512146
 22
6.293740284490923e-07
 32
1.6881879568099976
 13
-0.355246901512146
 23
6.293740284490923e-07
 33
1.6881879568099976
  0
3DFACE
  8
0
 10
-0.3367139995098114
 20
6.275145665313175e-07
 30
1.7142387628555298
 11
-0.355246901512146
 21
6.293740284490923e-07
 31
1.6881879568099976
 12
-0.3076527416706085
 22
-0.17762330174446106
 32
1.6881879568099976
 13
-0.3076527416706085
 23
-0.17762330174446106
 33
1.6881879568099976
  0
3DFACE
  8
0
 10
-0.29160276055336
 20
-0.16835686564445496
 30
1.7142387628555298
 11
-0.3076527416706085
 21
-0.17762330174446106
 31
1.6881879568099976
 12
-0.177622988820076
 22
-0.3076530396938324
 32
1.6881879568099976
 13
-0.177622988820076
 23
-0.3076530396938324
 33
1.6881879568099976
  0
3DFACE
  8
0
 10
0.35474976897239685
 20
-0.09201905131340027
 30
0.4744102358818054
 11
0.35315021872520447
 21
0.09765234589576721
 31
0.4744102358818054
 12
0.31574690341949463
 22
0.08726973831653595
 32
0.4857140779495239
 13
0.31574690341949463
 23
0.08726973831653595
 33
0.4857140779495239
  0
3DFACE
  8
0
 10
-0.09183237701654434
 20
-0.3548998236656189
 30
0.4744102358818054
 11
0.09783899039030075
 21
-0.35330015420913696
 31
0.4744102358818054
 12
0.08742782473564148
 22
-0.31600701808929443
 32
0.4857140779495239
 13
0.08742782473564148
 23
-0.31600701808929443
 33
0.4857140779495239
  0
3DFACE
  8
0
 10
-0.3531136214733124
 20
-0.09798910468816757
 30
0.4744102358818054
 11
-0.31584903597831726
 21
-0.08768810331821442
 31
0.4857140779495239
 12
-0.3172796070575714
 22
0.08193083852529526
 32
0.4857140779495239
 13
-0.3172796070575714
 23
0.08193083852529526
 33
0.4857140779495239
  0
3DFACE
  8
0
 10
-0.0978025421500206
 20
0.35296356678009033
 30
0.4744102358818054
 11
-0.08753005415201187
 21
0.31558889150619507
 31
0.4857140779495239
 12
0.08208886533975601
 22
0.31701943278312683
 32
0.4857140779495239
 13
0.08208886533975601
 23
0.31701943278312683
 33
0.4857140779495239
  0
3DFACE
  8
0
 10
0.2569291591644287
 20
0.261112779378891
 30
0.4744102358818054
 11
0.22969861328601837
 21
0.23344871401786804
 31
0.4857140779495239
 12
0.31574690341949463
 22
0.08726973831653595
 32
0.4857140779495239
 13
0.31574690341949463
 23
0.08726973831653595
 33
0.4857140779495239
  0
3DFACE
  8
0
 10
0.09783899039030075
 20
-0.35330015420913696
 30
0.4744102358818054
 11
0.2612994313240051
 21
-0.2570790946483612
 31
0.4744102358818054
 12
0.23360678553581238
 22
-0.2299586981534958
 32
0.4857140779495239
 13
0.23360678553581238
 23
-0.2299586981534958
 33
0.4857140779495239
  0
3DFACE
  8
0
 10
-0.3531136214733124
 20
-0.09798910468816757
 30
0.4744102358818054
 11
-0.25689250230789185
 21
-0.26144954562187195
 31
0.4744102358818054
 12
-0.22980062663555145
 22
-0.23386704921722412
 32
0.4857140779495239
 13
-0.22980062663555145
 23
-0.23386704921722412
 33
0.4857140779495239
  0
3DFACE
  8
0
 10
-0.261262983083725
 20
0.2567424476146698
 30
0.4744102358818054
 11
-0.23370905220508575
 21
0.2295403927564621
 31
0.4857140779495239
 12
-0.08753005415201187
 22
0.31558889150619507
 32
0.4857140779495239
 13
-0.08753005415201187
 23
0.31558889150619507
 33
0.4857140779495239
  0
3DFACE
  8
0
 10
0.09186888486146927
 20
0.35456326603889465
 30
0.4744102358818054
 11
0.08208886533975601
 21
0.31701943278312683
 31
0.4857140779495239
 12
0.22969861328601837
 22
0.23344871401786804
 32
0.4857140779495239
 13
0.22969861328601837
 23
0.23344871401786804
 33
0.4857140779495239
  0
3DFACE
  8
0
 10
0.2612994313240051
 20
-0.2570790946483612
 30
0.4744102358818054
 11
0.35474976897239685
 21
-0.09201905131340027
 31
0.4744102358818054
 12
0.317177414894104
 22
-0.08234918862581253
 32
0.4857140779495239
 13
0.317177414894104
 23
-0.08234918862581253
 33
0.4857140779495239
  0
3DFACE
  8
0
 10
-0.25689250230789185
 20
-0.26144954562187195
 30
0.4744102358818054
 11
-0.09183237701654434
 21
-0.3548998236656189
 31
0.4744102358818054
 12
-0.08219107240438461
 22
-0.3174375891685486
 32
0.4857140779495239
 13
-0.08219107240438461
 23
-0.3174375891685486
 33
0.4857140779495239
  0
3DFACE
  8
0
 10
-0.3547132611274719
 20
0.0916823074221611
 30
0.4744102358818054
 11
-0.3172796070575714
 21
0.08193083852529526
 31
0.4857140779495239
 12
-0.23370905220508575
 22
0.2295403927564621
 32
0.4857140779495239
 13
-0.23370905220508575
 23
0.2295403927564621
 33
0.4857140779495239
  0
3DFACE
  8
0
 10
0.35677364468574524
 20
-0.0925431028008461
 30
0.43376100063323975
 11
0.3551649749279022
 21
0.09821047633886337
 31
0.43376100063323975
 12
0.35315021872520447
 22
0.09765234589576721
 32
0.4744102358818054
 13
0.35315021872520447
 23
0.09765234589576721
 33
0.4744102358818054
  0
3DFACE
  8
0
 10
0.08903636038303375
 20
-0.3218139111995697
 30
0.432780385017395
 11
0.09839709848165512
 21
-0.3553149104118347
 31
0.43376100063323975
 12
-0.09235644340515137
 22
-0.3569236993789673
 32
0.43376100063323975
 13
-0.09235644340515137
 23
-0.3569236993789673
 33
0.43376100063323975
  0
3DFACE
  8
0
 10
0.09839709848165512
 20
-0.3553149104118347
 30
0.43376100063323975
 11
0.09783899039030075
 21
-0.35330015420913696
 31
0.4744102358818054
 12
-0.09183237701654434
 22
-0.3548998236656189
 32
0.4744102358818054
 13
-0.09183237701654434
 23
-0.3548998236656189
 33
0.4744102358818054
  0
3DFACE
  8
0
 10
-0.32311275601387024
 20
0.08344121277332306
 30
0.432780385017395
 11
-0.32165583968162537
 21
-0.08929664641618729
 31
0.432780385017395
 12
-0.35512828826904297
 22
-0.09854721277952194
 32
0.43376100063323975
 13
-0.35512828826904297
 23
-0.09854721277952194
 33
0.43376100063323975
  0
3DFACE
  8
0
 10
-0.35512828826904297
 20
-0.09854721277952194
 30
0.43376100063323975
 11
-0.3531136214733124
 21
-0.09798910468816757
 31
0.4744102358818054
 12
-0.3547132611274719
 22
0.0916823074221611
 32
0.4744102358818054
 13
-0.3547132611274719
 23
0.0916823074221611
 33
0.4744102358818054
  0
3DFACE
  8
0
 10
-0.09836063534021378
 20
0.3549782931804657
 30
0.43376100063323975
 11
-0.0978025421500206
 21
0.35296356678009033
 31
0.4744102358818054
 12
0.09186888486146927
 22
0.35456326603889465
 32
0.4744102358818054
 13
0.09186888486146927
 23
0.35456326603889465
 33
0.4744102358818054
  0
3DFACE
  8
0
 10
0.2583949565887451
 20
0.2626034617424011
 30
0.43376100063323975
 11
0.2569291591644287
 21
0.261112779378891
 31
0.4744102358818054
 12
0.35315021872520447
 22
0.09765234589576721
 32
0.4744102358818054
 13
0.35315021872520447
 23
0.09765234589576721
 33
0.4744102358818054
  0
3DFACE
  8
0
 10
0.2627900540828705
 20
-0.25854483246803284
 30
0.43376100063323975
 11
0.2612994313240051
 21
-0.2570790946483612
 31
0.4744102358818054
 12
0.09783899039030075
 22
-0.35330015420913696
 32
0.4744102358818054
 13
0.09783899039030075
 23
-0.35330015420913696
 33
0.4744102358818054
  0
3DFACE
  8
0
 10
-0.32165583968162537
 20
-0.08929664641618729
 30
0.432780385017395
 11
-0.23402519524097443
 21
-0.2381635457277298
 31
0.432780385017395
 12
-0.25835826992988586
 22
-0.2629401981830597
 32
0.43376100063323975
 13
-0.25835826992988586
 23
-0.2629401981830597
 33
0.43376100063323975
  0
3DFACE
  8
0
 10
-0.25835826992988586
 20
-0.2629401981830597
 30
0.43376100063323975
 11
-0.25689250230789185
 21
-0.26144954562187195
 31
0.4744102358818054
 12
-0.3531136214733124
 22
-0.09798910468816757
 32
0.4744102358818054
 13
-0.3531136214733124
 23
-0.09798910468816757
 33
0.4744102358818054
  0
3DFACE
  8
0
 10
-0.2627536654472351
 20
0.2582082152366638
 30
0.43376100063323975
 11
-0.261262983083725
 21
0.2567424476146698
 31
0.4744102358818054
 12
-0.0978025421500206
 22
0.35296356678009033
 32
0.4744102358818054
 13
-0.0978025421500206
 23
0.35296356678009033
 33
0.4744102358818054
  0
3DFACE
  8
0
 10
0.0923929214477539
 20
0.35658717155456543
 30
0.43376100063323975
 11
0.09186888486146927
 21
0.35456326603889465
 31
0.4744102358818054
 12
0.2569291591644287
 22
0.261112779378891
 32
0.4744102358818054
 13
0.2569291591644287
 23
0.261112779378891
 33
0.4744102358818054
  0
3DFACE
  8
0
 10
0.35677364468574524
 20
-0.0925431028008461
 30
0.43376100063323975
 11
0.35474976897239685
 21
-0.09201905131340027
 31
0.4744102358818054
 12
0.2612994313240051
 22
-0.2570790946483612
 32
0.4744102358818054
 13
0.2612994313240051
 23
-0.2570790946483612
 33
0.4744102358818054
  0
3DFACE
  8
0
 10
-0.08370145410299301
 20
-0.3232707679271698
 30
0.432780385017395
 11
-0.09235644340515137
 21
-0.3569236993789673
 31
0.43376100063323975
 12
-0.25835826992988586
 22
-0.2629401981830597
 32
0.43376100063323975
 13
-0.25835826992988586
 23
-0.2629401981830597
 33
0.43376100063323975
  0
3DFACE
  8
0
 10
-0.09235644340515137
 20
-0.3569236993789673
 30
0.43376100063323975
 11
-0.09183237701654434
 21
-0.3548998236656189
 31
0.4744102358818054
 12
-0.25689250230789185
 22
-0.26144954562187195
 32
0.4744102358818054
 13
-0.25689250230789185
 23
-0.26144954562187195
 33
0.4744102358818054
  0
3DFACE
  8
0
 10
-0.23800551891326904
 20
0.23376499116420746
 30
0.432780385017395
 11
-0.32311275601387024
 21
0.08344121277332306
 31
0.432780385017395
 12
-0.3567372262477875
 22
0.09220635890960693
 32
0.43376100063323975
 13
-0.3567372262477875
 23
0.09220635890960693
 33
0.43376100063323975
  0
3DFACE
  8
0
 10
-0.2627536654472351
 20
0.2582082152366638
 30
0.43376100063323975
 11
-0.3567372262477875
 21
0.09220635890960693
 31
0.43376100063323975
 12
-0.3547132611274719
 22
0.0916823074221611
 32
0.4744102358818054
 13
-0.3547132611274719
 23
0.0916823074221611
 33
0.4744102358818054
  0
3DFACE
  8
0
 10
0.31574690341949463
 20
0.08726973831653595
 30
0.4857140779495239
 11
0.31574690341949463
 21
0.08726975321769714
 31
0.432780385017395
 12
0.317177414894104
 22
-0.08234918862581253
 32
0.432780385017395
 13
0.317177414894104
 23
-0.08234918862581253
 33
0.432780385017395
  0
3DFACE
  8
0
 10
-0.08753005415201187
 20
0.31558889150619507
 30
0.4857140779495239
 11
-0.08753005415201187
 21
0.31558889150619507
 31
0.432780385017395
 12
0.08208886533975601
 22
0.31701943278312683
 32
0.432780385017395
 13
0.08208886533975601
 23
0.31701943278312683
 33
0.432780385017395
  0
3DFACE
  8
0
 10
0.22969861328601837
 20
0.23344871401786804
 30
0.4857140779495239
 11
0.22969861328601837
 21
0.23344871401786804
 31
0.432780385017395
 12
0.31574690341949463
 22
0.08726975321769714
 32
0.432780385017395
 13
0.31574690341949463
 23
0.08726975321769714
 33
0.432780385017395
  0
3DFACE
  8
0
 10
0.08208886533975601
 20
0.31701943278312683
 30
0.4857140779495239
 11
0.08208886533975601
 21
0.31701943278312683
 31
0.432780385017395
 12
0.22969861328601837
 22
0.23344871401786804
 32
0.432780385017395
 13
0.22969861328601837
 23
0.23344871401786804
 33
0.432780385017395
  0
3DFACE
  8
0
 10
0.317177414894104
 20
-0.08234918862581253
 30
0.4857140779495239
 11
0.317177414894104
 21
-0.08234918862581253
 31
0.432780385017395
 12
0.23360678553581238
 22
-0.2299586981534958
 32
0.432780385017395
 13
0.23360678553581238
 23
-0.2299586981534958
 33
0.432780385017395
  0
3DFACE
  8
0
 10
0.31574690341949463
 20
0.08726975321769714
 30
0.432780385017395
 11
0.3551649749279022
 21
0.09821047633886337
 31
0.43376100063323975
 12
0.35677364468574524
 22
-0.0925431028008461
 32
0.43376100063323975
 13
0.35677364468574524
 23
-0.0925431028008461
 33
0.43376100063323975
  0
3DFACE
  8
0
 10
0.08208886533975601
 20
0.31701943278312683
 30
0.432780385017395
 11
-0.08753005415201187
 21
0.31558889150619507
 31
0.432780385017395
 12
-0.09836063534021378
 22
0.3549782931804657
 32
0.43376100063323975
 13
-0.09836063534021378
 23
0.3549782931804657
 33
0.43376100063323975
  0
3DFACE
  8
0
 10
0.31574690341949463
 20
0.08726975321769714
 30
0.432780385017395
 11
0.22969861328601837
 21
0.23344871401786804
 31
0.432780385017395
 12
0.2583949565887451
 22
0.2626034617424011
 32
0.43376100063323975
 13
0.2583949565887451
 23
0.2626034617424011
 33
0.43376100063323975
  0
3DFACE
  8
0
 10
0.23360678553581238
 20
-0.2299586981534958
 30
0.432780385017395
 11
0.2627900540828705
 21
-0.25854483246803284
 31
0.43376100063323975
 12
0.09839709848165512
 22
-0.3553149104118347
 32
0.43376100063323975
 13
0.09839709848165512
 23
-0.3553149104118347
 33
0.43376100063323975
  0
3DFACE
  8
0
 10
-0.08753005415201187
 20
0.31558889150619507
 30
0.432780385017395
 11
-0.23800551891326904
 21
0.23376499116420746
 31
0.432780385017395
 12
-0.2627536654472351
 22
0.2582082152366638
 32
0.43376100063323975
 13
-0.2627536654472351
 23
0.2582082152366638
 33
0.43376100063323975
  0
3DFACE
  8
0
 10
0.22969861328601837
 20
0.23344871401786804
 30
0.432780385017395
 11
0.08208886533975601
 21
0.31701943278312683
 31
0.432780385017395
 12
0.0923929214477539
 22
0.35658717155456543
 32
0.43376100063323975
 13
0.0923929214477539
 23
0.35658717155456543
 33
0.43376100063323975
  0
3DFACE
  8
0
 10
0.317177414894104
 20
-0.08234918862581253
 30
0.432780385017395
 11
0.35677364468574524
 21
-0.0925431028008461
 31
0.43376100063323975
 12
0.2627900540828705
 22
-0.25854483246803284
 32
0.43376100063323975
 13
0.2627900540828705
 23
-0.25854483246803284
 33
0.43376100063323975
  0
3DFACE
  8
0
 10
-0.08219107240438461
 20
-0.3174375891685486
 30
0.4857140779495239
 11
0.08742782473564148
 21
-0.31600701808929443
 31
0.4857140779495239
 12
0.08903636038303375
 22
-0.3218139111995697
 32
0.432780385017395
 13
0.08903636038303375
 23
-0.3218139111995697
 33
0.432780385017395
  0
3DFACE
  8
0
 10
-0.31584903597831726
 20
-0.08768810331821442
 30
0.4857140779495239
 11
-0.32165583968162537
 21
-0.08929664641618729
 31
0.432780385017395
 12
-0.32311275601387024
 22
0.08344121277332306
 32
0.432780385017395
 13
-0.32311275601387024
 23
0.08344121277332306
 33
0.432780385017395
  0
3DFACE
  8
0
 10
0.08742782473564148
 20
-0.31600701808929443
 30
0.4857140779495239
 11
0.23360678553581238
 21
-0.2299586981534958
 31
0.4857140779495239
 12
0.23360678553581238
 22
-0.2299586981534958
 32
0.432780385017395
 13
0.23360678553581238
 23
-0.2299586981534958
 33
0.432780385017395
  0
3DFACE
  8
0
 10
-0.22980062663555145
 20
-0.23386704921722412
 30
0.4857140779495239
 11
-0.23402519524097443
 21
-0.2381635457277298
 31
0.432780385017395
 12
-0.32165583968162537
 22
-0.08929664641618729
 32
0.432780385017395
 13
-0.32165583968162537
 23
-0.08929664641618729
 33
0.432780385017395
  0
3DFACE
  8
0
 10
-0.23370905220508575
 20
0.2295403927564621
 30
0.4857140779495239
 11
-0.23800551891326904
 21
0.23376499116420746
 31
0.432780385017395
 12
-0.08753005415201187
 22
0.31558889150619507
 32
0.432780385017395
 13
-0.08753005415201187
 23
0.31558889150619507
 33
0.432780385017395
  0
3DFACE
  8
0
 10
-0.08219107240438461
 20
-0.3174375891685486
 30
0.4857140779495239
 11
-0.08370145410299301
 21
-0.3232707679271698
 31
0.432780385017395
 12
-0.23402519524097443
 22
-0.2381635457277298
 32
0.432780385017395
 13
-0.23402519524097443
 23
-0.2381635457277298
 33
0.432780385017395
  0
3DFACE
  8
0
 10
-0.23370905220508575
 20
0.2295403927564621
 30
0.4857140779495239
 11
-0.3172796070575714
 21
0.08193083852529526
 31
0.4857140779495239
 12
-0.32311275601387024
 22
0.08344121277332306
 32
0.432780385017395
 13
-0.32311275601387024
 23
0.08344121277332306
 33
0.432780385017395
  0
3DFACE
  8
0
 10
9.239117844117573e-07
 20
-0.26539602875709534
 30
1.7272714376449585
 11
9.12506607164687e-07
 21
-0.33671432733535767
 31
1.7142387628555298
 12
0.16835837066173553
 22
-0.29160311818122864
 32
1.7142387628555298
 13
0.16835837066173553
 23
-0.29160311818122864
 33
1.7142387628555298
  0
3DFACE
  8
0
 10
0.30765455961227417
 20
-0.17762339115142822
 30
1.6881879568099976
 11
0.17762482166290283
 21
-0.3076530992984772
 31
1.6881879568099976
 12
0.16835837066173553
 22
-0.29160311818122864
 32
1.6602290868759155
 13
0.16835837066173553
 23
-0.29160311818122864
 33
1.6602290868759155
  0
3DFACE
  8
0
 10
0.30765455961227417
 20
-0.17762339115142822
 30
1.6881879568099976
 11
0.291604608297348
 21
-0.16835694015026093
 31
1.6602290868759155
 12
0.3367159366607666
 22
4.856898954130884e-07
 32
1.6602290868759155
 13
0.3367159366607666
 23
4.856898954130884e-07
 33
1.6602290868759155
  0
3DFACE
  8
0
 10
-0.355246901512146
 20
6.293740284490923e-07
 30
1.6881879568099976
 11
-0.3076527416706085
 21
0.17762458324432373
 31
1.6881879568099976
 12
-0.29160276055336
 22
0.16835811734199524
 32
1.6602290868759155
 13
-0.29160276055336
 23
0.16835811734199524
 33
1.6602290868759155
  0
3DFACE
  8
0
 10
0.3552488386631012
 20
4.797432779923838e-07
 30
1.6881879568099976
 11
0.3367159366607666
 21
4.856898954130884e-07
 31
1.6602290868759155
 12
0.29160478711128235
 22
0.1683579683303833
 32
1.6602290868759155
 13
0.29160478711128235
 23
0.1683579683303833
 33
1.6602290868759155
  0
3DFACE
  8
0
 10
-0.13269737362861633
 20
-0.22983959317207336
 30
1.7272714376449585
 11
9.239117844117573e-07
 21
-0.26539602875709534
 31
1.7272714376449585
 12
9.439486348128412e-07
 22
6.221630428626668e-07
 32
1.7272714376449585
 13
9.439486348128412e-07
 23
6.221630428626668e-07
 33
1.7272714376449585
  0
3DFACE
  8
0
 10
0.1326994150876999
 20
0.2298407107591629
 30
1.7272714376449585
 11
9.639855989007629e-07
 21
0.26539719104766846
 31
1.7272714376449585
 12
9.439486348128412e-07
 22
6.221630428626668e-07
 32
1.7272714376449585
 13
9.439486348128412e-07
 23
6.221630428626668e-07
 33
1.7272714376449585
  0
3DFACE
  8
0
 10
-0.13269731402397156
 20
0.22984078526496887
 30
1.7272714376449585
 11
-0.13269732892513275
 21
6.422328056032711e-07
 31
1.7272714376449585
 12
9.439486348128412e-07
 22
6.221630428626668e-07
 32
1.7272714376449585
 13
9.439486348128412e-07
 23
6.221630428626668e-07
 33
1.7272714376449585
  0
3DFACE
  8
0
 10
0.13269923627376556
 20
-0.22983962297439575
 30
1.7272714376449585
 11
0.13269931077957153
 21
5.619537546408537e-07
 31
1.7272714376449585
 12
9.439486348128412e-07
 22
6.221630428626668e-07
 32
1.7272714376449585
 13
9.439486348128412e-07
 23
6.221630428626668e-07
 33
1.7272714376449585
  0
3DFACE
  8
0
 10
0.2298412173986435
 20
0.13269878923892975
 30
1.7272714376449585
 11
0.1326994150876999
 21
0.2298407107591629
 31
1.7272714376449585
 12
0.13269931077957153
 22
5.619537546408537e-07
 32
1.7272714376449585
 13
0.13269931077957153
 23
5.619537546408537e-07
 33
1.7272714376449585
  0
3DFACE
  8
0
 10
0.22984111309051514
 20
-0.13269777595996857
 30
1.7272714376449585
 11
0.2653975784778595
 21
5.097937219034065e-07
 31
1.7272714376449585
 12
0.13269931077957153
 22
5.619537546408537e-07
 32
1.7272714376449585
 13
0.13269931077957153
 23
5.619537546408537e-07
 33
1.7272714376449585
  0
3DFACE
  8
0
 10
-0.22983922064304352
 20
-0.1326976716518402
 30
1.7272714376449585
 11
-0.13269737362861633
 21
-0.22983959317207336
 31
1.7272714376449585
 12
-0.13269732892513275
 22
6.422328056032711e-07
 32
1.7272714376449585
 13
-0.13269732892513275
 23
6.422328056032711e-07
 33
1.7272714376449585
  0
3DFACE
  8
0
 10
-0.22983920574188232
 20
0.1326989084482193
 30
1.7272714376449585
 11
-0.2653956413269043
 21
6.215790335772908e-07
 31
1.7272714376449585
 12
-0.13269732892513275
 22
6.422328056032711e-07
 32
1.7272714376449585
 13
-0.13269732892513275
 23
6.422328056032711e-07
 33
1.7272714376449585
  0
3DFACE
  8
0
 10
0.16835837066173553
 20
-0.29160311818122864
 30
1.7142387628555298
 11
9.12506607164687e-07
 21
-0.33671432733535767
 31
1.7142387628555298
 12
9.09340030830208e-07
 22
-0.35524722933769226
 32
1.6881879568099976
 13
9.09340030830208e-07
 23
-0.35524722933769226
 33
1.6881879568099976
  0
3DFACE
  8
0
 10
9.63349293670035e-07
 20
0.33671560883522034
 30
1.7142387628555298
 11
9.62980948315817e-07
 21
0.35524851083755493
 31
1.6881879568099976
 12
-0.1776229739189148
 22
0.30765432119369507
 32
1.6881879568099976
 13
-0.1776229739189148
 23
0.30765432119369507
 33
1.6881879568099976
  0
3DFACE
  8
0
 10
0.16835837066173553
 20
-0.29160311818122864
 30
1.7142387628555298
 11
0.17762482166290283
 21
-0.3076530992984772
 31
1.6881879568099976
 12
0.30765455961227417
 22
-0.17762339115142822
 32
1.6881879568099976
 13
0.30765455961227417
 23
-0.17762339115142822
 33
1.6881879568099976
  0
3DFACE
  8
0
 10
0.3367159366607666
 20
4.856898954130884e-07
 30
1.7142387628555298
 11
0.3552488386631012
 21
4.797432779923838e-07
 31
1.6881879568099976
 12
0.3076547682285309
 22
0.1776244193315506
 32
1.6881879568099976
 13
0.3076547682285309
 23
0.1776244193315506
 33
1.6881879568099976
  0
3DFACE
  8
0
 10
0.29160478711128235
 20
0.1683579683303833
 30
1.7142387628555298
 11
0.3076547682285309
 21
0.1776244193315506
 31
1.6881879568099976
 12
0.1776251196861267
 22
0.3076542019844055
 32
1.6881879568099976
 13
0.1776251196861267
 23
0.3076542019844055
 33
1.6881879568099976
  0
3DFACE
  8
0
 10
0.16835863888263702
 20
0.29160425066947937
 30
1.7142387628555298
 11
0.1776251196861267
 21
0.3076542019844055
 31
1.6881879568099976
 12
9.62980948315817e-07
 22
0.35524851083755493
 32
1.6881879568099976
 13
9.62980948315817e-07
 23
0.35524851083755493
 33
1.6881879568099976
  0
3DFACE
  8
0
 10
9.12506607164687e-07
 20
-0.33671432733535767
 30
1.7142387628555298
 11
-0.1683565378189087
 21
-0.29160305857658386
 31
1.7142387628555298
 12
-0.177622988820076
 22
-0.3076530396938324
 32
1.6881879568099976
 13
-0.177622988820076
 23
-0.3076530396938324
 33
1.6881879568099976
  0
3DFACE
  8
0
 10
0.30732908844947815
 20
4.952651693201915e-07
 30
1.653914213180542
 11
0.21917055547237396
 21
5.244700673756597e-07
 31
1.7007054090499878
 12
0.1898074746131897
 22
0.10958530753850937
 32
1.7007054090499878
 13
0.1898074746131897
 23
0.10958530753850937
 33
1.7007054090499878
  0
3DFACE
  8
0
 10
9.639855989007629e-07
 20
0.26539719104766846
 30
1.7272714376449585
 11
9.63349293670035e-07
 21
0.33671560883522034
 31
1.7142387628555298
 12
-0.1683565229177475
 22
0.29160434007644653
 32
1.7142387628555298
 13
-0.1683565229177475
 23
0.29160434007644653
 33
1.7142387628555298
  0
3DFACE
  8
0
 10
0.22984111309051514
 20
-0.13269777595996857
 30
1.7272714376449585
 11
0.13269923627376556
 21
-0.22983962297439575
 31
1.7272714376449585
 12
0.16835837066173553
 22
-0.29160311818122864
 32
1.7142387628555298
 13
0.16835837066173553
 23
-0.29160311818122864
 33
1.7142387628555298
  0
3DFACE
  8
0
 10
-0.22983920574188232
 20
0.1326989084482193
 30
1.7272714376449585
 11
-0.13269731402397156
 21
0.22984078526496887
 31
1.7272714376449585
 12
-0.1683565229177475
 22
0.29160434007644653
 32
1.7142387628555298
 13
-0.1683565229177475
 23
0.29160434007644653
 33
1.7142387628555298
  0
3DFACE
  8
0
 10
0.2653975784778595
 20
5.097937219034065e-07
 30
1.7272714376449585
 11
0.22984111309051514
 21
-0.13269777595996857
 31
1.7272714376449585
 12
0.291604608297348
 22
-0.16835694015026093
 32
1.7142387628555298
 13
0.291604608297348
 23
-0.16835694015026093
 33
1.7142387628555298
  0
3DFACE
  8
0
 10
-0.22983920574188232
 20
0.1326989084482193
 30
1.7272714376449585
 11
-0.29160276055336
 21
0.16835811734199524
 31
1.7142387628555298
 12
-0.3367139995098114
 22
6.275145665313175e-07
 32
1.7142387628555298
 13
-0.3367139995098114
 23
6.275145665313175e-07
 33
1.7142387628555298
  0
3DFACE
  8
0
 10
0.2298412173986435
 20
0.13269878923892975
 30
1.7272714376449585
 11
0.2653975784778595
 21
5.097937219034065e-07
 31
1.7272714376449585
 12
0.3367159366607666
 22
4.856898954130884e-07
 32
1.7142387628555298
 13
0.3367159366607666
 23
4.856898954130884e-07
 33
1.7142387628555298
  0
3DFACE
  8
0
 10
-0.22983922064304352
 20
-0.1326976716518402
 30
1.7272714376449585
 11
-0.2653956413269043
 21
6.215790335772908e-07
 31
1.7272714376449585
 12
-0.3367139995098114
 22
6.275145665313175e-07
 32
1.7142387628555298
 13
-0.3367139995098114
 23
6.275145665313175e-07
 33
1.7142387628555298
  0
3DFACE
  8
0
 10
0.1326994150876999
 20
0.2298407107591629
 30
1.7272714376449585
 11
0.2298412173986435
 21
0.13269878923892975
 31
1.7272714376449585
 12
0.29160478711128235
 22
0.1683579683303833
 32
1.7142387628555298
 13
0.29160478711128235
 23
0.1683579683303833
 33
1.7142387628555298
  0
3DFACE
  8
0
 10
-0.22983922064304352
 20
-0.1326976716518402
 30
1.7272714376449585
 11
-0.29160276055336
 21
-0.16835686564445496
 31
1.7142387628555298
 12
-0.1683565378189087
 22
-0.29160305857658386
 32
1.7142387628555298
 13
-0.1683565378189087
 23
-0.29160305857658386
 33
1.7142387628555298
  0
3DFACE
  8
0
 10
0.16835863888263702
 20
0.29160425066947937
 30
1.7142387628555298
 11
9.63349293670035e-07
 21
0.33671560883522034
 31
1.7142387628555298
 12
9.639855989007629e-07
 22
0.26539719104766846
 32
1.7272714376449585
 13
9.639855989007629e-07
 23
0.26539719104766846
 33
1.7272714376449585
  0
3DFACE
  8
0
 10
-0.13269737362861633
 20
-0.22983959317207336
 30
1.7272714376449585
 11
-0.1683565378189087
 21
-0.29160305857658386
 31
1.7142387628555298
 12
9.12506607164687e-07
 22
-0.33671432733535767
 32
1.7142387628555298
 13
9.12506607164687e-07
 23
-0.33671432733535767
 33
1.7142387628555298
  0
3DFACE
  8
0
 10
0.32619187235832214
 20
-0.08465539664030075
 30
0.725214421749115
 11
0.32472094893455505
 21
0.08976584672927856
 31
0.725214421749115
 12
0.29032495617866516
 22
0.08021802455186844
 32
0.7372943758964539
 13
0.29032495617866516
 23
0.08021802455186844
 33
0.7372943758964539
  0
3DFACE
  8
0
 10
-0.08448369801044464
 20
-0.32639971375465393
 30
0.725214421749115
 11
0.08993752300739288
 21
-0.3249287009239197
 31
0.725214421749115
 12
0.0803634375333786
 22
-0.29063403606414795
 32
0.7372943758964539
 13
0.0803634375333786
 23
-0.29063403606414795
 33
0.7372943758964539
  0
3DFACE
  8
0
 10
-0.32475709915161133
 20
-0.09014543145895004
 30
0.725214421749115
 11
-0.29048874974250793
 21
-0.08067267388105392
 31
0.7372943758964539
 12
-0.29180431365966797
 22
0.07530838996171951
 32
0.7372943758964539
 13
-0.29180431365966797
 23
0.07530838996171951
 33
0.7372943758964539
  0
3DFACE
  8
0
 10
-0.08997384458780289
 20
0.32454922795295715
 30
0.725214421749115
 11
-0.08052728325128555
 21
0.29017961025238037
 31
0.7372943758964539
 12
0.0754537507891655
 22
0.291495144367218
 32
0.7372943758964539
 13
0.0754537507891655
 23
0.291495144367218
 33
0.7372943758964539
  0
3DFACE
  8
0
 10
0.2362363189458847
 20
0.24008354544639587
 30
0.725214421749115
 11
0.2111952304840088
 21
0.21464376151561737
 31
0.7372943758964539
 12
0.29032495617866516
 22
0.08021802455186844
 32
0.7372943758964539
 13
0.29032495617866516
 23
0.08021802455186844
 33
0.7372943758964539
  0
3DFACE
  8
0
 10
0.08993752300739288
 20
-0.3249287009239197
 30
0.725214421749115
 11
0.2402551919221878
 21
-0.23644410073757172
 31
0.725214421749115
 12
0.21478913724422455
 22
-0.211504265666008
 32
0.7372943758964539
 13
0.21478913724422455
 23
-0.211504265666008
 33
0.7372943758964539
  0
3DFACE
  8
0
 10
-0.32475709915161133
 20
-0.09014543145895004
 30
0.725214421749115
 11
-0.23627246916294098
 21
-0.24046312272548676
 31
0.725214421749115
 12
-0.211358904838562
 22
-0.21509838104248047
 32
0.7372943758964539
 13
-0.211358904838562
 23
-0.21509838104248047
 33
0.7372943758964539
  0
3DFACE
  8
0
 10
-0.240291565656662
 20
0.2360645830631256
 30
0.725214421749115
 11
-0.21495307981967926
 21
0.21104967594146729
 31
0.7372943758964539
 12
-0.08052728325128555
 22
0.29017961025238037
 32
0.7372943758964539
 13
-0.08052728325128555
 23
0.29017961025238037
 33
0.7372943758964539
  0
3DFACE
  8
0
 10
0.08444741368293762
 20
0.32602035999298096
 30
0.725214421749115
 11
0.0754537507891655
 21
0.291495144367218
 31
0.7372943758964539
 12
0.2111952304840088
 22
0.21464376151561737
 32
0.7372943758964539
 13
0.2111952304840088
 23
0.21464376151561737
 33
0.7372943758964539
  0
3DFACE
  8
0
 10
0.2402551919221878
 20
-0.23644410073757172
 30
0.725214421749115
 11
0.32619187235832214
 21
-0.08465539664030075
 31
0.725214421749115
 12
0.29164043068885803
 22
-0.0757630243897438
 32
0.7372943758964539
 13
0.29164043068885803
 23
-0.0757630243897438
 33
0.7372943758964539
  0
3DFACE
  8
0
 10
-0.23627246916294098
 20
-0.24046312272548676
 30
0.725214421749115
 11
-0.08448369801044464
 21
-0.32639971375465393
 31
0.725214421749115
 12
-0.07561758160591125
 22
-0.291949599981308
 32
0.7372943758964539
 13
-0.07561758160591125
 23
-0.291949599981308
 33
0.7372943758964539
  0
3DFACE
  8
0
 10
-0.32622817158699036
 20
0.08427581191062927
 30
0.725214421749115
 11
-0.29180431365966797
 21
0.07530838996171951
 31
0.7372943758964539
 12
-0.21495307981967926
 22
0.21104967594146729
 32
0.7372943758964539
 13
-0.21495307981967926
 23
0.21104967594146729
 33
0.7372943758964539
  0
3DFACE
  8
0
 10
0.3280530571937561
 20
-0.08513729274272919
 30
0.6817750930786133
 11
0.3265736997127533
 21
0.09027910232543945
 31
0.6817750930786133
 12
0.32472094893455505
 22
0.08976584672927856
 32
0.725214421749115
 13
0.32472094893455505
 23
0.08976584672927856
 33
0.725214421749115
  0
3DFACE
  8
0
 10
0.08184264600276947
 20
-0.2959740459918976
 30
0.6807271242141724
 11
0.09045075625181198
 21
-0.32678142189979553
 31
0.6817750930786133
 12
-0.08496562391519547
 22
-0.3282608985900879
 32
0.6817750930786133
 13
-0.08496562391519547
 23
-0.3282608985900879
 33
0.6817750930786133
  0
3DFACE
  8
0
 10
0.09045075625181198
 20
-0.32678142189979553
 30
0.6817750930786133
 11
0.08993752300739288
 21
-0.3249287009239197
 31
0.725214421749115
 12
-0.08448369801044464
 22
-0.32639971375465393
 32
0.725214421749115
 13
-0.08448369801044464
 23
-0.32639971375465393
 33
0.725214421749115
  0
3DFACE
  8
0
 10
-0.29716843366622925
 20
0.07669732719659805
 30
0.6807271242141724
 11
-0.295828640460968
 21
-0.08215188980102539
 31
0.6807271242141724
 12
-0.32660984992980957
 22
-0.09065867960453033
 32
0.6817750930786133
 13
-0.32660984992980957
 23
-0.09065867960453033
 33
0.6817750930786133
  0
3DFACE
  8
0
 10
-0.3280893862247467
 20
0.0847577229142189
 30
0.6817750930786133
 11
-0.32660984992980957
 21
-0.09065867960453033
 31
0.6817750930786133
 12
-0.32475709915161133
 22
-0.09014543145895004
 32
0.725214421749115
 13
-0.32475709915161133
 23
-0.09014543145895004
 33
0.725214421749115
  0
3DFACE
  8
0
 10
-0.09048706293106079
 20
0.32640203833580017
 30
0.6817750930786133
 11
-0.08997384458780289
 21
0.32454922795295715
 31
0.725214421749115
 12
0.08444741368293762
 22
0.32602035999298096
 32
0.725214421749115
 13
0.08444741368293762
 23
0.32602035999298096
 33
0.725214421749115
  0
3DFACE
  8
0
 10
0.23758427798748016
 20
0.2414543628692627
 30
0.6817750930786133
 11
0.2362363189458847
 21
0.24008354544639587
 31
0.725214421749115
 12
0.32472094893455505
 22
0.08976584672927856
 32
0.725214421749115
 13
0.32472094893455505
 23
0.08976584672927856
 33
0.725214421749115
  0
3DFACE
  8
0
 10
0.24162597954273224
 20
-0.2377919703722
 30
0.6817750930786133
 11
0.2402551919221878
 21
-0.23644410073757172
 31
0.725214421749115
 12
0.08993752300739288
 22
-0.3249287009239197
 32
0.725214421749115
 13
0.08993752300739288
 23
-0.3249287009239197
 33
0.725214421749115
  0
3DFACE
  8
0
 10
-0.295828640460968
 20
-0.08215188980102539
 30
0.6807271242141724
 11
-0.21524380147457123
 21
-0.21904940903186798
 31
0.6807271242141724
 12
-0.23762038350105286
 22
-0.24183394014835358
 32
0.6817750930786133
 13
-0.23762038350105286
 23
-0.24183394014835358
 33
0.6817750930786133
  0
3DFACE
  8
0
 10
-0.23762038350105286
 20
-0.24183394014835358
 30
0.6817750930786133
 11
-0.23627246916294098
 21
-0.24046312272548676
 31
0.725214421749115
 12
-0.32475709915161133
 22
-0.09014543145895004
 32
0.725214421749115
 13
-0.32475709915161133
 23
-0.09014543145895004
 33
0.725214421749115
  0
3DFACE
  8
0
 10
-0.2416623830795288
 20
0.23741251230239868
 30
0.6817750930786133
 11
-0.240291565656662
 21
0.2360645830631256
 31
0.725214421749115
 12
-0.08997384458780289
 22
0.32454922795295715
 32
0.725214421749115
 13
-0.08997384458780289
 23
0.32454922795295715
 33
0.725214421749115
  0
3DFACE
  8
0
 10
0.08492931723594666
 20
0.32788148522377014
 30
0.6817750930786133
 11
0.08444741368293762
 21
0.32602035999298096
 31
0.725214421749115
 12
0.2362363189458847
 22
0.24008354544639587
 32
0.725214421749115
 13
0.2362363189458847
 23
0.24008354544639587
 33
0.725214421749115
  0
3DFACE
  8
0
 10
0.24162597954273224
 20
-0.2377919703722
 30
0.6817750930786133
 11
0.3280530571937561
 21
-0.08513729274272919
 31
0.6817750930786133
 12
0.32619187235832214
 22
-0.08465539664030075
 32
0.725214421749115
 13
0.32619187235832214
 23
-0.08465539664030075
 33
0.725214421749115
  0
3DFACE
  8
0
 10
-0.0770065188407898
 20
-0.29731374979019165
 30
0.6807271242141724
 11
-0.08496562391519547
 21
-0.3282608985900879
 31
0.6817750930786133
 12
-0.23762038350105286
 22
-0.24183394014835358
 32
0.6817750930786133
 13
-0.23762038350105286
 23
-0.24183394014835358
 33
0.6817750930786133
  0
3DFACE
  8
0
 10
-0.08496562391519547
 20
-0.3282608985900879
 30
0.6817750930786133
 11
-0.08448369801044464
 21
-0.32639971375465393
 31
0.725214421749115
 12
-0.23627246916294098
 22
-0.24046312272548676
 32
0.725214421749115
 13
-0.23627246916294098
 23
-0.24046312272548676
 33
0.725214421749115
  0
3DFACE
  8
0
 10
-0.218904048204422
 20
0.21493463218212128
 30
0.6807271242141724
 11
-0.29716843366622925
 21
0.07669732719659805
 31
0.6807271242141724
 12
-0.3280893862247467
 22
0.0847577229142189
 32
0.6817750930786133
 13
-0.3280893862247467
 23
0.0847577229142189
 33
0.6817750930786133
  0
3DFACE
  8
0
 10
-0.3280893862247467
 20
0.0847577229142189
 30
0.6817750930786133
 11
-0.32622817158699036
 21
0.08427581191062927
 31
0.725214421749115
 12
-0.240291565656662
 22
0.2360645830631256
 32
0.725214421749115
 13
-0.240291565656662
 23
0.2360645830631256
 33
0.725214421749115
  0
3DFACE
  8
0
 10
0.29032495617866516
 20
0.08021802455186844
 30
0.7372943758964539
 11
0.29032495617866516
 21
0.08021803945302963
 31
0.6807271242141724
 12
0.29164043068885803
 22
-0.0757630243897438
 32
0.6807271242141724
 13
0.29164043068885803
 23
-0.0757630243897438
 33
0.6807271242141724
  0
3DFACE
  8
0
 10
-0.08052728325128555
 20
0.29017961025238037
 30
0.7372943758964539
 11
-0.08052728325128555
 21
0.29017961025238037
 31
0.6807271242141724
 12
0.0754537507891655
 22
0.291495144367218
 32
0.6807271242141724
 13
0.0754537507891655
 23
0.291495144367218
 33
0.6807271242141724
  0
3DFACE
  8
0
 10
0.2111952304840088
 20
0.21464376151561737
 30
0.7372943758964539
 11
0.2111952304840088
 21
0.21464376151561737
 31
0.6807271242141724
 12
0.29032495617866516
 22
0.08021803945302963
 32
0.6807271242141724
 13
0.29032495617866516
 23
0.08021803945302963
 33
0.6807271242141724
  0
3DFACE
  8
0
 10
0.0754537507891655
 20
0.291495144367218
 30
0.7372943758964539
 11
0.0754537507891655
 21
0.291495144367218
 31
0.6807271242141724
 12
0.2111952304840088
 22
0.21464376151561737
 32
0.6807271242141724
 13
0.2111952304840088
 23
0.21464376151561737
 33
0.6807271242141724
  0
3DFACE
  8
0
 10
0.29164043068885803
 20
-0.0757630243897438
 30
0.7372943758964539
 11
0.29164043068885803
 21
-0.0757630243897438
 31
0.6807271242141724
 12
0.21478913724422455
 22
-0.211504265666008
 32
0.6807271242141724
 13
0.21478913724422455
 23
-0.211504265666008
 33
0.6807271242141724
  0
3DFACE
  8
0
 10
0.29032495617866516
 20
0.08021803945302963
 30
0.6807271242141724
 11
0.3265736997127533
 21
0.09027910232543945
 31
0.6817750930786133
 12
0.3280530571937561
 22
-0.08513729274272919
 32
0.6817750930786133
 13
0.3280530571937561
 23
-0.08513729274272919
 33
0.6817750930786133
  0
3DFACE
  8
0
 10
0.0754537507891655
 20
0.291495144367218
 30
0.6807271242141724
 11
-0.08052728325128555
 21
0.29017961025238037
 31
0.6807271242141724
 12
-0.09048706293106079
 22
0.32640203833580017
 32
0.6817750930786133
 13
-0.09048706293106079
 23
0.32640203833580017
 33
0.6817750930786133
  0
3DFACE
  8
0
 10
0.29032495617866516
 20
0.08021803945302963
 30
0.6807271242141724
 11
0.2111952304840088
 21
0.21464376151561737
 31
0.6807271242141724
 12
0.23758427798748016
 22
0.2414543628692627
 32
0.6817750930786133
 13
0.23758427798748016
 23
0.2414543628692627
 33
0.6817750930786133
  0
3DFACE
  8
0
 10
0.21478913724422455
 20
-0.211504265666008
 30
0.6807271242141724
 11
0.24162597954273224
 21
-0.2377919703722
 31
0.6817750930786133
 12
0.09045075625181198
 22
-0.32678142189979553
 32
0.6817750930786133
 13
0.09045075625181198
 23
-0.32678142189979553
 33
0.6817750930786133
  0
3DFACE
  8
0
 10
-0.08052728325128555
 20
0.29017961025238037
 30
0.6807271242141724
 11
-0.218904048204422
 21
0.21493463218212128
 31
0.6807271242141724
 12
-0.2416623830795288
 22
0.23741251230239868
 32
0.6817750930786133
 13
-0.2416623830795288
 23
0.23741251230239868
 33
0.6817750930786133
  0
3DFACE
  8
0
 10
0.2111952304840088
 20
0.21464376151561737
 30
0.6807271242141724
 11
0.0754537507891655
 21
0.291495144367218
 31
0.6807271242141724
 12
0.08492931723594666
 22
0.32788148522377014
 32
0.6817750930786133
 13
0.08492931723594666
 23
0.32788148522377014
 33
0.6817750930786133
  0
3DFACE
  8
0
 10
0.29164043068885803
 20
-0.0757630243897438
 30
0.6807271242141724
 11
0.3280530571937561
 21
-0.08513729274272919
 31
0.6817750930786133
 12
0.24162597954273224
 22
-0.2377919703722
 32
0.6817750930786133
 13
0.24162597954273224
 23
-0.2377919703722
 33
0.6817750930786133
  0
3DFACE
  8
0
 10
-0.07561758160591125
 20
-0.291949599981308
 30
0.7372943758964539
 11
0.0803634375333786
 21
-0.29063403606414795
 31
0.7372943758964539
 12
0.08184264600276947
 22
-0.2959740459918976
 32
0.6807271242141724
 13
0.08184264600276947
 23
-0.2959740459918976
 33
0.6807271242141724
  0
3DFACE
  8
0
 10
-0.29048874974250793
 20
-0.08067267388105392
 30
0.7372943758964539
 11
-0.295828640460968
 21
-0.08215188980102539
 31
0.6807271242141724
 12
-0.29716843366622925
 22
0.07669732719659805
 32
0.6807271242141724
 13
-0.29716843366622925
 23
0.07669732719659805
 33
0.6807271242141724
  0
3DFACE
  8
0
 10
0.0803634375333786
 20
-0.29063403606414795
 30
0.7372943758964539
 11
0.21478913724422455
 21
-0.211504265666008
 31
0.7372943758964539
 12
0.21478913724422455
 22
-0.211504265666008
 32
0.6807271242141724
 13
0.21478913724422455
 23
-0.211504265666008
 33
0.6807271242141724
  0
3DFACE
  8
0
 10
-0.211358904838562
 20
-0.21509838104248047
 30
0.7372943758964539
 11
-0.21524380147457123
 21
-0.21904940903186798
 31
0.6807271242141724
 12
-0.295828640460968
 22
-0.08215188980102539
 32
0.6807271242141724
 13
-0.295828640460968
 23
-0.08215188980102539
 33
0.6807271242141724
  0
3DFACE
  8
0
 10
-0.21495307981967926
 20
0.21104967594146729
 30
0.7372943758964539
 11
-0.218904048204422
 21
0.21493463218212128
 31
0.6807271242141724
 12
-0.08052728325128555
 22
0.29017961025238037
 32
0.6807271242141724
 13
-0.08052728325128555
 23
0.29017961025238037
 33
0.6807271242141724
  0
3DFACE
  8
0
 10
-0.07561758160591125
 20
-0.291949599981308
 30
0.7372943758964539
 11
-0.0770065188407898
 21
-0.29731374979019165
 31
0.6807271242141724
 12
-0.21524380147457123
 22
-0.21904940903186798
 32
0.6807271242141724
 13
-0.21524380147457123
 23
-0.21904940903186798
 33
0.6807271242141724
  0
3DFACE
  8
0
 10
-0.21495307981967926
 20
0.21104967594146729
 30
0.7372943758964539
 11
-0.29180431365966797
 21
0.07530838996171951
 31
0.7372943758964539
 12
-0.29716843366622925
 22
0.07669732719659805
 32
0.6807271242141724
 13
-0.29716843366622925
 23
0.07669732719659805
 33
0.6807271242141724
  0
3DFACE
  8
0
 10
-0.15366312861442566
 20
-0.26615333557128906
 30
1.653914213180542
 11
-0.2661530077457428
 21
-0.15366344153881073
 31
1.653914213180542
 12
-0.18980546295642853
 22
-0.10958418250083923
 32
1.7007054090499878
 13
-0.18980546295642853
 23
-0.10958418250083923
 33
1.7007054090499878
  0
3DFACE
  8
0
 10
0.26615503430366516
 20
0.15366454422473907
 30
1.653914213180542
 11
0.1898074746131897
 21
0.10958530753850937
 31
1.7007054090499878
 12
0.10958588868379593
 22
0.1898069977760315
 32
1.7007054090499878
 13
0.10958588868379593
 23
0.1898069977760315
 33
1.7007054090499878
  0
3DFACE
  8
0
 10
-0.2661530077457428
 20
-0.15366344153881073
 30
1.653914213180542
 11
-0.30732718110084534
 21
6.24712072294642e-07
 31
1.653914213180542
 12
-0.21916863322257996
 22
6.167844617266383e-07
 32
1.7007054090499878
 13
-0.21916863322257996
 23
6.167844617266383e-07
 33
1.7007054090499878
  0
3DFACE
  8
0
 10
0.1095857173204422
 20
-0.18980582058429718
 30
1.7007054090499878
 11
9.311833082392695e-07
 21
-0.21916897594928741
 31
1.7007054090499878
 12
9.477302000959753e-07
 22
6.422328056032711e-07
 32
1.7007054090499878
 13
9.477302000959753e-07
 23
6.422328056032711e-07
 33
1.7007054090499878
  0
3DFACE
  8
0
 10
-0.10958383232355118
 20
0.18980707228183746
 30
1.7007054090499878
 11
9.64277091952681e-07
 21
0.2191702276468277
 31
1.7007054090499878
 12
9.477302000959753e-07
 22
6.422328056032711e-07
 32
1.7007054090499878
 13
9.477302000959753e-07
 23
6.422328056032711e-07
 33
1.7007054090499878
  0
3DFACE
  8
0
 10
0.10958588868379593
 20
0.1898069977760315
 30
1.7007054090499878
 11
0.10958580672740936
 21
5.820235173814581e-07
 31
1.7007054090499878
 12
9.477302000959753e-07
 22
6.422328056032711e-07
 32
1.7007054090499878
 13
9.477302000959753e-07
 23
6.422328056032711e-07
 33
1.7007054090499878
  0
3DFACE
  8
0
 10
-0.10958385467529297
 20
-0.189805805683136
 30
1.7007054090499878
 11
-0.10958383977413177
 21
6.221630428626668e-07
 31
1.7007054090499878
 12
9.477302000959753e-07
 22
6.422328056032711e-07
 32
1.7007054090499878
 13
9.477302000959753e-07
 23
6.422328056032711e-07
 33
1.7007054090499878
  0
3DFACE
  8
0
 10
-0.18980549275875092
 20
0.10958541184663773
 30
1.7007054090499878
 11
-0.10958383232355118
 21
0.18980707228183746
 31
1.7007054090499878
 12
-0.10958383977413177
 22
6.221630428626668e-07
 32
1.7007054090499878
 13
-0.10958383977413177
 23
6.221630428626668e-07
 33
1.7007054090499878
  0
3DFACE
  8
0
 10
-0.18980546295642853
 20
-0.10958418250083923
 30
1.7007054090499878
 11
-0.21916863322257996
 21
6.167844617266383e-07
 31
1.7007054090499878
 12
-0.10958383977413177
 22
6.221630428626668e-07
 32
1.7007054090499878
 13
-0.10958383977413177
 23
6.221630428626668e-07
 33
1.7007054090499878
  0
3DFACE
  8
0
 10
0.1898074746131897
 20
0.10958530753850937
 30
1.7007054090499878
 11
0.21917055547237396
 21
5.244700673756597e-07
 31
1.7007054090499878
 12
0.10958580672740936
 22
5.820235173814581e-07
 32
1.7007054090499878
 13
0.10958580672740936
 23
5.820235173814581e-07
 33
1.7007054090499878
  0
3DFACE
  8
0
 10
0.18980735540390015
 20
-0.10958424210548401
 30
1.7007054090499878
 11
0.1095857173204422
 21
-0.18980582058429718
 31
1.7007054090499878
 12
0.10958580672740936
 22
5.820235173814581e-07
 32
1.7007054090499878
 13
0.10958580672740936
 23
5.820235173814581e-07
 33
1.7007054090499878
  0
3DFACE
  8
0
 10
0.2661548852920532
 20
-0.1536635309457779
 30
1.653914213180542
 11
0.18980735540390015
 21
-0.10958424210548401
 31
1.7007054090499878
 12
0.21917055547237396
 22
5.244700673756597e-07
 32
1.7007054090499878
 13
0.21917055547237396
 23
5.244700673756597e-07
 33
1.7007054090499878
  0
3DFACE
  8
0
 10
-0.2661530375480652
 20
0.1536647081375122
 30
1.653914213180542
 11
-0.15366309881210327
 21
0.26615461707115173
 31
1.653914213180542
 12
-0.10958383232355118
 22
0.18980707228183746
 32
1.7007054090499878
 13
-0.10958383232355118
 23
0.18980707228183746
 33
1.7007054090499878
  0
3DFACE
  8
0
 10
0.1536649763584137
 20
-0.26615336537361145
 30
1.653914213180542
 11
0.1095857173204422
 21
-0.18980582058429718
 31
1.7007054090499878
 12
0.18980735540390015
 22
-0.10958424210548401
 32
1.7007054090499878
 13
0.18980735540390015
 23
-0.10958424210548401
 33
1.7007054090499878
  0
3DFACE
  8
0
 10
-0.15366309881210327
 20
0.26615461707115173
 30
1.653914213180542
 11
9.63641241469304e-07
 21
0.3073287904262543
 31
1.653914213180542
 12
9.64277091952681e-07
 22
0.2191702276468277
 32
1.7007054090499878
 13
9.64277091952681e-07
 23
0.2191702276468277
 33
1.7007054090499878
  0
3DFACE
  8
0
 10
0.1536649763584137
 20
-0.26615336537361145
 30
1.653914213180542
 11
9.172359227704874e-07
 21
-0.3073275089263916
 31
1.653914213180542
 12
9.311833082392695e-07
 22
-0.21916897594928741
 32
1.7007054090499878
 13
9.311833082392695e-07
 23
-0.21916897594928741
 33
1.7007054090499878
  0
3DFACE
  8
0
 10
-0.15366312861442566
 20
-0.26615333557128906
 30
1.653914213180542
 11
-0.10958385467529297
 21
-0.189805805683136
 31
1.7007054090499878
 12
9.311833082392695e-07
 22
-0.21916897594928741
 32
1.7007054090499878
 13
9.311833082392695e-07
 23
-0.21916897594928741
 33
1.7007054090499878
  0
3DFACE
  8
0
 10
9.64277091952681e-07
 20
0.2191702276468277
 30
1.7007054090499878
 11
9.63641241469304e-07
 21
0.3073287904262543
 31
1.653914213180542
 12
0.1536652147769928
 22
0.26615452766418457
 32
1.653914213180542
 13
0.1536652147769928
 23
0.26615452766418457
 33
1.653914213180542
  0
3DFACE
  8
0
 10
-0.30732718110084534
 20
6.24712072294642e-07
 30
1.653914213180542
 11
-0.2661530375480652
 21
0.1536647081375122
 31
1.653914213180542
 12
-0.18980549275875092
 22
0.10958541184663773
 32
1.7007054090499878
 13
-0.18980549275875092
 23
0.10958541184663773
 33
1.7007054090499878
  0
3DFACE
  8
0
 10
-0.1683565378189087
 20
-0.29160305857658386
 30
1.6602290868759155
 11
-0.29160276055336
 21
-0.16835686564445496
 31
1.6602290868759155
 12
-0.2661530077457428
 22
-0.15366344153881073
 32
1.653914213180542
 13
-0.2661530077457428
 23
-0.15366344153881073
 33
1.653914213180542
  0
3DFACE
  8
0
 10
-0.3076527416706085
 20
-0.17762330174446106
 30
1.6881879568099976
 11
-0.355246901512146
 21
6.293740284490923e-07
 31
1.6881879568099976
 12
-0.3367139995098114
 22
6.275145665313175e-07
 32
1.6602290868759155
 13
-0.3367139995098114
 23
6.275145665313175e-07
 33
1.6602290868759155
  0
3DFACE
  8
0
 10
-0.177622988820076
 20
-0.3076530396938324
 30
1.6881879568099976
 11
-0.3076527416706085
 21
-0.17762330174446106
 31
1.6881879568099976
 12
-0.29160276055336
 22
-0.16835686564445496
 32
1.6602290868759155
 13
-0.29160276055336
 23
-0.16835686564445496
 33
1.6602290868759155
  0
3DFACE
  8
0
 10
-0.177622988820076
 20
-0.3076530396938324
 30
1.6881879568099976
 11
-0.1683565378189087
 21
-0.29160305857658386
 31
1.6602290868759155
 12
9.12506607164687e-07
 22
-0.33671432733535767
 32
1.6602290868759155
 13
9.12506607164687e-07
 23
-0.33671432733535767
 33
1.6602290868759155
  0
3DFACE
  8
0
 10
-0.1776229739189148
 20
0.30765432119369507
 30
1.6881879568099976
 11
9.62980948315817e-07
 21
0.35524851083755493
 31
1.6881879568099976
 12
9.63349293670035e-07
 22
0.33671560883522034
 32
1.6602290868759155
 13
9.63349293670035e-07
 23
0.33671560883522034
 33
1.6602290868759155
  0
3DFACE
  8
0
 10
-0.1776229739189148
 20
0.30765432119369507
 30
1.6881879568099976
 11
-0.1683565229177475
 21
0.29160434007644653
 31
1.6602290868759155
 12
-0.29160276055336
 22
0.16835811734199524
 32
1.6602290868759155
 13
-0.29160276055336
 23
0.16835811734199524
 33
1.6602290868759155
  0
3DFACE
  8
0
 10
0.1776251196861267
 20
0.3076542019844055
 30
1.6881879568099976
 11
0.3076547682285309
 21
0.1776244193315506
 31
1.6881879568099976
 12
0.29160478711128235
 22
0.1683579683303833
 32
1.6602290868759155
 13
0.29160478711128235
 23
0.1683579683303833
 33
1.6602290868759155
  0
3DFACE
  8
0
 10
0.16835863888263702
 20
0.29160425066947937
 30
1.6602290868759155
 11
9.63349293670035e-07
 21
0.33671560883522034
 31
1.6602290868759155
 12
9.62980948315817e-07
 22
0.35524851083755493
 32
1.6881879568099976
 13
9.62980948315817e-07
 23
0.35524851083755493
 33
1.6881879568099976
  0
3DFACE
  8
0
 10
0.16835837066173553
 20
-0.29160311818122864
 30
1.6602290868759155
 11
9.12506607164687e-07
 21
-0.33671432733535767
 31
1.6602290868759155
 12
9.172359227704874e-07
 22
-0.3073275089263916
 32
1.653914213180542
 13
9.172359227704874e-07
 23
-0.3073275089263916
 33
1.653914213180542
  0
3DFACE
  8
0
 10
0.291604608297348
 20
-0.16835694015026093
 30
1.6602290868759155
 11
0.16835837066173553
 21
-0.29160311818122864
 31
1.6602290868759155
 12
0.1536649763584137
 22
-0.26615336537361145
 32
1.653914213180542
 13
0.1536649763584137
 23
-0.26615336537361145
 33
1.653914213180542
  0
3DFACE
  8
0
 10
-0.1683565229177475
 20
0.29160434007644653
 30
1.6602290868759155
 11
-0.15366309881210327
 21
0.26615461707115173
 31
1.653914213180542
 12
-0.2661530375480652
 22
0.1536647081375122
 32
1.653914213180542
 13
-0.2661530375480652
 23
0.1536647081375122
 33
1.653914213180542
  0
3DFACE
  8
0
 10
-0.3367139995098114
 20
6.275145665313175e-07
 30
1.6602290868759155
 11
-0.29160276055336
 21
0.16835811734199524
 31
1.6602290868759155
 12
-0.2661530375480652
 22
0.1536647081375122
 32
1.653914213180542
 13
-0.2661530375480652
 23
0.1536647081375122
 33
1.653914213180542
  0
3DFACE
  8
0
 10
0.291604608297348
 20
-0.16835694015026093
 30
1.6602290868759155
 11
0.2661548852920532
 21
-0.1536635309457779
 31
1.653914213180542
 12
0.30732908844947815
 22
4.952651693201915e-07
 32
1.653914213180542
 13
0.30732908844947815
 23
4.952651693201915e-07
 33
1.653914213180542
  0
3DFACE
  8
0
 10
0.3367159366607666
 20
4.856898954130884e-07
 30
1.6602290868759155
 11
0.30732908844947815
 21
4.952651693201915e-07
 31
1.653914213180542
 12
0.26615503430366516
 22
0.15366454422473907
 32
1.653914213180542
 13
0.26615503430366516
 23
0.15366454422473907
 33
1.653914213180542
  0
3DFACE
  8
0
 10
0.29160478711128235
 20
0.1683579683303833
 30
1.6602290868759155
 11
0.26615503430366516
 21
0.15366454422473907
 31
1.653914213180542
 12
0.1536652147769928
 22
0.26615452766418457
 32
1.653914213180542
 13
0.1536652147769928
 23
0.26615452766418457
 33
1.653914213180542
  0
3DFACE
  8
0
 10
9.63349293670035e-07
 20
0.33671560883522034
 30
1.6602290868759155
 11
9.63641241469304e-07
 21
0.3073287904262543
 31
1.653914213180542
 12
-0.15366309881210327
 22
0.26615461707115173
 32
1.653914213180542
 13
-0.15366309881210327
 23
0.26615461707115173
 33
1.653914213180542
  0
3DFACE
  8
0
 10
-0.3367139995098114
 20
6.275145665313175e-07
 30
1.6602290868759155
 11
-0.30732718110084534
 21
6.24712072294642e-07
 31
1.653914213180542
 12
-0.2661530077457428
 22
-0.15366344153881073
 32
1.653914213180542
 13
-0.2661530077457428
 23
-0.15366344153881073
 33
1.653914213180542
  0
3DFACE
  8
0
 10
9.63641241469304e-07
 20
0.3073287904262543
 30
1.653914213180542
 11
9.63349293670035e-07
 21
0.33671560883522034
 31
1.6602290868759155
 12
0.16835863888263702
 22
0.29160425066947937
 32
1.6602290868759155
 13
0.16835863888263702
 23
0.29160425066947937
 33
1.6602290868759155
  0
3DFACE
  8
0
 10
9.12506607164687e-07
 20
-0.33671432733535767
 30
1.6602290868759155
 11
-0.1683565378189087
 21
-0.29160305857658386
 31
1.6602290868759155
 12
-0.15366312861442566
 22
-0.26615333557128906
 32
1.653914213180542
 13
-0.15366312861442566
 23
-0.26615333557128906
 33
1.653914213180542
  0
3DFACE
  8
0
 10
-0.02605818212032318
 20
0.4129526615142822
 30
0.014303648844361305
 11
-0.026058195158839226
 21
0.22903798520565033
 31
1.6892808675765991
 12
-0.013028601184487343
 22
0.25294774770736694
 32
1.6783815622329712
 13
-0.013028601184487343
 23
0.25294774770736694
 33
1.6783815622329712
  0
3DFACE
  8
0
 10
-0.013028601184487343
 20
0.25294774770736694
 30
1.6783815622329712
 11
0.0130305802449584
 21
0.25294774770736694
 31
1.6783815622329712
 12
0.01303059421479702
 22
0.43538591265678406
 32
0.016765328124165535
 13
0.01303059421479702
 23
0.43538591265678406
 33
0.016765328124165535
  0
3DFACE
  8
0
 10
0.0130305802449584
 20
0.25294774770736694
 30
1.6783815622329712
 11
0.026060165837407112
 21
0.22903798520565033
 31
1.6892808675765991
 12
0.026060178875923157
 22
0.4129526615142822
 32
0.014303648844361305
 13
0.026060178875923157
 23
0.4129526615142822
 33
0.014303648844361305
  0
3DFACE
  8
0
 10
0.026060165837407112
 20
0.22903798520565033
 30
1.6892808675765991
 11
0.013030572794377804
 21
0.20539110898971558
 31
1.7030987739562988
 12
0.013030584901571274
 22
0.390519380569458
 32
0.011842130683362484
 13
0.013030584901571274
 23
0.390519380569458
 33
0.011842130683362484
  0
3DFACE
  8
0
 10
-0.013028590939939022
 20
0.390519380569458
 30
0.011842130683362484
 11
-0.013028603047132492
 21
0.20539110898971558
 31
1.7030987739562988
 12
-0.026058195158839226
 22
0.22903798520565033
 32
1.6892808675765991
 13
-0.026058195158839226
 23
0.22903798520565033
 33
1.6892808675765991
  0
3DFACE
  8
0
 10
0.013030572794377804
 20
0.20539110898971558
 30
1.7030987739562988
 11
-0.013028603047132492
 21
0.20539110898971558
 31
1.7030987739562988
 12
-0.013028590939939022
 22
0.390519380569458
 32
0.011842130683362484
 13
-0.013028590939939022
 23
0.390519380569458
 33
0.011842130683362484
  0
3DFACE
  8
0
 10
0.01964813843369484
 20
0.4150237739086151
 30
-0.004571895115077496
 11
-0.019646136090159416
 21
0.4150237739086151
 31
-0.004571895115077496
 12
-0.009822566993534565
 22
0.43193721771240234
 32
-0.0027161631733179092
 13
-0.009822566993534565
 23
0.43193721771240234
 33
-0.0027161631733179092
  0
3DFACE
  8
0
 10
-0.02708323672413826
 20
0.41402050852775574
 30
0.004571573808789253
 11
-0.019646136090159416
 21
0.4150237739086151
 31
-0.004571895115077496
 12
-0.009822570718824863
 22
0.39811041951179504
 32
-0.006427787244319916
 13
-0.009822570718824863
 23
0.39811041951179504
 33
-0.006427787244319916
  0
3DFACE
  8
0
 10
-0.013541115447878838
 20
0.4373362064361572
 30
0.007129908073693514
 11
0.013543123379349709
 21
0.4373362064361572
 31
0.007129908073693514
 12
0.009824570268392563
 22
0.43193721771240234
 32
-0.0027161631733179092
 13
0.009824570268392563
 23
0.43193721771240234
 33
-0.0027161631733179092
  0
3DFACE
  8
0
 10
-0.01354112010449171
 20
0.39070481061935425
 30
0.00201339996419847
 11
-0.009822570718824863
 21
0.39811041951179504
 31
-0.006427787244319916
 12
0.009824564680457115
 22
0.39811041951179504
 32
-0.006427787244319916
 13
0.009824564680457115
 23
0.39811041951179504
 33
-0.006427787244319916
  0
3DFACE
  8
0
 10
-0.013541115447878838
 20
0.4373362064361572
 30
0.007129908073693514
 11
-0.009822566993534565
 21
0.43193721771240234
 31
-0.0027161631733179092
 12
-0.019646136090159416
 22
0.4150237739086151
 32
-0.004571895115077496
 13
-0.019646136090159416
 23
0.4150237739086151
 33
-0.004571895115077496
  0
3DFACE
  8
0
 10
0.027085237205028534
 20
0.41402050852775574
 30
0.004571573808789253
 11
0.013543114066123962
 21
0.39070481061935425
 31
0.00201339996419847
 12
0.009824564680457115
 22
0.39811041951179504
 32
-0.006427787244319916
 13
0.009824564680457115
 23
0.39811041951179504
 33
-0.006427787244319916
  0
3DFACE
  8
0
 10
0.013543123379349709
 20
0.4373362064361572
 30
0.007129908073693514
 11
0.027085237205028534
 21
0.41402050852775574
 31
0.004571573808789253
 12
0.01964813843369484
 22
0.4150237739086151
 32
-0.004571895115077496
 13
0.01964813843369484
 23
0.4150237739086151
 33
-0.004571895115077496
  0
3DFACE
  8
0
 10
-0.028564058244228363
 20
0.41316401958465576
 30
0.012377431616187096
 11
-0.02708323672413826
 21
0.41402050852775574
 31
0.004571573808789253
 12
-0.01354112010449171
 22
0.39070481061935425
 32
0.00201339996419847
 13
-0.01354112010449171
 23
0.39070481061935425
 33
0.00201339996419847
  0
3DFACE
  8
0
 10
0.014283533208072186
 20
0.43775448203086853
 30
0.015075611881911755
 11
0.013543123379349709
 21
0.4373362064361572
 31
0.007129908073693514
 12
-0.013541115447878838
 22
0.4373362064361572
 32
0.007129908073693514
 13
-0.013541115447878838
 23
0.4373362064361572
 33
0.007129908073693514
  0
3DFACE
  8
0
 10
-0.014281528070569038
 20
0.3885735273361206
 30
0.009679412469267845
 11
-0.01354112010449171
 21
0.39070481061935425
 31
0.00201339996419847
 12
0.013543114066123962
 22
0.39070481061935425
 32
0.00201339996419847
 13
0.013543114066123962
 23
0.39070481061935425
 33
0.00201339996419847
  0
3DFACE
  8
0
 10
-0.028564058244228363
 20
0.41316401958465576
 30
0.012377431616187096
 11
-0.01428152434527874
 21
0.43775448203086853
 31
0.015075611881911755
 12
-0.013541115447878838
 22
0.4373362064361572
 32
0.007129908073693514
 13
-0.013541115447878838
 23
0.4373362064361572
 33
0.007129908073693514
  0
3DFACE
  8
0
 10
0.028566058725118637
 20
0.41316401958465576
 30
0.012377431616187096
 11
0.014283524826169014
 21
0.3885735273361206
 31
0.009679412469267845
 12
0.013543114066123962
 22
0.39070481061935425
 32
0.00201339996419847
 13
0.013543114066123962
 23
0.39070481061935425
 33
0.00201339996419847
  0
3DFACE
  8
0
 10
0.028566058725118637
 20
0.41316401958465576
 30
0.012377431616187096
 11
0.027085237205028534
 21
0.41402050852775574
 31
0.004571573808789253
 12
0.013543123379349709
 22
0.4373362064361572
 32
0.007129908073693514
 13
0.013543123379349709
 23
0.4373362064361572
 33
0.007129908073693514
  0
3DFACE
  8
0
 10
0.010586685501039028
 20
0.3853650987148285
 30
0.4450199007987976
 11
0.010586687363684177
 21
0.39992502331733704
 31
0.4466175138950348
 12
0.010586687363684177
 22
0.39764702320098877
 32
0.46737825870513916
 13
0.010586687363684177
 23
0.39764702320098877
 33
0.46737825870513916
  0
3DFACE
  8
0
 10
-0.010584685951471329
 20
0.39992502331733704
 30
0.4466175138950348
 11
0.010586687363684177
 21
0.39992502331733704
 31
0.4466175138950348
 12
0.010586685501039028
 22
0.3853650987148285
 32
0.4450199007987976
 13
0.010586685501039028
 23
0.3853650987148285
 33
0.4450199007987976
  0
3DFACE
  8
0
 10
-0.010584686882793903
 20
0.3723122477531433
 30
0.6982709169387817
 11
0.010586686432361603
 21
0.3723122477531433
 31
0.6982709169387817
 12
0.010586685501039028
 22
0.35775226354599
 32
0.6966733932495117
 13
0.010586685501039028
 23
0.35775226354599
 33
0.6966733932495117
  0
3DFACE
  8
0
 10
-0.01428152434527874
 20
0.43775448203086853
 30
0.015075611881911755
 11
-0.028564058244228363
 21
0.41316401958465576
 31
0.012377431616187096
 12
-0.02605818212032318
 22
0.4129526615142822
 32
0.014303648844361305
 13
-0.02605818212032318
 23
0.4129526615142822
 33
0.014303648844361305
  0
3DFACE
  8
0
 10
-0.01428152434527874
 20
0.43775448203086853
 30
0.015075611881911755
 11
-0.013028587214648724
 21
0.43538591265678406
 31
0.016765328124165535
 12
0.01303059421479702
 22
0.43538591265678406
 32
0.016765328124165535
 13
0.01303059421479702
 23
0.43538591265678406
 33
0.016765328124165535
  0
3DFACE
  8
0
 10
0.014283533208072186
 20
0.43775448203086853
 30
0.015075611881911755
 11
0.01303059421479702
 21
0.43538591265678406
 31
0.016765328124165535
 12
0.026060178875923157
 22
0.4129526615142822
 32
0.014303648844361305
 13
0.026060178875923157
 23
0.4129526615142822
 33
0.014303648844361305
  0
3DFACE
  8
0
 10
0.014283524826169014
 20
0.3885735273361206
 30
0.009679412469267845
 11
0.028566058725118637
 21
0.41316401958465576
 31
0.012377431616187096
 12
0.026060178875923157
 22
0.4129526615142822
 32
0.014303648844361305
 13
0.026060178875923157
 23
0.4129526615142822
 33
0.014303648844361305
  0
3DFACE
  8
0
 10
-0.014281528070569038
 20
0.3885735273361206
 30
0.009679412469267845
 11
0.014283524826169014
 21
0.3885735273361206
 31
0.009679412469267845
 12
0.013030584901571274
 22
0.390519380569458
 32
0.011842130683362484
 13
0.013030584901571274
 23
0.390519380569458
 33
0.011842130683362484
  0
3DFACE
  8
0
 10
-0.014281528070569038
 20
0.3885735273361206
 30
0.009679412469267845
 11
-0.013028590939939022
 21
0.390519380569458
 31
0.011842130683362484
 12
-0.02605818212032318
 22
0.4129526615142822
 32
0.014303648844361305
 13
-0.02605818212032318
 23
0.4129526615142822
 33
0.014303648844361305
  0
3DFACE
  8
0
 10
-0.019646136090159416
 20
0.4150237739086151
 30
-0.004571895115077496
 11
0.01964813843369484
 21
0.4150237739086151
 31
-0.004571895115077496
 12
0.009824564680457115
 22
0.39811041951179504
 32
-0.006427787244319916
 13
0.009824564680457115
 23
0.39811041951179504
 33
-0.006427787244319916
  0
3DFACE
  8
0
 10
-0.010584685951471329
 20
0.39764702320098877
 30
0.46737825870513916
 11
-0.010584685951471329
 21
0.39992502331733704
 31
0.4466175138950348
 12
-0.010584687814116478
 22
0.3853650987148285
 32
0.4450199007987976
 13
-0.010584687814116478
 23
0.3853650987148285
 33
0.4450199007987976
  0
3DFACE
  8
0
 10
-0.010584685951471329
 20
0.39764702320098877
 30
0.46737825870513916
 11
-0.010584687814116478
 21
0.3830870985984802
 31
0.4657807946205139
 12
0.010586685501039028
 22
0.3830870985984802
 32
0.4657807946205139
 13
0.010586685501039028
 23
0.3830870985984802
 33
0.4657807946205139
  0
3DFACE
  8
0
 10
0.010586685501039028
 20
0.35775226354599
 30
0.6966733932495117
 11
0.010586686432361603
 21
0.3723122477531433
 31
0.6982709169387817
 12
0.010586686432361603
 22
0.37003424763679504
 32
0.7190317511558533
 13
0.010586686432361603
 23
0.37003424763679504
 33
0.7190317511558533
  0
3DFACE
  8
0
 10
-0.010584686882793903
 20
0.37003424763679504
 30
0.7190317511558533
 11
-0.010584686882793903
 21
0.3723122477531433
 31
0.6982709169387817
 12
-0.010584687814116478
 22
0.35775226354599
 32
0.6966733932495117
 13
-0.010584687814116478
 23
0.35775226354599
 33
0.6966733932495117
  0
3DFACE
  8
0
 10
-0.010584686882793903
 20
0.37003424763679504
 30
0.7190317511558533
 11
-0.010584687814116478
 21
0.3554742932319641
 31
0.7174341678619385
 12
0.010586685501039028
 22
0.3554742932319641
 32
0.7174341678619385
 13
0.010586685501039028
 23
0.3554742932319641
 33
0.7174341678619385
  0
3DFACE
  8
0
 10
-0.010584685951471329
 20
0.39764702320098877
 30
0.46737825870513916
 11
0.010586687363684177
 21
0.39764702320098877
 31
0.46737825870513916
 12
0.010586687363684177
 22
0.39992502331733704
 32
0.4466175138950348
 13
0.010586687363684177
 23
0.39992502331733704
 33
0.4466175138950348
  0
3DFACE
  8
0
 10
-0.010584686882793903
 20
0.37003424763679504
 30
0.7190317511558533
 11
0.010586686432361603
 21
0.37003424763679504
 31
0.7190317511558533
 12
0.010586686432361603
 22
0.3723122477531433
 32
0.6982709169387817
 13
0.010586686432361603
 23
0.3723122477531433
 33
0.6982709169387817
  0
3DFACE
  8
0
 10
0.4129529595375061
 20
0.026059821248054504
 30
0.014303648844361305
 11
0.2290382981300354
 21
0.026059817522764206
 31
1.6892808675765991
 12
0.2529480755329132
 22
0.013030225411057472
 32
1.6783815622329712
 13
0.2529480755329132
 23
0.013030225411057472
 33
1.6783815622329712
  0
3DFACE
  8
0
 10
0.2529480755329132
 20
0.013030225411057472
 30
1.6783815622329712
 11
0.2529480755329132
 21
-0.013028956018388271
 31
1.6783815622329712
 12
0.4353862404823303
 22
-0.013028956018388271
 32
0.016765328124165535
 13
0.4353862404823303
 23
-0.013028956018388271
 33
0.016765328124165535
  0
3DFACE
  8
0
 10
0.2529480755329132
 20
-0.013028956018388271
 30
1.6783815622329712
 11
0.2290382981300354
 21
-0.026058543473482132
 31
1.6892808675765991
 12
0.4129529595375061
 22
-0.026058541610836983
 32
0.014303648844361305
 13
0.4129529595375061
 23
-0.026058541610836983
 33
0.014303648844361305
  0
3DFACE
  8
0
 10
0.2290382981300354
 20
-0.026058543473482132
 30
1.6892808675765991
 11
0.20539143681526184
 21
-0.013028950430452824
 31
1.7030987739562988
 12
0.3905197083950043
 22
-0.013028950430452824
 32
0.011842130683362484
 13
0.3905197083950043
 23
-0.013028950430452824
 33
0.011842130683362484
  0
3DFACE
  8
0
 10
0.3905197083950043
 20
0.013030225411057472
 30
0.011842130683362484
 11
0.20539143681526184
 21
0.013030225411057472
 31
1.7030987739562988
 12
0.2290382981300354
 22
0.026059817522764206
 32
1.6892808675765991
 13
0.2290382981300354
 23
0.026059817522764206
 33
1.6892808675765991
  0
3DFACE
  8
0
 10
0.20539143681526184
 20
-0.013028950430452824
 30
1.7030987739562988
 11
0.20539143681526184
 21
0.013030225411057472
 31
1.7030987739562988
 12
0.3905197083950043
 22
0.013030225411057472
 32
0.011842130683362484
 13
0.3905197083950043
 23
0.013030225411057472
 33
0.011842130683362484
  0
3DFACE
  8
0
 10
0.4150241017341614
 20
0.01964777335524559
 30
-0.004571895115077496
 11
0.4319375157356262
 21
0.009824205189943314
 31
-0.0027161631733179092
 12
0.4319375157356262
 22
-0.009822932071983814
 32
-0.0027161631733179092
 13
0.4319375157356262
 23
-0.009822932071983814
 33
-0.0027161631733179092
  0
3DFACE
  8
0
 10
0.414020836353302
 20
0.027084873989224434
 30
0.004571573808789253
 11
0.4150241017341614
 21
0.01964777335524559
 31
-0.004571895115077496
 12
0.3981107175350189
 22
0.009824206121265888
 32
-0.006427787244319916
 13
0.3981107175350189
 23
0.009824206121265888
 33
-0.006427787244319916
  0
3DFACE
  8
0
 10
0.4373365342617035
 20
-0.01354148332029581
 30
0.007129908073693514
 11
0.4319375157356262
 21
-0.009822932071983814
 31
-0.0027161631733179092
 12
0.4319375157356262
 22
0.009824205189943314
 32
-0.0027161631733179092
 13
0.4319375157356262
 23
0.009824205189943314
 33
-0.0027161631733179092
  0
3DFACE
  8
0
 10
0.3907051384449005
 20
0.01354275457561016
 30
0.00201339996419847
 11
0.3981107175350189
 21
0.009824206121265888
 31
-0.006427787244319916
 12
0.3981107175350189
 22
-0.00982292927801609
 32
-0.006427787244319916
 13
0.3981107175350189
 23
-0.00982292927801609
 33
-0.006427787244319916
  0
3DFACE
  8
0
 10
0.4373365342617035
 20
0.01354275457561016
 30
0.007129908073693514
 11
0.4319375157356262
 21
0.009824205189943314
 31
-0.0027161631733179092
 12
0.4150241017341614
 22
0.01964777335524559
 32
-0.004571895115077496
 13
0.4150241017341614
 23
0.01964777335524559
 33
-0.004571895115077496
  0
3DFACE
  8
0
 10
0.414020836353302
 20
-0.02708359993994236
 30
0.004571573808789253
 11
0.3907051384449005
 21
-0.013541479595005512
 31
0.00201339996419847
 12
0.3981107175350189
 22
-0.00982292927801609
 32
-0.006427787244319916
 13
0.3981107175350189
 23
-0.00982292927801609
 33
-0.006427787244319916
  0
3DFACE
  8
0
 10
0.4373365342617035
 20
-0.01354148332029581
 30
0.007129908073693514
 11
0.414020836353302
 21
-0.02708359993994236
 31
0.004571573808789253
 12
0.4150241017341614
 22
-0.019646501168608665
 32
-0.004571895115077496
 13
0.4150241017341614
 23
-0.019646501168608665
 33
-0.004571895115077496
  0
3DFACE
  8
0
 10
0.413164347410202
 20
0.028565697371959686
 30
0.012377431616187096
 11
0.414020836353302
 21
0.027084873989224434
 31
0.004571573808789253
 12
0.3907051384449005
 22
0.01354275457561016
 32
0.00201339996419847
 13
0.3907051384449005
 23
0.01354275457561016
 33
0.00201339996419847
  0
3DFACE
  8
0
 10
0.4377547800540924
 20
-0.014281894080340862
 30
0.015075611881911755
 11
0.4373365342617035
 21
-0.01354148332029581
 31
0.007129908073693514
 12
0.4373365342617035
 22
0.01354275457561016
 32
0.007129908073693514
 13
0.4373365342617035
 23
0.01354275457561016
 33
0.007129908073693514
  0
3DFACE
  8
0
 10
0.38857385516166687
 20
0.014283163473010063
 30
0.009679412469267845
 11
0.3907051384449005
 21
0.01354275457561016
 31
0.00201339996419847
 12
0.3907051384449005
 22
-0.013541479595005512
 32
0.00201339996419847
 13
0.3907051384449005
 23
-0.013541479595005512
 33
0.00201339996419847
  0
3DFACE
  8
0
 10
0.4377547800540924
 20
0.014283163473010063
 30
0.015075611881911755
 11
0.4373365342617035
 21
0.01354275457561016
 31
0.007129908073693514
 12
0.414020836353302
 22
0.027084873989224434
 32
0.004571573808789253
 13
0.414020836353302
 23
0.027084873989224434
 33
0.004571573808789253
  0
3DFACE
  8
0
 10
0.413164347410202
 20
-0.028564419597387314
 30
0.012377431616187096
 11
0.38857385516166687
 21
-0.01428188942372799
 31
0.009679412469267845
 12
0.3907051384449005
 22
-0.013541479595005512
 32
0.00201339996419847
 13
0.3907051384449005
 23
-0.013541479595005512
 33
0.00201339996419847
  0
3DFACE
  8
0
 10
0.4377547800540924
 20
-0.014281894080340862
 30
0.015075611881911755
 11
0.413164347410202
 21
-0.028564419597387314
 31
0.012377431616187096
 12
0.414020836353302
 22
-0.02708359993994236
 32
0.004571573808789253
 13
0.414020836353302
 23
-0.02708359993994236
 33
0.004571573808789253
  0
3DFACE
  8
0
 10
0.38536542654037476
 20
-0.010585051029920578
 30
0.4450199007987976
 11
0.3999253511428833
 21
-0.010585051961243153
 31
0.4466175138950348
 12
0.39764735102653503
 22
-0.010585051961243153
 32
0.46737825870513916
 13
0.39764735102653503
 23
-0.010585051961243153
 33
0.46737825870513916
  0
3DFACE
  8
0
 10
0.3999253511428833
 20
0.010586321353912354
 30
0.4466175138950348
 11
0.3999253511428833
 21
-0.010585051961243153
 31
0.4466175138950348
 12
0.38536542654037476
 22
-0.010585051029920578
 32
0.4450199007987976
 13
0.38536542654037476
 23
-0.010585051029920578
 33
0.4450199007987976
  0
3DFACE
  8
0
 10
0.3723125457763672
 20
-0.010585051961243153
 30
0.6982709169387817
 11
0.35775259137153625
 21
-0.010585052892565727
 31
0.6966733932495117
 12
0.35775259137153625
 22
0.010586320422589779
 32
0.6966733932495117
 13
0.35775259137153625
 23
0.010586320422589779
 33
0.6966733932495117
  0
3DFACE
  8
0
 10
0.4377547800540924
 20
0.014283163473010063
 30
0.015075611881911755
 11
0.413164347410202
 21
0.028565697371959686
 31
0.012377431616187096
 12
0.4129529595375061
 22
0.026059821248054504
 32
0.014303648844361305
 13
0.4129529595375061
 23
0.026059821248054504
 33
0.014303648844361305
  0
3DFACE
  8
0
 10
0.4377547800540924
 20
0.014283163473010063
 30
0.015075611881911755
 11
0.4353862404823303
 21
0.013030225411057472
 31
0.016765328124165535
 12
0.4353862404823303
 22
-0.013028956018388271
 32
0.016765328124165535
 13
0.4353862404823303
 23
-0.013028956018388271
 33
0.016765328124165535
  0
3DFACE
  8
0
 10
0.4377547800540924
 20
-0.014281894080340862
 30
0.015075611881911755
 11
0.4353862404823303
 21
-0.013028956018388271
 31
0.016765328124165535
 12
0.4129529595375061
 22
-0.026058541610836983
 32
0.014303648844361305
 13
0.4129529595375061
 23
-0.026058541610836983
 33
0.014303648844361305
  0
3DFACE
  8
0
 10
0.38857385516166687
 20
-0.01428188942372799
 30
0.009679412469267845
 11
0.413164347410202
 21
-0.028564419597387314
 31
0.012377431616187096
 12
0.4129529595375061
 22
-0.026058541610836983
 32
0.014303648844361305
 13
0.4129529595375061
 23
-0.026058541610836983
 33
0.014303648844361305
  0
3DFACE
  8
0
 10
0.38857385516166687
 20
-0.01428188942372799
 30
0.009679412469267845
 11
0.3905197083950043
 21
-0.013028950430452824
 31
0.011842130683362484
 12
0.3905197083950043
 22
0.013030225411057472
 32
0.011842130683362484
 13
0.3905197083950043
 23
0.013030225411057472
 33
0.011842130683362484
  0
3DFACE
  8
0
 10
0.38857385516166687
 20
0.014283163473010063
 30
0.009679412469267845
 11
0.3905197083950043
 21
0.013030225411057472
 31
0.011842130683362484
 12
0.4129529595375061
 22
0.026059821248054504
 32
0.014303648844361305
 13
0.4129529595375061
 23
0.026059821248054504
 33
0.014303648844361305
  0
3DFACE
  8
0
 10
0.4150241017341614
 20
0.01964777335524559
 30
-0.004571895115077496
 11
0.4150241017341614
 21
-0.019646501168608665
 31
-0.004571895115077496
 12
0.3981107175350189
 22
-0.00982292927801609
 32
-0.006427787244319916
 13
0.3981107175350189
 23
-0.00982292927801609
 33
-0.006427787244319916
  0
3DFACE
  8
0
 10
0.39764735102653503
 20
0.010586321353912354
 30
0.46737825870513916
 11
0.3999253511428833
 21
0.010586321353912354
 31
0.4466175138950348
 12
0.38536542654037476
 22
0.010586322285234928
 32
0.4450199007987976
 13
0.38536542654037476
 23
0.010586322285234928
 33
0.4450199007987976
  0
3DFACE
  8
0
 10
0.39764735102653503
 20
0.010586321353912354
 30
0.46737825870513916
 11
0.3830874264240265
 21
0.010586322285234928
 31
0.4657807946205139
 12
0.3830874264240265
 22
-0.010585051029920578
 32
0.4657807946205139
 13
0.3830874264240265
 23
-0.010585051029920578
 33
0.4657807946205139
  0
3DFACE
  8
0
 10
0.35775259137153625
 20
-0.010585052892565727
 30
0.6966733932495117
 11
0.3723125457763672
 21
-0.010585051961243153
 31
0.6982709169387817
 12
0.3700345456600189
 22
-0.010585051961243153
 32
0.7190317511558533
 13
0.3700345456600189
 23
-0.010585051961243153
 33
0.7190317511558533
  0
3DFACE
  8
0
 10
0.3700345456600189
 20
0.010586321353912354
 30
0.7190317511558533
 11
0.3723125457763672
 21
0.010586321353912354
 31
0.6982709169387817
 12
0.35775259137153625
 22
0.010586320422589779
 32
0.6966733932495117
 13
0.35775259137153625
 23
0.010586320422589779
 33
0.6966733932495117
  0
3DFACE
  8
0
 10
0.3700345456600189
 20
0.010586321353912354
 30
0.7190317511558533
 11
0.3554746210575104
 21
0.010586321353912354
 31
0.7174341678619385
 12
0.3554746210575104
 22
-0.010585051961243153
 32
0.7174341678619385
 13
0.3554746210575104
 23
-0.010585051961243153
 33
0.7174341678619385
  0
3DFACE
  8
0
 10
0.39764735102653503
 20
0.010586321353912354
 30
0.46737825870513916
 11
0.39764735102653503
 21
-0.010585051961243153
 31
0.46737825870513916
 12
0.3999253511428833
 22
-0.010585051961243153
 32
0.4466175138950348
 13
0.3999253511428833
 23
-0.010585051961243153
 33
0.4466175138950348
  0
3DFACE
  8
0
 10
0.3700345456600189
 20
0.010586321353912354
 30
0.7190317511558533
 11
0.3700345456600189
 21
-0.010585051961243153
 31
0.7190317511558533
 12
0.3723125457763672
 22
-0.010585051961243153
 32
0.6982709169387817
 13
0.3723125457763672
 23
-0.010585051961243153
 33
0.6982709169387817
  0
3DFACE
  8
0
 10
0.02606017142534256
 20
-0.41295135021209717
 30
0.014303648844361305
 11
0.026060156524181366
 21
-0.22903668880462646
 31
1.6892808675765991
 12
0.013030565343797207
 22
-0.2529464662075043
 32
1.6783815622329712
 13
0.013030565343797207
 23
-0.2529464662075043
 33
1.6783815622329712
  0
3DFACE
  8
0
 10
0.013030565343797207
 20
-0.2529464662075043
 30
1.6783815622329712
 11
-0.013028616085648537
 21
-0.2529464662075043
 31
1.6783815622329712
 12
-0.013028602115809917
 22
-0.4353846311569214
 32
0.016765328124165535
 13
-0.013028602115809917
 23
-0.4353846311569214
 33
0.016765328124165535
  0
3DFACE
  8
0
 10
-0.013028616085648537
 20
-0.2529464662075043
 30
1.6783815622329712
 11
-0.026058204472064972
 21
-0.22903668880462646
 31
1.6892808675765991
 12
-0.026058189570903778
 22
-0.41295135021209717
 32
0.014303648844361305
 13
-0.026058189570903778
 23
-0.41295135021209717
 33
0.014303648844361305
  0
3DFACE
  8
0
 10
-0.026058204472064972
 20
-0.22903668880462646
 30
1.6892808675765991
 11
-0.013028614223003387
 21
-0.2053898274898529
 31
1.7030987739562988
 12
-0.013028599321842194
 22
-0.39051809906959534
 32
0.011842130683362484
 13
-0.013028599321842194
 23
-0.39051809906959534
 33
0.011842130683362484
  0
3DFACE
  8
0
 10
0.013030576519668102
 20
-0.39051809906959534
 30
0.011842130683362484
 11
0.013030561618506908
 21
-0.2053898274898529
 31
1.7030987739562988
 12
0.026060156524181366
 22
-0.22903668880462646
 32
1.6892808675765991
 13
0.026060156524181366
 23
-0.22903668880462646
 33
1.6892808675765991
  0
3DFACE
  8
0
 10
-0.013028614223003387
 20
-0.2053898274898529
 30
1.7030987739562988
 11
0.013030561618506908
 21
-0.2053898274898529
 31
1.7030987739562988
 12
0.013030576519668102
 22
-0.39051809906959534
 32
0.011842130683362484
 13
0.013030576519668102
 23
-0.39051809906959534
 33
0.011842130683362484
  0
3DFACE
  8
0
 10
0.019648125395178795
 20
-0.41502249240875244
 30
-0.004571895115077496
 11
0.009824559092521667
 21
-0.4319359362125397
 31
-0.0027161631733179092
 12
-0.00982257816940546
 22
-0.4319359362125397
 32
-0.0027161631733179092
 13
-0.00982257816940546
 23
-0.4319359362125397
 33
-0.0027161631733179092
  0
3DFACE
  8
0
 10
0.02708522602915764
 20
-0.41401922702789307
 30
0.004571573808789253
 11
0.019648125395178795
 21
-0.41502249240875244
 31
-0.004571895115077496
 12
0.009824557229876518
 22
-0.39810910820961
 32
-0.006427787244319916
 13
0.009824557229876518
 23
-0.39810910820961
 33
-0.006427787244319916
  0
3DFACE
  8
0
 10
0.013543108478188515
 20
-0.43733492493629456
 30
0.007129908073693514
 11
-0.013541130349040031
 21
-0.43733492493629456
 31
0.007129908073693514
 12
-0.00982257816940546
 22
-0.4319359362125397
 32
-0.0027161631733179092
 13
-0.00982257816940546
 23
-0.4319359362125397
 33
-0.0027161631733179092
  0
3DFACE
  8
0
 10
0.01354310568422079
 20
-0.3907035291194916
 30
0.00201339996419847
 11
0.009824557229876518
 21
-0.39810910820961
 31
-0.006427787244319916
 12
-0.00982257816940546
 22
-0.39810910820961
 32
-0.006427787244319916
 13
-0.00982257816940546
 23
-0.39810910820961
 33
-0.006427787244319916
  0
3DFACE
  8
0
 10
0.013543108478188515
 20
-0.43733492493629456
 30
0.007129908073693514
 11
0.009824559092521667
 21
-0.4319359362125397
 31
-0.0027161631733179092
 12
0.019648125395178795
 22
-0.41502249240875244
 32
-0.004571895115077496
 13
0.019648125395178795
 23
-0.41502249240875244
 33
-0.004571895115077496
  0
3DFACE
  8
0
 10
-0.027083247900009155
 20
-0.41401922702789307
 30
0.004571573808789253
 11
-0.013541128486394882
 21
-0.3907035291194916
 31
0.00201339996419847
 12
-0.00982257816940546
 22
-0.39810910820961
 32
-0.006427787244319916
 13
-0.00982257816940546
 23
-0.39810910820961
 33
-0.006427787244319916
  0
3DFACE
  8
0
 10
-0.013541130349040031
 20
-0.43733492493629456
 30
0.007129908073693514
 11
-0.027083247900009155
 21
-0.41401922702789307
 31
0.004571573808789253
 12
-0.01964614912867546
 22
-0.41502249240875244
 32
-0.004571895115077496
 13
-0.01964614912867546
 23
-0.41502249240875244
 33
-0.004571895115077496
  0
3DFACE
  8
0
 10
0.02856604941189289
 20
-0.4131627380847931
 30
0.012377431616187096
 11
0.02708522602915764
 21
-0.41401922702789307
 31
0.004571573808789253
 12
0.01354310568422079
 22
-0.3907035291194916
 32
0.00201339996419847
 13
0.01354310568422079
 23
-0.3907035291194916
 33
0.00201339996419847
  0
3DFACE
  8
0
 10
-0.014281540177762508
 20
-0.43775320053100586
 30
0.015075611881911755
 11
-0.013541130349040031
 21
-0.43733492493629456
 31
0.007129908073693514
 12
0.013543108478188515
 22
-0.43733492493629456
 32
0.007129908073693514
 13
0.013543108478188515
 23
-0.43733492493629456
 33
0.007129908073693514
  0
3DFACE
  8
0
 10
0.014283513650298119
 20
-0.38857224583625793
 30
0.009679412469267845
 11
0.01354310568422079
 21
-0.3907035291194916
 31
0.00201339996419847
 12
-0.013541128486394882
 22
-0.3907035291194916
 32
0.00201339996419847
 13
-0.013541128486394882
 23
-0.3907035291194916
 33
0.00201339996419847
  0
3DFACE
  8
0
 10
0.02856604941189289
 20
-0.4131627380847931
 30
0.012377431616187096
 11
0.014283517375588417
 21
-0.43775320053100586
 31
0.015075611881911755
 12
0.013543108478188515
 22
-0.43733492493629456
 32
0.007129908073693514
 13
0.013543108478188515
 23
-0.43733492493629456
 33
0.007129908073693514
  0
3DFACE
  8
0
 10
-0.02856406942009926
 20
-0.4131627380847931
 30
0.012377431616187096
 11
-0.014281539246439934
 21
-0.38857224583625793
 31
0.009679412469267845
 12
-0.013541128486394882
 22
-0.3907035291194916
 32
0.00201339996419847
 13
-0.013541128486394882
 23
-0.3907035291194916
 33
0.00201339996419847
  0
3DFACE
  8
0
 10
-0.02856406942009926
 20
-0.4131627380847931
 30
0.012377431616187096
 11
-0.027083247900009155
 21
-0.41401922702789307
 31
0.004571573808789253
 12
-0.013541130349040031
 22
-0.43733492493629456
 32
0.007129908073693514
 13
-0.013541130349040031
 23
-0.43733492493629456
 33
0.007129908073693514
  0
3DFACE
  8
0
 10
-0.010584700852632523
 20
-0.3853638172149658
 30
0.4450199007987976
 11
-0.010584700852632523
 21
-0.39992374181747437
 31
0.4466175138950348
 12
-0.010584700852632523
 22
-0.3976457417011261
 32
0.46737825870513916
 13
-0.010584700852632523
 23
-0.3976457417011261
 33
0.46737825870513916
  0
3DFACE
  8
0
 10
-0.010584700852632523
 20
-0.39992374181747437
 30
0.4466175138950348
 11
-0.010584700852632523
 21
-0.3853638172149658
 31
0.4450199007987976
 12
0.010586672462522984
 22
-0.3853638172149658
 32
0.4450199007987976
 13
0.010586672462522984
 23
-0.3853638172149658
 33
0.4450199007987976
  0
3DFACE
  8
0
 10
-0.010584702715277672
 20
-0.37231096625328064
 30
0.6982709169387817
 11
-0.010584704577922821
 21
-0.3577509820461273
 31
0.6966733932495117
 12
0.010586668737232685
 22
-0.3577509820461273
 32
0.6966733932495117
 13
0.010586668737232685
 23
-0.3577509820461273
 33
0.6966733932495117
  0
3DFACE
  8
0
 10
0.02856604941189289
 20
-0.4131627380847931
 30
0.012377431616187096
 11
0.02606017142534256
 21
-0.41295135021209717
 31
0.014303648844361305
 12
0.013030578382313251
 22
-0.4353846311569214
 32
0.016765328124165535
 13
0.013030578382313251
 23
-0.4353846311569214
 33
0.016765328124165535
  0
3DFACE
  8
0
 10
0.014283517375588417
 20
-0.43775320053100586
 30
0.015075611881911755
 11
0.013030578382313251
 21
-0.4353846311569214
 31
0.016765328124165535
 12
-0.013028602115809917
 22
-0.4353846311569214
 32
0.016765328124165535
 13
-0.013028602115809917
 23
-0.4353846311569214
 33
0.016765328124165535
  0
3DFACE
  8
0
 10
-0.02856406942009926
 20
-0.4131627380847931
 30
0.012377431616187096
 11
-0.014281540177762508
 21
-0.43775320053100586
 31
0.015075611881911755
 12
-0.013028602115809917
 22
-0.4353846311569214
 32
0.016765328124165535
 13
-0.013028602115809917
 23
-0.4353846311569214
 33
0.016765328124165535
  0
3DFACE
  8
0
 10
-0.014281539246439934
 20
-0.38857224583625793
 30
0.009679412469267845
 11
-0.02856406942009926
 21
-0.4131627380847931
 31
0.012377431616187096
 12
-0.026058189570903778
 22
-0.41295135021209717
 32
0.014303648844361305
 13
-0.026058189570903778
 23
-0.41295135021209717
 33
0.014303648844361305
  0
3DFACE
  8
0
 10
0.014283513650298119
 20
-0.38857224583625793
 30
0.009679412469267845
 11
-0.014281539246439934
 21
-0.38857224583625793
 31
0.009679412469267845
 12
-0.013028599321842194
 22
-0.39051809906959534
 32
0.011842130683362484
 13
-0.013028599321842194
 23
-0.39051809906959534
 33
0.011842130683362484
  0
3DFACE
  8
0
 10
0.014283513650298119
 20
-0.38857224583625793
 30
0.009679412469267845
 11
0.013030576519668102
 21
-0.39051809906959534
 31
0.011842130683362484
 12
0.02606017142534256
 22
-0.41295135021209717
 32
0.014303648844361305
 13
0.02606017142534256
 23
-0.41295135021209717
 33
0.014303648844361305
  0
3DFACE
  8
0
 10
0.019648125395178795
 20
-0.41502249240875244
 30
-0.004571895115077496
 11
-0.01964614912867546
 21
-0.41502249240875244
 31
-0.004571895115077496
 12
-0.00982257816940546
 22
-0.39810910820961
 32
-0.006427787244319916
 13
-0.00982257816940546
 23
-0.39810910820961
 33
-0.006427787244319916
  0
3DFACE
  8
0
 10
0.010586672462522984
 20
-0.3976457417011261
 30
0.46737825870513916
 11
0.010586672462522984
 21
-0.39992374181747437
 31
0.4466175138950348
 12
0.010586672462522984
 22
-0.3853638172149658
 32
0.4450199007987976
 13
0.010586672462522984
 23
-0.3853638172149658
 33
0.4450199007987976
  0
3DFACE
  8
0
 10
0.010586672462522984
 20
-0.3976457417011261
 30
0.46737825870513916
 11
0.010586672462522984
 21
-0.38308581709861755
 31
0.4657807946205139
 12
-0.010584700852632523
 22
-0.38308581709861755
 32
0.4657807946205139
 13
-0.010584700852632523
 23
-0.38308581709861755
 33
0.4657807946205139
  0
3DFACE
  8
0
 10
-0.010584704577922821
 20
-0.3577509820461273
 30
0.6966733932495117
 11
-0.010584702715277672
 21
-0.37231096625328064
 31
0.6982709169387817
 12
-0.010584702715277672
 22
-0.3700329661369324
 32
0.7190317511558533
 13
-0.010584702715277672
 23
-0.3700329661369324
 33
0.7190317511558533
  0
3DFACE
  8
0
 10
0.01058666966855526
 20
-0.3700329661369324
 30
0.7190317511558533
 11
0.01058666966855526
 21
-0.37231096625328064
 31
0.6982709169387817
 12
0.010586668737232685
 22
-0.3577509820461273
 32
0.6966733932495117
 13
0.010586668737232685
 23
-0.3577509820461273
 33
0.6966733932495117
  0
3DFACE
  8
0
 10
-0.010584702715277672
 20
-0.3700329661369324
 30
0.7190317511558533
 11
0.01058666966855526
 21
-0.3700329661369324
 31
0.7190317511558533
 12
0.010586668737232685
 22
-0.35547301173210144
 32
0.7174341678619385
 13
0.010586668737232685
 23
-0.35547301173210144
 33
0.7174341678619385
  0
3DFACE
  8
0
 10
0.010586672462522984
 20
-0.3976457417011261
 30
0.46737825870513916
 11
-0.010584700852632523
 21
-0.3976457417011261
 31
0.46737825870513916
 12
-0.010584700852632523
 22
-0.39992374181747437
 32
0.4466175138950348
 13
-0.010584700852632523
 23
-0.39992374181747437
 33
0.4466175138950348
  0
3DFACE
  8
0
 10
0.01058666966855526
 20
-0.3700329661369324
 30
0.7190317511558533
 11
-0.010584702715277672
 21
-0.3700329661369324
 31
0.7190317511558533
 12
-0.010584702715277672
 22
-0.37231096625328064
 32
0.6982709169387817
 13
-0.010584702715277672
 23
-0.37231096625328064
 33
0.6982709169387817
  0
3DFACE
  8
0
 10
-0.4353843033313751
 20
-0.013028978370130062
 30
0.016765328124165535
 11
-0.4129510521888733
 21
-0.02605857141315937
 31
0.014303648844361305
 12
-0.252946138381958
 22
-0.013028961606323719
 32
1.6783815622329712
 13
-0.252946138381958
 23
-0.013028961606323719
 33
1.6783815622329712
  0
3DFACE
  8
0
 10
-0.4353843033313751
 20
-0.013028978370130062
 30
0.016765328124165535
 11
-0.252946138381958
 21
-0.013028961606323719
 31
1.6783815622329712
 12
-0.4353843033313751
 22
0.013030202127993107
 32
0.016765328124165535
 13
-0.4353843033313751
 23
0.013030202127993107
 33
0.016765328124165535
  0
3DFACE
  8
0
 10
-0.4353843033313751
 20
0.013030202127993107
 30
0.016765328124165535
 11
-0.252946138381958
 21
0.01303021889179945
 31
1.6783815622329712
 12
-0.4129510521888733
 22
0.026059789583086967
 32
0.014303648844361305
 13
-0.4129510521888733
 23
0.026059789583086967
 33
0.014303648844361305
  0
3DFACE
  8
0
 10
-0.4129510521888733
 20
0.026059789583086967
 30
0.014303648844361305
 11
-0.2290363758802414
 21
0.02605980820953846
 31
1.6892808675765991
 12
-0.3905177712440491
 22
0.013030200265347958
 32
0.011842130683362484
 13
-0.3905177712440491
 23
0.013030200265347958
 33
0.011842130683362484
  0
3DFACE
  8
0
 10
-0.4129510521888733
 20
-0.02605857141315937
 30
0.014303648844361305
 11
-0.3905177712440491
 21
-0.013028975576162338
 31
0.011842130683362484
 12
-0.2290363758802414
 22
-0.026058552786707878
 32
1.6892808675765991
 13
-0.2290363758802414
 23
-0.026058552786707878
 33
1.6892808675765991
  0
3DFACE
  8
0
 10
-0.3905177712440491
 20
0.013030200265347958
 30
0.011842130683362484
 11
-0.20538949966430664
 21
0.013030217960476875
 31
1.7030987739562988
 12
-0.3905177712440491
 22
-0.013028975576162338
 32
0.011842130683362484
 13
-0.3905177712440491
 23
-0.013028975576162338
 33
0.011842130683362484
  0
3DFACE
  8
0
 10
-0.4150221645832062
 20
0.01964774914085865
 30
-0.004571895115077496
 11
-0.4150221645832062
 21
-0.019646525382995605
 31
-0.004571895115077496
 12
-0.4319356083869934
 22
0.009824179112911224
 32
-0.0027161631733179092
 13
-0.4319356083869934
 23
0.009824179112911224
 33
-0.0027161631733179092
  0
3DFACE
  8
0
 10
-0.3907032012939453
 20
-0.013541504740715027
 30
0.00201339996419847
 11
-0.4140188992023468
 21
-0.0270836241543293
 31
0.004571573808789253
 12
-0.3981088101863861
 22
-0.009822957217693329
 32
-0.006427787244319916
 13
-0.3981088101863861
 23
-0.009822957217693329
 33
-0.006427787244319916
  0
3DFACE
  8
0
 10
-0.4319356083869934
 20
-0.009822959080338478
 30
-0.0027161631733179092
 11
-0.4373345971107483
 21
-0.01354150753468275
 31
0.007129908073693514
 12
-0.4319356083869934
 22
0.009824179112911224
 32
-0.0027161631733179092
 13
-0.4319356083869934
 23
0.009824179112911224
 33
-0.0027161631733179092
  0
3DFACE
  8
0
 10
-0.3907032012939453
 20
0.013542729429900646
 30
0.00201339996419847
 11
-0.3907032012939453
 21
-0.013541504740715027
 31
0.00201339996419847
 12
-0.3981088101863861
 22
0.00982417818158865
 32
-0.006427787244319916
 13
-0.3981088101863861
 23
0.00982417818158865
 33
-0.006427787244319916
  0
3DFACE
  8
0
 10
-0.4140188992023468
 20
-0.0270836241543293
 30
0.004571573808789253
 11
-0.4373345971107483
 21
-0.01354150753468275
 31
0.007129908073693514
 12
-0.4150221645832062
 22
-0.019646525382995605
 32
-0.004571895115077496
 13
-0.4150221645832062
 23
-0.019646525382995605
 33
-0.004571895115077496
  0
3DFACE
  8
0
 10
-0.4150221645832062
 20
0.01964774914085865
 30
-0.004571895115077496
 11
-0.4140188992023468
 21
0.027084849774837494
 31
0.004571573808789253
 12
-0.3981088101863861
 22
0.00982417818158865
 32
-0.006427787244319916
 13
-0.3981088101863861
 23
0.00982417818158865
 33
-0.006427787244319916
  0
3DFACE
  8
0
 10
-0.4319356083869934
 20
0.009824179112911224
 30
-0.0027161631733179092
 11
-0.4373345971107483
 21
0.01354273036122322
 31
0.007129908073693514
 12
-0.4150221645832062
 22
0.01964774914085865
 32
-0.004571895115077496
 13
-0.4150221645832062
 23
0.01964774914085865
 33
-0.004571895115077496
  0
3DFACE
  8
0
 10
-0.38857191801071167
 20
-0.014281912706792355
 30
0.009679412469267845
 11
-0.4131624102592468
 21
-0.028564447537064552
 31
0.012377431616187096
 12
-0.3907032012939453
 22
-0.013541504740715027
 32
0.00201339996419847
 13
-0.3907032012939453
 23
-0.013541504740715027
 33
0.00201339996419847
  0
3DFACE
  8
0
 10
-0.4377528727054596
 20
-0.014281916432082653
 30
0.015075611881911755
 11
-0.4377528727054596
 21
0.014283141121268272
 31
0.015075611881911755
 12
-0.4373345971107483
 22
-0.01354150753468275
 32
0.007129908073693514
 13
-0.4373345971107483
 23
-0.01354150753468275
 33
0.007129908073693514
  0
3DFACE
  8
0
 10
-0.38857191801071167
 20
0.014283139258623123
 30
0.009679412469267845
 11
-0.38857191801071167
 21
-0.014281912706792355
 31
0.009679412469267845
 12
-0.3907032012939453
 22
0.013542729429900646
 32
0.00201339996419847
 13
-0.3907032012939453
 23
0.013542729429900646
 33
0.00201339996419847
  0
3DFACE
  8
0
 10
-0.4140188992023468
 20
-0.0270836241543293
 30
0.004571573808789253
 11
-0.4131624102592468
 21
-0.028564447537064552
 31
0.012377431616187096
 12
-0.4373345971107483
 22
-0.01354150753468275
 32
0.007129908073693514
 13
-0.4373345971107483
 23
-0.01354150753468275
 33
0.007129908073693514
  0
3DFACE
  8
0
 10
-0.4140188992023468
 20
0.027084849774837494
 30
0.004571573808789253
 11
-0.4131624102592468
 21
0.028565669432282448
 31
0.012377431616187096
 12
-0.3907032012939453
 22
0.013542729429900646
 32
0.00201339996419847
 13
-0.3907032012939453
 23
0.013542729429900646
 33
0.00201339996419847
  0
3DFACE
  8
0
 10
-0.4377528727054596
 20
0.014283141121268272
 30
0.015075611881911755
 11
-0.4131624102592468
 21
0.028565669432282448
 31
0.012377431616187096
 12
-0.4373345971107483
 22
0.01354273036122322
 32
0.007129908073693514
 13
-0.4373345971107483
 23
0.01354273036122322
 33
0.007129908073693514
  0
3DFACE
  8
0
 10
-0.3830854892730713
 20
0.010586300864815712
 30
0.4657807946205139
 11
-0.38536348938941956
 21
0.010586300864815712
 31
0.4450199007987976
 12
-0.3976454436779022
 22
0.010586300864815712
 32
0.46737825870513916
 13
-0.3976454436779022
 23
0.010586300864815712
 33
0.46737825870513916
  0
3DFACE
  8
0
 10
-0.3999234437942505
 20
-0.01058507151901722
 30
0.4466175138950348
 11
-0.3999234437942505
 21
0.010586300864815712
 31
0.4466175138950348
 12
-0.38536348938941956
 22
-0.01058507151901722
 32
0.4450199007987976
 13
-0.38536348938941956
 23
-0.01058507151901722
 33
0.4450199007987976
  0
3DFACE
  8
0
 10
-0.3723106384277344
 20
-0.01058506965637207
 30
0.6982709169387817
 11
-0.3723106384277344
 21
0.010586303658783436
 31
0.6982709169387817
 12
-0.35775065422058105
 22
-0.010585066862404346
 32
0.6966733932495117
 13
-0.35775065422058105
 23
-0.010585066862404346
 33
0.6966733932495117
  0
3DFACE
  8
0
 10
-0.4353843033313751
 20
-0.013028978370130062
 30
0.016765328124165535
 11
-0.4377528727054596
 21
-0.014281916432082653
 31
0.015075611881911755
 12
-0.4129510521888733
 22
-0.02605857141315937
 32
0.014303648844361305
 13
-0.4129510521888733
 23
-0.02605857141315937
 33
0.014303648844361305
  0
3DFACE
  8
0
 10
-0.4377528727054596
 20
0.014283141121268272
 30
0.015075611881911755
 11
-0.4377528727054596
 21
-0.014281916432082653
 31
0.015075611881911755
 12
-0.4353843033313751
 22
0.013030202127993107
 32
0.016765328124165535
 13
-0.4353843033313751
 23
0.013030202127993107
 33
0.016765328124165535
  0
3DFACE
  8
0
 10
-0.4131624102592468
 20
0.028565669432282448
 30
0.012377431616187096
 11
-0.4377528727054596
 21
0.014283141121268272
 31
0.015075611881911755
 12
-0.4129510521888733
 22
0.026059789583086967
 32
0.014303648844361305
 13
-0.4129510521888733
 23
0.026059789583086967
 33
0.014303648844361305
  0
3DFACE
  8
0
 10
-0.3905177712440491
 20
0.013030200265347958
 30
0.011842130683362484
 11
-0.38857191801071167
 21
0.014283139258623123
 31
0.009679412469267845
 12
-0.4129510521888733
 22
0.026059789583086967
 32
0.014303648844361305
 13
-0.4129510521888733
 23
0.026059789583086967
 33
0.014303648844361305
  0
3DFACE
  8
0
 10
-0.3905177712440491
 20
-0.013028975576162338
 30
0.011842130683362484
 11
-0.38857191801071167
 21
-0.014281912706792355
 31
0.009679412469267845
 12
-0.3905177712440491
 22
0.013030200265347958
 32
0.011842130683362484
 13
-0.3905177712440491
 23
0.013030200265347958
 33
0.011842130683362484
  0
3DFACE
  8
0
 10
-0.4131624102592468
 20
-0.028564447537064552
 30
0.012377431616187096
 11
-0.38857191801071167
 21
-0.014281912706792355
 31
0.009679412469267845
 12
-0.4129510521888733
 22
-0.02605857141315937
 32
0.014303648844361305
 13
-0.4129510521888733
 23
-0.02605857141315937
 33
0.014303648844361305
  0
3DFACE
  8
0
 10
-0.3981088101863861
 20
-0.009822957217693329
 30
-0.006427787244319916
 11
-0.4150221645832062
 21
-0.019646525382995605
 31
-0.004571895115077496
 12
-0.3981088101863861
 22
0.00982417818158865
 32
-0.006427787244319916
 13
-0.3981088101863861
 23
0.00982417818158865
 33
-0.006427787244319916
  0
3DFACE
  8
0
 10
-0.3830854892730713
 20
-0.01058507151901722
 30
0.4657807946205139
 11
-0.3976454436779022
 21
-0.01058507151901722
 31
0.46737825870513916
 12
-0.38536348938941956
 22
-0.01058507151901722
 32
0.4450199007987976
 13
-0.38536348938941956
 23
-0.01058507151901722
 33
0.4450199007987976
  0
3DFACE
  8
0
 10
-0.3976454436779022
 20
0.010586300864815712
 30
0.46737825870513916
 11
-0.3976454436779022
 21
-0.01058507151901722
 31
0.46737825870513916
 12
-0.3830854892730713
 22
0.010586300864815712
 32
0.4657807946205139
 13
-0.3830854892730713
 23
0.010586300864815712
 33
0.4657807946205139
  0
3DFACE
  8
0
 10
-0.3554726839065552
 20
0.01058630645275116
 30
0.7174341678619385
 11
-0.35775065422058105
 21
0.01058630645275116
 31
0.6966733932495117
 12
-0.3700326383113861
 22
0.010586303658783436
 32
0.7190317511558533
 13
-0.3700326383113861
 23
0.010586303658783436
 33
0.7190317511558533
  0
3DFACE
  8
0
 10
-0.3554726839065552
 20
-0.010585066862404346
 30
0.7174341678619385
 11
-0.3700326383113861
 21
-0.01058506965637207
 31
0.7190317511558533
 12
-0.35775065422058105
 22
-0.010585066862404346
 32
0.6966733932495117
 13
-0.35775065422058105
 23
-0.010585066862404346
 33
0.6966733932495117
  0
3DFACE
  8
0
 10
-0.3554726839065552
 20
0.01058630645275116
 30
0.7174341678619385
 11
-0.3700326383113861
 21
0.010586303658783436
 31
0.7190317511558533
 12
-0.3554726839065552
 22
-0.010585066862404346
 32
0.7174341678619385
 13
-0.3554726839065552
 23
-0.010585066862404346
 33
0.7174341678619385
  0
3DFACE
  8
0
 10
-0.3999234437942505
 20
-0.01058507151901722
 30
0.4466175138950348
 11
-0.3976454436779022
 21
-0.01058507151901722
 31
0.46737825870513916
 12
-0.3999234437942505
 22
0.010586300864815712
 32
0.4466175138950348
 13
-0.3999234437942505
 23
0.010586300864815712
 33
0.4466175138950348
  0
3DFACE
  8
0
 10
-0.3723106384277344
 20
-0.01058506965637207
 30
0.6982709169387817
 11
-0.3700326383113861
 21
-0.01058506965637207
 31
0.7190317511558533
 12
-0.3723106384277344
 22
0.010586303658783436
 32
0.6982709169387817
 13
-0.3723106384277344
 23
0.010586303658783436
 33
0.6982709169387817
  0
3DFACE
  8
0
 10
0.17762482166290283
 20
-0.3076530992984772
 30
1.6881879568099976
 11
9.09340030830208e-07
 21
-0.35524722933769226
 31
1.6881879568099976
 12
0.16835837066173553
 22
-0.29160311818122864
 32
1.6602290868759155
 13
0.16835837066173553
 23
-0.29160311818122864
 33
1.6602290868759155
  0
3DFACE
  8
0
 10
-0.29160276055336
 20
0.16835811734199524
 30
1.7142387628555298
 11
-0.1683565229177475
 21
0.29160434007644653
 31
1.7142387628555298
 12
-0.3076527416706085
 22
0.17762458324432373
 32
1.6881879568099976
 13
-0.3076527416706085
 23
0.17762458324432373
 33
1.6881879568099976
  0
3DFACE
  8
0
 10
0.3367159366607666
 20
4.856898954130884e-07
 30
1.7142387628555298
 11
0.291604608297348
 21
-0.16835694015026093
 31
1.7142387628555298
 12
0.3552488386631012
 22
4.797432779923838e-07
 32
1.6881879568099976
 13
0.3552488386631012
 23
4.797432779923838e-07
 33
1.6881879568099976
  0
3DFACE
  8
0
 10
-0.3367139995098114
 20
6.275145665313175e-07
 30
1.7142387628555298
 11
-0.29160276055336
 21
0.16835811734199524
 31
1.7142387628555298
 12
-0.355246901512146
 22
6.293740284490923e-07
 32
1.6881879568099976
 13
-0.355246901512146
 23
6.293740284490923e-07
 33
1.6881879568099976
  0
3DFACE
  8
0
 10
-0.29160276055336
 20
-0.16835686564445496
 30
1.7142387628555298
 11
-0.3367139995098114
 21
6.275145665313175e-07
 31
1.7142387628555298
 12
-0.3076527416706085
 22
-0.17762330174446106
 32
1.6881879568099976
 13
-0.3076527416706085
 23
-0.17762330174446106
 33
1.6881879568099976
  0
3DFACE
  8
0
 10
-0.1683565378189087
 20
-0.29160305857658386
 30
1.7142387628555298
 11
-0.29160276055336
 21
-0.16835686564445496
 31
1.7142387628555298
 12
-0.177622988820076
 22
-0.3076530396938324
 32
1.6881879568099976
 13
-0.177622988820076
 23
-0.3076530396938324
 33
1.6881879568099976
  0
3DFACE
  8
0
 10
0.317177414894104
 20
-0.08234918862581253
 30
0.4857140779495239
 11
0.35474976897239685
 21
-0.09201905131340027
 31
0.4744102358818054
 12
0.31574690341949463
 22
0.08726973831653595
 32
0.4857140779495239
 13
0.31574690341949463
 23
0.08726973831653595
 33
0.4857140779495239
  0
3DFACE
  8
0
 10
-0.08219107240438461
 20
-0.3174375891685486
 30
0.4857140779495239
 11
-0.09183237701654434
 21
-0.3548998236656189
 31
0.4744102358818054
 12
0.08742782473564148
 22
-0.31600701808929443
 32
0.4857140779495239
 13
0.08742782473564148
 23
-0.31600701808929443
 33
0.4857140779495239
  0
3DFACE
  8
0
 10
-0.3547132611274719
 20
0.0916823074221611
 30
0.4744102358818054
 11
-0.3531136214733124
 21
-0.09798910468816757
 31
0.4744102358818054
 12
-0.3172796070575714
 22
0.08193083852529526
 32
0.4857140779495239
 13
-0.3172796070575714
 23
0.08193083852529526
 33
0.4857140779495239
  0
3DFACE
  8
0
 10
0.09186888486146927
 20
0.35456326603889465
 30
0.4744102358818054
 11
-0.0978025421500206
 21
0.35296356678009033
 31
0.4744102358818054
 12
0.08208886533975601
 22
0.31701943278312683
 32
0.4857140779495239
 13
0.08208886533975601
 23
0.31701943278312683
 33
0.4857140779495239
  0
3DFACE
  8
0
 10
0.35315021872520447
 20
0.09765234589576721
 30
0.4744102358818054
 11
0.2569291591644287
 21
0.261112779378891
 31
0.4744102358818054
 12
0.31574690341949463
 22
0.08726973831653595
 32
0.4857140779495239
 13
0.31574690341949463
 23
0.08726973831653595
 33
0.4857140779495239
  0
3DFACE
  8
0
 10
0.08742782473564148
 20
-0.31600701808929443
 30
0.4857140779495239
 11
0.09783899039030075
 21
-0.35330015420913696
 31
0.4744102358818054
 12
0.23360678553581238
 22
-0.2299586981534958
 32
0.4857140779495239
 13
0.23360678553581238
 23
-0.2299586981534958
 33
0.4857140779495239
  0
3DFACE
  8
0
 10
-0.31584903597831726
 20
-0.08768810331821442
 30
0.4857140779495239
 11
-0.3531136214733124
 21
-0.09798910468816757
 31
0.4744102358818054
 12
-0.22980062663555145
 22
-0.23386704921722412
 32
0.4857140779495239
 13
-0.22980062663555145
 23
-0.23386704921722412
 33
0.4857140779495239
  0
3DFACE
  8
0
 10
-0.0978025421500206
 20
0.35296356678009033
 30
0.4744102358818054
 11
-0.261262983083725
 21
0.2567424476146698
 31
0.4744102358818054
 12
-0.08753005415201187
 22
0.31558889150619507
 32
0.4857140779495239
 13
-0.08753005415201187
 23
0.31558889150619507
 33
0.4857140779495239
  0
3DFACE
  8
0
 10
0.2569291591644287
 20
0.261112779378891
 30
0.4744102358818054
 11
0.09186888486146927
 21
0.35456326603889465
 31
0.4744102358818054
 12
0.22969861328601837
 22
0.23344871401786804
 32
0.4857140779495239
 13
0.22969861328601837
 23
0.23344871401786804
 33
0.4857140779495239
  0
3DFACE
  8
0
 10
0.23360678553581238
 20
-0.2299586981534958
 30
0.4857140779495239
 11
0.2612994313240051
 21
-0.2570790946483612
 31
0.4744102358818054
 12
0.317177414894104
 22
-0.08234918862581253
 32
0.4857140779495239
 13
0.317177414894104
 23
-0.08234918862581253
 33
0.4857140779495239
  0
3DFACE
  8
0
 10
-0.22980062663555145
 20
-0.23386704921722412
 30
0.4857140779495239
 11
-0.25689250230789185
 21
-0.26144954562187195
 31
0.4744102358818054
 12
-0.08219107240438461
 22
-0.3174375891685486
 32
0.4857140779495239
 13
-0.08219107240438461
 23
-0.3174375891685486
 33
0.4857140779495239
  0
3DFACE
  8
0
 10
-0.261262983083725
 20
0.2567424476146698
 30
0.4744102358818054
 11
-0.3547132611274719
 21
0.0916823074221611
 31
0.4744102358818054
 12
-0.23370905220508575
 22
0.2295403927564621
 32
0.4857140779495239
 13
-0.23370905220508575
 23
0.2295403927564621
 33
0.4857140779495239
  0
3DFACE
  8
0
 10
0.35474976897239685
 20
-0.09201905131340027
 30
0.4744102358818054
 11
0.35677364468574524
 21
-0.0925431028008461
 31
0.43376100063323975
 12
0.35315021872520447
 22
0.09765234589576721
 32
0.4744102358818054
 13
0.35315021872520447
 23
0.09765234589576721
 33
0.4744102358818054
  0
3DFACE
  8
0
 10
-0.08370145410299301
 20
-0.3232707679271698
 30
0.432780385017395
 11
0.08903636038303375
 21
-0.3218139111995697
 31
0.432780385017395
 12
-0.09235644340515137
 22
-0.3569236993789673
 32
0.43376100063323975
 13
-0.09235644340515137
 23
-0.3569236993789673
 33
0.43376100063323975
  0
3DFACE
  8
0
 10
-0.09235644340515137
 20
-0.3569236993789673
 30
0.43376100063323975
 11
0.09839709848165512
 21
-0.3553149104118347
 31
0.43376100063323975
 12
-0.09183237701654434
 22
-0.3548998236656189
 32
0.4744102358818054
 13
-0.09183237701654434
 23
-0.3548998236656189
 33
0.4744102358818054
  0
3DFACE
  8
0
 10
-0.3567372262477875
 20
0.09220635890960693
 30
0.43376100063323975
 11
-0.32311275601387024
 21
0.08344121277332306
 31
0.432780385017395
 12
-0.35512828826904297
 22
-0.09854721277952194
 32
0.43376100063323975
 13
-0.35512828826904297
 23
-0.09854721277952194
 33
0.43376100063323975
  0
3DFACE
  8
0
 10
-0.3567372262477875
 20
0.09220635890960693
 30
0.43376100063323975
 11
-0.35512828826904297
 21
-0.09854721277952194
 31
0.43376100063323975
 12
-0.3547132611274719
 22
0.0916823074221611
 32
0.4744102358818054
 13
-0.3547132611274719
 23
0.0916823074221611
 33
0.4744102358818054
  0
3DFACE
  8
0
 10
0.0923929214477539
 20
0.35658717155456543
 30
0.43376100063323975
 11
-0.09836063534021378
 21
0.3549782931804657
 31
0.43376100063323975
 12
0.09186888486146927
 22
0.35456326603889465
 32
0.4744102358818054
 13
0.09186888486146927
 23
0.35456326603889465
 33
0.4744102358818054
  0
3DFACE
  8
0
 10
0.3551649749279022
 20
0.09821047633886337
 30
0.43376100063323975
 11
0.2583949565887451
 21
0.2626034617424011
 31
0.43376100063323975
 12
0.35315021872520447
 22
0.09765234589576721
 32
0.4744102358818054
 13
0.35315021872520447
 23
0.09765234589576721
 33
0.4744102358818054
  0
3DFACE
  8
0
 10
0.09839709848165512
 20
-0.3553149104118347
 30
0.43376100063323975
 11
0.2627900540828705
 21
-0.25854483246803284
 31
0.43376100063323975
 12
0.09783899039030075
 22
-0.35330015420913696
 32
0.4744102358818054
 13
0.09783899039030075
 23
-0.35330015420913696
 33
0.4744102358818054
  0
3DFACE
  8
0
 10
-0.35512828826904297
 20
-0.09854721277952194
 30
0.43376100063323975
 11
-0.32165583968162537
 21
-0.08929664641618729
 31
0.432780385017395
 12
-0.25835826992988586
 22
-0.2629401981830597
 32
0.43376100063323975
 13
-0.25835826992988586
 23
-0.2629401981830597
 33
0.43376100063323975
  0
3DFACE
  8
0
 10
-0.35512828826904297
 20
-0.09854721277952194
 30
0.43376100063323975
 11
-0.25835826992988586
 21
-0.2629401981830597
 31
0.43376100063323975
 12
-0.3531136214733124
 22
-0.09798910468816757
 32
0.4744102358818054
 13
-0.3531136214733124
 23
-0.09798910468816757
 33
0.4744102358818054
  0
3DFACE
  8
0
 10
-0.09836063534021378
 20
0.3549782931804657
 30
0.43376100063323975
 11
-0.2627536654472351
 21
0.2582082152366638
 31
0.43376100063323975
 12
-0.0978025421500206
 22
0.35296356678009033
 32
0.4744102358818054
 13
-0.0978025421500206
 23
0.35296356678009033
 33
0.4744102358818054
  0
3DFACE
  8
0
 10
0.2583949565887451
 20
0.2626034617424011
 30
0.43376100063323975
 11
0.0923929214477539
 21
0.35658717155456543
 31
0.43376100063323975
 12
0.2569291591644287
 22
0.261112779378891
 32
0.4744102358818054
 13
0.2569291591644287
 23
0.261112779378891
 33
0.4744102358818054
  0
3DFACE
  8
0
 10
0.2627900540828705
 20
-0.25854483246803284
 30
0.43376100063323975
 11
0.35677364468574524
 21
-0.0925431028008461
 31
0.43376100063323975
 12
0.2612994313240051
 22
-0.2570790946483612
 32
0.4744102358818054
 13
0.2612994313240051
 23
-0.2570790946483612
 33
0.4744102358818054
  0
3DFACE
  8
0
 10
-0.23402519524097443
 20
-0.2381635457277298
 30
0.432780385017395
 11
-0.08370145410299301
 21
-0.3232707679271698
 31
0.432780385017395
 12
-0.25835826992988586
 22
-0.2629401981830597
 32
0.43376100063323975
 13
-0.25835826992988586
 23
-0.2629401981830597
 33
0.43376100063323975
  0
3DFACE
  8
0
 10
-0.25835826992988586
 20
-0.2629401981830597
 30
0.43376100063323975
 11
-0.09235644340515137
 21
-0.3569236993789673
 31
0.43376100063323975
 12
-0.25689250230789185
 22
-0.26144954562187195
 32
0.4744102358818054
 13
-0.25689250230789185
 23
-0.26144954562187195
 33
0.4744102358818054
  0
3DFACE
  8
0
 10
-0.2627536654472351
 20
0.2582082152366638
 30
0.43376100063323975
 11
-0.23800551891326904
 21
0.23376499116420746
 31
0.432780385017395
 12
-0.3567372262477875
 22
0.09220635890960693
 32
0.43376100063323975
 13
-0.3567372262477875
 23
0.09220635890960693
 33
0.43376100063323975
  0
3DFACE
  8
0
 10
-0.261262983083725
 20
0.2567424476146698
 30
0.4744102358818054
 11
-0.2627536654472351
 21
0.2582082152366638
 31
0.43376100063323975
 12
-0.3547132611274719
 22
0.0916823074221611
 32
0.4744102358818054
 13
-0.3547132611274719
 23
0.0916823074221611
 33
0.4744102358818054
  0
3DFACE
  8
0
 10
0.317177414894104
 20
-0.08234918862581253
 30
0.4857140779495239
 11
0.31574690341949463
 21
0.08726973831653595
 31
0.4857140779495239
 12
0.317177414894104
 22
-0.08234918862581253
 32
0.432780385017395
 13
0.317177414894104
 23
-0.08234918862581253
 33
0.432780385017395
  0
3DFACE
  8
0
 10
0.08208886533975601
 20
0.31701943278312683
 30
0.4857140779495239
 11
-0.08753005415201187
 21
0.31558889150619507
 31
0.4857140779495239
 12
0.08208886533975601
 22
0.31701943278312683
 32
0.432780385017395
 13
0.08208886533975601
 23
0.31701943278312683
 33
0.432780385017395
  0
3DFACE
  8
0
 10
0.31574690341949463
 20
0.08726973831653595
 30
0.4857140779495239
 11
0.22969861328601837
 21
0.23344871401786804
 31
0.4857140779495239
 12
0.31574690341949463
 22
0.08726975321769714
 32
0.432780385017395
 13
0.31574690341949463
 23
0.08726975321769714
 33
0.432780385017395
  0
3DFACE
  8
0
 10
0.22969861328601837
 20
0.23344871401786804
 30
0.4857140779495239
 11
0.08208886533975601
 21
0.31701943278312683
 31
0.4857140779495239
 12
0.22969861328601837
 22
0.23344871401786804
 32
0.432780385017395
 13
0.22969861328601837
 23
0.23344871401786804
 33
0.432780385017395
  0
3DFACE
  8
0
 10
0.23360678553581238
 20
-0.2299586981534958
 30
0.4857140779495239
 11
0.317177414894104
 21
-0.08234918862581253
 31
0.4857140779495239
 12
0.23360678553581238
 22
-0.2299586981534958
 32
0.432780385017395
 13
0.23360678553581238
 23
-0.2299586981534958
 33
0.432780385017395
  0
3DFACE
  8
0
 10
0.317177414894104
 20
-0.08234918862581253
 30
0.432780385017395
 11
0.31574690341949463
 21
0.08726975321769714
 31
0.432780385017395
 12
0.35677364468574524
 22
-0.0925431028008461
 32
0.43376100063323975
 13
0.35677364468574524
 23
-0.0925431028008461
 33
0.43376100063323975
  0
3DFACE
  8
0
 10
0.0923929214477539
 20
0.35658717155456543
 30
0.43376100063323975
 11
0.08208886533975601
 21
0.31701943278312683
 31
0.432780385017395
 12
-0.09836063534021378
 22
0.3549782931804657
 32
0.43376100063323975
 13
-0.09836063534021378
 23
0.3549782931804657
 33
0.43376100063323975
  0
3DFACE
  8
0
 10
0.3551649749279022
 20
0.09821047633886337
 30
0.43376100063323975
 11
0.31574690341949463
 21
0.08726975321769714
 31
0.432780385017395
 12
0.2583949565887451
 22
0.2626034617424011
 32
0.43376100063323975
 13
0.2583949565887451
 23
0.2626034617424011
 33
0.43376100063323975
  0
3DFACE
  8
0
 10
0.08903636038303375
 20
-0.3218139111995697
 30
0.432780385017395
 11
0.23360678553581238
 21
-0.2299586981534958
 31
0.432780385017395
 12
0.09839709848165512
 22
-0.3553149104118347
 32
0.43376100063323975
 13
0.09839709848165512
 23
-0.3553149104118347
 33
0.43376100063323975
  0
3DFACE
  8
0
 10
-0.09836063534021378
 20
0.3549782931804657
 30
0.43376100063323975
 11
-0.08753005415201187
 21
0.31558889150619507
 31
0.432780385017395
 12
-0.2627536654472351
 22
0.2582082152366638
 32
0.43376100063323975
 13
-0.2627536654472351
 23
0.2582082152366638
 33
0.43376100063323975
  0
3DFACE
  8
0
 10
0.2583949565887451
 20
0.2626034617424011
 30
0.43376100063323975
 11
0.22969861328601837
 21
0.23344871401786804
 31
0.432780385017395
 12
0.0923929214477539
 22
0.35658717155456543
 32
0.43376100063323975
 13
0.0923929214477539
 23
0.35658717155456543
 33
0.43376100063323975
  0
3DFACE
  8
0
 10
0.23360678553581238
 20
-0.2299586981534958
 30
0.432780385017395
 11
0.317177414894104
 21
-0.08234918862581253
 31
0.432780385017395
 12
0.2627900540828705
 22
-0.25854483246803284
 32
0.43376100063323975
 13
0.2627900540828705
 23
-0.25854483246803284
 33
0.43376100063323975
  0
3DFACE
  8
0
 10
-0.08370145410299301
 20
-0.3232707679271698
 30
0.432780385017395
 11
-0.08219107240438461
 21
-0.3174375891685486
 31
0.4857140779495239
 12
0.08903636038303375
 22
-0.3218139111995697
 32
0.432780385017395
 13
0.08903636038303375
 23
-0.3218139111995697
 33
0.432780385017395
  0
3DFACE
  8
0
 10
-0.3172796070575714
 20
0.08193083852529526
 30
0.4857140779495239
 11
-0.31584903597831726
 21
-0.08768810331821442
 31
0.4857140779495239
 12
-0.32311275601387024
 22
0.08344121277332306
 32
0.432780385017395
 13
-0.32311275601387024
 23
0.08344121277332306
 33
0.432780385017395
  0
3DFACE
  8
0
 10
0.08903636038303375
 20
-0.3218139111995697
 30
0.432780385017395
 11
0.08742782473564148
 21
-0.31600701808929443
 31
0.4857140779495239
 12
0.23360678553581238
 22
-0.2299586981534958
 32
0.432780385017395
 13
0.23360678553581238
 23
-0.2299586981534958
 33
0.432780385017395
  0
3DFACE
  8
0
 10
-0.31584903597831726
 20
-0.08768810331821442
 30
0.4857140779495239
 11
-0.22980062663555145
 21
-0.23386704921722412
 31
0.4857140779495239
 12
-0.32165583968162537
 22
-0.08929664641618729
 32
0.432780385017395
 13
-0.32165583968162537
 23
-0.08929664641618729
 33
0.432780385017395
  0
3DFACE
  8
0
 10
-0.08753005415201187
 20
0.31558889150619507
 30
0.4857140779495239
 11
-0.23370905220508575
 21
0.2295403927564621
 31
0.4857140779495239
 12
-0.08753005415201187
 22
0.31558889150619507
 32
0.432780385017395
 13
-0.08753005415201187
 23
0.31558889150619507
 33
0.432780385017395
  0
3DFACE
  8
0
 10
-0.22980062663555145
 20
-0.23386704921722412
 30
0.4857140779495239
 11
-0.08219107240438461
 21
-0.3174375891685486
 31
0.4857140779495239
 12
-0.23402519524097443
 22
-0.2381635457277298
 32
0.432780385017395
 13
-0.23402519524097443
 23
-0.2381635457277298
 33
0.432780385017395
  0
3DFACE
  8
0
 10
-0.23800551891326904
 20
0.23376499116420746
 30
0.432780385017395
 11
-0.23370905220508575
 21
0.2295403927564621
 31
0.4857140779495239
 12
-0.32311275601387024
 22
0.08344121277332306
 32
0.432780385017395
 13
-0.32311275601387024
 23
0.08344121277332306
 33
0.432780385017395
  0
3DFACE
  8
0
 10
0.13269923627376556
 20
-0.22983962297439575
 30
1.7272714376449585
 11
9.239117844117573e-07
 21
-0.26539602875709534
 31
1.7272714376449585
 12
0.16835837066173553
 22
-0.29160311818122864
 32
1.7142387628555298
 13
0.16835837066173553
 23
-0.29160311818122864
 33
1.7142387628555298
  0
3DFACE
  8
0
 10
0.291604608297348
 20
-0.16835694015026093
 30
1.6602290868759155
 11
0.30765455961227417
 21
-0.17762339115142822
 31
1.6881879568099976
 12
0.16835837066173553
 22
-0.29160311818122864
 32
1.6602290868759155
 13
0.16835837066173553
 23
-0.29160311818122864
 33
1.6602290868759155
  0
3DFACE
  8
0
 10
0.3552488386631012
 20
4.797432779923838e-07
 30
1.6881879568099976
 11
0.30765455961227417
 21
-0.17762339115142822
 31
1.6881879568099976
 12
0.3367159366607666
 22
4.856898954130884e-07
 32
1.6602290868759155
 13
0.3367159366607666
 23
4.856898954130884e-07
 33
1.6602290868759155
  0
3DFACE
  8
0
 10
-0.3367139995098114
 20
6.275145665313175e-07
 30
1.6602290868759155
 11
-0.355246901512146
 21
6.293740284490923e-07
 31
1.6881879568099976
 12
-0.29160276055336
 22
0.16835811734199524
 32
1.6602290868759155
 13
-0.29160276055336
 23
0.16835811734199524
 33
1.6602290868759155
  0
3DFACE
  8
0
 10
0.3076547682285309
 20
0.1776244193315506
 30
1.6881879568099976
 11
0.3552488386631012
 21
4.797432779923838e-07
 31
1.6881879568099976
 12
0.29160478711128235
 22
0.1683579683303833
 32
1.6602290868759155
 13
0.29160478711128235
 23
0.1683579683303833
 33
1.6602290868759155
  0
3DFACE
  8
0
 10
-0.13269732892513275
 20
6.422328056032711e-07
 30
1.7272714376449585
 11
-0.13269737362861633
 21
-0.22983959317207336
 31
1.7272714376449585
 12
9.439486348128412e-07
 22
6.221630428626668e-07
 32
1.7272714376449585
 13
9.439486348128412e-07
 23
6.221630428626668e-07
 33
1.7272714376449585
  0
3DFACE
  8
0
 10
0.13269931077957153
 20
5.619537546408537e-07
 30
1.7272714376449585
 11
0.1326994150876999
 21
0.2298407107591629
 31
1.7272714376449585
 12
9.439486348128412e-07
 22
6.221630428626668e-07
 32
1.7272714376449585
 13
9.439486348128412e-07
 23
6.221630428626668e-07
 33
1.7272714376449585
  0
3DFACE
  8
0
 10
9.639855989007629e-07
 20
0.26539719104766846
 30
1.7272714376449585
 11
-0.13269731402397156
 21
0.22984078526496887
 31
1.7272714376449585
 12
9.439486348128412e-07
 22
6.221630428626668e-07
 32
1.7272714376449585
 13
9.439486348128412e-07
 23
6.221630428626668e-07
 33
1.7272714376449585
  0
3DFACE
  8
0
 10
9.239117844117573e-07
 20
-0.26539602875709534
 30
1.7272714376449585
 11
0.13269923627376556
 21
-0.22983962297439575
 31
1.7272714376449585
 12
9.439486348128412e-07
 22
6.221630428626668e-07
 32
1.7272714376449585
 13
9.439486348128412e-07
 23
6.221630428626668e-07
 33
1.7272714376449585
  0
3DFACE
  8
0
 10
0.2653975784778595
 20
5.097937219034065e-07
 30
1.7272714376449585
 11
0.2298412173986435
 21
0.13269878923892975
 31
1.7272714376449585
 12
0.13269931077957153
 22
5.619537546408537e-07
 32
1.7272714376449585
 13
0.13269931077957153
 23
5.619537546408537e-07
 33
1.7272714376449585
  0
3DFACE
  8
0
 10
0.13269923627376556
 20
-0.22983962297439575
 30
1.7272714376449585
 11
0.22984111309051514
 21
-0.13269777595996857
 31
1.7272714376449585
 12
0.13269931077957153
 22
5.619537546408537e-07
 32
1.7272714376449585
 13
0.13269931077957153
 23
5.619537546408537e-07
 33
1.7272714376449585
  0
3DFACE
  8
0
 10
-0.2653956413269043
 20
6.215790335772908e-07
 30
1.7272714376449585
 11
-0.22983922064304352
 21
-0.1326976716518402
 31
1.7272714376449585
 12
-0.13269732892513275
 22
6.422328056032711e-07
 32
1.7272714376449585
 13
-0.13269732892513275
 23
6.422328056032711e-07
 33
1.7272714376449585
  0
3DFACE
  8
0
 10
-0.13269731402397156
 20
0.22984078526496887
 30
1.7272714376449585
 11
-0.22983920574188232
 21
0.1326989084482193
 31
1.7272714376449585
 12
-0.13269732892513275
 22
6.422328056032711e-07
 32
1.7272714376449585
 13
-0.13269732892513275
 23
6.422328056032711e-07
 33
1.7272714376449585
  0
3DFACE
  8
0
 10
0.17762482166290283
 20
-0.3076530992984772
 30
1.6881879568099976
 11
0.16835837066173553
 21
-0.29160311818122864
 31
1.7142387628555298
 12
9.09340030830208e-07
 22
-0.35524722933769226
 32
1.6881879568099976
 13
9.09340030830208e-07
 23
-0.35524722933769226
 33
1.6881879568099976
  0
3DFACE
  8
0
 10
-0.1683565229177475
 20
0.29160434007644653
 30
1.7142387628555298
 11
9.63349293670035e-07
 21
0.33671560883522034
 31
1.7142387628555298
 12
-0.1776229739189148
 22
0.30765432119369507
 32
1.6881879568099976
 13
-0.1776229739189148
 23
0.30765432119369507
 33
1.6881879568099976
  0
3DFACE
  8
0
 10
0.291604608297348
 20
-0.16835694015026093
 30
1.7142387628555298
 11
0.16835837066173553
 21
-0.29160311818122864
 31
1.7142387628555298
 12
0.30765455961227417
 22
-0.17762339115142822
 32
1.6881879568099976
 13
0.30765455961227417
 23
-0.17762339115142822
 33
1.6881879568099976
  0
3DFACE
  8
0
 10
0.29160478711128235
 20
0.1683579683303833
 30
1.7142387628555298
 11
0.3367159366607666
 21
4.856898954130884e-07
 31
1.7142387628555298
 12
0.3076547682285309
 22
0.1776244193315506
 32
1.6881879568099976
 13
0.3076547682285309
 23
0.1776244193315506
 33
1.6881879568099976
  0
3DFACE
  8
0
 10
0.16835863888263702
 20
0.29160425066947937
 30
1.7142387628555298
 11
0.29160478711128235
 21
0.1683579683303833
 31
1.7142387628555298
 12
0.1776251196861267
 22
0.3076542019844055
 32
1.6881879568099976
 13
0.1776251196861267
 23
0.3076542019844055
 33
1.6881879568099976
  0
3DFACE
  8
0
 10
9.63349293670035e-07
 20
0.33671560883522034
 30
1.7142387628555298
 11
0.16835863888263702
 21
0.29160425066947937
 31
1.7142387628555298
 12
9.62980948315817e-07
 22
0.35524851083755493
 32
1.6881879568099976
 13
9.62980948315817e-07
 23
0.35524851083755493
 33
1.6881879568099976
  0
3DFACE
  8
0
 10
9.09340030830208e-07
 20
-0.35524722933769226
 30
1.6881879568099976
 11
9.12506607164687e-07
 21
-0.33671432733535767
 31
1.7142387628555298
 12
-0.177622988820076
 22
-0.3076530396938324
 32
1.6881879568099976
 13
-0.177622988820076
 23
-0.3076530396938324
 33
1.6881879568099976
  0
3DFACE
  8
0
 10
0.26615503430366516
 20
0.15366454422473907
 30
1.653914213180542
 11
0.30732908844947815
 21
4.952651693201915e-07
 31
1.653914213180542
 12
0.1898074746131897
 22
0.10958530753850937
 32
1.7007054090499878
 13
0.1898074746131897
 23
0.10958530753850937
 33
1.7007054090499878
  0
3DFACE
  8
0
 10
-0.13269731402397156
 20
0.22984078526496887
 30
1.7272714376449585
 11
9.639855989007629e-07
 21
0.26539719104766846
 31
1.7272714376449585
 12
-0.1683565229177475
 22
0.29160434007644653
 32
1.7142387628555298
 13
-0.1683565229177475
 23
0.29160434007644653
 33
1.7142387628555298
  0
3DFACE
  8
0
 10
0.291604608297348
 20
-0.16835694015026093
 30
1.7142387628555298
 11
0.22984111309051514
 21
-0.13269777595996857
 31
1.7272714376449585
 12
0.16835837066173553
 22
-0.29160311818122864
 32
1.7142387628555298
 13
0.16835837066173553
 23
-0.29160311818122864
 33
1.7142387628555298
  0
3DFACE
  8
0
 10
-0.29160276055336
 20
0.16835811734199524
 30
1.7142387628555298
 11
-0.22983920574188232
 21
0.1326989084482193
 31
1.7272714376449585
 12
-0.1683565229177475
 22
0.29160434007644653
 32
1.7142387628555298
 13
-0.1683565229177475
 23
0.29160434007644653
 33
1.7142387628555298
  0
3DFACE
  8
0
 10
0.3367159366607666
 20
4.856898954130884e-07
 30
1.7142387628555298
 11
0.2653975784778595
 21
5.097937219034065e-07
 31
1.7272714376449585
 12
0.291604608297348
 22
-0.16835694015026093
 32
1.7142387628555298
 13
0.291604608297348
 23
-0.16835694015026093
 33
1.7142387628555298
  0
3DFACE
  8
0
 10
-0.2653956413269043
 20
6.215790335772908e-07
 30
1.7272714376449585
 11
-0.22983920574188232
 21
0.1326989084482193
 31
1.7272714376449585
 12
-0.3367139995098114
 22
6.275145665313175e-07
 32
1.7142387628555298
 13
-0.3367139995098114
 23
6.275145665313175e-07
 33
1.7142387628555298
  0
3DFACE
  8
0
 10
0.29160478711128235
 20
0.1683579683303833
 30
1.7142387628555298
 11
0.2298412173986435
 21
0.13269878923892975
 31
1.7272714376449585
 12
0.3367159366607666
 22
4.856898954130884e-07
 32
1.7142387628555298
 13
0.3367159366607666
 23
4.856898954130884e-07
 33
1.7142387628555298
  0
3DFACE
  8
0
 10
-0.29160276055336
 20
-0.16835686564445496
 30
1.7142387628555298
 11
-0.22983922064304352
 21
-0.1326976716518402
 31
1.7272714376449585
 12
-0.3367139995098114
 22
6.275145665313175e-07
 32
1.7142387628555298
 13
-0.3367139995098114
 23
6.275145665313175e-07
 33
1.7142387628555298
  0
3DFACE
  8
0
 10
0.16835863888263702
 20
0.29160425066947937
 30
1.7142387628555298
 11
0.1326994150876999
 21
0.2298407107591629
 31
1.7272714376449585
 12
0.29160478711128235
 22
0.1683579683303833
 32
1.7142387628555298
 13
0.29160478711128235
 23
0.1683579683303833
 33
1.7142387628555298
  0
3DFACE
  8
0
 10
-0.13269737362861633
 20
-0.22983959317207336
 30
1.7272714376449585
 11
-0.22983922064304352
 21
-0.1326976716518402
 31
1.7272714376449585
 12
-0.1683565378189087
 22
-0.29160305857658386
 32
1.7142387628555298
 13
-0.1683565378189087
 23
-0.29160305857658386
 33
1.7142387628555298
  0
3DFACE
  8
0
 10
0.1326994150876999
 20
0.2298407107591629
 30
1.7272714376449585
 11
0.16835863888263702
 21
0.29160425066947937
 31
1.7142387628555298
 12
9.639855989007629e-07
 22
0.26539719104766846
 32
1.7272714376449585
 13
9.639855989007629e-07
 23
0.26539719104766846
 33
1.7272714376449585
  0
3DFACE
  8
0
 10
9.239117844117573e-07
 20
-0.26539602875709534
 30
1.7272714376449585
 11
-0.13269737362861633
 21
-0.22983959317207336
 31
1.7272714376449585
 12
9.12506607164687e-07
 22
-0.33671432733535767
 32
1.7142387628555298
 13
9.12506607164687e-07
 23
-0.33671432733535767
 33
1.7142387628555298
  0
3DFACE
  8
0
 10
0.29164043068885803
 20
-0.0757630243897438
 30
0.7372943758964539
 11
0.32619187235832214
 21
-0.08465539664030075
 31
0.725214421749115
 12
0.29032495617866516
 22
0.08021802455186844
 32
0.7372943758964539
 13
0.29032495617866516
 23
0.08021802455186844
 33
0.7372943758964539
  0
3DFACE
  8
0
 10
-0.07561758160591125
 20
-0.291949599981308
 30
0.7372943758964539
 11
-0.08448369801044464
 21
-0.32639971375465393
 31
0.725214421749115
 12
0.0803634375333786
 22
-0.29063403606414795
 32
0.7372943758964539
 13
0.0803634375333786
 23
-0.29063403606414795
 33
0.7372943758964539
  0
3DFACE
  8
0
 10
-0.32622817158699036
 20
0.08427581191062927
 30
0.725214421749115
 11
-0.32475709915161133
 21
-0.09014543145895004
 31
0.725214421749115
 12
-0.29180431365966797
 22
0.07530838996171951
 32
0.7372943758964539
 13
-0.29180431365966797
 23
0.07530838996171951
 33
0.7372943758964539
  0
3DFACE
  8
0
 10
0.08444741368293762
 20
0.32602035999298096
 30
0.725214421749115
 11
-0.08997384458780289
 21
0.32454922795295715
 31
0.725214421749115
 12
0.0754537507891655
 22
0.291495144367218
 32
0.7372943758964539
 13
0.0754537507891655
 23
0.291495144367218
 33
0.7372943758964539
  0
3DFACE
  8
0
 10
0.32472094893455505
 20
0.08976584672927856
 30
0.725214421749115
 11
0.2362363189458847
 21
0.24008354544639587
 31
0.725214421749115
 12
0.29032495617866516
 22
0.08021802455186844
 32
0.7372943758964539
 13
0.29032495617866516
 23
0.08021802455186844
 33
0.7372943758964539
  0
3DFACE
  8
0
 10
0.0803634375333786
 20
-0.29063403606414795
 30
0.7372943758964539
 11
0.08993752300739288
 21
-0.3249287009239197
 31
0.725214421749115
 12
0.21478913724422455
 22
-0.211504265666008
 32
0.7372943758964539
 13
0.21478913724422455
 23
-0.211504265666008
 33
0.7372943758964539
  0
3DFACE
  8
0
 10
-0.29048874974250793
 20
-0.08067267388105392
 30
0.7372943758964539
 11
-0.32475709915161133
 21
-0.09014543145895004
 31
0.725214421749115
 12
-0.211358904838562
 22
-0.21509838104248047
 32
0.7372943758964539
 13
-0.211358904838562
 23
-0.21509838104248047
 33
0.7372943758964539
  0
3DFACE
  8
0
 10
-0.08997384458780289
 20
0.32454922795295715
 30
0.725214421749115
 11
-0.240291565656662
 21
0.2360645830631256
 31
0.725214421749115
 12
-0.08052728325128555
 22
0.29017961025238037
 32
0.7372943758964539
 13
-0.08052728325128555
 23
0.29017961025238037
 33
0.7372943758964539
  0
3DFACE
  8
0
 10
0.2362363189458847
 20
0.24008354544639587
 30
0.725214421749115
 11
0.08444741368293762
 21
0.32602035999298096
 31
0.725214421749115
 12
0.2111952304840088
 22
0.21464376151561737
 32
0.7372943758964539
 13
0.2111952304840088
 23
0.21464376151561737
 33
0.7372943758964539
  0
3DFACE
  8
0
 10
0.21478913724422455
 20
-0.211504265666008
 30
0.7372943758964539
 11
0.2402551919221878
 21
-0.23644410073757172
 31
0.725214421749115
 12
0.29164043068885803
 22
-0.0757630243897438
 32
0.7372943758964539
 13
0.29164043068885803
 23
-0.0757630243897438
 33
0.7372943758964539
  0
3DFACE
  8
0
 10
-0.211358904838562
 20
-0.21509838104248047
 30
0.7372943758964539
 11
-0.23627246916294098
 21
-0.24046312272548676
 31
0.725214421749115
 12
-0.07561758160591125
 22
-0.291949599981308
 32
0.7372943758964539
 13
-0.07561758160591125
 23
-0.291949599981308
 33
0.7372943758964539
  0
3DFACE
  8
0
 10
-0.240291565656662
 20
0.2360645830631256
 30
0.725214421749115
 11
-0.32622817158699036
 21
0.08427581191062927
 31
0.725214421749115
 12
-0.21495307981967926
 22
0.21104967594146729
 32
0.7372943758964539
 13
-0.21495307981967926
 23
0.21104967594146729
 33
0.7372943758964539
  0
3DFACE
  8
0
 10
0.32619187235832214
 20
-0.08465539664030075
 30
0.725214421749115
 11
0.3280530571937561
 21
-0.08513729274272919
 31
0.6817750930786133
 12
0.32472094893455505
 22
0.08976584672927856
 32
0.725214421749115
 13
0.32472094893455505
 23
0.08976584672927856
 33
0.725214421749115
  0
3DFACE
  8
0
 10
-0.0770065188407898
 20
-0.29731374979019165
 30
0.6807271242141724
 11
0.08184264600276947
 21
-0.2959740459918976
 31
0.6807271242141724
 12
-0.08496562391519547
 22
-0.3282608985900879
 32
0.6817750930786133
 13
-0.08496562391519547
 23
-0.3282608985900879
 33
0.6817750930786133
  0
3DFACE
  8
0
 10
-0.08496562391519547
 20
-0.3282608985900879
 30
0.6817750930786133
 11
0.09045075625181198
 21
-0.32678142189979553
 31
0.6817750930786133
 12
-0.08448369801044464
 22
-0.32639971375465393
 32
0.725214421749115
 13
-0.08448369801044464
 23
-0.32639971375465393
 33
0.725214421749115
  0
3DFACE
  8
0
 10
-0.3280893862247467
 20
0.0847577229142189
 30
0.6817750930786133
 11
-0.29716843366622925
 21
0.07669732719659805
 31
0.6807271242141724
 12
-0.32660984992980957
 22
-0.09065867960453033
 32
0.6817750930786133
 13
-0.32660984992980957
 23
-0.09065867960453033
 33
0.6817750930786133
  0
3DFACE
  8
0
 10
-0.32622817158699036
 20
0.08427581191062927
 30
0.725214421749115
 11
-0.3280893862247467
 21
0.0847577229142189
 31
0.6817750930786133
 12
-0.32475709915161133
 22
-0.09014543145895004
 32
0.725214421749115
 13
-0.32475709915161133
 23
-0.09014543145895004
 33
0.725214421749115
  0
3DFACE
  8
0
 10
0.08492931723594666
 20
0.32788148522377014
 30
0.6817750930786133
 11
-0.09048706293106079
 21
0.32640203833580017
 31
0.6817750930786133
 12
0.08444741368293762
 22
0.32602035999298096
 32
0.725214421749115
 13
0.08444741368293762
 23
0.32602035999298096
 33
0.725214421749115
  0
3DFACE
  8
0
 10
0.3265736997127533
 20
0.09027910232543945
 30
0.6817750930786133
 11
0.23758427798748016
 21
0.2414543628692627
 31
0.6817750930786133
 12
0.32472094893455505
 22
0.08976584672927856
 32
0.725214421749115
 13
0.32472094893455505
 23
0.08976584672927856
 33
0.725214421749115
  0
3DFACE
  8
0
 10
0.09045075625181198
 20
-0.32678142189979553
 30
0.6817750930786133
 11
0.24162597954273224
 21
-0.2377919703722
 31
0.6817750930786133
 12
0.08993752300739288
 22
-0.3249287009239197
 32
0.725214421749115
 13
0.08993752300739288
 23
-0.3249287009239197
 33
0.725214421749115
  0
3DFACE
  8
0
 10
-0.32660984992980957
 20
-0.09065867960453033
 30
0.6817750930786133
 11
-0.295828640460968
 21
-0.08215188980102539
 31
0.6807271242141724
 12
-0.23762038350105286
 22
-0.24183394014835358
 32
0.6817750930786133
 13
-0.23762038350105286
 23
-0.24183394014835358
 33
0.6817750930786133
  0
3DFACE
  8
0
 10
-0.32660984992980957
 20
-0.09065867960453033
 30
0.6817750930786133
 11
-0.23762038350105286
 21
-0.24183394014835358
 31
0.6817750930786133
 12
-0.32475709915161133
 22
-0.09014543145895004
 32
0.725214421749115
 13
-0.32475709915161133
 23
-0.09014543145895004
 33
0.725214421749115
  0
3DFACE
  8
0
 10
-0.09048706293106079
 20
0.32640203833580017
 30
0.6817750930786133
 11
-0.2416623830795288
 21
0.23741251230239868
 31
0.6817750930786133
 12
-0.08997384458780289
 22
0.32454922795295715
 32
0.725214421749115
 13
-0.08997384458780289
 23
0.32454922795295715
 33
0.725214421749115
  0
3DFACE
  8
0
 10
0.23758427798748016
 20
0.2414543628692627
 30
0.6817750930786133
 11
0.08492931723594666
 21
0.32788148522377014
 31
0.6817750930786133
 12
0.2362363189458847
 22
0.24008354544639587
 32
0.725214421749115
 13
0.2362363189458847
 23
0.24008354544639587
 33
0.725214421749115
  0
3DFACE
  8
0
 10
0.2402551919221878
 20
-0.23644410073757172
 30
0.725214421749115
 11
0.24162597954273224
 21
-0.2377919703722
 31
0.6817750930786133
 12
0.32619187235832214
 22
-0.08465539664030075
 32
0.725214421749115
 13
0.32619187235832214
 23
-0.08465539664030075
 33
0.725214421749115
  0
3DFACE
  8
0
 10
-0.21524380147457123
 20
-0.21904940903186798
 30
0.6807271242141724
 11
-0.0770065188407898
 21
-0.29731374979019165
 31
0.6807271242141724
 12
-0.23762038350105286
 22
-0.24183394014835358
 32
0.6817750930786133
 13
-0.23762038350105286
 23
-0.24183394014835358
 33
0.6817750930786133
  0
3DFACE
  8
0
 10
-0.23762038350105286
 20
-0.24183394014835358
 30
0.6817750930786133
 11
-0.08496562391519547
 21
-0.3282608985900879
 31
0.6817750930786133
 12
-0.23627246916294098
 22
-0.24046312272548676
 32
0.725214421749115
 13
-0.23627246916294098
 23
-0.24046312272548676
 33
0.725214421749115
  0
3DFACE
  8
0
 10
-0.2416623830795288
 20
0.23741251230239868
 30
0.6817750930786133
 11
-0.218904048204422
 21
0.21493463218212128
 31
0.6807271242141724
 12
-0.3280893862247467
 22
0.0847577229142189
 32
0.6817750930786133
 13
-0.3280893862247467
 23
0.0847577229142189
 33
0.6817750930786133
  0
3DFACE
  8
0
 10
-0.2416623830795288
 20
0.23741251230239868
 30
0.6817750930786133
 11
-0.3280893862247467
 21
0.0847577229142189
 31
0.6817750930786133
 12
-0.240291565656662
 22
0.2360645830631256
 32
0.725214421749115
 13
-0.240291565656662
 23
0.2360645830631256
 33
0.725214421749115
  0
3DFACE
  8
0
 10
0.29164043068885803
 20
-0.0757630243897438
 30
0.7372943758964539
 11
0.29032495617866516
 21
0.08021802455186844
 31
0.7372943758964539
 12
0.29164043068885803
 22
-0.0757630243897438
 32
0.6807271242141724
 13
0.29164043068885803
 23
-0.0757630243897438
 33
0.6807271242141724
  0
3DFACE
  8
0
 10
0.0754537507891655
 20
0.291495144367218
 30
0.7372943758964539
 11
-0.08052728325128555
 21
0.29017961025238037
 31
0.7372943758964539
 12
0.0754537507891655
 22
0.291495144367218
 32
0.6807271242141724
 13
0.0754537507891655
 23
0.291495144367218
 33
0.6807271242141724
  0
3DFACE
  8
0
 10
0.29032495617866516
 20
0.08021802455186844
 30
0.7372943758964539
 11
0.2111952304840088
 21
0.21464376151561737
 31
0.7372943758964539
 12
0.29032495617866516
 22
0.08021803945302963
 32
0.6807271242141724
 13
0.29032495617866516
 23
0.08021803945302963
 33
0.6807271242141724
  0
3DFACE
  8
0
 10
0.2111952304840088
 20
0.21464376151561737
 30
0.7372943758964539
 11
0.0754537507891655
 21
0.291495144367218
 31
0.7372943758964539
 12
0.2111952304840088
 22
0.21464376151561737
 32
0.6807271242141724
 13
0.2111952304840088
 23
0.21464376151561737
 33
0.6807271242141724
  0
3DFACE
  8
0
 10
0.21478913724422455
 20
-0.211504265666008
 30
0.7372943758964539
 11
0.29164043068885803
 21
-0.0757630243897438
 31
0.7372943758964539
 12
0.21478913724422455
 22
-0.211504265666008
 32
0.6807271242141724
 13
0.21478913724422455
 23
-0.211504265666008
 33
0.6807271242141724
  0
3DFACE
  8
0
 10
0.29164043068885803
 20
-0.0757630243897438
 30
0.6807271242141724
 11
0.29032495617866516
 21
0.08021803945302963
 31
0.6807271242141724
 12
0.3280530571937561
 22
-0.08513729274272919
 32
0.6817750930786133
 13
0.3280530571937561
 23
-0.08513729274272919
 33
0.6817750930786133
  0
3DFACE
  8
0
 10
0.08492931723594666
 20
0.32788148522377014
 30
0.6817750930786133
 11
0.0754537507891655
 21
0.291495144367218
 31
0.6807271242141724
 12
-0.09048706293106079
 22
0.32640203833580017
 32
0.6817750930786133
 13
-0.09048706293106079
 23
0.32640203833580017
 33
0.6817750930786133
  0
3DFACE
  8
0
 10
0.3265736997127533
 20
0.09027910232543945
 30
0.6817750930786133
 11
0.29032495617866516
 21
0.08021803945302963
 31
0.6807271242141724
 12
0.23758427798748016
 22
0.2414543628692627
 32
0.6817750930786133
 13
0.23758427798748016
 23
0.2414543628692627
 33
0.6817750930786133
  0
3DFACE
  8
0
 10
0.08184264600276947
 20
-0.2959740459918976
 30
0.6807271242141724
 11
0.21478913724422455
 21
-0.211504265666008
 31
0.6807271242141724
 12
0.09045075625181198
 22
-0.32678142189979553
 32
0.6817750930786133
 13
0.09045075625181198
 23
-0.32678142189979553
 33
0.6817750930786133
  0
3DFACE
  8
0
 10
-0.09048706293106079
 20
0.32640203833580017
 30
0.6817750930786133
 11
-0.08052728325128555
 21
0.29017961025238037
 31
0.6807271242141724
 12
-0.2416623830795288
 22
0.23741251230239868
 32
0.6817750930786133
 13
-0.2416623830795288
 23
0.23741251230239868
 33
0.6817750930786133
  0
3DFACE
  8
0
 10
0.23758427798748016
 20
0.2414543628692627
 30
0.6817750930786133
 11
0.2111952304840088
 21
0.21464376151561737
 31
0.6807271242141724
 12
0.08492931723594666
 22
0.32788148522377014
 32
0.6817750930786133
 13
0.08492931723594666
 23
0.32788148522377014
 33
0.6817750930786133
  0
3DFACE
  8
0
 10
0.21478913724422455
 20
-0.211504265666008
 30
0.6807271242141724
 11
0.29164043068885803
 21
-0.0757630243897438
 31
0.6807271242141724
 12
0.24162597954273224
 22
-0.2377919703722
 32
0.6817750930786133
 13
0.24162597954273224
 23
-0.2377919703722
 33
0.6817750930786133
  0
3DFACE
  8
0
 10
-0.0770065188407898
 20
-0.29731374979019165
 30
0.6807271242141724
 11
-0.07561758160591125
 21
-0.291949599981308
 31
0.7372943758964539
 12
0.08184264600276947
 22
-0.2959740459918976
 32
0.6807271242141724
 13
0.08184264600276947
 23
-0.2959740459918976
 33
0.6807271242141724
  0
3DFACE
  8
0
 10
-0.29180431365966797
 20
0.07530838996171951
 30
0.7372943758964539
 11
-0.29048874974250793
 21
-0.08067267388105392
 31
0.7372943758964539
 12
-0.29716843366622925
 22
0.07669732719659805
 32
0.6807271242141724
 13
-0.29716843366622925
 23
0.07669732719659805
 33
0.6807271242141724
  0
3DFACE
  8
0
 10
0.08184264600276947
 20
-0.2959740459918976
 30
0.6807271242141724
 11
0.0803634375333786
 21
-0.29063403606414795
 31
0.7372943758964539
 12
0.21478913724422455
 22
-0.211504265666008
 32
0.6807271242141724
 13
0.21478913724422455
 23
-0.211504265666008
 33
0.6807271242141724
  0
3DFACE
  8
0
 10
-0.29048874974250793
 20
-0.08067267388105392
 30
0.7372943758964539
 11
-0.211358904838562
 21
-0.21509838104248047
 31
0.7372943758964539
 12
-0.295828640460968
 22
-0.08215188980102539
 32
0.6807271242141724
 13
-0.295828640460968
 23
-0.08215188980102539
 33
0.6807271242141724
  0
3DFACE
  8
0
 10
-0.08052728325128555
 20
0.29017961025238037
 30
0.7372943758964539
 11
-0.21495307981967926
 21
0.21104967594146729
 31
0.7372943758964539
 12
-0.08052728325128555
 22
0.29017961025238037
 32
0.6807271242141724
 13
-0.08052728325128555
 23
0.29017961025238037
 33
0.6807271242141724
  0
3DFACE
  8
0
 10
-0.211358904838562
 20
-0.21509838104248047
 30
0.7372943758964539
 11
-0.07561758160591125
 21
-0.291949599981308
 31
0.7372943758964539
 12
-0.21524380147457123
 22
-0.21904940903186798
 32
0.6807271242141724
 13
-0.21524380147457123
 23
-0.21904940903186798
 33
0.6807271242141724
  0
3DFACE
  8
0
 10
-0.218904048204422
 20
0.21493463218212128
 30
0.6807271242141724
 11
-0.21495307981967926
 21
0.21104967594146729
 31
0.7372943758964539
 12
-0.29716843366622925
 22
0.07669732719659805
 32
0.6807271242141724
 13
-0.29716843366622925
 23
0.07669732719659805
 33
0.6807271242141724
  0
3DFACE
  8
0
 10
-0.10958385467529297
 20
-0.189805805683136
 30
1.7007054090499878
 11
-0.15366312861442566
 21
-0.26615333557128906
 31
1.653914213180542
 12
-0.18980546295642853
 22
-0.10958418250083923
 32
1.7007054090499878
 13
-0.18980546295642853
 23
-0.10958418250083923
 33
1.7007054090499878
  0
3DFACE
  8
0
 10
0.1536652147769928
 20
0.26615452766418457
 30
1.653914213180542
 11
0.26615503430366516
 21
0.15366454422473907
 31
1.653914213180542
 12
0.10958588868379593
 22
0.1898069977760315
 32
1.7007054090499878
 13
0.10958588868379593
 23
0.1898069977760315
 33
1.7007054090499878
  0
3DFACE
  8
0
 10
-0.18980546295642853
 20
-0.10958418250083923
 30
1.7007054090499878
 11
-0.2661530077457428
 21
-0.15366344153881073
 31
1.653914213180542
 12
-0.21916863322257996
 22
6.167844617266383e-07
 32
1.7007054090499878
 13
-0.21916863322257996
 23
6.167844617266383e-07
 33
1.7007054090499878
  0
3DFACE
  8
0
 10
0.10958580672740936
 20
5.820235173814581e-07
 30
1.7007054090499878
 11
0.1095857173204422
 21
-0.18980582058429718
 31
1.7007054090499878
 12
9.477302000959753e-07
 22
6.422328056032711e-07
 32
1.7007054090499878
 13
9.477302000959753e-07
 23
6.422328056032711e-07
 33
1.7007054090499878
  0
3DFACE
  8
0
 10
-0.10958383977413177
 20
6.221630428626668e-07
 30
1.7007054090499878
 11
-0.10958383232355118
 21
0.18980707228183746
 31
1.7007054090499878
 12
9.477302000959753e-07
 22
6.422328056032711e-07
 32
1.7007054090499878
 13
9.477302000959753e-07
 23
6.422328056032711e-07
 33
1.7007054090499878
  0
3DFACE
  8
0
 10
9.64277091952681e-07
 20
0.2191702276468277
 30
1.7007054090499878
 11
0.10958588868379593
 21
0.1898069977760315
 31
1.7007054090499878
 12
9.477302000959753e-07
 22
6.422328056032711e-07
 32
1.7007054090499878
 13
9.477302000959753e-07
 23
6.422328056032711e-07
 33
1.7007054090499878
  0
3DFACE
  8
0
 10
9.311833082392695e-07
 20
-0.21916897594928741
 30
1.7007054090499878
 11
-0.10958385467529297
 21
-0.189805805683136
 31
1.7007054090499878
 12
9.477302000959753e-07
 22
6.422328056032711e-07
 32
1.7007054090499878
 13
9.477302000959753e-07
 23
6.422328056032711e-07
 33
1.7007054090499878
  0
3DFACE
  8
0
 10
-0.21916863322257996
 20
6.167844617266383e-07
 30
1.7007054090499878
 11
-0.18980549275875092
 21
0.10958541184663773
 31
1.7007054090499878
 12
-0.10958383977413177
 22
6.221630428626668e-07
 32
1.7007054090499878
 13
-0.10958383977413177
 23
6.221630428626668e-07
 33
1.7007054090499878
  0
3DFACE
  8
0
 10
-0.10958385467529297
 20
-0.189805805683136
 30
1.7007054090499878
 11
-0.18980546295642853
 21
-0.10958418250083923
 31
1.7007054090499878
 12
-0.10958383977413177
 22
6.221630428626668e-07
 32
1.7007054090499878
 13
-0.10958383977413177
 23
6.221630428626668e-07
 33
1.7007054090499878
  0
3DFACE
  8
0
 10
0.10958588868379593
 20
0.1898069977760315
 30
1.7007054090499878
 11
0.1898074746131897
 21
0.10958530753850937
 31
1.7007054090499878
 12
0.10958580672740936
 22
5.820235173814581e-07
 32
1.7007054090499878
 13
0.10958580672740936
 23
5.820235173814581e-07
 33
1.7007054090499878
  0
3DFACE
  8
0
 10
0.21917055547237396
 20
5.244700673756597e-07
 30
1.7007054090499878
 11
0.18980735540390015
 21
-0.10958424210548401
 31
1.7007054090499878
 12
0.10958580672740936
 22
5.820235173814581e-07
 32
1.7007054090499878
 13
0.10958580672740936
 23
5.820235173814581e-07
 33
1.7007054090499878
  0
3DFACE
  8
0
 10
0.30732908844947815
 20
4.952651693201915e-07
 30
1.653914213180542
 11
0.2661548852920532
 21
-0.1536635309457779
 31
1.653914213180542
 12
0.21917055547237396
 22
5.244700673756597e-07
 32
1.7007054090499878
 13
0.21917055547237396
 23
5.244700673756597e-07
 33
1.7007054090499878
  0
3DFACE
  8
0
 10
-0.18980549275875092
 20
0.10958541184663773
 30
1.7007054090499878
 11
-0.2661530375480652
 21
0.1536647081375122
 31
1.653914213180542
 12
-0.10958383232355118
 22
0.18980707228183746
 32
1.7007054090499878
 13
-0.10958383232355118
 23
0.18980707228183746
 33
1.7007054090499878
  0
3DFACE
  8
0
 10
0.2661548852920532
 20
-0.1536635309457779
 30
1.653914213180542
 11
0.1536649763584137
 21
-0.26615336537361145
 31
1.653914213180542
 12
0.18980735540390015
 22
-0.10958424210548401
 32
1.7007054090499878
 13
0.18980735540390015
 23
-0.10958424210548401
 33
1.7007054090499878
  0
3DFACE
  8
0
 10
-0.10958383232355118
 20
0.18980707228183746
 30
1.7007054090499878
 11
-0.15366309881210327
 21
0.26615461707115173
 31
1.653914213180542
 12
9.64277091952681e-07
 22
0.2191702276468277
 32
1.7007054090499878
 13
9.64277091952681e-07
 23
0.2191702276468277
 33
1.7007054090499878
  0
3DFACE
  8
0
 10
0.1095857173204422
 20
-0.18980582058429718
 30
1.7007054090499878
 11
0.1536649763584137
 21
-0.26615336537361145
 31
1.653914213180542
 12
9.311833082392695e-07
 22
-0.21916897594928741
 32
1.7007054090499878
 13
9.311833082392695e-07
 23
-0.21916897594928741
 33
1.7007054090499878
  0
3DFACE
  8
0
 10
9.172359227704874e-07
 20
-0.3073275089263916
 30
1.653914213180542
 11
-0.15366312861442566
 21
-0.26615333557128906
 31
1.653914213180542
 12
9.311833082392695e-07
 22
-0.21916897594928741
 32
1.7007054090499878
 13
9.311833082392695e-07
 23
-0.21916897594928741
 33
1.7007054090499878
  0
3DFACE
  8
0
 10
0.10958588868379593
 20
0.1898069977760315
 30
1.7007054090499878
 11
9.64277091952681e-07
 21
0.2191702276468277
 31
1.7007054090499878
 12
0.1536652147769928
 22
0.26615452766418457
 32
1.653914213180542
 13
0.1536652147769928
 23
0.26615452766418457
 33
1.653914213180542
  0
3DFACE
  8
0
 10
-0.21916863322257996
 20
6.167844617266383e-07
 30
1.7007054090499878
 11
-0.30732718110084534
 21
6.24712072294642e-07
 31
1.653914213180542
 12
-0.18980549275875092
 22
0.10958541184663773
 32
1.7007054090499878
 13
-0.18980549275875092
 23
0.10958541184663773
 33
1.7007054090499878
  0
3DFACE
  8
0
 10
-0.15366312861442566
 20
-0.26615333557128906
 30
1.653914213180542
 11
-0.1683565378189087
 21
-0.29160305857658386
 31
1.6602290868759155
 12
-0.2661530077457428
 22
-0.15366344153881073
 32
1.653914213180542
 13
-0.2661530077457428
 23
-0.15366344153881073
 33
1.653914213180542
  0
3DFACE
  8
0
 10
-0.29160276055336
 20
-0.16835686564445496
 30
1.6602290868759155
 11
-0.3076527416706085
 21
-0.17762330174446106
 31
1.6881879568099976
 12
-0.3367139995098114
 22
6.275145665313175e-07
 32
1.6602290868759155
 13
-0.3367139995098114
 23
6.275145665313175e-07
 33
1.6602290868759155
  0
3DFACE
  8
0
 10
-0.1683565378189087
 20
-0.29160305857658386
 30
1.6602290868759155
 11
-0.177622988820076
 21
-0.3076530396938324
 31
1.6881879568099976
 12
-0.29160276055336
 22
-0.16835686564445496
 32
1.6602290868759155
 13
-0.29160276055336
 23
-0.16835686564445496
 33
1.6602290868759155
  0
3DFACE
  8
0
 10
9.09340030830208e-07
 20
-0.35524722933769226
 30
1.6881879568099976
 11
-0.177622988820076
 21
-0.3076530396938324
 31
1.6881879568099976
 12
9.12506607164687e-07
 22
-0.33671432733535767
 32
1.6602290868759155
 13
9.12506607164687e-07
 23
-0.33671432733535767
 33
1.6602290868759155
  0
3DFACE
  8
0
 10
-0.1683565229177475
 20
0.29160434007644653
 30
1.6602290868759155
 11
-0.1776229739189148
 21
0.30765432119369507
 31
1.6881879568099976
 12
9.63349293670035e-07
 22
0.33671560883522034
 32
1.6602290868759155
 13
9.63349293670035e-07
 23
0.33671560883522034
 33
1.6602290868759155
  0
3DFACE
  8
0
 10
-0.3076527416706085
 20
0.17762458324432373
 30
1.6881879568099976
 11
-0.1776229739189148
 21
0.30765432119369507
 31
1.6881879568099976
 12
-0.29160276055336
 22
0.16835811734199524
 32
1.6602290868759155
 13
-0.29160276055336
 23
0.16835811734199524
 33
1.6602290868759155
  0
3DFACE
  8
0
 10
0.16835863888263702
 20
0.29160425066947937
 30
1.6602290868759155
 11
0.1776251196861267
 21
0.3076542019844055
 31
1.6881879568099976
 12
0.29160478711128235
 22
0.1683579683303833
 32
1.6602290868759155
 13
0.29160478711128235
 23
0.1683579683303833
 33
1.6602290868759155
  0
3DFACE
  8
0
 10
0.1776251196861267
 20
0.3076542019844055
 30
1.6881879568099976
 11
0.16835863888263702
 21
0.29160425066947937
 31
1.6602290868759155
 12
9.62980948315817e-07
 22
0.35524851083755493
 32
1.6881879568099976
 13
9.62980948315817e-07
 23
0.35524851083755493
 33
1.6881879568099976
  0
3DFACE
  8
0
 10
0.1536649763584137
 20
-0.26615336537361145
 30
1.653914213180542
 11
0.16835837066173553
 21
-0.29160311818122864
 31
1.6602290868759155
 12
9.172359227704874e-07
 22
-0.3073275089263916
 32
1.653914213180542
 13
9.172359227704874e-07
 23
-0.3073275089263916
 33
1.653914213180542
  0
3DFACE
  8
0
 10
0.2661548852920532
 20
-0.1536635309457779
 30
1.653914213180542
 11
0.291604608297348
 21
-0.16835694015026093
 31
1.6602290868759155
 12
0.1536649763584137
 22
-0.26615336537361145
 32
1.653914213180542
 13
0.1536649763584137
 23
-0.26615336537361145
 33
1.653914213180542
  0
3DFACE
  8
0
 10
-0.29160276055336
 20
0.16835811734199524
 30
1.6602290868759155
 11
-0.1683565229177475
 21
0.29160434007644653
 31
1.6602290868759155
 12
-0.2661530375480652
 22
0.1536647081375122
 32
1.653914213180542
 13
-0.2661530375480652
 23
0.1536647081375122
 33
1.653914213180542
  0
3DFACE
  8
0
 10
-0.30732718110084534
 20
6.24712072294642e-07
 30
1.653914213180542
 11
-0.3367139995098114
 21
6.275145665313175e-07
 31
1.6602290868759155
 12
-0.2661530375480652
 22
0.1536647081375122
 32
1.653914213180542
 13
-0.2661530375480652
 23
0.1536647081375122
 33
1.653914213180542
  0
3DFACE
  8
0
 10
0.3367159366607666
 20
4.856898954130884e-07
 30
1.6602290868759155
 11
0.291604608297348
 21
-0.16835694015026093
 31
1.6602290868759155
 12
0.30732908844947815
 22
4.952651693201915e-07
 32
1.653914213180542
 13
0.30732908844947815
 23
4.952651693201915e-07
 33
1.653914213180542
  0
3DFACE
  8
0
 10
0.29160478711128235
 20
0.1683579683303833
 30
1.6602290868759155
 11
0.3367159366607666
 21
4.856898954130884e-07
 31
1.6602290868759155
 12
0.26615503430366516
 22
0.15366454422473907
 32
1.653914213180542
 13
0.26615503430366516
 23
0.15366454422473907
 33
1.653914213180542
  0
3DFACE
  8
0
 10
0.16835863888263702
 20
0.29160425066947937
 30
1.6602290868759155
 11
0.29160478711128235
 21
0.1683579683303833
 31
1.6602290868759155
 12
0.1536652147769928
 22
0.26615452766418457
 32
1.653914213180542
 13
0.1536652147769928
 23
0.26615452766418457
 33
1.653914213180542
  0
3DFACE
  8
0
 10
-0.1683565229177475
 20
0.29160434007644653
 30
1.6602290868759155
 11
9.63349293670035e-07
 21
0.33671560883522034
 31
1.6602290868759155
 12
-0.15366309881210327
 22
0.26615461707115173
 32
1.653914213180542
 13
-0.15366309881210327
 23
0.26615461707115173
 33
1.653914213180542
  0
3DFACE
  8
0
 10
-0.29160276055336
 20
-0.16835686564445496
 30
1.6602290868759155
 11
-0.3367139995098114
 21
6.275145665313175e-07
 31
1.6602290868759155
 12
-0.2661530077457428
 22
-0.15366344153881073
 32
1.653914213180542
 13
-0.2661530077457428
 23
-0.15366344153881073
 33
1.653914213180542
  0
3DFACE
  8
0
 10
0.1536652147769928
 20
0.26615452766418457
 30
1.653914213180542
 11
9.63641241469304e-07
 21
0.3073287904262543
 31
1.653914213180542
 12
0.16835863888263702
 22
0.29160425066947937
 32
1.6602290868759155
 13
0.16835863888263702
 23
0.29160425066947937
 33
1.6602290868759155
  0
3DFACE
  8
0
 10
9.172359227704874e-07
 20
-0.3073275089263916
 30
1.653914213180542
 11
9.12506607164687e-07
 21
-0.33671432733535767
 31
1.6602290868759155
 12
-0.15366312861442566
 22
-0.26615333557128906
 32
1.653914213180542
 13
-0.15366312861442566
 23
-0.26615333557128906
 33
1.653914213180542
  0
3DFACE
  8
0
 10
-0.013028587214648724
 20
0.43538591265678406
 30
0.016765328124165535
 11
-0.02605818212032318
 21
0.4129526615142822
 31
0.014303648844361305
 12
-0.013028601184487343
 22
0.25294774770736694
 32
1.6783815622329712
 13
-0.013028601184487343
 23
0.25294774770736694
 33
1.6783815622329712
  0
3DFACE
  8
0
 10
-0.013028587214648724
 20
0.43538591265678406
 30
0.016765328124165535
 11
-0.013028601184487343
 21
0.25294774770736694
 31
1.6783815622329712
 12
0.01303059421479702
 22
0.43538591265678406
 32
0.016765328124165535
 13
0.01303059421479702
 23
0.43538591265678406
 33
0.016765328124165535
  0
3DFACE
  8
0
 10
0.01303059421479702
 20
0.43538591265678406
 30
0.016765328124165535
 11
0.0130305802449584
 21
0.25294774770736694
 31
1.6783815622329712
 12
0.026060178875923157
 22
0.4129526615142822
 32
0.014303648844361305
 13
0.026060178875923157
 23
0.4129526615142822
 33
0.014303648844361305
  0
3DFACE
  8
0
 10
0.026060178875923157
 20
0.4129526615142822
 30
0.014303648844361305
 11
0.026060165837407112
 21
0.22903798520565033
 31
1.6892808675765991
 12
0.013030584901571274
 22
0.390519380569458
 32
0.011842130683362484
 13
0.013030584901571274
 23
0.390519380569458
 33
0.011842130683362484
  0
3DFACE
  8
0
 10
-0.02605818212032318
 20
0.4129526615142822
 30
0.014303648844361305
 11
-0.013028590939939022
 21
0.390519380569458
 31
0.011842130683362484
 12
-0.026058195158839226
 22
0.22903798520565033
 32
1.6892808675765991
 13
-0.026058195158839226
 23
0.22903798520565033
 33
1.6892808675765991
  0
3DFACE
  8
0
 10
0.013030584901571274
 20
0.390519380569458
 30
0.011842130683362484
 11
0.013030572794377804
 21
0.20539110898971558
 31
1.7030987739562988
 12
-0.013028590939939022
 22
0.390519380569458
 32
0.011842130683362484
 13
-0.013028590939939022
 23
0.390519380569458
 33
0.011842130683362484
  0
3DFACE
  8
0
 10
0.009824570268392563
 20
0.43193721771240234
 30
-0.0027161631733179092
 11
0.01964813843369484
 21
0.4150237739086151
 31
-0.004571895115077496
 12
-0.009822566993534565
 22
0.43193721771240234
 32
-0.0027161631733179092
 13
-0.009822566993534565
 23
0.43193721771240234
 33
-0.0027161631733179092
  0
3DFACE
  8
0
 10
-0.01354112010449171
 20
0.39070481061935425
 30
0.00201339996419847
 11
-0.02708323672413826
 21
0.41402050852775574
 31
0.004571573808789253
 12
-0.009822570718824863
 22
0.39811041951179504
 32
-0.006427787244319916
 13
-0.009822570718824863
 23
0.39811041951179504
 33
-0.006427787244319916
  0
3DFACE
  8
0
 10
-0.009822566993534565
 20
0.43193721771240234
 30
-0.0027161631733179092
 11
-0.013541115447878838
 21
0.4373362064361572
 31
0.007129908073693514
 12
0.009824570268392563
 22
0.43193721771240234
 32
-0.0027161631733179092
 13
0.009824570268392563
 23
0.43193721771240234
 33
-0.0027161631733179092
  0
3DFACE
  8
0
 10
0.013543114066123962
 20
0.39070481061935425
 30
0.00201339996419847
 11
-0.01354112010449171
 21
0.39070481061935425
 31
0.00201339996419847
 12
0.009824564680457115
 22
0.39811041951179504
 32
-0.006427787244319916
 13
0.009824564680457115
 23
0.39811041951179504
 33
-0.006427787244319916
  0
3DFACE
  8
0
 10
-0.02708323672413826
 20
0.41402050852775574
 30
0.004571573808789253
 11
-0.013541115447878838
 21
0.4373362064361572
 31
0.007129908073693514
 12
-0.019646136090159416
 22
0.4150237739086151
 32
-0.004571895115077496
 13
-0.019646136090159416
 23
0.4150237739086151
 33
-0.004571895115077496
  0
3DFACE
  8
0
 10
0.01964813843369484
 20
0.4150237739086151
 30
-0.004571895115077496
 11
0.027085237205028534
 21
0.41402050852775574
 31
0.004571573808789253
 12
0.009824564680457115
 22
0.39811041951179504
 32
-0.006427787244319916
 13
0.009824564680457115
 23
0.39811041951179504
 33
-0.006427787244319916
  0
3DFACE
  8
0
 10
0.009824570268392563
 20
0.43193721771240234
 30
-0.0027161631733179092
 11
0.013543123379349709
 21
0.4373362064361572
 31
0.007129908073693514
 12
0.01964813843369484
 22
0.4150237739086151
 32
-0.004571895115077496
 13
0.01964813843369484
 23
0.4150237739086151
 33
-0.004571895115077496
  0
3DFACE
  8
0
 10
-0.014281528070569038
 20
0.3885735273361206
 30
0.009679412469267845
 11
-0.028564058244228363
 21
0.41316401958465576
 31
0.012377431616187096
 12
-0.01354112010449171
 22
0.39070481061935425
 32
0.00201339996419847
 13
-0.01354112010449171
 23
0.39070481061935425
 33
0.00201339996419847
  0
3DFACE
  8
0
 10
-0.01428152434527874
 20
0.43775448203086853
 30
0.015075611881911755
 11
0.014283533208072186
 21
0.43775448203086853
 31
0.015075611881911755
 12
-0.013541115447878838
 22
0.4373362064361572
 32
0.007129908073693514
 13
-0.013541115447878838
 23
0.4373362064361572
 33
0.007129908073693514
  0
3DFACE
  8
0
 10
0.014283524826169014
 20
0.3885735273361206
 30
0.009679412469267845
 11
-0.014281528070569038
 21
0.3885735273361206
 31
0.009679412469267845
 12
0.013543114066123962
 22
0.39070481061935425
 32
0.00201339996419847
 13
0.013543114066123962
 23
0.39070481061935425
 33
0.00201339996419847
  0
3DFACE
  8
0
 10
-0.02708323672413826
 20
0.41402050852775574
 30
0.004571573808789253
 11
-0.028564058244228363
 21
0.41316401958465576
 31
0.012377431616187096
 12
-0.013541115447878838
 22
0.4373362064361572
 32
0.007129908073693514
 13
-0.013541115447878838
 23
0.4373362064361572
 33
0.007129908073693514
  0
3DFACE
  8
0
 10
0.027085237205028534
 20
0.41402050852775574
 30
0.004571573808789253
 11
0.028566058725118637
 21
0.41316401958465576
 31
0.012377431616187096
 12
0.013543114066123962
 22
0.39070481061935425
 32
0.00201339996419847
 13
0.013543114066123962
 23
0.39070481061935425
 33
0.00201339996419847
  0
3DFACE
  8
0
 10
0.014283533208072186
 20
0.43775448203086853
 30
0.015075611881911755
 11
0.028566058725118637
 21
0.41316401958465576
 31
0.012377431616187096
 12
0.013543123379349709
 22
0.4373362064361572
 32
0.007129908073693514
 13
0.013543123379349709
 23
0.4373362064361572
 33
0.007129908073693514
  0
3DFACE
  8
0
 10
0.010586685501039028
 20
0.3830870985984802
 30
0.4657807946205139
 11
0.010586685501039028
 21
0.3853650987148285
 31
0.4450199007987976
 12
0.010586687363684177
 22
0.39764702320098877
 32
0.46737825870513916
 13
0.010586687363684177
 23
0.39764702320098877
 33
0.46737825870513916
  0
3DFACE
  8
0
 10
-0.010584687814116478
 20
0.3853650987148285
 30
0.4450199007987976
 11
-0.010584685951471329
 21
0.39992502331733704
 31
0.4466175138950348
 12
0.010586685501039028
 22
0.3853650987148285
 32
0.4450199007987976
 13
0.010586685501039028
 23
0.3853650987148285
 33
0.4450199007987976
  0
3DFACE
  8
0
 10
-0.010584687814116478
 20
0.35775226354599
 30
0.6966733932495117
 11
-0.010584686882793903
 21
0.3723122477531433
 31
0.6982709169387817
 12
0.010586685501039028
 22
0.35775226354599
 32
0.6966733932495117
 13
0.010586685501039028
 23
0.35775226354599
 33
0.6966733932495117
  0
3DFACE
  8
0
 10
-0.013028587214648724
 20
0.43538591265678406
 30
0.016765328124165535
 11
-0.01428152434527874
 21
0.43775448203086853
 31
0.015075611881911755
 12
-0.02605818212032318
 22
0.4129526615142822
 32
0.014303648844361305
 13
-0.02605818212032318
 23
0.4129526615142822
 33
0.014303648844361305
  0
3DFACE
  8
0
 10
0.014283533208072186
 20
0.43775448203086853
 30
0.015075611881911755
 11
-0.01428152434527874
 21
0.43775448203086853
 31
0.015075611881911755
 12
0.01303059421479702
 22
0.43538591265678406
 32
0.016765328124165535
 13
0.01303059421479702
 23
0.43538591265678406
 33
0.016765328124165535
  0
3DFACE
  8
0
 10
0.028566058725118637
 20
0.41316401958465576
 30
0.012377431616187096
 11
0.014283533208072186
 21
0.43775448203086853
 31
0.015075611881911755
 12
0.026060178875923157
 22
0.4129526615142822
 32
0.014303648844361305
 13
0.026060178875923157
 23
0.4129526615142822
 33
0.014303648844361305
  0
3DFACE
  8
0
 10
0.013030584901571274
 20
0.390519380569458
 30
0.011842130683362484
 11
0.014283524826169014
 21
0.3885735273361206
 31
0.009679412469267845
 12
0.026060178875923157
 22
0.4129526615142822
 32
0.014303648844361305
 13
0.026060178875923157
 23
0.4129526615142822
 33
0.014303648844361305
  0
3DFACE
  8
0
 10
-0.013028590939939022
 20
0.390519380569458
 30
0.011842130683362484
 11
-0.014281528070569038
 21
0.3885735273361206
 31
0.009679412469267845
 12
0.013030584901571274
 22
0.390519380569458
 32
0.011842130683362484
 13
0.013030584901571274
 23
0.390519380569458
 33
0.011842130683362484
  0
3DFACE
  8
0
 10
-0.028564058244228363
 20
0.41316401958465576
 30
0.012377431616187096
 11
-0.014281528070569038
 21
0.3885735273361206
 31
0.009679412469267845
 12
-0.02605818212032318
 22
0.4129526615142822
 32
0.014303648844361305
 13
-0.02605818212032318
 23
0.4129526615142822
 33
0.014303648844361305
  0
3DFACE
  8
0
 10
-0.009822570718824863
 20
0.39811041951179504
 30
-0.006427787244319916
 11
-0.019646136090159416
 21
0.4150237739086151
 31
-0.004571895115077496
 12
0.009824564680457115
 22
0.39811041951179504
 32
-0.006427787244319916
 13
0.009824564680457115
 23
0.39811041951179504
 33
-0.006427787244319916
  0
3DFACE
  8
0
 10
-0.010584687814116478
 20
0.3830870985984802
 30
0.4657807946205139
 11
-0.010584685951471329
 21
0.39764702320098877
 31
0.46737825870513916
 12
-0.010584687814116478
 22
0.3853650987148285
 32
0.4450199007987976
 13
-0.010584687814116478
 23
0.3853650987148285
 33
0.4450199007987976
  0
3DFACE
  8
0
 10
0.010586687363684177
 20
0.39764702320098877
 30
0.46737825870513916
 11
-0.010584685951471329
 21
0.39764702320098877
 31
0.46737825870513916
 12
0.010586685501039028
 22
0.3830870985984802
 32
0.4657807946205139
 13
0.010586685501039028
 23
0.3830870985984802
 33
0.4657807946205139
  0
3DFACE
  8
0
 10
0.010586685501039028
 20
0.3554742932319641
 30
0.7174341678619385
 11
0.010586685501039028
 21
0.35775226354599
 31
0.6966733932495117
 12
0.010586686432361603
 22
0.37003424763679504
 32
0.7190317511558533
 13
0.010586686432361603
 23
0.37003424763679504
 33
0.7190317511558533
  0
3DFACE
  8
0
 10
-0.010584687814116478
 20
0.3554742932319641
 30
0.7174341678619385
 11
-0.010584686882793903
 21
0.37003424763679504
 31
0.7190317511558533
 12
-0.010584687814116478
 22
0.35775226354599
 32
0.6966733932495117
 13
-0.010584687814116478
 23
0.35775226354599
 33
0.6966733932495117
  0
3DFACE
  8
0
 10
0.010586686432361603
 20
0.37003424763679504
 30
0.7190317511558533
 11
-0.010584686882793903
 21
0.37003424763679504
 31
0.7190317511558533
 12
0.010586685501039028
 22
0.3554742932319641
 32
0.7174341678619385
 13
0.010586685501039028
 23
0.3554742932319641
 33
0.7174341678619385
  0
3DFACE
  8
0
 10
-0.010584685951471329
 20
0.39992502331733704
 30
0.4466175138950348
 11
-0.010584685951471329
 21
0.39764702320098877
 31
0.46737825870513916
 12
0.010586687363684177
 22
0.39992502331733704
 32
0.4466175138950348
 13
0.010586687363684177
 23
0.39992502331733704
 33
0.4466175138950348
  0
3DFACE
  8
0
 10
-0.010584686882793903
 20
0.3723122477531433
 30
0.6982709169387817
 11
-0.010584686882793903
 21
0.37003424763679504
 31
0.7190317511558533
 12
0.010586686432361603
 22
0.3723122477531433
 32
0.6982709169387817
 13
0.010586686432361603
 23
0.3723122477531433
 33
0.6982709169387817
  0
3DFACE
  8
0
 10
0.4353862404823303
 20
0.013030225411057472
 30
0.016765328124165535
 11
0.4129529595375061
 21
0.026059821248054504
 31
0.014303648844361305
 12
0.2529480755329132
 22
0.013030225411057472
 32
1.6783815622329712
 13
0.2529480755329132
 23
0.013030225411057472
 33
1.6783815622329712
  0
3DFACE
  8
0
 10
0.4353862404823303
 20
0.013030225411057472
 30
0.016765328124165535
 11
0.2529480755329132
 21
0.013030225411057472
 31
1.6783815622329712
 12
0.4353862404823303
 22
-0.013028956018388271
 32
0.016765328124165535
 13
0.4353862404823303
 23
-0.013028956018388271
 33
0.016765328124165535
  0
3DFACE
  8
0
 10
0.4353862404823303
 20
-0.013028956018388271
 30
0.016765328124165535
 11
0.2529480755329132
 21
-0.013028956018388271
 31
1.6783815622329712
 12
0.4129529595375061
 22
-0.026058541610836983
 32
0.014303648844361305
 13
0.4129529595375061
 23
-0.026058541610836983
 33
0.014303648844361305
  0
3DFACE
  8
0
 10
0.4129529595375061
 20
-0.026058541610836983
 30
0.014303648844361305
 11
0.2290382981300354
 21
-0.026058543473482132
 31
1.6892808675765991
 12
0.3905197083950043
 22
-0.013028950430452824
 32
0.011842130683362484
 13
0.3905197083950043
 23
-0.013028950430452824
 33
0.011842130683362484
  0
3DFACE
  8
0
 10
0.4129529595375061
 20
0.026059821248054504
 30
0.014303648844361305
 11
0.3905197083950043
 21
0.013030225411057472
 31
0.011842130683362484
 12
0.2290382981300354
 22
0.026059817522764206
 32
1.6892808675765991
 13
0.2290382981300354
 23
0.026059817522764206
 33
1.6892808675765991
  0
3DFACE
  8
0
 10
0.3905197083950043
 20
-0.013028950430452824
 30
0.011842130683362484
 11
0.20539143681526184
 21
-0.013028950430452824
 31
1.7030987739562988
 12
0.3905197083950043
 22
0.013030225411057472
 32
0.011842130683362484
 13
0.3905197083950043
 23
0.013030225411057472
 33
0.011842130683362484
  0
3DFACE
  8
0
 10
0.4150241017341614
 20
-0.019646501168608665
 30
-0.004571895115077496
 11
0.4150241017341614
 21
0.01964777335524559
 31
-0.004571895115077496
 12
0.4319375157356262
 22
-0.009822932071983814
 32
-0.0027161631733179092
 13
0.4319375157356262
 23
-0.009822932071983814
 33
-0.0027161631733179092
  0
3DFACE
  8
0
 10
0.3907051384449005
 20
0.01354275457561016
 30
0.00201339996419847
 11
0.414020836353302
 21
0.027084873989224434
 31
0.004571573808789253
 12
0.3981107175350189
 22
0.009824206121265888
 32
-0.006427787244319916
 13
0.3981107175350189
 23
0.009824206121265888
 33
-0.006427787244319916
  0
3DFACE
  8
0
 10
0.4373365342617035
 20
0.01354275457561016
 30
0.007129908073693514
 11
0.4373365342617035
 21
-0.01354148332029581
 31
0.007129908073693514
 12
0.4319375157356262
 22
0.009824205189943314
 32
-0.0027161631733179092
 13
0.4319375157356262
 23
0.009824205189943314
 33
-0.0027161631733179092
  0
3DFACE
  8
0
 10
0.3907051384449005
 20
-0.013541479595005512
 30
0.00201339996419847
 11
0.3907051384449005
 21
0.01354275457561016
 31
0.00201339996419847
 12
0.3981107175350189
 22
-0.00982292927801609
 32
-0.006427787244319916
 13
0.3981107175350189
 23
-0.00982292927801609
 33
-0.006427787244319916
  0
3DFACE
  8
0
 10
0.414020836353302
 20
0.027084873989224434
 30
0.004571573808789253
 11
0.4373365342617035
 21
0.01354275457561016
 31
0.007129908073693514
 12
0.4150241017341614
 22
0.01964777335524559
 32
-0.004571895115077496
 13
0.4150241017341614
 23
0.01964777335524559
 33
-0.004571895115077496
  0
3DFACE
  8
0
 10
0.4150241017341614
 20
-0.019646501168608665
 30
-0.004571895115077496
 11
0.414020836353302
 21
-0.02708359993994236
 31
0.004571573808789253
 12
0.3981107175350189
 22
-0.00982292927801609
 32
-0.006427787244319916
 13
0.3981107175350189
 23
-0.00982292927801609
 33
-0.006427787244319916
  0
3DFACE
  8
0
 10
0.4319375157356262
 20
-0.009822932071983814
 30
-0.0027161631733179092
 11
0.4373365342617035
 21
-0.01354148332029581
 31
0.007129908073693514
 12
0.4150241017341614
 22
-0.019646501168608665
 32
-0.004571895115077496
 13
0.4150241017341614
 23
-0.019646501168608665
 33
-0.004571895115077496
  0
3DFACE
  8
0
 10
0.38857385516166687
 20
0.014283163473010063
 30
0.009679412469267845
 11
0.413164347410202
 21
0.028565697371959686
 31
0.012377431616187096
 12
0.3907051384449005
 22
0.01354275457561016
 32
0.00201339996419847
 13
0.3907051384449005
 23
0.01354275457561016
 33
0.00201339996419847
  0
3DFACE
  8
0
 10
0.4377547800540924
 20
0.014283163473010063
 30
0.015075611881911755
 11
0.4377547800540924
 21
-0.014281894080340862
 31
0.015075611881911755
 12
0.4373365342617035
 22
0.01354275457561016
 32
0.007129908073693514
 13
0.4373365342617035
 23
0.01354275457561016
 33
0.007129908073693514
  0
3DFACE
  8
0
 10
0.38857385516166687
 20
-0.01428188942372799
 30
0.009679412469267845
 11
0.38857385516166687
 21
0.014283163473010063
 31
0.009679412469267845
 12
0.3907051384449005
 22
-0.013541479595005512
 32
0.00201339996419847
 13
0.3907051384449005
 23
-0.013541479595005512
 33
0.00201339996419847
  0
3DFACE
  8
0
 10
0.413164347410202
 20
0.028565697371959686
 30
0.012377431616187096
 11
0.4377547800540924
 21
0.014283163473010063
 31
0.015075611881911755
 12
0.414020836353302
 22
0.027084873989224434
 32
0.004571573808789253
 13
0.414020836353302
 23
0.027084873989224434
 33
0.004571573808789253
  0
3DFACE
  8
0
 10
0.414020836353302
 20
-0.02708359993994236
 30
0.004571573808789253
 11
0.413164347410202
 21
-0.028564419597387314
 31
0.012377431616187096
 12
0.3907051384449005
 22
-0.013541479595005512
 32
0.00201339996419847
 13
0.3907051384449005
 23
-0.013541479595005512
 33
0.00201339996419847
  0
3DFACE
  8
0
 10
0.4373365342617035
 20
-0.01354148332029581
 30
0.007129908073693514
 11
0.4377547800540924
 21
-0.014281894080340862
 31
0.015075611881911755
 12
0.414020836353302
 22
-0.02708359993994236
 32
0.004571573808789253
 13
0.414020836353302
 23
-0.02708359993994236
 33
0.004571573808789253
  0
3DFACE
  8
0
 10
0.3830874264240265
 20
-0.010585051029920578
 30
0.4657807946205139
 11
0.38536542654037476
 21
-0.010585051029920578
 31
0.4450199007987976
 12
0.39764735102653503
 22
-0.010585051961243153
 32
0.46737825870513916
 13
0.39764735102653503
 23
-0.010585051961243153
 33
0.46737825870513916
  0
3DFACE
  8
0
 10
0.38536542654037476
 20
0.010586322285234928
 30
0.4450199007987976
 11
0.3999253511428833
 21
0.010586321353912354
 31
0.4466175138950348
 12
0.38536542654037476
 22
-0.010585051029920578
 32
0.4450199007987976
 13
0.38536542654037476
 23
-0.010585051029920578
 33
0.4450199007987976
  0
3DFACE
  8
0
 10
0.3723125457763672
 20
0.010586321353912354
 30
0.6982709169387817
 11
0.3723125457763672
 21
-0.010585051961243153
 31
0.6982709169387817
 12
0.35775259137153625
 22
0.010586320422589779
 32
0.6966733932495117
 13
0.35775259137153625
 23
0.010586320422589779
 33
0.6966733932495117
  0
3DFACE
  8
0
 10
0.4353862404823303
 20
0.013030225411057472
 30
0.016765328124165535
 11
0.4377547800540924
 21
0.014283163473010063
 31
0.015075611881911755
 12
0.4129529595375061
 22
0.026059821248054504
 32
0.014303648844361305
 13
0.4129529595375061
 23
0.026059821248054504
 33
0.014303648844361305
  0
3DFACE
  8
0
 10
0.4377547800540924
 20
-0.014281894080340862
 30
0.015075611881911755
 11
0.4377547800540924
 21
0.014283163473010063
 31
0.015075611881911755
 12
0.4353862404823303
 22
-0.013028956018388271
 32
0.016765328124165535
 13
0.4353862404823303
 23
-0.013028956018388271
 33
0.016765328124165535
  0
3DFACE
  8
0
 10
0.413164347410202
 20
-0.028564419597387314
 30
0.012377431616187096
 11
0.4377547800540924
 21
-0.014281894080340862
 31
0.015075611881911755
 12
0.4129529595375061
 22
-0.026058541610836983
 32
0.014303648844361305
 13
0.4129529595375061
 23
-0.026058541610836983
 33
0.014303648844361305
  0
3DFACE
  8
0
 10
0.3905197083950043
 20
-0.013028950430452824
 30
0.011842130683362484
 11
0.38857385516166687
 21
-0.01428188942372799
 31
0.009679412469267845
 12
0.4129529595375061
 22
-0.026058541610836983
 32
0.014303648844361305
 13
0.4129529595375061
 23
-0.026058541610836983
 33
0.014303648844361305
  0
3DFACE
  8
0
 10
0.38857385516166687
 20
0.014283163473010063
 30
0.009679412469267845
 11
0.38857385516166687
 21
-0.01428188942372799
 31
0.009679412469267845
 12
0.3905197083950043
 22
0.013030225411057472
 32
0.011842130683362484
 13
0.3905197083950043
 23
0.013030225411057472
 33
0.011842130683362484
  0
3DFACE
  8
0
 10
0.413164347410202
 20
0.028565697371959686
 30
0.012377431616187096
 11
0.38857385516166687
 21
0.014283163473010063
 31
0.009679412469267845
 12
0.4129529595375061
 22
0.026059821248054504
 32
0.014303648844361305
 13
0.4129529595375061
 23
0.026059821248054504
 33
0.014303648844361305
  0
3DFACE
  8
0
 10
0.3981107175350189
 20
0.009824206121265888
 30
-0.006427787244319916
 11
0.4150241017341614
 21
0.01964777335524559
 31
-0.004571895115077496
 12
0.3981107175350189
 22
-0.00982292927801609
 32
-0.006427787244319916
 13
0.3981107175350189
 23
-0.00982292927801609
 33
-0.006427787244319916
  0
3DFACE
  8
0
 10
0.3830874264240265
 20
0.010586322285234928
 30
0.4657807946205139
 11
0.39764735102653503
 21
0.010586321353912354
 31
0.46737825870513916
 12
0.38536542654037476
 22
0.010586322285234928
 32
0.4450199007987976
 13
0.38536542654037476
 23
0.010586322285234928
 33
0.4450199007987976
  0
3DFACE
  8
0
 10
0.39764735102653503
 20
-0.010585051961243153
 30
0.46737825870513916
 11
0.39764735102653503
 21
0.010586321353912354
 31
0.46737825870513916
 12
0.3830874264240265
 22
-0.010585051029920578
 32
0.4657807946205139
 13
0.3830874264240265
 23
-0.010585051029920578
 33
0.4657807946205139
  0
3DFACE
  8
0
 10
0.3554746210575104
 20
-0.010585051961243153
 30
0.7174341678619385
 11
0.35775259137153625
 21
-0.010585052892565727
 31
0.6966733932495117
 12
0.3700345456600189
 22
-0.010585051961243153
 32
0.7190317511558533
 13
0.3700345456600189
 23
-0.010585051961243153
 33
0.7190317511558533
  0
3DFACE
  8
0
 10
0.3554746210575104
 20
0.010586321353912354
 30
0.7174341678619385
 11
0.3700345456600189
 21
0.010586321353912354
 31
0.7190317511558533
 12
0.35775259137153625
 22
0.010586320422589779
 32
0.6966733932495117
 13
0.35775259137153625
 23
0.010586320422589779
 33
0.6966733932495117
  0
3DFACE
  8
0
 10
0.3700345456600189
 20
-0.010585051961243153
 30
0.7190317511558533
 11
0.3700345456600189
 21
0.010586321353912354
 31
0.7190317511558533
 12
0.3554746210575104
 22
-0.010585051961243153
 32
0.7174341678619385
 13
0.3554746210575104
 23
-0.010585051961243153
 33
0.7174341678619385
  0
3DFACE
  8
0
 10
0.3999253511428833
 20
0.010586321353912354
 30
0.4466175138950348
 11
0.39764735102653503
 21
0.010586321353912354
 31
0.46737825870513916
 12
0.3999253511428833
 22
-0.010585051961243153
 32
0.4466175138950348
 13
0.3999253511428833
 23
-0.010585051961243153
 33
0.4466175138950348
  0
3DFACE
  8
0
 10
0.3723125457763672
 20
0.010586321353912354
 30
0.6982709169387817
 11
0.3700345456600189
 21
0.010586321353912354
 31
0.7190317511558533
 12
0.3723125457763672
 22
-0.010585051961243153
 32
0.6982709169387817
 13
0.3723125457763672
 23
-0.010585051961243153
 33
0.6982709169387817
  0
3DFACE
  8
0
 10
0.013030578382313251
 20
-0.4353846311569214
 30
0.016765328124165535
 11
0.02606017142534256
 21
-0.41295135021209717
 31
0.014303648844361305
 12
0.013030565343797207
 22
-0.2529464662075043
 32
1.6783815622329712
 13
0.013030565343797207
 23
-0.2529464662075043
 33
1.6783815622329712
  0
3DFACE
  8
0
 10
0.013030578382313251
 20
-0.4353846311569214
 30
0.016765328124165535
 11
0.013030565343797207
 21
-0.2529464662075043
 31
1.6783815622329712
 12
-0.013028602115809917
 22
-0.4353846311569214
 32
0.016765328124165535
 13
-0.013028602115809917
 23
-0.4353846311569214
 33
0.016765328124165535
  0
3DFACE
  8
0
 10
-0.013028602115809917
 20
-0.4353846311569214
 30
0.016765328124165535
 11
-0.013028616085648537
 21
-0.2529464662075043
 31
1.6783815622329712
 12
-0.026058189570903778
 22
-0.41295135021209717
 32
0.014303648844361305
 13
-0.026058189570903778
 23
-0.41295135021209717
 33
0.014303648844361305
  0
3DFACE
  8
0
 10
-0.026058189570903778
 20
-0.41295135021209717
 30
0.014303648844361305
 11
-0.026058204472064972
 21
-0.22903668880462646
 31
1.6892808675765991
 12
-0.013028599321842194
 22
-0.39051809906959534
 32
0.011842130683362484
 13
-0.013028599321842194
 23
-0.39051809906959534
 33
0.011842130683362484
  0
3DFACE
  8
0
 10
0.02606017142534256
 20
-0.41295135021209717
 30
0.014303648844361305
 11
0.013030576519668102
 21
-0.39051809906959534
 31
0.011842130683362484
 12
0.026060156524181366
 22
-0.22903668880462646
 32
1.6892808675765991
 13
0.026060156524181366
 23
-0.22903668880462646
 33
1.6892808675765991
  0
3DFACE
  8
0
 10
-0.013028599321842194
 20
-0.39051809906959534
 30
0.011842130683362484
 11
-0.013028614223003387
 21
-0.2053898274898529
 31
1.7030987739562988
 12
0.013030576519668102
 22
-0.39051809906959534
 32
0.011842130683362484
 13
0.013030576519668102
 23
-0.39051809906959534
 33
0.011842130683362484
  0
3DFACE
  8
0
 10
-0.01964614912867546
 20
-0.41502249240875244
 30
-0.004571895115077496
 11
0.019648125395178795
 21
-0.41502249240875244
 31
-0.004571895115077496
 12
-0.00982257816940546
 22
-0.4319359362125397
 32
-0.0027161631733179092
 13
-0.00982257816940546
 23
-0.4319359362125397
 33
-0.0027161631733179092
  0
3DFACE
  8
0
 10
0.01354310568422079
 20
-0.3907035291194916
 30
0.00201339996419847
 11
0.02708522602915764
 21
-0.41401922702789307
 31
0.004571573808789253
 12
0.009824557229876518
 22
-0.39810910820961
 32
-0.006427787244319916
 13
0.009824557229876518
 23
-0.39810910820961
 33
-0.006427787244319916
  0
3DFACE
  8
0
 10
0.009824559092521667
 20
-0.4319359362125397
 30
-0.0027161631733179092
 11
0.013543108478188515
 21
-0.43733492493629456
 31
0.007129908073693514
 12
-0.00982257816940546
 22
-0.4319359362125397
 32
-0.0027161631733179092
 13
-0.00982257816940546
 23
-0.4319359362125397
 33
-0.0027161631733179092
  0
3DFACE
  8
0
 10
-0.013541128486394882
 20
-0.3907035291194916
 30
0.00201339996419847
 11
0.01354310568422079
 21
-0.3907035291194916
 31
0.00201339996419847
 12
-0.00982257816940546
 22
-0.39810910820961
 32
-0.006427787244319916
 13
-0.00982257816940546
 23
-0.39810910820961
 33
-0.006427787244319916
  0
3DFACE
  8
0
 10
0.02708522602915764
 20
-0.41401922702789307
 30
0.004571573808789253
 11
0.013543108478188515
 21
-0.43733492493629456
 31
0.007129908073693514
 12
0.019648125395178795
 22
-0.41502249240875244
 32
-0.004571895115077496
 13
0.019648125395178795
 23
-0.41502249240875244
 33
-0.004571895115077496
  0
3DFACE
  8
0
 10
-0.01964614912867546
 20
-0.41502249240875244
 30
-0.004571895115077496
 11
-0.027083247900009155
 21
-0.41401922702789307
 31
0.004571573808789253
 12
-0.00982257816940546
 22
-0.39810910820961
 32
-0.006427787244319916
 13
-0.00982257816940546
 23
-0.39810910820961
 33
-0.006427787244319916
  0
3DFACE
  8
0
 10
-0.00982257816940546
 20
-0.4319359362125397
 30
-0.0027161631733179092
 11
-0.013541130349040031
 21
-0.43733492493629456
 31
0.007129908073693514
 12
-0.01964614912867546
 22
-0.41502249240875244
 32
-0.004571895115077496
 13
-0.01964614912867546
 23
-0.41502249240875244
 33
-0.004571895115077496
  0
3DFACE
  8
0
 10
0.014283513650298119
 20
-0.38857224583625793
 30
0.009679412469267845
 11
0.02856604941189289
 21
-0.4131627380847931
 31
0.012377431616187096
 12
0.01354310568422079
 22
-0.3907035291194916
 32
0.00201339996419847
 13
0.01354310568422079
 23
-0.3907035291194916
 33
0.00201339996419847
  0
3DFACE
  8
0
 10
0.014283517375588417
 20
-0.43775320053100586
 30
0.015075611881911755
 11
-0.014281540177762508
 21
-0.43775320053100586
 31
0.015075611881911755
 12
0.013543108478188515
 22
-0.43733492493629456
 32
0.007129908073693514
 13
0.013543108478188515
 23
-0.43733492493629456
 33
0.007129908073693514
  0
3DFACE
  8
0
 10
-0.014281539246439934
 20
-0.38857224583625793
 30
0.009679412469267845
 11
0.014283513650298119
 21
-0.38857224583625793
 31
0.009679412469267845
 12
-0.013541128486394882
 22
-0.3907035291194916
 32
0.00201339996419847
 13
-0.013541128486394882
 23
-0.3907035291194916
 33
0.00201339996419847
  0
3DFACE
  8
0
 10
0.02708522602915764
 20
-0.41401922702789307
 30
0.004571573808789253
 11
0.02856604941189289
 21
-0.4131627380847931
 31
0.012377431616187096
 12
0.013543108478188515
 22
-0.43733492493629456
 32
0.007129908073693514
 13
0.013543108478188515
 23
-0.43733492493629456
 33
0.007129908073693514
  0
3DFACE
  8
0
 10
-0.027083247900009155
 20
-0.41401922702789307
 30
0.004571573808789253
 11
-0.02856406942009926
 21
-0.4131627380847931
 31
0.012377431616187096
 12
-0.013541128486394882
 22
-0.3907035291194916
 32
0.00201339996419847
 13
-0.013541128486394882
 23
-0.3907035291194916
 33
0.00201339996419847
  0
3DFACE
  8
0
 10
-0.014281540177762508
 20
-0.43775320053100586
 30
0.015075611881911755
 11
-0.02856406942009926
 21
-0.4131627380847931
 31
0.012377431616187096
 12
-0.013541130349040031
 22
-0.43733492493629456
 32
0.007129908073693514
 13
-0.013541130349040031
 23
-0.43733492493629456
 33
0.007129908073693514
  0
3DFACE
  8
0
 10
-0.010584700852632523
 20
-0.38308581709861755
 30
0.4657807946205139
 11
-0.010584700852632523
 21
-0.3853638172149658
 31
0.4450199007987976
 12
-0.010584700852632523
 22
-0.3976457417011261
 32
0.46737825870513916
 13
-0.010584700852632523
 23
-0.3976457417011261
 33
0.46737825870513916
  0
3DFACE
  8
0
 10
0.010586672462522984
 20
-0.39992374181747437
 30
0.4466175138950348
 11
-0.010584700852632523
 21
-0.39992374181747437
 31
0.4466175138950348
 12
0.010586672462522984
 22
-0.3853638172149658
 32
0.4450199007987976
 13
0.010586672462522984
 23
-0.3853638172149658
 33
0.4450199007987976
  0
3DFACE
  8
0
 10
0.01058666966855526
 20
-0.37231096625328064
 30
0.6982709169387817
 11
-0.010584702715277672
 21
-0.37231096625328064
 31
0.6982709169387817
 12
0.010586668737232685
 22
-0.3577509820461273
 32
0.6966733932495117
 13
0.010586668737232685
 23
-0.3577509820461273
 33
0.6966733932495117
  0
3DFACE
  8
0
 10
0.014283517375588417
 20
-0.43775320053100586
 30
0.015075611881911755
 11
0.02856604941189289
 21
-0.4131627380847931
 31
0.012377431616187096
 12
0.013030578382313251
 22
-0.4353846311569214
 32
0.016765328124165535
 13
0.013030578382313251
 23
-0.4353846311569214
 33
0.016765328124165535
  0
3DFACE
  8
0
 10
-0.014281540177762508
 20
-0.43775320053100586
 30
0.015075611881911755
 11
0.014283517375588417
 21
-0.43775320053100586
 31
0.015075611881911755
 12
-0.013028602115809917
 22
-0.4353846311569214
 32
0.016765328124165535
 13
-0.013028602115809917
 23
-0.4353846311569214
 33
0.016765328124165535
  0
3DFACE
  8
0
 10
-0.026058189570903778
 20
-0.41295135021209717
 30
0.014303648844361305
 11
-0.02856406942009926
 21
-0.4131627380847931
 31
0.012377431616187096
 12
-0.013028602115809917
 22
-0.4353846311569214
 32
0.016765328124165535
 13
-0.013028602115809917
 23
-0.4353846311569214
 33
0.016765328124165535
  0
3DFACE
  8
0
 10
-0.013028599321842194
 20
-0.39051809906959534
 30
0.011842130683362484
 11
-0.014281539246439934
 21
-0.38857224583625793
 31
0.009679412469267845
 12
-0.026058189570903778
 22
-0.41295135021209717
 32
0.014303648844361305
 13
-0.026058189570903778
 23
-0.41295135021209717
 33
0.014303648844361305
  0
3DFACE
  8
0
 10
0.013030576519668102
 20
-0.39051809906959534
 30
0.011842130683362484
 11
0.014283513650298119
 21
-0.38857224583625793
 31
0.009679412469267845
 12
-0.013028599321842194
 22
-0.39051809906959534
 32
0.011842130683362484
 13
-0.013028599321842194
 23
-0.39051809906959534
 33
0.011842130683362484
  0
3DFACE
  8
0
 10
0.02856604941189289
 20
-0.4131627380847931
 30
0.012377431616187096
 11
0.014283513650298119
 21
-0.38857224583625793
 31
0.009679412469267845
 12
0.02606017142534256
 22
-0.41295135021209717
 32
0.014303648844361305
 13
0.02606017142534256
 23
-0.41295135021209717
 33
0.014303648844361305
  0
3DFACE
  8
0
 10
0.009824557229876518
 20
-0.39810910820961
 30
-0.006427787244319916
 11
0.019648125395178795
 21
-0.41502249240875244
 31
-0.004571895115077496
 12
-0.00982257816940546
 22
-0.39810910820961
 32
-0.006427787244319916
 13
-0.00982257816940546
 23
-0.39810910820961
 33
-0.006427787244319916
  0
3DFACE
  8
0
 10
0.010586672462522984
 20
-0.38308581709861755
 30
0.4657807946205139
 11
0.010586672462522984
 21
-0.3976457417011261
 31
0.46737825870513916
 12
0.010586672462522984
 22
-0.3853638172149658
 32
0.4450199007987976
 13
0.010586672462522984
 23
-0.3853638172149658
 33
0.4450199007987976
  0
3DFACE
  8
0
 10
-0.010584700852632523
 20
-0.3976457417011261
 30
0.46737825870513916
 11
0.010586672462522984
 21
-0.3976457417011261
 31
0.46737825870513916
 12
-0.010584700852632523
 22
-0.38308581709861755
 32
0.4657807946205139
 13
-0.010584700852632523
 23
-0.38308581709861755
 33
0.4657807946205139
  0
3DFACE
  8
0
 10
-0.010584704577922821
 20
-0.35547301173210144
 30
0.7174341678619385
 11
-0.010584704577922821
 21
-0.3577509820461273
 31
0.6966733932495117
 12
-0.010584702715277672
 22
-0.3700329661369324
 32
0.7190317511558533
 13
-0.010584702715277672
 23
-0.3700329661369324
 33
0.7190317511558533
  0
3DFACE
  8
0
 10
0.010586668737232685
 20
-0.35547301173210144
 30
0.7174341678619385
 11
0.01058666966855526
 21
-0.3700329661369324
 31
0.7190317511558533
 12
0.010586668737232685
 22
-0.3577509820461273
 32
0.6966733932495117
 13
0.010586668737232685
 23
-0.3577509820461273
 33
0.6966733932495117
  0
3DFACE
  8
0
 10
-0.010584704577922821
 20
-0.35547301173210144
 30
0.7174341678619385
 11
-0.010584702715277672
 21
-0.3700329661369324
 31
0.7190317511558533
 12
0.010586668737232685
 22
-0.35547301173210144
 32
0.7174341678619385
 13
0.010586668737232685
 23
-0.35547301173210144
 33
0.7174341678619385
  0
3DFACE
  8
0
 10
0.010586672462522984
 20
-0.39992374181747437
 30
0.4466175138950348
 11
0.010586672462522984
 21
-0.3976457417011261
 31
0.46737825870513916
 12
-0.010584700852632523
 22
-0.39992374181747437
 32
0.4466175138950348
 13
-0.010584700852632523
 23
-0.39992374181747437
 33
0.4466175138950348
  0
3DFACE
  8
0
 10
0.01058666966855526
 20
-0.37231096625328064
 30
0.6982709169387817
 11
0.01058666966855526
 21
-0.3700329661369324
 31
0.7190317511558533
 12
-0.010584702715277672
 22
-0.37231096625328064
 32
0.6982709169387817
 13
-0.010584702715277672
 23
-0.37231096625328064
 33
0.6982709169387817
  0
ENDSEC
  0
EOF
