  0
SECTION
  2
HEADER
  9
$ACADVER
  1
AC1009
  9
$INSBASE
 10
0.0
 20
0.0
 30
0.0
  9
$EXTMIN
 10
0.0
 20
0.0
 30
0.0
  9
$EXTMAX
 10
0.0
 20
0.0
 30
0.0
  0
ENDSEC
  0
SECTION
  2
TABLES
  0
TABLE
  2
VPORT
 70
1
  0
VPORT
  2
*ACTIVE
 70
0
 10
0.0
 20
0.0
 11
1.0
 21
1.0
 12
-5.0
 22
1.0
 13
0.0
 23
0.0
 14
0.1
 24
0.1
 15
0.1
 25
0.1
 16
0.0
 26
0.0
 36
1.0
 17
0.0
 27
0.0
 37
0.0
 40
10.0
 41
1.0
 42
50.0
 43
0.0
 44
0.0
 50
0.0
 51
0.0
 71
0
 72
100
 73
1
 74
1
 75
0
 76
0
 77
0
 78
0
  0
ENDTAB
  0
TABLE
  2
LTYPE
 70
8
  0
LTYPE
  2
CONTINUOUS
 70
0
  3
Solid line
 72
65
 73
0
 40
0.0
  0
LTYPE
  2
DOT
 70
0
  3
. . . . . . .
 72
65
 73
2
 40
0.25
 49
0.0
 49
-0.25
  0
LTYPE
  2
DASHED
 70
0
  3
__ __ __ __ __
 72
65
 73
2
 40
0.8
 49
0.5
 49
-0.3
  0
LTYPE
  2
DASHDOT
 70
0
  3
__ . __ . __ .
 72
65
 73
4
 40
1.0
 49
0.5
 49
-0.25
 49
0.0
 49
-0.25
  0
LTYPE
  2
DIVIDE
 70
0
  3
____ . . ____ . . 
 72
65
 73
6
 40
1.25
 49
0.5
 49
-0.25
 49
0.0
 49
-0.25
 49
0.0
 49
-0.25
  0
LTYPE
  2
BORDER
 70
0
  3
__ __ . __ __ . 
 72
65
 73
6
 40
1.75
 49
0.5
 49
-0.25
 49
0.5
 49
-0.25
 49
0.0
 49
-0.25
  0
LTYPE
  2
HIDDEN
 70
0
  3
__ __ __ __ __
 72
65
 73
2
 40
0.4
 49
0.25
 49
-0.25
  0
LTYPE
  2
CENTER
 70
0
  3
____ _ ____ _ __
 72
65
 73
4
 40
2.0
 49
1.25
 49
-0.25
 49
0.25
 49
-0.25
  0
ENDTAB
  0
TABLE
  2
LAYER
 70
1
  0
LAYER
  2
PYDXF
 70
64
 62
7
  6
continuous
  0
ENDTAB
  0
TABLE
  2
STYLE
 70
1
  0
STYLE
  2
STANDARD
 70
0
 40
0
 41
1.0
 50
0.0
 71
0
 42
1
 3
ARIAL.TTF
 4

  0
ENDTAB
  0
TABLE
  2
VIEW
 70
1
  0
VIEW
  2
BF_TOPVIEW
 70
0
 40
120.0
 10
0.0
 20
0.0
 41
200.0
 11
0.0
 21
0.0
 31
1.0
 12
0.0
 22
0.0
 32
0.0
 42
50.0
 43
0.0
 44
0.0
 50
0.0
 71
0
  0
ENDTAB
  0
ENDSEC
  0
SECTION
  2
BLOCKS
  0
ENDSEC
  0
SECTION
  2
ENTITIES
  0
3DFACE
  8
0
 10
0.34665369987487793
 20
0.4153042137622833
 30
0.8553483486175537
 11
0.3467971086502075
 21
0.3733736574649811
 31
0.7935076951980591
 12
0.3467971086502075
 22
0.3733736574649811
 32
1.1977453231811523
 13
0.3467971086502075
 23
0.3733736574649811
 33
1.1977453231811523
  0
3DFACE
  8
0
 10
0.42724472284317017
 20
0.37317338585853577
 30
1.1977453231811523
 11
0.42724472284317017
 21
0.37317338585853577
 31
0.7935076951980591
 12
0.4271012842655182
 22
0.415103942155838
 32
0.8553483486175537
 13
0.4271012842655182
 23
0.415103942155838
 33
0.8553483486175537
  0
3DFACE
  8
0
 10
0.3467971086502075
 20
0.3733736574649811
 30
1.1977453231811523
 11
0.3467971086502075
 21
0.3733736574649811
 31
0.7935076951980591
 12
0.42724472284317017
 22
0.37317338585853577
 32
0.7935076951980591
 13
0.42724472284317017
 23
0.37317338585853577
 33
0.7935076951980591
  0
3DFACE
  8
0
 10
0.4271012842655182
 20
0.415103942155838
 30
1.1977453231811523
 11
0.4271012842655182
 21
0.415103942155838
 31
0.8553483486175537
 12
0.34665369987487793
 22
0.4153042137622833
 32
0.8553483486175537
 13
0.34665369987487793
 23
0.4153042137622833
 33
0.8553483486175537
  0
3DFACE
  8
0
 10
0.4271012842655182
 20
0.415103942155838
 30
0.8553483486175537
 11
0.42724472284317017
 21
0.37317338585853577
 31
0.7935076951980591
 12
0.3467971086502075
 22
0.3733736574649811
 32
0.7935076951980591
 13
0.3467971086502075
 23
0.3733736574649811
 33
0.7935076951980591
  0
3DFACE
  8
0
 10
0.19380326569080353
 20
0.4156847298145294
 30
0.8553483486175537
 11
0.19394664466381073
 21
0.37375426292419434
 31
0.7935076951980591
 12
0.19394664466381073
 22
0.37375426292419434
 32
1.1977453231811523
 13
0.19394664466381073
 23
0.37375426292419434
 33
1.1977453231811523
  0
3DFACE
  8
0
 10
0.2743942439556122
 20
0.37355396151542664
 30
1.1977453231811523
 11
0.2743942439556122
 21
0.37355396151542664
 31
0.7935076951980591
 12
0.274250864982605
 22
0.4154844582080841
 32
0.8553483486175537
 13
0.274250864982605
 23
0.4154844582080841
 33
0.8553483486175537
  0
3DFACE
  8
0
 10
0.19394664466381073
 20
0.37375426292419434
 30
1.1977453231811523
 11
0.19394664466381073
 21
0.37375426292419434
 31
0.7935076951980591
 12
0.2743942439556122
 22
0.37355396151542664
 32
0.7935076951980591
 13
0.2743942439556122
 23
0.37355396151542664
 33
0.7935076951980591
  0
3DFACE
  8
0
 10
0.274250864982605
 20
0.4154844582080841
 30
1.1977453231811523
 11
0.274250864982605
 21
0.4154844582080841
 31
0.8553483486175537
 12
0.19380326569080353
 22
0.4156847298145294
 32
0.8553483486175537
 13
0.19380326569080353
 23
0.4156847298145294
 33
0.8553483486175537
  0
3DFACE
  8
0
 10
0.274250864982605
 20
0.4154844582080841
 30
0.8553483486175537
 11
0.2743942439556122
 21
0.37355396151542664
 31
0.7935076951980591
 12
0.19394664466381073
 22
0.37375426292419434
 32
0.7935076951980591
 13
0.19394664466381073
 23
0.37375426292419434
 33
0.7935076951980591
  0
3DFACE
  8
0
 10
0.040952831506729126
 20
0.4160653054714203
 30
0.8553483486175537
 11
0.041096240282058716
 21
0.3741348087787628
 31
0.7935076951980591
 12
0.041096240282058716
 22
0.3741348087787628
 32
1.1977453231811523
 13
0.041096240282058716
 23
0.3741348087787628
 33
1.1977453231811523
  0
3DFACE
  8
0
 10
0.12154382467269897
 20
0.3739345073699951
 30
1.1977453231811523
 11
0.12154382467269897
 21
0.3739345073699951
 31
0.7935076951980591
 12
0.12140043079853058
 22
0.415865033864975
 32
0.8553483486175537
 13
0.12140043079853058
 23
0.415865033864975
 33
0.8553483486175537
  0
3DFACE
  8
0
 10
0.041096240282058716
 20
0.3741348087787628
 30
1.1977453231811523
 11
0.041096240282058716
 21
0.3741348087787628
 31
0.7935076951980591
 12
0.12154382467269897
 22
0.3739345073699951
 32
0.7935076951980591
 13
0.12154382467269897
 23
0.3739345073699951
 33
0.7935076951980591
  0
3DFACE
  8
0
 10
0.12140043079853058
 20
0.415865033864975
 30
1.1977453231811523
 11
0.12140043079853058
 21
0.415865033864975
 31
0.8553483486175537
 12
0.040952831506729126
 22
0.4160653054714203
 32
0.8553483486175537
 13
0.040952831506729126
 23
0.4160653054714203
 33
0.8553483486175537
  0
3DFACE
  8
0
 10
0.12140043079853058
 20
0.415865033864975
 30
0.8553483486175537
 11
0.12154382467269897
 21
0.3739345073699951
 31
0.7935076951980591
 12
0.041096240282058716
 22
0.3741348087787628
 32
0.7935076951980591
 13
0.041096240282058716
 23
0.3741348087787628
 33
0.7935076951980591
  0
3DFACE
  8
0
 10
-0.11189758777618408
 20
0.41644585132598877
 30
0.8553483486175537
 11
-0.11175420135259628
 21
0.3745153546333313
 31
0.7935076951980591
 12
-0.11175420135259628
 22
0.3745153546333313
 32
1.1977453231811523
 13
-0.11175420135259628
 23
0.3745153546333313
 33
1.1977453231811523
  0
3DFACE
  8
0
 10
-0.03130660578608513
 20
0.3743150234222412
 30
1.1977453231811523
 11
-0.03130660578608513
 21
0.3743150234222412
 31
0.7935076951980591
 12
-0.03145000711083412
 22
0.41624557971954346
 32
0.8553483486175537
 13
-0.03145000711083412
 23
0.41624557971954346
 33
0.8553483486175537
  0
3DFACE
  8
0
 10
-0.11175420135259628
 20
0.3745153546333313
 30
1.1977453231811523
 11
-0.11175420135259628
 21
0.3745153546333313
 31
0.7935076951980591
 12
-0.03130660578608513
 22
0.3743150234222412
 32
0.7935076951980591
 13
-0.03130660578608513
 23
0.3743150234222412
 33
0.7935076951980591
  0
3DFACE
  8
0
 10
-0.03145000711083412
 20
0.41624557971954346
 30
1.1977453231811523
 11
-0.03145000711083412
 21
0.41624557971954346
 31
0.8553483486175537
 12
-0.11189758777618408
 22
0.41644585132598877
 32
0.8553483486175537
 13
-0.11189758777618408
 23
0.41644585132598877
 33
0.8553483486175537
  0
3DFACE
  8
0
 10
-0.03145000711083412
 20
0.41624557971954346
 30
0.8553483486175537
 11
-0.03130660578608513
 21
0.3743150234222412
 31
0.7935076951980591
 12
-0.11175420135259628
 22
0.3745153546333313
 32
0.7935076951980591
 13
-0.11175420135259628
 23
0.3745153546333313
 33
0.7935076951980591
  0
3DFACE
  8
0
 10
-0.2647480070590973
 20
0.41682639718055725
 30
0.8553483486175537
 11
-0.2646046280860901
 21
0.37489596009254456
 31
0.7935076951980591
 12
-0.2646046280860901
 22
0.37489596009254456
 32
1.1977453231811523
 13
-0.2646046280860901
 23
0.37489596009254456
 33
1.1977453231811523
  0
3DFACE
  8
0
 10
-0.18415704369544983
 20
0.37469565868377686
 30
1.1977453231811523
 11
-0.18415704369544983
 21
0.37469565868377686
 31
0.7935076951980591
 12
-0.18430043756961823
 22
0.41662612557411194
 32
0.8553483486175537
 13
-0.18430043756961823
 23
0.41662612557411194
 33
0.8553483486175537
  0
3DFACE
  8
0
 10
-0.2646046280860901
 20
0.37489596009254456
 30
1.1977453231811523
 11
-0.2646046280860901
 21
0.37489596009254456
 31
0.7935076951980591
 12
-0.18415704369544983
 22
0.37469565868377686
 32
0.7935076951980591
 13
-0.18415704369544983
 23
0.37469565868377686
 33
0.7935076951980591
  0
3DFACE
  8
0
 10
-0.18430043756961823
 20
0.41662612557411194
 30
1.1977453231811523
 11
-0.18430043756961823
 21
0.41662612557411194
 31
0.8553483486175537
 12
-0.2647480070590973
 22
0.41682639718055725
 32
0.8553483486175537
 13
-0.2647480070590973
 23
0.41682639718055725
 33
0.8553483486175537
  0
3DFACE
  8
0
 10
-0.18430043756961823
 20
0.41662612557411194
 30
0.8553483486175537
 11
-0.18415704369544983
 21
0.37469565868377686
 31
0.7935076951980591
 12
-0.2646046280860901
 22
0.37489596009254456
 32
0.7935076951980591
 13
-0.2646046280860901
 23
0.37489596009254456
 33
0.7935076951980591
  0
3DFACE
  8
0
 10
-0.4175984561443329
 20
0.4172070324420929
 30
0.8553483486175537
 11
-0.4174550175666809
 21
0.37527647614479065
 31
0.7935076951980591
 12
-0.4174550175666809
 22
0.37527647614479065
 32
1.1977453231811523
 13
-0.4174550175666809
 23
0.37527647614479065
 33
1.1977453231811523
  0
3DFACE
  8
0
 10
-0.33700746297836304
 20
0.37507620453834534
 30
1.1977453231811523
 11
-0.33700746297836304
 21
0.37507620453834534
 31
0.7935076951980591
 12
-0.3371508717536926
 22
0.4170067310333252
 32
0.8553483486175537
 13
-0.3371508717536926
 23
0.4170067310333252
 33
0.8553483486175537
  0
3DFACE
  8
0
 10
-0.4174550175666809
 20
0.37527647614479065
 30
1.1977453231811523
 11
-0.4174550175666809
 21
0.37527647614479065
 31
0.7935076951980591
 12
-0.33700746297836304
 22
0.37507620453834534
 32
0.7935076951980591
 13
-0.33700746297836304
 23
0.37507620453834534
 33
0.7935076951980591
  0
3DFACE
  8
0
 10
-0.3371508717536926
 20
0.4170067310333252
 30
1.1977453231811523
 11
-0.3371508717536926
 21
0.4170067310333252
 31
0.8553483486175537
 12
-0.4175984561443329
 22
0.4172070324420929
 32
0.8553483486175537
 13
-0.4175984561443329
 23
0.4172070324420929
 33
0.8553483486175537
  0
3DFACE
  8
0
 10
-0.3371508717536926
 20
0.4170067310333252
 30
0.8553483486175537
 11
-0.33700746297836304
 21
0.37507620453834534
 31
0.7935076951980591
 12
-0.4174550175666809
 22
0.37527647614479065
 32
0.7935076951980591
 13
-0.4174550175666809
 23
0.37527647614479065
 33
0.7935076951980591
  0
3DFACE
  8
0
 10
0.4672306180000305
 20
-0.6675205230712891
 30
1.2034480571746826
 11
0.467132568359375
 21
-0.6055599451065063
 31
1.2034480571746826
 12
0.6230965852737427
 22
-0.6059482097625732
 32
1.2034480571746826
 13
0.6230965852737427
 23
-0.6059482097625732
 33
1.2034480571746826
  0
3DFACE
  8
0
 10
0.48307257890701294
 20
-0.6577705144882202
 30
1.2566816806793213
 11
0.6072857975959778
 21
-0.6580796837806702
 31
1.2566816806793213
 12
0.6071876883506775
 22
-0.5961192846298218
 32
1.2733136415481567
 13
0.6071876883506775
 23
-0.5961192846298218
 33
1.2733136415481567
  0
3DFACE
  8
0
 10
0.4672306180000305
 20
-0.6675205230712891
 30
1.2034480571746826
 11
0.6231946349143982
 21
-0.6679088473320007
 31
1.2034480571746826
 12
0.6072857975959778
 22
-0.6580796837806702
 32
1.2566816806793213
 13
0.6072857975959778
 23
-0.6580796837806702
 33
1.2566816806793213
  0
3DFACE
  8
0
 10
0.48307257890701294
 20
-0.6577705144882202
 30
1.2566816806793213
 11
0.48297446966171265
 21
-0.5958099961280823
 31
1.2733136415481567
 12
0.467132568359375
 22
-0.6055599451065063
 32
1.2034480571746826
 13
0.467132568359375
 23
-0.6055599451065063
 33
1.2034480571746826
  0
3DFACE
  8
0
 10
0.6230965852737427
 20
-0.6059482097625732
 30
1.2034480571746826
 11
0.6071876883506775
 21
-0.5961192846298218
 31
1.2733136415481567
 12
0.6072857975959778
 22
-0.6580796837806702
 32
1.2566816806793213
 13
0.6072857975959778
 23
-0.6580796837806702
 33
1.2566816806793213
  0
3DFACE
  8
0
 10
0.48297446966171265
 20
-0.5958099961280823
 30
1.2733136415481567
 11
0.6071876883506775
 21
-0.5961192846298218
 31
1.2733136415481567
 12
0.6065508127212524
 22
0.4335871934890747
 32
1.2733136415481567
 13
0.6065508127212524
 23
0.4335871934890747
 33
1.2733136415481567
  0
3DFACE
  8
0
 10
0.6065508127212524
 20
0.4335871934890747
 30
1.2733136415481567
 11
0.6224261522293091
 21
0.43354764580726624
 31
1.2034480571746826
 12
0.4664621949195862
 22
0.4339360296726227
 32
1.2034480571746826
 13
0.4664621949195862
 23
0.4339360296726227
 33
1.2034480571746826
  0
3DFACE
  8
0
 10
0.4664621949195862
 20
0.4339360296726227
 30
1.2034480571746826
 11
0.467132568359375
 21
-0.6055599451065063
 31
1.2034480571746826
 12
0.48297446966171265
 22
-0.5958099961280823
 32
1.2733136415481567
 13
0.48297446966171265
 23
-0.5958099961280823
 33
1.2733136415481567
  0
3DFACE
  8
0
 10
0.6224261522293091
 20
0.43354764580726624
 30
1.2034480571746826
 11
0.6065508127212524
 21
0.4335871934890747
 31
1.2733136415481567
 12
0.6071876883506775
 22
-0.5961192846298218
 32
1.2733136415481567
 13
0.6071876883506775
 23
-0.5961192846298218
 33
1.2733136415481567
  0
3DFACE
  8
0
 10
0.6224261522293091
 20
0.43354764580726624
 30
1.2034480571746826
 11
0.6230965852737427
 21
-0.6059482097625732
 31
1.2034480571746826
 12
0.467132568359375
 22
-0.6055599451065063
 32
1.2034480571746826
 13
0.467132568359375
 23
-0.6055599451065063
 33
1.2034480571746826
  0
3DFACE
  8
0
 10
-0.6245179772377014
 20
-0.6648023128509521
 30
1.2034480571746826
 11
-0.6246160864830017
 21
-0.6028417944908142
 31
1.2034480571746826
 12
-0.46865198016166687
 22
-0.6032300591468811
 32
1.2034480571746826
 13
-0.46865198016166687
 23
-0.6032300591468811
 33
1.2034480571746826
  0
3DFACE
  8
0
 10
-0.48456090688705444
 20
-0.5934010744094849
 30
1.2733136415481567
 11
-0.6087741255760193
 21
-0.5930917263031006
 31
1.2733136415481567
 12
-0.608676016330719
 22
-0.6550523638725281
 32
1.2566816806793213
 13
-0.608676016330719
 23
-0.6550523638725281
 33
1.2566816806793213
  0
3DFACE
  8
0
 10
-0.48446279764175415
 20
-0.6553615927696228
 30
1.2566816806793213
 11
-0.608676016330719
 21
-0.6550523638725281
 31
1.2566816806793213
 12
-0.6245179772377014
 22
-0.6648023128509521
 32
1.2034480571746826
 13
-0.6245179772377014
 23
-0.6648023128509521
 33
1.2034480571746826
  0
3DFACE
  8
0
 10
-0.48446279764175415
 20
-0.6553615927696228
 30
1.2566816806793213
 11
-0.4685538411140442
 21
-0.665190577507019
 31
1.2034480571746826
 12
-0.46865198016166687
 22
-0.6032300591468811
 32
1.2034480571746826
 13
-0.46865198016166687
 23
-0.6032300591468811
 33
1.2034480571746826
  0
3DFACE
  8
0
 10
-0.608676016330719
 20
-0.6550523638725281
 30
1.2566816806793213
 11
-0.6087741255760193
 21
-0.5930917263031006
 31
1.2733136415481567
 12
-0.6246160864830017
 22
-0.6028417944908142
 32
1.2034480571746826
 13
-0.6246160864830017
 23
-0.6028417944908142
 33
1.2034480571746826
  0
3DFACE
  8
0
 10
-0.4851977527141571
 20
0.43630537390708923
 30
1.2733136415481567
 11
-0.6094110012054443
 21
0.43661463260650635
 31
1.2733136415481567
 12
-0.6087741255760193
 22
-0.5930917263031006
 32
1.2733136415481567
 13
-0.6087741255760193
 23
-0.5930917263031006
 33
1.2733136415481567
  0
3DFACE
  8
0
 10
-0.4693222939968109
 20
0.43626588582992554
 30
1.2034480571746826
 11
-0.6252865195274353
 21
0.4366541802883148
 31
1.2034480571746826
 12
-0.6094110012054443
 22
0.43661463260650635
 32
1.2733136415481567
 13
-0.6094110012054443
 23
0.43661463260650635
 33
1.2733136415481567
  0
3DFACE
  8
0
 10
-0.48456090688705444
 20
-0.5934010744094849
 30
1.2733136415481567
 11
-0.46865198016166687
 21
-0.6032300591468811
 31
1.2034480571746826
 12
-0.4693222939968109
 22
0.43626588582992554
 32
1.2034480571746826
 13
-0.4693222939968109
 23
0.43626588582992554
 33
1.2034480571746826
  0
3DFACE
  8
0
 10
-0.6252865195274353
 20
0.4366541802883148
 30
1.2034480571746826
 11
-0.6246160864830017
 21
-0.6028417944908142
 31
1.2034480571746826
 12
-0.6087741255760193
 22
-0.5930917263031006
 32
1.2733136415481567
 13
-0.6087741255760193
 23
-0.5930917263031006
 33
1.2733136415481567
  0
3DFACE
  8
0
 10
-0.4693222939968109
 20
0.43626588582992554
 30
1.2034480571746826
 11
-0.46865198016166687
 21
-0.6032300591468811
 31
1.2034480571746826
 12
-0.6246160864830017
 22
-0.6028417944908142
 32
1.2034480571746826
 13
-0.6246160864830017
 23
-0.6028417944908142
 33
1.2034480571746826
  0
3DFACE
  8
0
 10
0.582168459892273
 20
-0.6576870083808899
 30
-7.067592378007248e-08
 11
0.600640594959259
 21
-0.6676373481750488
 31
0.018749121576547623
 12
0.4900107979774475
 22
-0.6673619151115417
 32
0.018749121576547623
 13
0.4900107979774475
 23
-0.6673619151115417
 33
0.018749121576547623
  0
3DFACE
  8
0
 10
0.4900892376899719
 20
-0.6902634501457214
 30
0.7534870505332947
 11
0.4900107979774475
 21
-0.6673619151115417
 31
0.018749121576547623
 12
0.600640594959259
 22
-0.6676373481750488
 32
0.018749121576547623
 13
0.600640594959259
 23
-0.6676373481750488
 33
0.018749121576547623
  0
3DFACE
  8
0
 10
0.6004294157028198
 20
-0.6058918237686157
 30
0.7432411313056946
 11
0.6004374027252197
 21
-0.6082102060317993
 31
0.018749121576547623
 12
0.4898075759410858
 22
-0.607934832572937
 32
0.018749121576547623
 13
0.4898075759410858
 23
-0.607934832572937
 33
0.018749121576547623
  0
3DFACE
  8
0
 10
0.4897996783256531
 20
-0.6056162714958191
 30
0.7432410717010498
 11
0.4898075759410858
 21
-0.607934832572937
 31
0.018749121576547623
 12
0.4900107979774475
 22
-0.6673619151115417
 32
0.018749121576547623
 13
0.4900107979774475
 23
-0.6673619151115417
 33
0.018749121576547623
  0
3DFACE
  8
0
 10
0.6004294157028198
 20
-0.6058918237686157
 30
1.0847973823547363
 11
0.6004294157028198
 21
-0.6058918237686157
 31
1.2034480571746826
 12
0.6006103754043579
 22
-0.6587992310523987
 32
1.2034480571746826
 13
0.6006103754043579
 23
-0.6587992310523987
 33
1.2034480571746826
  0
3DFACE
  8
0
 10
0.5997247099876404
 20
0.4436403214931488
 30
0.018749121576547623
 11
0.5813299417495728
 21
0.43095529079437256
 31
-7.067592378007248e-08
 12
0.5075767636299133
 22
0.4311389625072479
 32
-7.067592378007248e-08
 13
0.5075767636299133
 23
0.4311389625072479
 33
-7.067592378007248e-08
  0
3DFACE
  8
0
 10
0.5997247099876404
 20
0.4436403214931488
 30
0.018749121576547623
 11
0.4890950322151184
 21
0.44391581416130066
 31
0.018749121576547623
 12
0.4890950322151184
 22
0.44391581416130066
 32
0.8816865086555481
 13
0.4890950322151184
 23
0.44391581416130066
 33
0.8816865086555481
  0
3DFACE
  8
0
 10
0.48942166566848755
 20
0.3483930230140686
 30
0.8816865086555481
 11
0.48935624957084656
 21
0.36753034591674805
 31
0.018749121576547623
 12
0.5999859571456909
 22
0.36725491285324097
 32
0.018749121576547623
 13
0.5999859571456909
 23
0.36725491285324097
 33
0.018749121576547623
  0
3DFACE
  8
0
 10
0.4890950322151184
 20
0.44391581416130066
 30
0.8816865086555481
 11
0.4890950322151184
 21
0.44391581416130066
 31
0.018749121576547623
 12
0.48935624957084656
 22
0.36753034591674805
 32
0.018749121576547623
 13
0.48935624957084656
 23
0.36753034591674805
 33
0.018749121576547623
  0
3DFACE
  8
0
 10
0.5997247099876404
 20
0.4436403214931488
 30
1.6871525049209595
 11
0.5998050570487976
 21
0.4201623201370239
 31
1.7446238994598389
 12
0.5999859571456909
 22
0.36725491285324097
 32
1.7446238994598389
 13
0.5999859571456909
 23
0.36725491285324097
 33
1.7446238994598389
  0
3DFACE
  8
0
 10
-0.6017377376556396
 20
-0.6646437644958496
 30
0.018749121576547623
 11
-0.5833331942558289
 21
-0.6547850966453552
 31
-7.067592378007248e-08
 12
-0.509580135345459
 22
-0.6549687385559082
 32
-7.067592378007248e-08
 13
-0.509580135345459
 23
-0.6549687385559082
 33
-7.067592378007248e-08
  0
3DFACE
  8
0
 10
-0.60165935754776
 20
-0.6875452995300293
 30
0.7534871101379395
 11
-0.6017377376556396
 21
-0.6646437644958496
 31
0.018749121576547623
 12
-0.4911079406738281
 22
-0.6649191975593567
 32
0.018749121576547623
 13
-0.4911079406738281
 23
-0.6649191975593567
 33
0.018749121576547623
  0
3DFACE
  8
0
 10
-0.49131911993026733
 20
-0.6031736731529236
 30
0.7432410717010498
 11
-0.4913111627101898
 21
-0.6054920554161072
 31
0.018749121576547623
 12
-0.601940929889679
 22
-0.6052166223526001
 32
0.018749121576547623
 13
-0.601940929889679
 23
-0.6052166223526001
 33
0.018749121576547623
  0
3DFACE
  8
0
 10
-0.49131911993026733
 20
-0.6031736731529236
 30
0.7432410717010498
 11
-0.49102964997291565
 21
-0.6878207325935364
 31
0.7534870505332947
 12
-0.4911079406738281
 22
-0.6649191975593567
 32
0.018749121576547623
 13
-0.4911079406738281
 23
-0.6649191975593567
 33
0.018749121576547623
  0
3DFACE
  8
0
 10
-0.6019489765167236
 20
-0.602898120880127
 30
1.0847973823547363
 11
-0.60165935754776
 21
-0.6875452995300293
 31
1.0496618747711182
 12
-0.6017679572105408
 22
-0.6558056473731995
 32
1.2034480571746826
 13
-0.6017679572105408
 23
-0.6558056473731995
 33
1.2034480571746826
  0
3DFACE
  8
0
 10
-0.584171712398529
 20
0.43385711312294006
 30
-7.067592378007248e-08
 11
-0.6026536226272583
 21
0.4466339647769928
 31
0.018749121576547623
 12
-0.492023766040802
 22
0.44635850191116333
 32
0.018749121576547623
 13
-0.492023766040802
 23
0.44635850191116333
 33
0.018749121576547623
  0
3DFACE
  8
0
 10
-0.492023766040802
 20
0.44635850191116333
 30
0.8816865086555481
 11
-0.492023766040802
 21
0.44635850191116333
 31
0.018749121576547623
 12
-0.6026536226272583
 22
0.4466339647769928
 32
0.018749121576547623
 13
-0.6026536226272583
 23
0.4466339647769928
 33
0.018749121576547623
  0
3DFACE
  8
0
 10
-0.6023269295692444
 20
0.35111120343208313
 30
0.8816865086555481
 11
-0.6023923754692078
 21
0.3702485263347626
 31
0.018749121576547623
 12
-0.49176254868507385
 22
0.3699731230735779
 32
0.018749121576547623
 13
-0.49176254868507385
 23
0.3699731230735779
 33
0.018749121576547623
  0
3DFACE
  8
0
 10
-0.49176254868507385
 20
0.3699731230735779
 30
0.018749121576547623
 11
-0.492023766040802
 21
0.44635850191116333
 31
0.018749121576547623
 12
-0.492023766040802
 22
0.44635850191116333
 32
0.8816865086555481
 13
-0.492023766040802
 23
0.44635850191116333
 33
0.8816865086555481
  0
3DFACE
  8
0
 10
-0.6023923754692078
 20
0.3702485263347626
 30
1.7446238994598389
 11
-0.6025732159614563
 21
0.4231559932231903
 31
1.7446238994598389
 12
-0.6026536226272583
 22
0.4466339647769928
 32
1.6871525049209595
 13
-0.6026536226272583
 23
0.4466339647769928
 33
1.6871525049209595
  0
3DFACE
  8
0
 10
0.48935624957084656
 20
0.36753034591674805
 30
1.7446238994598389
 11
0.5999859571456909
 21
0.36725491285324097
 31
1.7446238994598389
 12
0.5998050570487976
 22
0.4201623201370239
 32
1.7446238994598389
 13
0.5998050570487976
 23
0.4201623201370239
 33
1.7446238994598389
  0
3DFACE
  8
0
 10
-0.49194350838661194
 20
0.4228805601596832
 30
1.7446238994598389
 11
-0.6025732159614563
 21
0.4231559932231903
 31
1.7446238994598389
 12
-0.6023923754692078
 22
0.3702485263347626
 32
1.7446238994598389
 13
-0.6023923754692078
 23
0.3702485263347626
 33
1.7446238994598389
  0
3DFACE
  8
0
 10
-0.49194350838661194
 20
0.4228805601596832
 30
1.6933703422546387
 11
-0.49194350838661194
 21
0.4228805601596832
 31
1.1977453231811523
 12
-0.49176254868507385
 22
0.3699731230735779
 32
1.1977453231811523
 13
-0.49176254868507385
 23
0.3699731230735779
 33
1.1977453231811523
  0
3DFACE
  8
0
 10
0.48935624957084656
 20
0.36753034591674805
 30
1.1977453231811523
 11
0.48917531967163086
 21
0.4204378128051758
 31
1.1977453231811523
 12
0.48917531967163086
 22
0.4204378128051758
 32
1.6933703422546387
 13
0.48917531967163086
 23
0.4204378128051758
 33
1.6933703422546387
  0
3DFACE
  8
0
 10
-0.49176254868507385
 20
0.3699731230735779
 30
1.6933703422546387
 11
0.48935624957084656
 21
0.36753034591674805
 31
1.6933703422546387
 12
0.48917531967163086
 22
0.4204378128051758
 32
1.6933703422546387
 13
0.48917531967163086
 23
0.4204378128051758
 33
1.6933703422546387
  0
3DFACE
  8
0
 10
0.48917531967163086
 20
0.4204378128051758
 30
1.1977453231811523
 11
0.48935624957084656
 21
0.36753034591674805
 31
1.1977453231811523
 12
-0.49176254868507385
 22
0.3699731230735779
 32
1.1977453231811523
 13
-0.49176254868507385
 23
0.3699731230735779
 33
1.1977453231811523
  0
3DFACE
  8
0
 10
0.48917531967163086
 20
0.4204378128051758
 30
1.1977453231811523
 11
-0.49194350838661194
 21
0.4228805601596832
 31
1.1977453231811523
 12
-0.49194350838661194
 22
0.4228805601596832
 32
1.6933703422546387
 13
-0.49194350838661194
 23
0.4228805601596832
 33
1.6933703422546387
  0
3DFACE
  8
0
 10
0.39974066615104675
 20
0.36775344610214233
 30
1.2682342529296875
 11
0.48935624957084656
 21
0.36753034591674805
 31
1.1977453231811523
 12
0.48935624957084656
 22
0.36753034591674805
 32
1.6933703422546387
 13
0.48935624957084656
 23
0.36753034591674805
 33
1.6933703422546387
  0
3DFACE
  8
0
 10
-0.35755079984664917
 20
0.3525521457195282
 30
1.6031838655471802
 11
0.3552614152431488
 21
0.35077741742134094
 31
1.6031838655471802
 12
0.39974066615104675
 22
0.36775344610214233
 32
1.622881531715393
 13
0.39974066615104675
 23
0.36775344610214233
 33
1.622881531715393
  0
3DFACE
  8
0
 10
-0.40214693546295166
 20
0.3697499632835388
 30
1.2682342529296875
 11
-0.49176254868507385
 21
0.3699731230735779
 31
1.1977453231811523
 12
0.48935624957084656
 22
0.36753034591674805
 32
1.1977453231811523
 13
0.48935624957084656
 23
0.36753034591674805
 33
1.1977453231811523
  0
3DFACE
  8
0
 10
0.39974066615104675
 20
0.36775344610214233
 30
1.622881531715393
 11
0.48935624957084656
 21
0.36753034591674805
 31
1.6933703422546387
 12
-0.49176254868507385
 22
0.3699731230735779
 32
1.6933703422546387
 13
-0.49176254868507385
 23
0.3699731230735779
 33
1.6933703422546387
  0
3DFACE
  8
0
 10
-0.49176254868507385
 20
0.3699731230735779
 30
1.6933703422546387
 11
-0.49176254868507385
 21
0.3699731230735779
 31
1.1977453231811523
 12
-0.40214693546295166
 22
0.3697499632835388
 32
1.2682342529296875
 13
-0.40214693546295166
 23
0.3697499632835388
 33
1.2682342529296875
  0
3DFACE
  8
0
 10
-0.35755079984664917
 20
0.3525521457195282
 30
1.2879317998886108
 11
0.3552614152431488
 21
0.35077741742134094
 31
1.2879317998886108
 12
0.3552614152431488
 22
0.35077741742134094
 32
1.6031838655471802
 13
0.3552614152431488
 23
0.35077741742134094
 33
1.6031838655471802
  0
3DFACE
  8
0
 10
-0.35755079984664917
 20
0.3525521457195282
 30
1.2879317998886108
 11
-0.40214693546295166
 21
0.3697499632835388
 31
1.2682342529296875
 12
0.39974066615104675
 22
0.36775344610214233
 32
1.2682342529296875
 13
0.39974066615104675
 23
0.36775344610214233
 33
1.2682342529296875
  0
3DFACE
  8
0
 10
-0.40214693546295166
 20
0.3697499632835388
 30
1.2682342529296875
 11
-0.35755079984664917
 21
0.3525521457195282
 31
1.2879317998886108
 12
-0.35755079984664917
 22
0.3525521457195282
 32
1.6031838655471802
 13
-0.35755079984664917
 23
0.3525521457195282
 33
1.6031838655471802
  0
3DFACE
  8
0
 10
0.3552614152431488
 20
0.35077741742134094
 30
1.6031838655471802
 11
0.3552614152431488
 21
0.35077741742134094
 31
1.2879317998886108
 12
0.39974066615104675
 22
0.36775344610214233
 32
1.2682342529296875
 13
0.39974066615104675
 23
0.36775344610214233
 33
1.2682342529296875
  0
3DFACE
  8
0
 10
0.4900892376899719
 20
-0.6902634501457214
 30
1.0496617555618286
 11
0.4900892376899719
 21
-0.6902634501457214
 31
0.7534870505332947
 12
0.6007189154624939
 22
-0.6905389428138733
 32
0.7534871101379395
 13
0.6007189154624939
 23
-0.6905389428138733
 33
0.7534871101379395
  0
3DFACE
  8
0
 10
0.6004294157028198
 20
-0.6058918237686157
 30
0.7432411313056946
 11
0.4897996783256531
 21
-0.6056162714958191
 31
0.7432410717010498
 12
0.4897996783256531
 22
-0.6056162714958191
 32
1.0847973823547363
 13
0.4897996783256531
 23
-0.6056162714958191
 33
1.0847973823547363
  0
3DFACE
  8
0
 10
0.4897996783256531
 20
-0.6056162714958191
 30
0.7432410717010498
 11
0.4900892376899719
 21
-0.6902634501457214
 31
0.7534870505332947
 12
0.4900892376899719
 22
-0.6902634501457214
 32
1.0496617555618286
 13
0.4900892376899719
 23
-0.6902634501457214
 33
1.0496617555618286
  0
3DFACE
  8
0
 10
0.6004294157028198
 20
-0.6058918237686157
 30
0.7432411313056946
 11
0.6007189154624939
 21
-0.6905389428138733
 31
0.7534871101379395
 12
0.600640594959259
 22
-0.6676373481750488
 32
0.018749121576547623
 13
0.600640594959259
 23
-0.6676373481750488
 33
0.018749121576547623
  0
3DFACE
  8
0
 10
-0.60165935754776
 20
-0.6875452995300293
 30
0.7534871101379395
 11
-0.49102964997291565
 21
-0.6878207325935364
 31
0.7534870505332947
 12
-0.49102964997291565
 22
-0.6878207325935364
 32
1.0496617555618286
 13
-0.49102964997291565
 23
-0.6878207325935364
 33
1.0496617555618286
  0
3DFACE
  8
0
 10
-0.49131911993026733
 20
-0.6031736731529236
 30
1.0847973823547363
 11
-0.49131911993026733
 21
-0.6031736731529236
 31
0.7432410717010498
 12
-0.6019489765167236
 22
-0.602898120880127
 32
0.7432411313056946
 13
-0.6019489765167236
 23
-0.602898120880127
 33
0.7432411313056946
  0
3DFACE
  8
0
 10
-0.49102964997291565
 20
-0.6878207325935364
 30
1.0496617555618286
 11
-0.49102964997291565
 21
-0.6878207325935364
 31
0.7534870505332947
 12
-0.49131911993026733
 22
-0.6031736731529236
 32
0.7432410717010498
 13
-0.49131911993026733
 23
-0.6031736731529236
 33
0.7432410717010498
  0
3DFACE
  8
0
 10
-0.6017377376556396
 20
-0.6646437644958496
 30
0.018749121576547623
 11
-0.60165935754776
 21
-0.6875452995300293
 31
0.7534871101379395
 12
-0.6019489765167236
 22
-0.602898120880127
 32
0.7432411313056946
 13
-0.6019489765167236
 23
-0.602898120880127
 33
0.7432411313056946
  0
3DFACE
  8
0
 10
0.6004294157028198
 20
-0.6058918237686157
 30
0.7432411313056946
 11
0.6004294157028198
 21
-0.6058918237686157
 31
1.0847973823547363
 12
0.6007189154624939
 22
-0.6905389428138733
 32
1.0496618747711182
 13
0.6007189154624939
 23
-0.6905389428138733
 33
1.0496618747711182
  0
3DFACE
  8
0
 10
-0.6019489765167236
 20
-0.602898120880127
 30
0.7432411313056946
 11
-0.60165935754776
 21
-0.6875452995300293
 31
0.7534871101379395
 12
-0.60165935754776
 22
-0.6875452995300293
 32
1.0496618747711182
 13
-0.60165935754776
 23
-0.6875452995300293
 33
1.0496618747711182
  0
3DFACE
  8
0
 10
0.6006103754043579
 20
-0.6587992310523987
 30
1.2034480571746826
 11
0.48998066782951355
 21
-0.6585239171981812
 31
1.2034480571746826
 12
0.4900892376899719
 22
-0.6902634501457214
 32
1.0496617555618286
 13
0.4900892376899719
 23
-0.6902634501457214
 33
1.0496617555618286
  0
3DFACE
  8
0
 10
0.6004294157028198
 20
-0.6058918237686157
 30
1.0847973823547363
 11
0.4897996783256531
 21
-0.6056162714958191
 31
1.0847973823547363
 12
0.4897996783256531
 22
-0.6056162714958191
 32
1.2034480571746826
 13
0.4897996783256531
 23
-0.6056162714958191
 33
1.2034480571746826
  0
3DFACE
  8
0
 10
0.4897996783256531
 20
-0.6056162714958191
 30
1.0847973823547363
 11
0.4900892376899719
 21
-0.6902634501457214
 31
1.0496617555618286
 12
0.48998066782951355
 22
-0.6585239171981812
 32
1.2034480571746826
 13
0.48998066782951355
 23
-0.6585239171981812
 33
1.2034480571746826
  0
3DFACE
  8
0
 10
-0.60165935754776
 20
-0.6875452995300293
 30
1.0496618747711182
 11
-0.49102964997291565
 21
-0.6878207325935364
 31
1.0496617555618286
 12
-0.491138219833374
 22
-0.6560810804367065
 32
1.2034480571746826
 13
-0.491138219833374
 23
-0.6560810804367065
 33
1.2034480571746826
  0
3DFACE
  8
0
 10
-0.49131911993026733
 20
-0.6031736731529236
 30
1.2034480571746826
 11
-0.49131911993026733
 21
-0.6031736731529236
 31
1.0847973823547363
 12
-0.6019489765167236
 22
-0.602898120880127
 32
1.0847973823547363
 13
-0.6019489765167236
 23
-0.602898120880127
 33
1.0847973823547363
  0
3DFACE
  8
0
 10
-0.491138219833374
 20
-0.6560810804367065
 30
1.2034480571746826
 11
-0.49102964997291565
 21
-0.6878207325935364
 31
1.0496617555618286
 12
-0.49131911993026733
 22
-0.6031736731529236
 32
1.0847973823547363
 13
-0.49131911993026733
 23
-0.6031736731529236
 33
1.0847973823547363
  0
3DFACE
  8
0
 10
0.5997247099876404
 20
0.4436403214931488
 30
0.8816865086555481
 11
0.4890950322151184
 21
0.44391581416130066
 31
0.8816865086555481
 12
0.4890950322151184
 22
0.44391581416130066
 32
1.0385428667068481
 13
0.4890950322151184
 23
0.44391581416130066
 33
1.0385428667068481
  0
3DFACE
  8
0
 10
0.4894576370716095
 20
0.3378792703151703
 30
1.0385428667068481
 11
0.48942166566848755
 21
0.3483930230140686
 31
0.8816865086555481
 12
0.6000514626502991
 22
0.34811753034591675
 32
0.8816865086555481
 13
0.6000514626502991
 23
0.34811753034591675
 33
0.8816865086555481
  0
3DFACE
  8
0
 10
0.4890950322151184
 20
0.44391581416130066
 30
1.0385428667068481
 11
0.4890950322151184
 21
0.44391581416130066
 31
0.8816865086555481
 12
0.48942166566848755
 22
0.3483930230140686
 32
0.8816865086555481
 13
0.48942166566848755
 23
0.3483930230140686
 33
0.8816865086555481
  0
3DFACE
  8
0
 10
0.5999859571456909
 20
0.36725491285324097
 30
0.018749121576547623
 11
0.5997247099876404
 21
0.4436403214931488
 31
0.018749121576547623
 12
0.5997247099876404
 22
0.4436403214931488
 32
0.8816865086555481
 13
0.5997247099876404
 23
0.4436403214931488
 33
0.8816865086555481
  0
3DFACE
  8
0
 10
-0.492023766040802
 20
0.44635850191116333
 30
1.0385428667068481
 11
-0.492023766040802
 21
0.44635850191116333
 31
0.8816865086555481
 12
-0.6026536226272583
 22
0.4466339647769928
 32
0.8816865086555481
 13
-0.6026536226272583
 23
0.4466339647769928
 33
0.8816865086555481
  0
3DFACE
  8
0
 10
-0.6022908091545105
 20
0.3405974805355072
 30
1.0385428667068481
 11
-0.6023269295692444
 21
0.35111120343208313
 31
0.8816865086555481
 12
-0.4916971027851105
 22
0.35083580017089844
 32
0.8816865086555481
 13
-0.4916971027851105
 23
0.35083580017089844
 33
0.8816865086555481
  0
3DFACE
  8
0
 10
-0.4916971027851105
 20
0.35083580017089844
 30
0.8816865086555481
 11
-0.492023766040802
 21
0.44635850191116333
 31
0.8816865086555481
 12
-0.492023766040802
 22
0.44635850191116333
 32
1.0385428667068481
 13
-0.492023766040802
 23
0.44635850191116333
 33
1.0385428667068481
  0
3DFACE
  8
0
 10
-0.6023923754692078
 20
0.3702485263347626
 30
0.018749121576547623
 11
-0.6023269295692444
 21
0.35111120343208313
 31
0.8816865086555481
 12
-0.6026536226272583
 22
0.4466339647769928
 32
0.8816865086555481
 13
-0.6026536226272583
 23
0.4466339647769928
 33
0.8816865086555481
  0
3DFACE
  8
0
 10
0.5997247099876404
 20
0.4436403214931488
 30
1.0385428667068481
 11
0.5997247099876404
 21
0.4436403214931488
 31
1.6871525049209595
 12
0.6000875234603882
 22
0.3376038074493408
 32
1.6871525049209595
 13
0.6000875234603882
 23
0.3376038074493408
 33
1.6871525049209595
  0
3DFACE
  8
0
 10
-0.6022908091545105
 20
0.3405974805355072
 30
1.6871525049209595
 11
-0.6026536226272583
 21
0.4466339647769928
 31
1.6871525049209595
 12
-0.6026536226272583
 22
0.4466339647769928
 32
1.0385428667068481
 13
-0.6026536226272583
 23
0.4466339647769928
 33
1.0385428667068481
  0
3DFACE
  8
0
 10
0.5997247099876404
 20
0.4436403214931488
 30
1.6871525049209595
 11
0.4890950322151184
 21
0.44391581416130066
 31
1.6871525049209595
 12
0.48917531967163086
 22
0.4204378128051758
 32
1.7446238994598389
 13
0.48917531967163086
 23
0.4204378128051758
 33
1.7446238994598389
  0
3DFACE
  8
0
 10
0.5999859571456909
 20
0.36725491285324097
 30
1.7446238994598389
 11
0.48935624957084656
 21
0.36753034591674805
 31
1.7446238994598389
 12
0.4894576370716095
 22
0.3378792703151703
 32
1.6871525049209595
 13
0.4894576370716095
 23
0.3378792703151703
 33
1.6871525049209595
  0
3DFACE
  8
0
 10
0.48935624957084656
 20
0.36753034591674805
 30
1.7446238994598389
 11
0.48917531967163086
 21
0.4204378128051758
 31
1.7446238994598389
 12
0.4890950322151184
 22
0.44391581416130066
 32
1.6871525049209595
 13
0.4890950322151184
 23
0.44391581416130066
 33
1.6871525049209595
  0
3DFACE
  8
0
 10
-0.6025732159614563
 20
0.4231559932231903
 30
1.7446238994598389
 11
-0.49194350838661194
 21
0.4228805601596832
 31
1.7446238994598389
 12
-0.492023766040802
 22
0.44635850191116333
 32
1.6871525049209595
 13
-0.492023766040802
 23
0.44635850191116333
 33
1.6871525049209595
  0
3DFACE
  8
0
 10
-0.6022908091545105
 20
0.3405974805355072
 30
1.6871525049209595
 11
-0.4916611313819885
 21
0.34032198786735535
 31
1.6871525049209595
 12
-0.49176254868507385
 22
0.3699731230735779
 32
1.7446238994598389
 13
-0.49176254868507385
 23
0.3699731230735779
 33
1.7446238994598389
  0
3DFACE
  8
0
 10
-0.49176254868507385
 20
0.3699731230735779
 30
1.7446238994598389
 11
-0.4916611313819885
 21
0.34032198786735535
 31
1.6871525049209595
 12
-0.492023766040802
 22
0.44635850191116333
 32
1.6871525049209595
 13
-0.492023766040802
 23
0.44635850191116333
 33
1.6871525049209595
  0
3DFACE
  8
0
 10
0.5997247099876404
 20
0.4436403214931488
 30
1.0385428667068481
 11
0.4890950322151184
 21
0.44391581416130066
 31
1.0385428667068481
 12
0.4890950322151184
 22
0.44391581416130066
 32
1.6871525049209595
 13
0.4890950322151184
 23
0.44391581416130066
 33
1.6871525049209595
  0
3DFACE
  8
0
 10
0.4894576370716095
 20
0.3378792703151703
 30
1.6871525049209595
 11
0.4894576370716095
 21
0.3378792703151703
 31
1.0385428667068481
 12
0.6000875234603882
 22
0.3376038074493408
 32
1.0385428667068481
 13
0.6000875234603882
 23
0.3376038074493408
 33
1.0385428667068481
  0
3DFACE
  8
0
 10
0.4890950322151184
 20
0.44391581416130066
 30
1.6871525049209595
 11
0.4890950322151184
 21
0.44391581416130066
 31
1.0385428667068481
 12
0.4894576370716095
 22
0.3378792703151703
 32
1.0385428667068481
 13
0.4894576370716095
 23
0.3378792703151703
 33
1.0385428667068481
  0
3DFACE
  8
0
 10
-0.492023766040802
 20
0.44635850191116333
 30
1.6871525049209595
 11
-0.492023766040802
 21
0.44635850191116333
 31
1.0385428667068481
 12
-0.6026536226272583
 22
0.4466339647769928
 32
1.0385428667068481
 13
-0.6026536226272583
 23
0.4466339647769928
 33
1.0385428667068481
  0
3DFACE
  8
0
 10
-0.6022908091545105
 20
0.3405974805355072
 30
1.0385428667068481
 11
-0.4916611313819885
 21
0.34032198786735535
 31
1.0385428667068481
 12
-0.4916611313819885
 22
0.34032198786735535
 32
1.6871525049209595
 13
-0.4916611313819885
 23
0.34032198786735535
 33
1.6871525049209595
  0
3DFACE
  8
0
 10
-0.4916611313819885
 20
0.34032198786735535
 30
1.0385428667068481
 11
-0.492023766040802
 21
0.44635850191116333
 31
1.0385428667068481
 12
-0.492023766040802
 22
0.44635850191116333
 32
1.6871525049209595
 13
-0.492023766040802
 23
0.44635850191116333
 33
1.6871525049209595
  0
3DFACE
  8
0
 10
0.6000514626502991
 20
0.34811753034591675
 30
0.8816865086555481
 11
0.5997247099876404
 21
0.4436403214931488
 31
0.8816865086555481
 12
0.5997247099876404
 22
0.4436403214931488
 32
1.0385428667068481
 13
0.5997247099876404
 23
0.4436403214931488
 33
1.0385428667068481
  0
3DFACE
  8
0
 10
-0.6023269295692444
 20
0.35111120343208313
 30
0.8816865086555481
 11
-0.6022908091545105
 21
0.3405974805355072
 31
1.0385428667068481
 12
-0.6026536226272583
 22
0.4466339647769928
 32
1.0385428667068481
 13
-0.6026536226272583
 23
0.4466339647769928
 33
1.0385428667068481
  0
3DFACE
  8
0
 10
-0.5319423675537109
 20
-0.6397947669029236
 30
0.8502393364906311
 11
-0.5319423675537109
 21
-0.6397947669029236
 31
0.7433340549468994
 12
0.5276128649711609
 22
-0.6424328684806824
 32
0.7433340549468994
 13
0.5276128649711609
 23
-0.6424328684806824
 33
0.7433340549468994
  0
3DFACE
  8
0
 10
-0.5325771570205688
 20
0.38929757475852966
 30
0.8502393364906311
 11
-0.5325771570205688
 21
0.38929757475852966
 31
0.7433340549468994
 12
-0.5319423675537109
 22
-0.6397947669029236
 32
0.7433340549468994
 13
-0.5319423675537109
 23
-0.6397947669029236
 33
0.7433340549468994
  0
3DFACE
  8
0
 10
0.526978075504303
 20
0.38665953278541565
 30
0.8502393364906311
 11
0.526978075504303
 21
0.38665953278541565
 31
0.7433340549468994
 12
-0.5325771570205688
 22
0.38929757475852966
 32
0.7433340549468994
 13
-0.5325771570205688
 23
0.38929757475852966
 33
0.7433340549468994
  0
3DFACE
  8
0
 10
0.5276128649711609
 20
-0.6424328684806824
 30
0.8502393364906311
 11
0.5276128649711609
 21
-0.6424328684806824
 31
0.7433340549468994
 12
0.526978075504303
 22
0.38665953278541565
 32
0.7433340549468994
 13
0.526978075504303
 23
0.38665953278541565
 33
0.7433340549468994
  0
3DFACE
  8
0
 10
-0.5319423675537109
 20
-0.6397947669029236
 30
0.7433340549468994
 11
-0.5325771570205688
 21
0.38929757475852966
 31
0.7433340549468994
 12
0.526978075504303
 22
0.38665953278541565
 32
0.7433340549468994
 13
0.526978075504303
 23
0.38665953278541565
 33
0.7433340549468994
  0
3DFACE
  8
0
 10
0.46029025316238403
 20
0.3180435597896576
 30
0.8502393364906311
 11
0.46102142333984375
 21
-0.5848792195320129
 31
0.8502393364906311
 12
0.5276128649711609
 22
-0.6424328684806824
 32
0.8502393364906311
 13
0.5276128649711609
 23
-0.6424328684806824
 33
0.8502393364906311
  0
3DFACE
  8
0
 10
-0.38034361600875854
 20
0.2896757125854492
 30
0.886638343334198
 11
0.39707329869270325
 21
0.26445144414901733
 31
0.886638343334198
 12
0.46029025316238403
 22
0.3180435597896576
 32
0.8502393364906311
 13
0.46029025316238403
 23
0.3180435597896576
 33
0.8502393364906311
  0
3DFACE
  8
0
 10
-0.4602104425430298
 20
0.3305031955242157
 30
0.8502393364906311
 11
0.46029025316238403
 21
0.3180435597896576
 31
0.8502393364906311
 12
0.526978075504303
 22
0.38665953278541565
 32
0.8502393364906311
 13
0.526978075504303
 23
0.38665953278541565
 33
0.8502393364906311
  0
3DFACE
  8
0
 10
0.46102142333984375
 20
-0.5848792195320129
 30
0.8502393364906311
 11
-0.4709867238998413
 21
-0.5825585722923279
 31
0.8502393364906311
 12
-0.5319423675537109
 22
-0.6397947669029236
 32
0.8502393364906311
 13
-0.5319423675537109
 23
-0.6397947669029236
 33
0.8502393364906311
  0
3DFACE
  8
0
 10
-0.4602104425430298
 20
0.3305031955242157
 30
0.8502393364906311
 11
-0.5325771570205688
 21
0.38929757475852966
 31
0.8502393364906311
 12
-0.5319423675537109
 22
-0.6397947669029236
 32
0.8502393364906311
 13
-0.5319423675537109
 23
-0.6397947669029236
 33
0.8502393364906311
  0
3DFACE
  8
0
 10
-0.38034361600875854
 20
0.2896757125854492
 30
0.886638343334198
 11
-0.4077472984790802
 21
-0.5355271100997925
 31
0.886638343334198
 12
0.3811320662498474
 22
-0.5374913215637207
 32
0.886638343334198
 13
0.3811320662498474
 23
-0.5374913215637207
 33
0.886638343334198
  0
3DFACE
  8
0
 10
0.39707329869270325
 20
0.26445144414901733
 30
0.886638343334198
 11
0.3811320662498474
 21
-0.5374913215637207
 31
0.886638343334198
 12
0.46102142333984375
 22
-0.5848792195320129
 32
0.8502393364906311
 13
0.46102142333984375
 23
-0.5848792195320129
 33
0.8502393364906311
  0
3DFACE
  8
0
 10
0.3811320662498474
 20
-0.5374913215637207
 30
0.886638343334198
 11
-0.4077472984790802
 21
-0.5355271100997925
 31
0.886638343334198
 12
-0.4709867238998413
 22
-0.5825585722923279
 32
0.8502393364906311
 13
-0.4709867238998413
 23
-0.5825585722923279
 33
0.8502393364906311
  0
3DFACE
  8
0
 10
-0.4077472984790802
 20
-0.5355271100997925
 30
0.886638343334198
 11
-0.38034361600875854
 21
0.2896757125854492
 31
0.886638343334198
 12
-0.4602104425430298
 22
0.3305031955242157
 32
0.8502393364906311
 13
-0.4602104425430298
 23
0.3305031955242157
 33
0.8502393364906311
  0
3DFACE
  8
0
 10
0.5820329189300537
 20
-0.6180688142776489
 30
-7.067592378007248e-08
 11
0.582168459892273
 21
-0.6576870083808899
 31
-7.067592378007248e-08
 12
0.5084152221679688
 22
-0.6575034260749817
 32
-7.067592378007248e-08
 13
0.5084152221679688
 23
-0.6575034260749817
 33
-7.067592378007248e-08
  0
3DFACE
  8
0
 10
0.507750928401947
 20
0.3802153468132019
 30
-7.067592378007248e-08
 11
0.5075767636299133
 21
0.4311389625072479
 31
-7.067592378007248e-08
 12
0.5813299417495728
 22
0.43095529079437256
 32
-7.067592378007248e-08
 13
0.5813299417495728
 23
0.43095529079437256
 33
-7.067592378007248e-08
  0
3DFACE
  8
0
 10
-0.5097156167030334
 20
-0.6153506636619568
 30
-7.067592378007248e-08
 11
-0.509580135345459
 21
-0.6549687385559082
 31
-7.067592378007248e-08
 12
-0.5833331942558289
 22
-0.6547850966453552
 32
-7.067592378007248e-08
 13
-0.5833331942558289
 23
-0.6547850966453552
 33
-7.067592378007248e-08
  0
3DFACE
  8
0
 10
-0.5839975476264954
 20
0.3829335868358612
 30
-7.067592378007248e-08
 11
-0.584171712398529
 21
0.43385711312294006
 31
-7.067592378007248e-08
 12
-0.5104185938835144
 22
0.4336735010147095
 32
-7.067592378007248e-08
 13
-0.5104185938835144
 23
0.4336735010147095
 33
-7.067592378007248e-08
  0
3DFACE
  8
0
 10
-0.492023766040802
 20
0.44635850191116333
 30
0.018749121576547623
 11
-0.49176254868507385
 21
0.3699731230735779
 31
0.018749121576547623
 12
-0.5102443695068359
 22
0.3827499449253082
 32
-7.067592378007248e-08
 13
-0.5102443695068359
 23
0.3827499449253082
 33
-7.067592378007248e-08
  0
3DFACE
  8
0
 10
-0.509580135345459
 20
-0.6549687385559082
 30
-7.067592378007248e-08
 11
-0.5097156167030334
 21
-0.6153506636619568
 31
-7.067592378007248e-08
 12
-0.4913111627101898
 22
-0.6054920554161072
 32
0.018749121576547623
 13
-0.4913111627101898
 23
-0.6054920554161072
 33
0.018749121576547623
  0
3DFACE
  8
0
 10
0.5075767636299133
 20
0.4311389625072479
 30
-7.067592378007248e-08
 11
0.507750928401947
 21
0.3802153468132019
 31
-7.067592378007248e-08
 12
0.48935624957084656
 22
0.36753034591674805
 32
0.018749121576547623
 13
0.48935624957084656
 23
0.36753034591674805
 33
0.018749121576547623
  0
3DFACE
  8
0
 10
-0.6023923754692078
 20
0.3702485263347626
 30
0.018749121576547623
 11
-0.6026536226272583
 21
0.4466339647769928
 31
0.018749121576547623
 12
-0.584171712398529
 22
0.43385711312294006
 32
-7.067592378007248e-08
 13
-0.584171712398529
 23
0.43385711312294006
 33
-7.067592378007248e-08
  0
3DFACE
  8
0
 10
0.4900107979774475
 20
-0.6673619151115417
 30
0.018749121576547623
 11
0.4898075759410858
 21
-0.607934832572937
 31
0.018749121576547623
 12
0.5082797408103943
 22
-0.6178853511810303
 32
-7.067592378007248e-08
 13
0.5082797408103943
 23
-0.6178853511810303
 33
-7.067592378007248e-08
  0
3DFACE
  8
0
 10
-0.5834687352180481
 20
-0.6151670217514038
 30
-7.067592378007248e-08
 11
-0.5833331942558289
 21
-0.6547850966453552
 31
-7.067592378007248e-08
 12
-0.6017377376556396
 22
-0.6646437644958496
 32
0.018749121576547623
 13
-0.6017377376556396
 23
-0.6646437644958496
 33
0.018749121576547623
  0
3DFACE
  8
0
 10
0.5815041661262512
 20
0.3800317049026489
 30
-7.067592378007248e-08
 11
0.5813299417495728
 21
0.43095529079437256
 31
-7.067592378007248e-08
 12
0.5997247099876404
 22
0.4436403214931488
 32
0.018749121576547623
 13
0.5997247099876404
 23
0.4436403214931488
 33
0.018749121576547623
  0
3DFACE
  8
0
 10
0.6004374027252197
 20
-0.6082102060317993
 30
0.018749121576547623
 11
0.600640594959259
 21
-0.6676373481750488
 31
0.018749121576547623
 12
0.582168459892273
 22
-0.6576870083808899
 32
-7.067592378007248e-08
 13
0.582168459892273
 23
-0.6576870083808899
 33
-7.067592378007248e-08
  0
3DFACE
  8
0
 10
-0.6023923754692078
 20
0.3702485263347626
 30
0.018749121576547623
 11
-0.5839975476264954
 21
0.3829335868358612
 31
-7.067592378007248e-08
 12
-0.5102443695068359
 22
0.3827499449253082
 32
-7.067592378007248e-08
 13
-0.5102443695068359
 23
0.3827499449253082
 33
-7.067592378007248e-08
  0
3DFACE
  8
0
 10
-0.5834687352180481
 20
-0.6151670217514038
 30
-7.067592378007248e-08
 11
-0.601940929889679
 21
-0.6052166223526001
 31
0.018749121576547623
 12
-0.4913111627101898
 22
-0.6054920554161072
 32
0.018749121576547623
 13
-0.4913111627101898
 23
-0.6054920554161072
 33
0.018749121576547623
  0
3DFACE
  8
0
 10
0.5815041661262512
 20
0.3800317049026489
 30
-7.067592378007248e-08
 11
0.5999859571456909
 21
0.36725491285324097
 31
0.018749121576547623
 12
0.48935624957084656
 22
0.36753034591674805
 32
0.018749121576547623
 13
0.48935624957084656
 23
0.36753034591674805
 33
0.018749121576547623
  0
3DFACE
  8
0
 10
0.6004374027252197
 20
-0.6082102060317993
 30
0.018749121576547623
 11
0.5820329189300537
 21
-0.6180688142776489
 31
-7.067592378007248e-08
 12
0.5082797408103943
 22
-0.6178853511810303
 32
-7.067592378007248e-08
 13
0.5082797408103943
 23
-0.6178853511810303
 33
-7.067592378007248e-08
  0
3DFACE
  8
0
 10
0.34665369987487793
 20
0.4153042137622833
 30
1.1977453231811523
 11
0.34665369987487793
 21
0.4153042137622833
 31
0.8553483486175537
 12
0.3467971086502075
 22
0.3733736574649811
 32
1.1977453231811523
 13
0.3467971086502075
 23
0.3733736574649811
 33
1.1977453231811523
  0
3DFACE
  8
0
 10
0.4271012842655182
 20
0.415103942155838
 30
1.1977453231811523
 11
0.42724472284317017
 21
0.37317338585853577
 31
1.1977453231811523
 12
0.4271012842655182
 22
0.415103942155838
 32
0.8553483486175537
 13
0.4271012842655182
 23
0.415103942155838
 33
0.8553483486175537
  0
3DFACE
  8
0
 10
0.42724472284317017
 20
0.37317338585853577
 30
1.1977453231811523
 11
0.3467971086502075
 21
0.3733736574649811
 31
1.1977453231811523
 12
0.42724472284317017
 22
0.37317338585853577
 32
0.7935076951980591
 13
0.42724472284317017
 23
0.37317338585853577
 33
0.7935076951980591
  0
3DFACE
  8
0
 10
0.34665369987487793
 20
0.4153042137622833
 30
1.1977453231811523
 11
0.4271012842655182
 21
0.415103942155838
 31
1.1977453231811523
 12
0.34665369987487793
 22
0.4153042137622833
 32
0.8553483486175537
 13
0.34665369987487793
 23
0.4153042137622833
 33
0.8553483486175537
  0
3DFACE
  8
0
 10
0.34665369987487793
 20
0.4153042137622833
 30
0.8553483486175537
 11
0.4271012842655182
 21
0.415103942155838
 31
0.8553483486175537
 12
0.3467971086502075
 22
0.3733736574649811
 32
0.7935076951980591
 13
0.3467971086502075
 23
0.3733736574649811
 33
0.7935076951980591
  0
3DFACE
  8
0
 10
0.19380326569080353
 20
0.4156847298145294
 30
1.1977453231811523
 11
0.19380326569080353
 21
0.4156847298145294
 31
0.8553483486175537
 12
0.19394664466381073
 22
0.37375426292419434
 32
1.1977453231811523
 13
0.19394664466381073
 23
0.37375426292419434
 33
1.1977453231811523
  0
3DFACE
  8
0
 10
0.274250864982605
 20
0.4154844582080841
 30
1.1977453231811523
 11
0.2743942439556122
 21
0.37355396151542664
 31
1.1977453231811523
 12
0.274250864982605
 22
0.4154844582080841
 32
0.8553483486175537
 13
0.274250864982605
 23
0.4154844582080841
 33
0.8553483486175537
  0
3DFACE
  8
0
 10
0.2743942439556122
 20
0.37355396151542664
 30
1.1977453231811523
 11
0.19394664466381073
 21
0.37375426292419434
 31
1.1977453231811523
 12
0.2743942439556122
 22
0.37355396151542664
 32
0.7935076951980591
 13
0.2743942439556122
 23
0.37355396151542664
 33
0.7935076951980591
  0
3DFACE
  8
0
 10
0.19380326569080353
 20
0.4156847298145294
 30
1.1977453231811523
 11
0.274250864982605
 21
0.4154844582080841
 31
1.1977453231811523
 12
0.19380326569080353
 22
0.4156847298145294
 32
0.8553483486175537
 13
0.19380326569080353
 23
0.4156847298145294
 33
0.8553483486175537
  0
3DFACE
  8
0
 10
0.19380326569080353
 20
0.4156847298145294
 30
0.8553483486175537
 11
0.274250864982605
 21
0.4154844582080841
 31
0.8553483486175537
 12
0.19394664466381073
 22
0.37375426292419434
 32
0.7935076951980591
 13
0.19394664466381073
 23
0.37375426292419434
 33
0.7935076951980591
  0
3DFACE
  8
0
 10
0.040952831506729126
 20
0.4160653054714203
 30
1.1977453231811523
 11
0.040952831506729126
 21
0.4160653054714203
 31
0.8553483486175537
 12
0.041096240282058716
 22
0.3741348087787628
 32
1.1977453231811523
 13
0.041096240282058716
 23
0.3741348087787628
 33
1.1977453231811523
  0
3DFACE
  8
0
 10
0.12140043079853058
 20
0.415865033864975
 30
1.1977453231811523
 11
0.12154382467269897
 21
0.3739345073699951
 31
1.1977453231811523
 12
0.12140043079853058
 22
0.415865033864975
 32
0.8553483486175537
 13
0.12140043079853058
 23
0.415865033864975
 33
0.8553483486175537
  0
3DFACE
  8
0
 10
0.12154382467269897
 20
0.3739345073699951
 30
1.1977453231811523
 11
0.041096240282058716
 21
0.3741348087787628
 31
1.1977453231811523
 12
0.12154382467269897
 22
0.3739345073699951
 32
0.7935076951980591
 13
0.12154382467269897
 23
0.3739345073699951
 33
0.7935076951980591
  0
3DFACE
  8
0
 10
0.040952831506729126
 20
0.4160653054714203
 30
1.1977453231811523
 11
0.12140043079853058
 21
0.415865033864975
 31
1.1977453231811523
 12
0.040952831506729126
 22
0.4160653054714203
 32
0.8553483486175537
 13
0.040952831506729126
 23
0.4160653054714203
 33
0.8553483486175537
  0
3DFACE
  8
0
 10
0.040952831506729126
 20
0.4160653054714203
 30
0.8553483486175537
 11
0.12140043079853058
 21
0.415865033864975
 31
0.8553483486175537
 12
0.041096240282058716
 22
0.3741348087787628
 32
0.7935076951980591
 13
0.041096240282058716
 23
0.3741348087787628
 33
0.7935076951980591
  0
3DFACE
  8
0
 10
-0.11189758777618408
 20
0.41644585132598877
 30
1.1977453231811523
 11
-0.11189758777618408
 21
0.41644585132598877
 31
0.8553483486175537
 12
-0.11175420135259628
 22
0.3745153546333313
 32
1.1977453231811523
 13
-0.11175420135259628
 23
0.3745153546333313
 33
1.1977453231811523
  0
3DFACE
  8
0
 10
-0.03145000711083412
 20
0.41624557971954346
 30
1.1977453231811523
 11
-0.03130660578608513
 21
0.3743150234222412
 31
1.1977453231811523
 12
-0.03145000711083412
 22
0.41624557971954346
 32
0.8553483486175537
 13
-0.03145000711083412
 23
0.41624557971954346
 33
0.8553483486175537
  0
3DFACE
  8
0
 10
-0.03130660578608513
 20
0.3743150234222412
 30
1.1977453231811523
 11
-0.11175420135259628
 21
0.3745153546333313
 31
1.1977453231811523
 12
-0.03130660578608513
 22
0.3743150234222412
 32
0.7935076951980591
 13
-0.03130660578608513
 23
0.3743150234222412
 33
0.7935076951980591
  0
3DFACE
  8
0
 10
-0.11189758777618408
 20
0.41644585132598877
 30
1.1977453231811523
 11
-0.03145000711083412
 21
0.41624557971954346
 31
1.1977453231811523
 12
-0.11189758777618408
 22
0.41644585132598877
 32
0.8553483486175537
 13
-0.11189758777618408
 23
0.41644585132598877
 33
0.8553483486175537
  0
3DFACE
  8
0
 10
-0.11189758777618408
 20
0.41644585132598877
 30
0.8553483486175537
 11
-0.03145000711083412
 21
0.41624557971954346
 31
0.8553483486175537
 12
-0.11175420135259628
 22
0.3745153546333313
 32
0.7935076951980591
 13
-0.11175420135259628
 23
0.3745153546333313
 33
0.7935076951980591
  0
3DFACE
  8
0
 10
-0.2647480070590973
 20
0.41682639718055725
 30
1.1977453231811523
 11
-0.2647480070590973
 21
0.41682639718055725
 31
0.8553483486175537
 12
-0.2646046280860901
 22
0.37489596009254456
 32
1.1977453231811523
 13
-0.2646046280860901
 23
0.37489596009254456
 33
1.1977453231811523
  0
3DFACE
  8
0
 10
-0.18430043756961823
 20
0.41662612557411194
 30
1.1977453231811523
 11
-0.18415704369544983
 21
0.37469565868377686
 31
1.1977453231811523
 12
-0.18430043756961823
 22
0.41662612557411194
 32
0.8553483486175537
 13
-0.18430043756961823
 23
0.41662612557411194
 33
0.8553483486175537
  0
3DFACE
  8
0
 10
-0.18415704369544983
 20
0.37469565868377686
 30
1.1977453231811523
 11
-0.2646046280860901
 21
0.37489596009254456
 31
1.1977453231811523
 12
-0.18415704369544983
 22
0.37469565868377686
 32
0.7935076951980591
 13
-0.18415704369544983
 23
0.37469565868377686
 33
0.7935076951980591
  0
3DFACE
  8
0
 10
-0.2647480070590973
 20
0.41682639718055725
 30
1.1977453231811523
 11
-0.18430043756961823
 21
0.41662612557411194
 31
1.1977453231811523
 12
-0.2647480070590973
 22
0.41682639718055725
 32
0.8553483486175537
 13
-0.2647480070590973
 23
0.41682639718055725
 33
0.8553483486175537
  0
3DFACE
  8
0
 10
-0.2647480070590973
 20
0.41682639718055725
 30
0.8553483486175537
 11
-0.18430043756961823
 21
0.41662612557411194
 31
0.8553483486175537
 12
-0.2646046280860901
 22
0.37489596009254456
 32
0.7935076951980591
 13
-0.2646046280860901
 23
0.37489596009254456
 33
0.7935076951980591
  0
3DFACE
  8
0
 10
-0.4175984561443329
 20
0.4172070324420929
 30
1.1977453231811523
 11
-0.4175984561443329
 21
0.4172070324420929
 31
0.8553483486175537
 12
-0.4174550175666809
 22
0.37527647614479065
 32
1.1977453231811523
 13
-0.4174550175666809
 23
0.37527647614479065
 33
1.1977453231811523
  0
3DFACE
  8
0
 10
-0.3371508717536926
 20
0.4170067310333252
 30
1.1977453231811523
 11
-0.33700746297836304
 21
0.37507620453834534
 31
1.1977453231811523
 12
-0.3371508717536926
 22
0.4170067310333252
 32
0.8553483486175537
 13
-0.3371508717536926
 23
0.4170067310333252
 33
0.8553483486175537
  0
3DFACE
  8
0
 10
-0.33700746297836304
 20
0.37507620453834534
 30
1.1977453231811523
 11
-0.4174550175666809
 21
0.37527647614479065
 31
1.1977453231811523
 12
-0.33700746297836304
 22
0.37507620453834534
 32
0.7935076951980591
 13
-0.33700746297836304
 23
0.37507620453834534
 33
0.7935076951980591
  0
3DFACE
  8
0
 10
-0.4175984561443329
 20
0.4172070324420929
 30
1.1977453231811523
 11
-0.3371508717536926
 21
0.4170067310333252
 31
1.1977453231811523
 12
-0.4175984561443329
 22
0.4172070324420929
 32
0.8553483486175537
 13
-0.4175984561443329
 23
0.4172070324420929
 33
0.8553483486175537
  0
3DFACE
  8
0
 10
-0.4175984561443329
 20
0.4172070324420929
 30
0.8553483486175537
 11
-0.3371508717536926
 21
0.4170067310333252
 31
0.8553483486175537
 12
-0.4174550175666809
 22
0.37527647614479065
 32
0.7935076951980591
 13
-0.4174550175666809
 23
0.37527647614479065
 33
0.7935076951980591
  0
3DFACE
  8
0
 10
0.6231946349143982
 20
-0.6679088473320007
 30
1.2034480571746826
 11
0.4672306180000305
 21
-0.6675205230712891
 31
1.2034480571746826
 12
0.6230965852737427
 22
-0.6059482097625732
 32
1.2034480571746826
 13
0.6230965852737427
 23
-0.6059482097625732
 33
1.2034480571746826
  0
3DFACE
  8
0
 10
0.48297446966171265
 20
-0.5958099961280823
 30
1.2733136415481567
 11
0.48307257890701294
 21
-0.6577705144882202
 31
1.2566816806793213
 12
0.6071876883506775
 22
-0.5961192846298218
 32
1.2733136415481567
 13
0.6071876883506775
 23
-0.5961192846298218
 33
1.2733136415481567
  0
3DFACE
  8
0
 10
0.48307257890701294
 20
-0.6577705144882202
 30
1.2566816806793213
 11
0.4672306180000305
 21
-0.6675205230712891
 31
1.2034480571746826
 12
0.6072857975959778
 22
-0.6580796837806702
 32
1.2566816806793213
 13
0.6072857975959778
 23
-0.6580796837806702
 33
1.2566816806793213
  0
3DFACE
  8
0
 10
0.4672306180000305
 20
-0.6675205230712891
 30
1.2034480571746826
 11
0.48307257890701294
 21
-0.6577705144882202
 31
1.2566816806793213
 12
0.467132568359375
 22
-0.6055599451065063
 32
1.2034480571746826
 13
0.467132568359375
 23
-0.6055599451065063
 33
1.2034480571746826
  0
3DFACE
  8
0
 10
0.6231946349143982
 20
-0.6679088473320007
 30
1.2034480571746826
 11
0.6230965852737427
 21
-0.6059482097625732
 31
1.2034480571746826
 12
0.6072857975959778
 22
-0.6580796837806702
 32
1.2566816806793213
 13
0.6072857975959778
 23
-0.6580796837806702
 33
1.2566816806793213
  0
3DFACE
  8
0
 10
0.4823375344276428
 20
0.4338964819908142
 30
1.2733136415481567
 11
0.48297446966171265
 21
-0.5958099961280823
 31
1.2733136415481567
 12
0.6065508127212524
 22
0.4335871934890747
 32
1.2733136415481567
 13
0.6065508127212524
 23
0.4335871934890747
 33
1.2733136415481567
  0
3DFACE
  8
0
 10
0.4823375344276428
 20
0.4338964819908142
 30
1.2733136415481567
 11
0.6065508127212524
 21
0.4335871934890747
 31
1.2733136415481567
 12
0.4664621949195862
 22
0.4339360296726227
 32
1.2034480571746826
 13
0.4664621949195862
 23
0.4339360296726227
 33
1.2034480571746826
  0
3DFACE
  8
0
 10
0.4823375344276428
 20
0.4338964819908142
 30
1.2733136415481567
 11
0.4664621949195862
 21
0.4339360296726227
 31
1.2034480571746826
 12
0.48297446966171265
 22
-0.5958099961280823
 32
1.2733136415481567
 13
0.48297446966171265
 23
-0.5958099961280823
 33
1.2733136415481567
  0
3DFACE
  8
0
 10
0.6230965852737427
 20
-0.6059482097625732
 30
1.2034480571746826
 11
0.6224261522293091
 21
0.43354764580726624
 31
1.2034480571746826
 12
0.6071876883506775
 22
-0.5961192846298218
 32
1.2733136415481567
 13
0.6071876883506775
 23
-0.5961192846298218
 33
1.2733136415481567
  0
3DFACE
  8
0
 10
0.4664621949195862
 20
0.4339360296726227
 30
1.2034480571746826
 11
0.6224261522293091
 21
0.43354764580726624
 31
1.2034480571746826
 12
0.467132568359375
 22
-0.6055599451065063
 32
1.2034480571746826
 13
0.467132568359375
 23
-0.6055599451065063
 33
1.2034480571746826
  0
3DFACE
  8
0
 10
-0.4685538411140442
 20
-0.665190577507019
 30
1.2034480571746826
 11
-0.6245179772377014
 21
-0.6648023128509521
 31
1.2034480571746826
 12
-0.46865198016166687
 22
-0.6032300591468811
 32
1.2034480571746826
 13
-0.46865198016166687
 23
-0.6032300591468811
 33
1.2034480571746826
  0
3DFACE
  8
0
 10
-0.48446279764175415
 20
-0.6553615927696228
 30
1.2566816806793213
 11
-0.48456090688705444
 21
-0.5934010744094849
 31
1.2733136415481567
 12
-0.608676016330719
 22
-0.6550523638725281
 32
1.2566816806793213
 13
-0.608676016330719
 23
-0.6550523638725281
 33
1.2566816806793213
  0
3DFACE
  8
0
 10
-0.4685538411140442
 20
-0.665190577507019
 30
1.2034480571746826
 11
-0.48446279764175415
 21
-0.6553615927696228
 31
1.2566816806793213
 12
-0.6245179772377014
 22
-0.6648023128509521
 32
1.2034480571746826
 13
-0.6245179772377014
 23
-0.6648023128509521
 33
1.2034480571746826
  0
3DFACE
  8
0
 10
-0.48456090688705444
 20
-0.5934010744094849
 30
1.2733136415481567
 11
-0.48446279764175415
 21
-0.6553615927696228
 31
1.2566816806793213
 12
-0.46865198016166687
 22
-0.6032300591468811
 32
1.2034480571746826
 13
-0.46865198016166687
 23
-0.6032300591468811
 33
1.2034480571746826
  0
3DFACE
  8
0
 10
-0.6245179772377014
 20
-0.6648023128509521
 30
1.2034480571746826
 11
-0.608676016330719
 21
-0.6550523638725281
 31
1.2566816806793213
 12
-0.6246160864830017
 22
-0.6028417944908142
 32
1.2034480571746826
 13
-0.6246160864830017
 23
-0.6028417944908142
 33
1.2034480571746826
  0
3DFACE
  8
0
 10
-0.48456090688705444
 20
-0.5934010744094849
 30
1.2733136415481567
 11
-0.4851977527141571
 21
0.43630537390708923
 31
1.2733136415481567
 12
-0.6087741255760193
 22
-0.5930917263031006
 32
1.2733136415481567
 13
-0.6087741255760193
 23
-0.5930917263031006
 33
1.2733136415481567
  0
3DFACE
  8
0
 10
-0.4851977527141571
 20
0.43630537390708923
 30
1.2733136415481567
 11
-0.4693222939968109
 21
0.43626588582992554
 31
1.2034480571746826
 12
-0.6094110012054443
 22
0.43661463260650635
 32
1.2733136415481567
 13
-0.6094110012054443
 23
0.43661463260650635
 33
1.2733136415481567
  0
3DFACE
  8
0
 10
-0.4851977527141571
 20
0.43630537390708923
 30
1.2733136415481567
 11
-0.48456090688705444
 21
-0.5934010744094849
 31
1.2733136415481567
 12
-0.4693222939968109
 22
0.43626588582992554
 32
1.2034480571746826
 13
-0.4693222939968109
 23
0.43626588582992554
 33
1.2034480571746826
  0
3DFACE
  8
0
 10
-0.6094110012054443
 20
0.43661463260650635
 30
1.2733136415481567
 11
-0.6252865195274353
 21
0.4366541802883148
 31
1.2034480571746826
 12
-0.6087741255760193
 22
-0.5930917263031006
 32
1.2733136415481567
 13
-0.6087741255760193
 23
-0.5930917263031006
 33
1.2733136415481567
  0
3DFACE
  8
0
 10
-0.6252865195274353
 20
0.4366541802883148
 30
1.2034480571746826
 11
-0.4693222939968109
 21
0.43626588582992554
 31
1.2034480571746826
 12
-0.6246160864830017
 22
-0.6028417944908142
 32
1.2034480571746826
 13
-0.6246160864830017
 23
-0.6028417944908142
 33
1.2034480571746826
  0
3DFACE
  8
0
 10
0.5084152221679688
 20
-0.6575034260749817
 30
-7.067592378007248e-08
 11
0.582168459892273
 21
-0.6576870083808899
 31
-7.067592378007248e-08
 12
0.4900107979774475
 22
-0.6673619151115417
 32
0.018749121576547623
 13
0.4900107979774475
 23
-0.6673619151115417
 33
0.018749121576547623
  0
3DFACE
  8
0
 10
0.6007189154624939
 20
-0.6905389428138733
 30
0.7534871101379395
 11
0.4900892376899719
 21
-0.6902634501457214
 31
0.7534870505332947
 12
0.600640594959259
 22
-0.6676373481750488
 32
0.018749121576547623
 13
0.600640594959259
 23
-0.6676373481750488
 33
0.018749121576547623
  0
3DFACE
  8
0
 10
0.4897996783256531
 20
-0.6056162714958191
 30
0.7432410717010498
 11
0.6004294157028198
 21
-0.6058918237686157
 31
0.7432411313056946
 12
0.4898075759410858
 22
-0.607934832572937
 32
0.018749121576547623
 13
0.4898075759410858
 23
-0.607934832572937
 33
0.018749121576547623
  0
3DFACE
  8
0
 10
0.4900892376899719
 20
-0.6902634501457214
 30
0.7534870505332947
 11
0.4897996783256531
 21
-0.6056162714958191
 31
0.7432410717010498
 12
0.4900107979774475
 22
-0.6673619151115417
 32
0.018749121576547623
 13
0.4900107979774475
 23
-0.6673619151115417
 33
0.018749121576547623
  0
3DFACE
  8
0
 10
0.6007189154624939
 20
-0.6905389428138733
 30
1.0496618747711182
 11
0.6004294157028198
 21
-0.6058918237686157
 31
1.0847973823547363
 12
0.6006103754043579
 22
-0.6587992310523987
 32
1.2034480571746826
 13
0.6006103754043579
 23
-0.6587992310523987
 33
1.2034480571746826
  0
3DFACE
  8
0
 10
0.4890950322151184
 20
0.44391581416130066
 30
0.018749121576547623
 11
0.5997247099876404
 21
0.4436403214931488
 31
0.018749121576547623
 12
0.5075767636299133
 22
0.4311389625072479
 32
-7.067592378007248e-08
 13
0.5075767636299133
 23
0.4311389625072479
 33
-7.067592378007248e-08
  0
3DFACE
  8
0
 10
0.5997247099876404
 20
0.4436403214931488
 30
0.8816865086555481
 11
0.5997247099876404
 21
0.4436403214931488
 31
0.018749121576547623
 12
0.4890950322151184
 22
0.44391581416130066
 32
0.8816865086555481
 13
0.4890950322151184
 23
0.44391581416130066
 33
0.8816865086555481
  0
3DFACE
  8
0
 10
0.6000514626502991
 20
0.34811753034591675
 30
0.8816865086555481
 11
0.48942166566848755
 21
0.3483930230140686
 31
0.8816865086555481
 12
0.5999859571456909
 22
0.36725491285324097
 32
0.018749121576547623
 13
0.5999859571456909
 23
0.36725491285324097
 33
0.018749121576547623
  0
3DFACE
  8
0
 10
0.48942166566848755
 20
0.3483930230140686
 30
0.8816865086555481
 11
0.4890950322151184
 21
0.44391581416130066
 31
0.8816865086555481
 12
0.48935624957084656
 22
0.36753034591674805
 32
0.018749121576547623
 13
0.48935624957084656
 23
0.36753034591674805
 33
0.018749121576547623
  0
3DFACE
  8
0
 10
0.6000875234603882
 20
0.3376038074493408
 30
1.6871525049209595
 11
0.5997247099876404
 21
0.4436403214931488
 31
1.6871525049209595
 12
0.5999859571456909
 22
0.36725491285324097
 32
1.7446238994598389
 13
0.5999859571456909
 23
0.36725491285324097
 33
1.7446238994598389
  0
3DFACE
  8
0
 10
-0.4911079406738281
 20
-0.6649191975593567
 30
0.018749121576547623
 11
-0.6017377376556396
 21
-0.6646437644958496
 31
0.018749121576547623
 12
-0.509580135345459
 22
-0.6549687385559082
 32
-7.067592378007248e-08
 13
-0.509580135345459
 23
-0.6549687385559082
 33
-7.067592378007248e-08
  0
3DFACE
  8
0
 10
-0.49102964997291565
 20
-0.6878207325935364
 30
0.7534870505332947
 11
-0.60165935754776
 21
-0.6875452995300293
 31
0.7534871101379395
 12
-0.4911079406738281
 22
-0.6649191975593567
 32
0.018749121576547623
 13
-0.4911079406738281
 23
-0.6649191975593567
 33
0.018749121576547623
  0
3DFACE
  8
0
 10
-0.6019489765167236
 20
-0.602898120880127
 30
0.7432411313056946
 11
-0.49131911993026733
 21
-0.6031736731529236
 31
0.7432410717010498
 12
-0.601940929889679
 22
-0.6052166223526001
 32
0.018749121576547623
 13
-0.601940929889679
 23
-0.6052166223526001
 33
0.018749121576547623
  0
3DFACE
  8
0
 10
-0.4913111627101898
 20
-0.6054920554161072
 30
0.018749121576547623
 11
-0.49131911993026733
 21
-0.6031736731529236
 31
0.7432410717010498
 12
-0.4911079406738281
 22
-0.6649191975593567
 32
0.018749121576547623
 13
-0.4911079406738281
 23
-0.6649191975593567
 33
0.018749121576547623
  0
3DFACE
  8
0
 10
-0.6019489765167236
 20
-0.602898120880127
 30
1.2034480571746826
 11
-0.6019489765167236
 21
-0.602898120880127
 31
1.0847973823547363
 12
-0.6017679572105408
 22
-0.6558056473731995
 32
1.2034480571746826
 13
-0.6017679572105408
 23
-0.6558056473731995
 33
1.2034480571746826
  0
3DFACE
  8
0
 10
-0.5104185938835144
 20
0.4336735010147095
 30
-7.067592378007248e-08
 11
-0.584171712398529
 21
0.43385711312294006
 31
-7.067592378007248e-08
 12
-0.492023766040802
 22
0.44635850191116333
 32
0.018749121576547623
 13
-0.492023766040802
 23
0.44635850191116333
 33
0.018749121576547623
  0
3DFACE
  8
0
 10
-0.6026536226272583
 20
0.4466339647769928
 30
0.8816865086555481
 11
-0.492023766040802
 21
0.44635850191116333
 31
0.8816865086555481
 12
-0.6026536226272583
 22
0.4466339647769928
 32
0.018749121576547623
 13
-0.6026536226272583
 23
0.4466339647769928
 33
0.018749121576547623
  0
3DFACE
  8
0
 10
-0.4916971027851105
 20
0.35083580017089844
 30
0.8816865086555481
 11
-0.6023269295692444
 21
0.35111120343208313
 31
0.8816865086555481
 12
-0.49176254868507385
 22
0.3699731230735779
 32
0.018749121576547623
 13
-0.49176254868507385
 23
0.3699731230735779
 33
0.018749121576547623
  0
3DFACE
  8
0
 10
-0.4916971027851105
 20
0.35083580017089844
 30
0.8816865086555481
 11
-0.49176254868507385
 21
0.3699731230735779
 31
0.018749121576547623
 12
-0.492023766040802
 22
0.44635850191116333
 32
0.8816865086555481
 13
-0.492023766040802
 23
0.44635850191116333
 33
0.8816865086555481
  0
3DFACE
  8
0
 10
-0.6022908091545105
 20
0.3405974805355072
 30
1.6871525049209595
 11
-0.6023923754692078
 21
0.3702485263347626
 31
1.7446238994598389
 12
-0.6026536226272583
 22
0.4466339647769928
 32
1.6871525049209595
 13
-0.6026536226272583
 23
0.4466339647769928
 33
1.6871525049209595
  0
3DFACE
  8
0
 10
0.48917531967163086
 20
0.4204378128051758
 30
1.7446238994598389
 11
0.48935624957084656
 21
0.36753034591674805
 31
1.7446238994598389
 12
0.5998050570487976
 22
0.4201623201370239
 32
1.7446238994598389
 13
0.5998050570487976
 23
0.4201623201370239
 33
1.7446238994598389
  0
3DFACE
  8
0
 10
-0.49176254868507385
 20
0.3699731230735779
 30
1.7446238994598389
 11
-0.49194350838661194
 21
0.4228805601596832
 31
1.7446238994598389
 12
-0.6023923754692078
 22
0.3702485263347626
 32
1.7446238994598389
 13
-0.6023923754692078
 23
0.3702485263347626
 33
1.7446238994598389
  0
3DFACE
  8
0
 10
-0.49176254868507385
 20
0.3699731230735779
 30
1.6933703422546387
 11
-0.49194350838661194
 21
0.4228805601596832
 31
1.6933703422546387
 12
-0.49176254868507385
 22
0.3699731230735779
 32
1.1977453231811523
 13
-0.49176254868507385
 23
0.3699731230735779
 33
1.1977453231811523
  0
3DFACE
  8
0
 10
0.48935624957084656
 20
0.36753034591674805
 30
1.6933703422546387
 11
0.48935624957084656
 21
0.36753034591674805
 31
1.1977453231811523
 12
0.48917531967163086
 22
0.4204378128051758
 32
1.6933703422546387
 13
0.48917531967163086
 23
0.4204378128051758
 33
1.6933703422546387
  0
3DFACE
  8
0
 10
-0.49194350838661194
 20
0.4228805601596832
 30
1.6933703422546387
 11
-0.49176254868507385
 21
0.3699731230735779
 31
1.6933703422546387
 12
0.48917531967163086
 22
0.4204378128051758
 32
1.6933703422546387
 13
0.48917531967163086
 23
0.4204378128051758
 33
1.6933703422546387
  0
3DFACE
  8
0
 10
-0.49194350838661194
 20
0.4228805601596832
 30
1.1977453231811523
 11
0.48917531967163086
 21
0.4204378128051758
 31
1.1977453231811523
 12
-0.49176254868507385
 22
0.3699731230735779
 32
1.1977453231811523
 13
-0.49176254868507385
 23
0.3699731230735779
 33
1.1977453231811523
  0
3DFACE
  8
0
 10
0.48917531967163086
 20
0.4204378128051758
 30
1.6933703422546387
 11
0.48917531967163086
 21
0.4204378128051758
 31
1.1977453231811523
 12
-0.49194350838661194
 22
0.4228805601596832
 32
1.6933703422546387
 13
-0.49194350838661194
 23
0.4228805601596832
 33
1.6933703422546387
  0
3DFACE
  8
0
 10
0.39974066615104675
 20
0.36775344610214233
 30
1.622881531715393
 11
0.39974066615104675
 21
0.36775344610214233
 31
1.2682342529296875
 12
0.48935624957084656
 22
0.36753034591674805
 32
1.6933703422546387
 13
0.48935624957084656
 23
0.36753034591674805
 33
1.6933703422546387
  0
3DFACE
  8
0
 10
-0.40214693546295166
 20
0.3697499632835388
 30
1.622881531715393
 11
-0.35755079984664917
 21
0.3525521457195282
 31
1.6031838655471802
 12
0.39974066615104675
 22
0.36775344610214233
 32
1.622881531715393
 13
0.39974066615104675
 23
0.36775344610214233
 33
1.622881531715393
  0
3DFACE
  8
0
 10
0.39974066615104675
 20
0.36775344610214233
 30
1.2682342529296875
 11
-0.40214693546295166
 21
0.3697499632835388
 31
1.2682342529296875
 12
0.48935624957084656
 22
0.36753034591674805
 32
1.1977453231811523
 13
0.48935624957084656
 23
0.36753034591674805
 33
1.1977453231811523
  0
3DFACE
  8
0
 10
-0.40214693546295166
 20
0.3697499632835388
 30
1.622881531715393
 11
0.39974066615104675
 21
0.36775344610214233
 31
1.622881531715393
 12
-0.49176254868507385
 22
0.3699731230735779
 32
1.6933703422546387
 13
-0.49176254868507385
 23
0.3699731230735779
 33
1.6933703422546387
  0
3DFACE
  8
0
 10
-0.40214693546295166
 20
0.3697499632835388
 30
1.622881531715393
 11
-0.49176254868507385
 21
0.3699731230735779
 31
1.6933703422546387
 12
-0.40214693546295166
 22
0.3697499632835388
 32
1.2682342529296875
 13
-0.40214693546295166
 23
0.3697499632835388
 33
1.2682342529296875
  0
3DFACE
  8
0
 10
-0.35755079984664917
 20
0.3525521457195282
 30
1.6031838655471802
 11
-0.35755079984664917
 21
0.3525521457195282
 31
1.2879317998886108
 12
0.3552614152431488
 22
0.35077741742134094
 32
1.6031838655471802
 13
0.3552614152431488
 23
0.35077741742134094
 33
1.6031838655471802
  0
3DFACE
  8
0
 10
0.3552614152431488
 20
0.35077741742134094
 30
1.2879317998886108
 11
-0.35755079984664917
 21
0.3525521457195282
 31
1.2879317998886108
 12
0.39974066615104675
 22
0.36775344610214233
 32
1.2682342529296875
 13
0.39974066615104675
 23
0.36775344610214233
 33
1.2682342529296875
  0
3DFACE
  8
0
 10
-0.40214693546295166
 20
0.3697499632835388
 30
1.622881531715393
 11
-0.40214693546295166
 21
0.3697499632835388
 31
1.2682342529296875
 12
-0.35755079984664917
 22
0.3525521457195282
 32
1.6031838655471802
 13
-0.35755079984664917
 23
0.3525521457195282
 33
1.6031838655471802
  0
3DFACE
  8
0
 10
0.39974066615104675
 20
0.36775344610214233
 30
1.622881531715393
 11
0.3552614152431488
 21
0.35077741742134094
 31
1.6031838655471802
 12
0.39974066615104675
 22
0.36775344610214233
 32
1.2682342529296875
 13
0.39974066615104675
 23
0.36775344610214233
 33
1.2682342529296875
  0
3DFACE
  8
0
 10
0.6007189154624939
 20
-0.6905389428138733
 30
1.0496618747711182
 11
0.4900892376899719
 21
-0.6902634501457214
 31
1.0496617555618286
 12
0.6007189154624939
 22
-0.6905389428138733
 32
0.7534871101379395
 13
0.6007189154624939
 23
-0.6905389428138733
 33
0.7534871101379395
  0
3DFACE
  8
0
 10
0.6004294157028198
 20
-0.6058918237686157
 30
1.0847973823547363
 11
0.6004294157028198
 21
-0.6058918237686157
 31
0.7432411313056946
 12
0.4897996783256531
 22
-0.6056162714958191
 32
1.0847973823547363
 13
0.4897996783256531
 23
-0.6056162714958191
 33
1.0847973823547363
  0
3DFACE
  8
0
 10
0.4897996783256531
 20
-0.6056162714958191
 30
1.0847973823547363
 11
0.4897996783256531
 21
-0.6056162714958191
 31
0.7432410717010498
 12
0.4900892376899719
 22
-0.6902634501457214
 32
1.0496617555618286
 13
0.4900892376899719
 23
-0.6902634501457214
 33
1.0496617555618286
  0
3DFACE
  8
0
 10
0.6004374027252197
 20
-0.6082102060317993
 30
0.018749121576547623
 11
0.6004294157028198
 21
-0.6058918237686157
 31
0.7432411313056946
 12
0.600640594959259
 22
-0.6676373481750488
 32
0.018749121576547623
 13
0.600640594959259
 23
-0.6676373481750488
 33
0.018749121576547623
  0
3DFACE
  8
0
 10
-0.60165935754776
 20
-0.6875452995300293
 30
1.0496618747711182
 11
-0.60165935754776
 21
-0.6875452995300293
 31
0.7534871101379395
 12
-0.49102964997291565
 22
-0.6878207325935364
 32
1.0496617555618286
 13
-0.49102964997291565
 23
-0.6878207325935364
 33
1.0496617555618286
  0
3DFACE
  8
0
 10
-0.6019489765167236
 20
-0.602898120880127
 30
1.0847973823547363
 11
-0.49131911993026733
 21
-0.6031736731529236
 31
1.0847973823547363
 12
-0.6019489765167236
 22
-0.602898120880127
 32
0.7432411313056946
 13
-0.6019489765167236
 23
-0.602898120880127
 33
0.7432411313056946
  0
3DFACE
  8
0
 10
-0.49131911993026733
 20
-0.6031736731529236
 30
1.0847973823547363
 11
-0.49102964997291565
 21
-0.6878207325935364
 31
1.0496617555618286
 12
-0.49131911993026733
 22
-0.6031736731529236
 32
0.7432410717010498
 13
-0.49131911993026733
 23
-0.6031736731529236
 33
0.7432410717010498
  0
3DFACE
  8
0
 10
-0.601940929889679
 20
-0.6052166223526001
 30
0.018749121576547623
 11
-0.6017377376556396
 21
-0.6646437644958496
 31
0.018749121576547623
 12
-0.6019489765167236
 22
-0.602898120880127
 32
0.7432411313056946
 13
-0.6019489765167236
 23
-0.602898120880127
 33
0.7432411313056946
  0
3DFACE
  8
0
 10
0.6007189154624939
 20
-0.6905389428138733
 30
0.7534871101379395
 11
0.6004294157028198
 21
-0.6058918237686157
 31
0.7432411313056946
 12
0.6007189154624939
 22
-0.6905389428138733
 32
1.0496618747711182
 13
0.6007189154624939
 23
-0.6905389428138733
 33
1.0496618747711182
  0
3DFACE
  8
0
 10
-0.6019489765167236
 20
-0.602898120880127
 30
1.0847973823547363
 11
-0.6019489765167236
 21
-0.602898120880127
 31
0.7432411313056946
 12
-0.60165935754776
 22
-0.6875452995300293
 32
1.0496618747711182
 13
-0.60165935754776
 23
-0.6875452995300293
 33
1.0496618747711182
  0
3DFACE
  8
0
 10
0.6007189154624939
 20
-0.6905389428138733
 30
1.0496618747711182
 11
0.6006103754043579
 21
-0.6587992310523987
 31
1.2034480571746826
 12
0.4900892376899719
 22
-0.6902634501457214
 32
1.0496617555618286
 13
0.4900892376899719
 23
-0.6902634501457214
 33
1.0496617555618286
  0
3DFACE
  8
0
 10
0.6004294157028198
 20
-0.6058918237686157
 30
1.2034480571746826
 11
0.6004294157028198
 21
-0.6058918237686157
 31
1.0847973823547363
 12
0.4897996783256531
 22
-0.6056162714958191
 32
1.2034480571746826
 13
0.4897996783256531
 23
-0.6056162714958191
 33
1.2034480571746826
  0
3DFACE
  8
0
 10
0.4897996783256531
 20
-0.6056162714958191
 30
1.2034480571746826
 11
0.4897996783256531
 21
-0.6056162714958191
 31
1.0847973823547363
 12
0.48998066782951355
 22
-0.6585239171981812
 32
1.2034480571746826
 13
0.48998066782951355
 23
-0.6585239171981812
 33
1.2034480571746826
  0
3DFACE
  8
0
 10
-0.6017679572105408
 20
-0.6558056473731995
 30
1.2034480571746826
 11
-0.60165935754776
 21
-0.6875452995300293
 31
1.0496618747711182
 12
-0.491138219833374
 22
-0.6560810804367065
 32
1.2034480571746826
 13
-0.491138219833374
 23
-0.6560810804367065
 33
1.2034480571746826
  0
3DFACE
  8
0
 10
-0.6019489765167236
 20
-0.602898120880127
 30
1.2034480571746826
 11
-0.49131911993026733
 21
-0.6031736731529236
 31
1.2034480571746826
 12
-0.6019489765167236
 22
-0.602898120880127
 32
1.0847973823547363
 13
-0.6019489765167236
 23
-0.602898120880127
 33
1.0847973823547363
  0
3DFACE
  8
0
 10
-0.49131911993026733
 20
-0.6031736731529236
 30
1.2034480571746826
 11
-0.491138219833374
 21
-0.6560810804367065
 31
1.2034480571746826
 12
-0.49131911993026733
 22
-0.6031736731529236
 32
1.0847973823547363
 13
-0.49131911993026733
 23
-0.6031736731529236
 33
1.0847973823547363
  0
3DFACE
  8
0
 10
0.5997247099876404
 20
0.4436403214931488
 30
1.0385428667068481
 11
0.5997247099876404
 21
0.4436403214931488
 31
0.8816865086555481
 12
0.4890950322151184
 22
0.44391581416130066
 32
1.0385428667068481
 13
0.4890950322151184
 23
0.44391581416130066
 33
1.0385428667068481
  0
3DFACE
  8
0
 10
0.6000875234603882
 20
0.3376038074493408
 30
1.0385428667068481
 11
0.4894576370716095
 21
0.3378792703151703
 31
1.0385428667068481
 12
0.6000514626502991
 22
0.34811753034591675
 32
0.8816865086555481
 13
0.6000514626502991
 23
0.34811753034591675
 33
0.8816865086555481
  0
3DFACE
  8
0
 10
0.4894576370716095
 20
0.3378792703151703
 30
1.0385428667068481
 11
0.4890950322151184
 21
0.44391581416130066
 31
1.0385428667068481
 12
0.48942166566848755
 22
0.3483930230140686
 32
0.8816865086555481
 13
0.48942166566848755
 23
0.3483930230140686
 33
0.8816865086555481
  0
3DFACE
  8
0
 10
0.6000514626502991
 20
0.34811753034591675
 30
0.8816865086555481
 11
0.5999859571456909
 21
0.36725491285324097
 31
0.018749121576547623
 12
0.5997247099876404
 22
0.4436403214931488
 32
0.8816865086555481
 13
0.5997247099876404
 23
0.4436403214931488
 33
0.8816865086555481
  0
3DFACE
  8
0
 10
-0.6026536226272583
 20
0.4466339647769928
 30
1.0385428667068481
 11
-0.492023766040802
 21
0.44635850191116333
 31
1.0385428667068481
 12
-0.6026536226272583
 22
0.4466339647769928
 32
0.8816865086555481
 13
-0.6026536226272583
 23
0.4466339647769928
 33
0.8816865086555481
  0
3DFACE
  8
0
 10
-0.4916611313819885
 20
0.34032198786735535
 30
1.0385428667068481
 11
-0.6022908091545105
 21
0.3405974805355072
 31
1.0385428667068481
 12
-0.4916971027851105
 22
0.35083580017089844
 32
0.8816865086555481
 13
-0.4916971027851105
 23
0.35083580017089844
 33
0.8816865086555481
  0
3DFACE
  8
0
 10
-0.4916611313819885
 20
0.34032198786735535
 30
1.0385428667068481
 11
-0.4916971027851105
 21
0.35083580017089844
 31
0.8816865086555481
 12
-0.492023766040802
 22
0.44635850191116333
 32
1.0385428667068481
 13
-0.492023766040802
 23
0.44635850191116333
 33
1.0385428667068481
  0
3DFACE
  8
0
 10
-0.6026536226272583
 20
0.4466339647769928
 30
0.018749121576547623
 11
-0.6023923754692078
 21
0.3702485263347626
 31
0.018749121576547623
 12
-0.6026536226272583
 22
0.4466339647769928
 32
0.8816865086555481
 13
-0.6026536226272583
 23
0.4466339647769928
 33
0.8816865086555481
  0
3DFACE
  8
0
 10
0.6000875234603882
 20
0.3376038074493408
 30
1.0385428667068481
 11
0.5997247099876404
 21
0.4436403214931488
 31
1.0385428667068481
 12
0.6000875234603882
 22
0.3376038074493408
 32
1.6871525049209595
 13
0.6000875234603882
 23
0.3376038074493408
 33
1.6871525049209595
  0
3DFACE
  8
0
 10
-0.6022908091545105
 20
0.3405974805355072
 30
1.0385428667068481
 11
-0.6022908091545105
 21
0.3405974805355072
 31
1.6871525049209595
 12
-0.6026536226272583
 22
0.4466339647769928
 32
1.0385428667068481
 13
-0.6026536226272583
 23
0.4466339647769928
 33
1.0385428667068481
  0
3DFACE
  8
0
 10
0.5998050570487976
 20
0.4201623201370239
 30
1.7446238994598389
 11
0.5997247099876404
 21
0.4436403214931488
 31
1.6871525049209595
 12
0.48917531967163086
 22
0.4204378128051758
 32
1.7446238994598389
 13
0.48917531967163086
 23
0.4204378128051758
 33
1.7446238994598389
  0
3DFACE
  8
0
 10
0.6000875234603882
 20
0.3376038074493408
 30
1.6871525049209595
 11
0.5999859571456909
 21
0.36725491285324097
 31
1.7446238994598389
 12
0.4894576370716095
 22
0.3378792703151703
 32
1.6871525049209595
 13
0.4894576370716095
 23
0.3378792703151703
 33
1.6871525049209595
  0
3DFACE
  8
0
 10
0.4894576370716095
 20
0.3378792703151703
 30
1.6871525049209595
 11
0.48935624957084656
 21
0.36753034591674805
 31
1.7446238994598389
 12
0.4890950322151184
 22
0.44391581416130066
 32
1.6871525049209595
 13
0.4890950322151184
 23
0.44391581416130066
 33
1.6871525049209595
  0
3DFACE
  8
0
 10
-0.6026536226272583
 20
0.4466339647769928
 30
1.6871525049209595
 11
-0.6025732159614563
 21
0.4231559932231903
 31
1.7446238994598389
 12
-0.492023766040802
 22
0.44635850191116333
 32
1.6871525049209595
 13
-0.492023766040802
 23
0.44635850191116333
 33
1.6871525049209595
  0
3DFACE
  8
0
 10
-0.6023923754692078
 20
0.3702485263347626
 30
1.7446238994598389
 11
-0.6022908091545105
 21
0.3405974805355072
 31
1.6871525049209595
 12
-0.49176254868507385
 22
0.3699731230735779
 32
1.7446238994598389
 13
-0.49176254868507385
 23
0.3699731230735779
 33
1.7446238994598389
  0
3DFACE
  8
0
 10
-0.49194350838661194
 20
0.4228805601596832
 30
1.7446238994598389
 11
-0.49176254868507385
 21
0.3699731230735779
 31
1.7446238994598389
 12
-0.492023766040802
 22
0.44635850191116333
 32
1.6871525049209595
 13
-0.492023766040802
 23
0.44635850191116333
 33
1.6871525049209595
  0
3DFACE
  8
0
 10
0.5997247099876404
 20
0.4436403214931488
 30
1.6871525049209595
 11
0.5997247099876404
 21
0.4436403214931488
 31
1.0385428667068481
 12
0.4890950322151184
 22
0.44391581416130066
 32
1.6871525049209595
 13
0.4890950322151184
 23
0.44391581416130066
 33
1.6871525049209595
  0
3DFACE
  8
0
 10
0.6000875234603882
 20
0.3376038074493408
 30
1.6871525049209595
 11
0.4894576370716095
 21
0.3378792703151703
 31
1.6871525049209595
 12
0.6000875234603882
 22
0.3376038074493408
 32
1.0385428667068481
 13
0.6000875234603882
 23
0.3376038074493408
 33
1.0385428667068481
  0
3DFACE
  8
0
 10
0.4894576370716095
 20
0.3378792703151703
 30
1.6871525049209595
 11
0.4890950322151184
 21
0.44391581416130066
 31
1.6871525049209595
 12
0.4894576370716095
 22
0.3378792703151703
 32
1.0385428667068481
 13
0.4894576370716095
 23
0.3378792703151703
 33
1.0385428667068481
  0
3DFACE
  8
0
 10
-0.6026536226272583
 20
0.4466339647769928
 30
1.6871525049209595
 11
-0.492023766040802
 21
0.44635850191116333
 31
1.6871525049209595
 12
-0.6026536226272583
 22
0.4466339647769928
 32
1.0385428667068481
 13
-0.6026536226272583
 23
0.4466339647769928
 33
1.0385428667068481
  0
3DFACE
  8
0
 10
-0.6022908091545105
 20
0.3405974805355072
 30
1.6871525049209595
 11
-0.6022908091545105
 21
0.3405974805355072
 31
1.0385428667068481
 12
-0.4916611313819885
 22
0.34032198786735535
 32
1.6871525049209595
 13
-0.4916611313819885
 23
0.34032198786735535
 33
1.6871525049209595
  0
3DFACE
  8
0
 10
-0.4916611313819885
 20
0.34032198786735535
 30
1.6871525049209595
 11
-0.4916611313819885
 21
0.34032198786735535
 31
1.0385428667068481
 12
-0.492023766040802
 22
0.44635850191116333
 32
1.6871525049209595
 13
-0.492023766040802
 23
0.44635850191116333
 33
1.6871525049209595
  0
3DFACE
  8
0
 10
0.6000875234603882
 20
0.3376038074493408
 30
1.0385428667068481
 11
0.6000514626502991
 21
0.34811753034591675
 31
0.8816865086555481
 12
0.5997247099876404
 22
0.4436403214931488
 32
1.0385428667068481
 13
0.5997247099876404
 23
0.4436403214931488
 33
1.0385428667068481
  0
3DFACE
  8
0
 10
-0.6026536226272583
 20
0.4466339647769928
 30
0.8816865086555481
 11
-0.6023269295692444
 21
0.35111120343208313
 31
0.8816865086555481
 12
-0.6026536226272583
 22
0.4466339647769928
 32
1.0385428667068481
 13
-0.6026536226272583
 23
0.4466339647769928
 33
1.0385428667068481
  0
3DFACE
  8
0
 10
0.5276128649711609
 20
-0.6424328684806824
 30
0.8502393364906311
 11
-0.5319423675537109
 21
-0.6397947669029236
 31
0.8502393364906311
 12
0.5276128649711609
 22
-0.6424328684806824
 32
0.7433340549468994
 13
0.5276128649711609
 23
-0.6424328684806824
 33
0.7433340549468994
  0
3DFACE
  8
0
 10
-0.5319423675537109
 20
-0.6397947669029236
 30
0.8502393364906311
 11
-0.5325771570205688
 21
0.38929757475852966
 31
0.8502393364906311
 12
-0.5319423675537109
 22
-0.6397947669029236
 32
0.7433340549468994
 13
-0.5319423675537109
 23
-0.6397947669029236
 33
0.7433340549468994
  0
3DFACE
  8
0
 10
-0.5325771570205688
 20
0.38929757475852966
 30
0.8502393364906311
 11
0.526978075504303
 21
0.38665953278541565
 31
0.8502393364906311
 12
-0.5325771570205688
 22
0.38929757475852966
 32
0.7433340549468994
 13
-0.5325771570205688
 23
0.38929757475852966
 33
0.7433340549468994
  0
3DFACE
  8
0
 10
0.526978075504303
 20
0.38665953278541565
 30
0.8502393364906311
 11
0.5276128649711609
 21
-0.6424328684806824
 31
0.8502393364906311
 12
0.526978075504303
 22
0.38665953278541565
 32
0.7433340549468994
 13
0.526978075504303
 23
0.38665953278541565
 33
0.7433340549468994
  0
3DFACE
  8
0
 10
0.5276128649711609
 20
-0.6424328684806824
 30
0.7433340549468994
 11
-0.5319423675537109
 21
-0.6397947669029236
 31
0.7433340549468994
 12
0.526978075504303
 22
0.38665953278541565
 32
0.7433340549468994
 13
0.526978075504303
 23
0.38665953278541565
 33
0.7433340549468994
  0
3DFACE
  8
0
 10
0.526978075504303
 20
0.38665953278541565
 30
0.8502393364906311
 11
0.46029025316238403
 21
0.3180435597896576
 31
0.8502393364906311
 12
0.5276128649711609
 22
-0.6424328684806824
 32
0.8502393364906311
 13
0.5276128649711609
 23
-0.6424328684806824
 33
0.8502393364906311
  0
3DFACE
  8
0
 10
-0.4602104425430298
 20
0.3305031955242157
 30
0.8502393364906311
 11
-0.38034361600875854
 21
0.2896757125854492
 31
0.886638343334198
 12
0.46029025316238403
 22
0.3180435597896576
 32
0.8502393364906311
 13
0.46029025316238403
 23
0.3180435597896576
 33
0.8502393364906311
  0
3DFACE
  8
0
 10
-0.5325771570205688
 20
0.38929757475852966
 30
0.8502393364906311
 11
-0.4602104425430298
 21
0.3305031955242157
 31
0.8502393364906311
 12
0.526978075504303
 22
0.38665953278541565
 32
0.8502393364906311
 13
0.526978075504303
 23
0.38665953278541565
 33
0.8502393364906311
  0
3DFACE
  8
0
 10
0.5276128649711609
 20
-0.6424328684806824
 30
0.8502393364906311
 11
0.46102142333984375
 21
-0.5848792195320129
 31
0.8502393364906311
 12
-0.5319423675537109
 22
-0.6397947669029236
 32
0.8502393364906311
 13
-0.5319423675537109
 23
-0.6397947669029236
 33
0.8502393364906311
  0
3DFACE
  8
0
 10
-0.4709867238998413
 20
-0.5825585722923279
 30
0.8502393364906311
 11
-0.4602104425430298
 21
0.3305031955242157
 31
0.8502393364906311
 12
-0.5319423675537109
 22
-0.6397947669029236
 32
0.8502393364906311
 13
-0.5319423675537109
 23
-0.6397947669029236
 33
0.8502393364906311
  0
3DFACE
  8
0
 10
0.39707329869270325
 20
0.26445144414901733
 30
0.886638343334198
 11
-0.38034361600875854
 21
0.2896757125854492
 31
0.886638343334198
 12
0.3811320662498474
 22
-0.5374913215637207
 32
0.886638343334198
 13
0.3811320662498474
 23
-0.5374913215637207
 33
0.886638343334198
  0
3DFACE
  8
0
 10
0.46029025316238403
 20
0.3180435597896576
 30
0.8502393364906311
 11
0.39707329869270325
 21
0.26445144414901733
 31
0.886638343334198
 12
0.46102142333984375
 22
-0.5848792195320129
 32
0.8502393364906311
 13
0.46102142333984375
 23
-0.5848792195320129
 33
0.8502393364906311
  0
3DFACE
  8
0
 10
0.46102142333984375
 20
-0.5848792195320129
 30
0.8502393364906311
 11
0.3811320662498474
 21
-0.5374913215637207
 31
0.886638343334198
 12
-0.4709867238998413
 22
-0.5825585722923279
 32
0.8502393364906311
 13
-0.4709867238998413
 23
-0.5825585722923279
 33
0.8502393364906311
  0
3DFACE
  8
0
 10
-0.4709867238998413
 20
-0.5825585722923279
 30
0.8502393364906311
 11
-0.4077472984790802
 21
-0.5355271100997925
 31
0.886638343334198
 12
-0.4602104425430298
 22
0.3305031955242157
 32
0.8502393364906311
 13
-0.4602104425430298
 23
0.3305031955242157
 33
0.8502393364906311
  0
3DFACE
  8
0
 10
0.5082797408103943
 20
-0.6178853511810303
 30
-7.067592378007248e-08
 11
0.5820329189300537
 21
-0.6180688142776489
 31
-7.067592378007248e-08
 12
0.5084152221679688
 22
-0.6575034260749817
 32
-7.067592378007248e-08
 13
0.5084152221679688
 23
-0.6575034260749817
 33
-7.067592378007248e-08
  0
3DFACE
  8
0
 10
0.5815041661262512
 20
0.3800317049026489
 30
-7.067592378007248e-08
 11
0.507750928401947
 21
0.3802153468132019
 31
-7.067592378007248e-08
 12
0.5813299417495728
 22
0.43095529079437256
 32
-7.067592378007248e-08
 13
0.5813299417495728
 23
0.43095529079437256
 33
-7.067592378007248e-08
  0
3DFACE
  8
0
 10
-0.5834687352180481
 20
-0.6151670217514038
 30
-7.067592378007248e-08
 11
-0.5097156167030334
 21
-0.6153506636619568
 31
-7.067592378007248e-08
 12
-0.5833331942558289
 22
-0.6547850966453552
 32
-7.067592378007248e-08
 13
-0.5833331942558289
 23
-0.6547850966453552
 33
-7.067592378007248e-08
  0
3DFACE
  8
0
 10
-0.5102443695068359
 20
0.3827499449253082
 30
-7.067592378007248e-08
 11
-0.5839975476264954
 21
0.3829335868358612
 31
-7.067592378007248e-08
 12
-0.5104185938835144
 22
0.4336735010147095
 32
-7.067592378007248e-08
 13
-0.5104185938835144
 23
0.4336735010147095
 33
-7.067592378007248e-08
  0
3DFACE
  8
0
 10
-0.5104185938835144
 20
0.4336735010147095
 30
-7.067592378007248e-08
 11
-0.492023766040802
 21
0.44635850191116333
 31
0.018749121576547623
 12
-0.5102443695068359
 22
0.3827499449253082
 32
-7.067592378007248e-08
 13
-0.5102443695068359
 23
0.3827499449253082
 33
-7.067592378007248e-08
  0
3DFACE
  8
0
 10
-0.4911079406738281
 20
-0.6649191975593567
 30
0.018749121576547623
 11
-0.509580135345459
 21
-0.6549687385559082
 31
-7.067592378007248e-08
 12
-0.4913111627101898
 22
-0.6054920554161072
 32
0.018749121576547623
 13
-0.4913111627101898
 23
-0.6054920554161072
 33
0.018749121576547623
  0
3DFACE
  8
0
 10
0.4890950322151184
 20
0.44391581416130066
 30
0.018749121576547623
 11
0.5075767636299133
 21
0.4311389625072479
 31
-7.067592378007248e-08
 12
0.48935624957084656
 22
0.36753034591674805
 32
0.018749121576547623
 13
0.48935624957084656
 23
0.36753034591674805
 33
0.018749121576547623
  0
3DFACE
  8
0
 10
-0.5839975476264954
 20
0.3829335868358612
 30
-7.067592378007248e-08
 11
-0.6023923754692078
 21
0.3702485263347626
 31
0.018749121576547623
 12
-0.584171712398529
 22
0.43385711312294006
 32
-7.067592378007248e-08
 13
-0.584171712398529
 23
0.43385711312294006
 33
-7.067592378007248e-08
  0
3DFACE
  8
0
 10
0.5084152221679688
 20
-0.6575034260749817
 30
-7.067592378007248e-08
 11
0.4900107979774475
 21
-0.6673619151115417
 31
0.018749121576547623
 12
0.5082797408103943
 22
-0.6178853511810303
 32
-7.067592378007248e-08
 13
0.5082797408103943
 23
-0.6178853511810303
 33
-7.067592378007248e-08
  0
3DFACE
  8
0
 10
-0.601940929889679
 20
-0.6052166223526001
 30
0.018749121576547623
 11
-0.5834687352180481
 21
-0.6151670217514038
 31
-7.067592378007248e-08
 12
-0.6017377376556396
 22
-0.6646437644958496
 32
0.018749121576547623
 13
-0.6017377376556396
 23
-0.6646437644958496
 33
0.018749121576547623
  0
3DFACE
  8
0
 10
0.5999859571456909
 20
0.36725491285324097
 30
0.018749121576547623
 11
0.5815041661262512
 21
0.3800317049026489
 31
-7.067592378007248e-08
 12
0.5997247099876404
 22
0.4436403214931488
 32
0.018749121576547623
 13
0.5997247099876404
 23
0.4436403214931488
 33
0.018749121576547623
  0
3DFACE
  8
0
 10
0.5820329189300537
 20
-0.6180688142776489
 30
-7.067592378007248e-08
 11
0.6004374027252197
 21
-0.6082102060317993
 31
0.018749121576547623
 12
0.582168459892273
 22
-0.6576870083808899
 32
-7.067592378007248e-08
 13
0.582168459892273
 23
-0.6576870083808899
 33
-7.067592378007248e-08
  0
3DFACE
  8
0
 10
-0.49176254868507385
 20
0.3699731230735779
 30
0.018749121576547623
 11
-0.6023923754692078
 21
0.3702485263347626
 31
0.018749121576547623
 12
-0.5102443695068359
 22
0.3827499449253082
 32
-7.067592378007248e-08
 13
-0.5102443695068359
 23
0.3827499449253082
 33
-7.067592378007248e-08
  0
3DFACE
  8
0
 10
-0.5097156167030334
 20
-0.6153506636619568
 30
-7.067592378007248e-08
 11
-0.5834687352180481
 21
-0.6151670217514038
 31
-7.067592378007248e-08
 12
-0.4913111627101898
 22
-0.6054920554161072
 32
0.018749121576547623
 13
-0.4913111627101898
 23
-0.6054920554161072
 33
0.018749121576547623
  0
3DFACE
  8
0
 10
0.507750928401947
 20
0.3802153468132019
 30
-7.067592378007248e-08
 11
0.5815041661262512
 21
0.3800317049026489
 31
-7.067592378007248e-08
 12
0.48935624957084656
 22
0.36753034591674805
 32
0.018749121576547623
 13
0.48935624957084656
 23
0.36753034591674805
 33
0.018749121576547623
  0
3DFACE
  8
0
 10
0.4898075759410858
 20
-0.607934832572937
 30
0.018749121576547623
 11
0.6004374027252197
 21
-0.6082102060317993
 31
0.018749121576547623
 12
0.5082797408103943
 22
-0.6178853511810303
 32
-7.067592378007248e-08
 13
0.5082797408103943
 23
-0.6178853511810303
 33
-7.067592378007248e-08
  0
ENDSEC
  0
EOF
