ply
format ascii 1.0
comment Created by Blender 2.74 (sub 0) - www.blender.org, source file: 'Low-Poly-Chairs-Set.blend'
element vertex 556
property float x
property float y
property float z
property float nx
property float ny
property float nz
property float s
property float t
element face 156
property list uchar uint vertex_indices
end_header
0.346797 0.373374 1.197745 -0.999994 -0.003420 0.000000 0.383006 0.219858
0.346654 0.415304 1.197745 -0.999994 -0.003420 0.000000 0.366986 0.219345
0.346654 0.415304 0.855348 -0.999994 -0.003420 0.000000 0.370751 0.073788
0.346797 0.373374 0.793508 -0.999994 -0.003420 0.000000 0.387452 0.048012
0.427101 0.415104 1.197745 0.999994 0.003421 0.000000 0.415240 0.220476
0.427245 0.373173 1.197745 0.999994 0.003421 0.000000 0.398927 0.220368
0.427245 0.373173 0.793508 0.999994 0.003421 0.000000 0.403372 0.048522
0.427101 0.415104 0.855348 0.999994 0.003421 0.000000 0.416518 0.075941
0.427245 0.373173 1.197745 -0.002489 -0.999997 0.000000 0.398927 0.220368
0.346797 0.373374 1.197745 -0.002489 -0.999997 0.000000 0.383006 0.219858
0.346797 0.373374 0.793508 -0.002489 -0.999997 0.000000 0.387452 0.048012
0.427245 0.373173 0.793508 -0.002489 -0.999997 0.000000 0.403372 0.048522
0.346654 0.415304 1.197745 0.002489 0.999997 0.000000 0.431427 0.220475
0.427101 0.415104 1.197745 0.002489 0.999997 0.000000 0.415240 0.220476
0.427101 0.415104 0.855348 0.002489 0.999997 0.000000 0.416518 0.075941
0.346654 0.415304 0.855348 0.002489 0.999997 0.000000 0.431426 0.072479
0.346654 0.415304 0.855348 0.002060 0.827680 -0.561197 0.431426 0.072479
0.427101 0.415104 0.855348 0.002060 0.827680 -0.561197 0.416518 0.075941
0.427245 0.373173 0.793508 0.002060 0.827680 -0.561197 0.403372 0.048522
0.346797 0.373374 0.793508 0.002060 0.827680 -0.561197 0.419188 0.040927
0.193803 0.415685 0.855348 -0.999994 -0.003419 0.000000 0.794932 0.381183
0.193947 0.373754 0.793508 -0.999994 -0.003419 0.000000 0.811632 0.355407
0.193947 0.373754 1.197745 -0.999994 -0.003419 0.000000 0.807186 0.527254
0.193803 0.415685 1.197745 -0.999994 -0.003419 0.000000 0.791166 0.526741
0.274251 0.415484 1.197745 0.999994 0.003419 0.000000 0.839420 0.527871
0.274394 0.373554 1.197745 0.999994 0.003419 0.000000 0.823107 0.527764
0.274394 0.373554 0.793508 0.999994 0.003419 0.000000 0.827553 0.355917
0.274251 0.415484 0.855348 0.999994 0.003419 0.000000 0.840699 0.383336
0.274394 0.373554 1.197745 -0.002490 -0.999997 0.000000 0.823107 0.527764
0.193947 0.373754 1.197745 -0.002490 -0.999997 0.000000 0.807186 0.527254
0.193947 0.373754 0.793508 -0.002490 -0.999997 0.000000 0.811632 0.355407
0.274394 0.373554 0.793508 -0.002490 -0.999997 0.000000 0.827553 0.355917
0.193803 0.415685 1.197745 0.002489 0.999997 0.000000 0.855607 0.527871
0.274251 0.415484 1.197745 0.002489 0.999997 0.000000 0.839420 0.527871
0.274251 0.415484 0.855348 0.002489 0.999997 0.000000 0.840699 0.383336
0.193803 0.415685 0.855348 0.002489 0.999997 0.000000 0.855607 0.379875
0.193803 0.415685 0.855348 0.002061 0.827680 -0.561196 0.855607 0.379875
0.274251 0.415484 0.855348 0.002061 0.827680 -0.561196 0.840699 0.383336
0.274394 0.373554 0.793508 0.002061 0.827680 -0.561196 0.827553 0.355917
0.193947 0.373754 0.793508 0.002061 0.827680 -0.561196 0.843368 0.348323
0.040953 0.416065 0.855348 -0.999994 -0.003420 0.000000 0.751732 0.560731
0.041096 0.374135 0.793508 -0.999994 -0.003420 0.000000 0.768433 0.534955
0.041096 0.374135 1.197745 -0.999994 -0.003420 0.000000 0.763987 0.706802
0.040953 0.416065 1.197745 -0.999994 -0.003420 0.000000 0.747966 0.706288
0.121400 0.415865 1.197745 0.999994 0.003420 0.000000 0.796220 0.707419
0.121544 0.373935 1.197745 0.999994 0.003420 0.000000 0.779907 0.707312
0.121544 0.373935 0.793508 0.999994 0.003420 0.000000 0.784353 0.535465
0.121400 0.415865 0.855348 0.999994 0.003420 0.000000 0.797499 0.562884
0.121544 0.373935 1.197745 -0.002490 -0.999997 0.000000 0.779907 0.707312
0.041096 0.374135 1.197745 -0.002490 -0.999997 0.000000 0.763987 0.706802
0.041096 0.374135 0.793508 -0.002490 -0.999997 0.000000 0.768433 0.534955
0.121544 0.373935 0.793508 -0.002490 -0.999997 0.000000 0.784353 0.535465
0.040953 0.416065 1.197745 0.002489 0.999997 0.000000 0.812408 0.707419
0.121400 0.415865 1.197745 0.002489 0.999997 0.000000 0.796220 0.707419
0.121400 0.415865 0.855348 0.002489 0.999997 0.000000 0.797499 0.562884
0.040953 0.416065 0.855348 0.002489 0.999997 0.000000 0.812407 0.559423
0.040953 0.416065 0.855348 0.002061 0.827680 -0.561196 0.812407 0.559423
0.121400 0.415865 0.855348 0.002061 0.827680 -0.561196 0.797499 0.562884
0.121544 0.373935 0.793508 0.002061 0.827680 -0.561196 0.784353 0.535465
0.041096 0.374135 0.793508 0.002061 0.827680 -0.561196 0.800169 0.527871
-0.111898 0.416446 0.855348 -0.999994 -0.003420 0.000000 0.828065 0.563057
-0.111754 0.374515 0.793508 -0.999994 -0.003420 0.000000 0.841340 0.535759
-0.111754 0.374515 1.197745 -0.999994 -0.003420 0.000000 0.844868 0.707419
-0.111898 0.416446 1.197745 -0.999994 -0.003420 0.000000 0.828575 0.707419
-0.031450 0.416246 1.197745 0.999994 0.003420 0.000000 0.876867 0.707055
-0.031307 0.374315 1.197745 0.999994 0.003420 0.000000 0.860797 0.707238
-0.031307 0.374315 0.793508 0.999994 0.003420 0.000000 0.857259 0.535130
-0.031450 0.416246 0.855348 0.999994 0.003420 0.000000 0.873870 0.561051
-0.031307 0.374315 1.197745 -0.002490 -0.999997 0.000000 0.860797 0.707238
-0.111754 0.374515 1.197745 -0.002490 -0.999997 0.000000 0.844868 0.707419
-0.111754 0.374515 0.793508 -0.002490 -0.999997 0.000000 0.841340 0.535759
-0.031307 0.374315 0.793508 -0.002490 -0.999997 0.000000 0.857259 0.535130
-0.111898 0.416446 1.197745 0.002489 0.999997 0.000000 0.828575 0.707419
-0.031450 0.416246 1.197745 0.002489 0.999997 0.000000 0.812408 0.707313
-0.031450 0.416246 0.855348 0.002489 0.999997 0.000000 0.813194 0.559502
-0.111898 0.416446 0.855348 0.002489 0.999997 0.000000 0.828065 0.563057
-0.111898 0.416446 0.855348 0.002061 0.827680 -0.561197 0.828065 0.563057
-0.031450 0.416246 0.855348 0.002061 0.827680 -0.561197 0.813194 0.559502
-0.031307 0.374315 0.793508 0.002061 0.827680 -0.561197 0.825585 0.528071
-0.111754 0.374515 0.793508 0.002061 0.827680 -0.561197 0.841340 0.535759
-0.264748 0.416826 0.855348 -0.999994 -0.003419 0.000000 0.849988 0.758768
-0.264605 0.374896 0.793508 -0.999994 -0.003419 0.000000 0.863279 0.731436
-0.264605 0.374896 1.197745 -0.999994 -0.003419 0.000000 0.866812 0.903309
-0.264748 0.416826 1.197745 -0.999994 -0.003419 0.000000 0.850498 0.903309
-0.184300 0.416626 1.197745 0.999994 0.003420 0.000000 0.898757 0.902496
-0.184157 0.374696 1.197745 0.999994 0.003420 0.000000 0.882735 0.902904
-0.184157 0.374696 0.793508 0.999994 0.003420 0.000000 0.879203 0.731031
-0.184300 0.416626 0.855348 0.999994 0.003420 0.000000 0.895766 0.756917
-0.184157 0.374696 1.197745 -0.002490 -0.999997 0.000000 0.882735 0.902904
-0.264605 0.374896 1.197745 -0.002490 -0.999997 0.000000 0.866812 0.903309
-0.264605 0.374896 0.793508 -0.002490 -0.999997 0.000000 0.863279 0.731436
-0.184157 0.374696 0.793508 -0.002490 -0.999997 0.000000 0.879203 0.731031
-0.264748 0.416826 1.197745 0.002489 0.999997 0.000000 0.850498 0.903309
-0.184300 0.416626 1.197745 0.002489 0.999997 0.000000 0.834311 0.903202
-0.184300 0.416626 0.855348 0.002489 0.999997 0.000000 0.835099 0.755209
-0.264748 0.416826 0.855348 0.002489 0.999997 0.000000 0.849988 0.758768
-0.264748 0.416826 0.855348 0.002061 0.827680 -0.561196 0.849988 0.758768
-0.184300 0.416626 0.855348 0.002061 0.827680 -0.561196 0.835099 0.755209
-0.184157 0.374696 0.793508 0.002061 0.827680 -0.561196 0.847505 0.723738
-0.264605 0.374896 0.793508 0.002061 0.827680 -0.561196 0.863279 0.731436
-0.417598 0.417207 0.855348 -0.999994 -0.003421 0.000000 0.699196 0.562901
-0.417455 0.375276 0.793508 -0.999994 -0.003421 0.000000 0.712488 0.535569
-0.417455 0.375276 1.197745 -0.999994 -0.003421 0.000000 0.716020 0.707442
-0.417598 0.417207 1.197745 -0.999994 -0.003421 0.000000 0.699707 0.707442
-0.337151 0.417007 1.197745 0.999994 0.003420 0.000000 0.747966 0.706629
-0.337007 0.375076 1.197745 0.999994 0.003420 0.000000 0.731943 0.707036
-0.337007 0.375076 0.793508 0.999994 0.003420 0.000000 0.728411 0.535164
-0.337151 0.417007 0.855348 0.999994 0.003420 0.000000 0.744974 0.561050
-0.337007 0.375076 1.197745 -0.002489 -0.999997 0.000000 0.731943 0.707036
-0.417455 0.375276 1.197745 -0.002489 -0.999997 0.000000 0.716020 0.707442
-0.417455 0.375276 0.793508 -0.002489 -0.999997 0.000000 0.712488 0.535569
-0.337007 0.375076 0.793508 -0.002489 -0.999997 0.000000 0.728411 0.535164
-0.417598 0.417207 1.197745 0.002490 0.999997 0.000000 0.699707 0.707442
-0.337151 0.417007 1.197745 0.002490 0.999997 0.000000 0.683520 0.707335
-0.337151 0.417007 0.855348 0.002490 0.999997 0.000000 0.684307 0.559342
-0.417598 0.417207 0.855348 0.002490 0.999997 0.000000 0.699196 0.562901
-0.417598 0.417207 0.855348 0.002061 0.827680 -0.561197 0.699196 0.562901
-0.337151 0.417007 0.855348 0.002061 0.827680 -0.561197 0.684307 0.559342
-0.337007 0.375076 0.793508 0.002061 0.827680 -0.561197 0.696713 0.527871
-0.417455 0.375276 0.793508 0.002061 0.827680 -0.561197 0.712488 0.535569
0.467231 -0.667521 1.203448 -0.000000 0.000000 -1.000000 0.461965 0.859674
0.467133 -0.605560 1.203448 -0.000000 0.000000 -1.000000 0.482995 0.859308
0.623097 -0.605948 1.203448 -0.000000 0.000000 -1.000000 0.483524 0.893816
0.623195 -0.667909 1.203448 -0.000000 0.000000 -1.000000 0.462610 0.895274
0.483073 -0.657771 1.256682 -0.000645 -0.259252 0.965810 0.467841 0.950346
0.607286 -0.658080 1.256682 -0.000645 -0.259252 0.965810 0.468157 0.919703
0.607188 -0.596119 1.273314 -0.000645 -0.259252 0.965810 0.488958 0.922523
0.482974 -0.595810 1.273314 -0.000645 -0.259252 0.965810 0.488780 0.948275
0.467231 -0.667521 1.203448 -0.002448 -0.983505 0.180864 0.461965 0.859674
0.623195 -0.667909 1.203448 -0.002448 -0.983505 0.180864 0.462610 0.895274
0.607286 -0.658080 1.256682 -0.002448 -0.983505 0.180864 0.441106 0.892131
0.483073 -0.657771 1.256682 -0.002448 -0.983505 0.180864 0.440592 0.863778
0.483073 -0.657771 1.256682 -0.966441 -0.035674 0.254398 0.467841 0.950346
0.482974 -0.595810 1.273314 -0.966441 -0.035674 0.254398 0.488780 0.948275
0.467133 -0.605560 1.203448 -0.966441 -0.035674 0.254398 0.482825 0.977267
0.467231 -0.667521 1.203448 -0.966441 -0.035674 0.254398 0.461161 0.974347
0.623195 -0.667909 1.203448 0.966387 -0.032696 0.255005 0.462610 0.895274
0.623097 -0.605948 1.203448 0.966387 -0.032696 0.255005 0.483524 0.893816
0.607188 -0.596119 1.273314 0.966387 -0.032696 0.255005 0.488958 0.922523
0.607286 -0.658080 1.256682 0.966387 -0.032696 0.255005 0.468157 0.919703
0.482974 -0.595810 1.273314 0.000000 0.000000 1.000000 0.488780 0.948275
0.607188 -0.596119 1.273314 0.000000 0.000000 1.000000 0.488958 0.922523
0.606551 0.433587 1.273314 0.000000 0.000000 1.000000 0.791013 0.923269
0.482338 0.433896 1.273314 0.000000 0.000000 1.000000 0.790948 0.950523
0.482338 0.433896 1.273314 0.002490 0.999997 0.000000 0.817619 0.862788
0.606551 0.433587 1.273314 0.002490 0.999997 0.000000 0.817619 0.890012
0.622426 0.433548 1.203448 0.002490 0.999997 0.000000 0.791048 0.893492
0.466462 0.433936 1.203448 0.002490 0.999997 0.000000 0.791048 0.859309
0.482338 0.433896 1.273314 -0.975184 -0.000616 0.221397 0.790948 0.950523
0.466462 0.433936 1.203448 -0.975184 -0.000616 0.221397 0.790833 0.980318
0.467133 -0.605560 1.203448 -0.975184 -0.000616 0.221397 0.482825 0.977267
0.482974 -0.595810 1.273314 -0.975184 -0.000616 0.221397 0.488780 0.948275
0.622426 0.433548 1.203448 0.975101 0.000616 0.221760 0.791048 0.893492
0.606551 0.433587 1.273314 0.975101 0.000616 0.221760 0.791013 0.923269
0.607188 -0.596119 1.273314 0.975101 0.000616 0.221760 0.488958 0.922523
0.623097 -0.605948 1.203448 0.975101 0.000616 0.221760 0.483524 0.893816
0.466462 0.433936 1.203448 0.000000 0.000000 -1.000000 0.791048 0.859309
0.622426 0.433548 1.203448 0.000000 0.000000 -1.000000 0.791048 0.893492
-0.468554 -0.665191 1.203448 0.000000 -0.000000 -1.000000 0.461921 0.851770
-0.624518 -0.664802 1.203448 0.000000 -0.000000 -1.000000 0.462875 0.816192
-0.624616 -0.602842 1.203448 0.000000 -0.000000 -1.000000 0.483771 0.817869
-0.468652 -0.603230 1.203448 0.000000 -0.000000 -1.000000 0.482955 0.852372
-0.484463 -0.655362 1.256682 -0.000646 -0.259252 0.965810 0.468556 0.761197
-0.484561 -0.593401 1.273314 -0.000646 -0.259252 0.965810 0.489471 0.763478
-0.608774 -0.593092 1.273314 -0.000646 -0.259252 0.965810 0.489441 0.789223
-0.608676 -0.655052 1.256682 -0.000646 -0.259252 0.965810 0.468623 0.791831
-0.468554 -0.665191 1.203448 -0.002448 -0.983505 0.180862 0.461921 0.851770
-0.484463 -0.655362 1.256682 -0.002448 -0.983505 0.180862 0.440592 0.847438
-0.608676 -0.655052 1.256682 -0.002448 -0.983505 0.180862 0.441352 0.819102
-0.624518 -0.664802 1.203448 -0.002448 -0.983505 0.180862 0.462875 0.816192
-0.484463 -0.655362 1.256682 0.966386 -0.032695 0.255006 0.468556 0.761197
-0.468554 -0.665191 1.203448 0.966386 -0.032695 0.255006 0.462072 0.737140
-0.468652 -0.603230 1.203448 0.966386 -0.032695 0.255006 0.483751 0.734437
-0.484561 -0.593401 1.273314 0.966386 -0.032695 0.255006 0.489471 0.763478
-0.624518 -0.664802 1.203448 -0.966441 -0.035674 0.254399 0.462875 0.816192
-0.608676 -0.655052 1.256682 -0.966441 -0.035674 0.254399 0.468623 0.791831
-0.608774 -0.593092 1.273314 -0.966441 -0.035674 0.254399 0.489441 0.789223
-0.624616 -0.602842 1.203448 -0.966441 -0.035674 0.254399 0.483771 0.817869
-0.484561 -0.593401 1.273314 -0.000000 0.000000 1.000000 0.489471 0.763478
-0.485198 0.436305 1.273314 -0.000000 0.000000 1.000000 0.791649 0.764197
-0.609411 0.436615 1.273314 -0.000000 0.000000 1.000000 0.791598 0.791435
-0.608774 -0.593092 1.273314 -0.000000 0.000000 1.000000 0.489441 0.789223
-0.485198 0.436305 1.273314 0.002490 0.999997 0.000000 0.817730 0.852202
-0.469322 0.436266 1.203448 0.002490 0.999997 0.000000 0.791122 0.855420
-0.625287 0.436654 1.203448 0.002490 0.999997 0.000000 0.791395 0.821224
-0.609411 0.436615 1.273314 0.002490 0.999997 0.000000 0.817948 0.824968
-0.485198 0.436305 1.273314 0.975101 0.000616 0.221761 0.791649 0.764197
-0.484561 -0.593401 1.273314 0.975101 0.000616 0.221761 0.489471 0.763478
-0.468652 -0.603230 1.203448 0.975101 0.000616 0.221761 0.483751 0.734437
-0.469322 0.436266 1.203448 0.975101 0.000616 0.221761 0.791674 0.734436
-0.625287 0.436654 1.203448 -0.975183 -0.000616 0.221399 0.791395 0.821224
-0.624616 -0.602842 1.203448 -0.975183 -0.000616 0.221399 0.483771 0.817869
-0.608774 -0.593092 1.273314 -0.975183 -0.000616 0.221399 0.489441 0.789223
-0.609411 0.436615 1.273314 -0.975183 -0.000616 0.221399 0.791598 0.791435
-0.469322 0.436266 1.203448 0.000000 0.000000 -1.000000 0.791122 0.855420
-0.625287 0.436654 1.203448 0.000000 0.000000 -1.000000 0.791395 0.821224
0.508415 -0.657503 -0.000000 -0.002201 -0.884209 -0.467087 0.040509 0.437172
0.582168 -0.657687 -0.000000 -0.002201 -0.884209 -0.467087 0.055009 0.436027
0.600641 -0.667637 0.018749 -0.002201 -0.884209 -0.467087 0.061559 0.443376
0.490011 -0.667362 0.018749 -0.002201 -0.884209 -0.467087 0.033573 0.445588
0.600719 -0.690539 0.753487 -0.002489 -0.999512 -0.031154 0.737307 0.336725
0.490089 -0.690263 0.753487 -0.002489 -0.999512 -0.031154 0.715607 0.336649
0.490011 -0.667362 0.018749 -0.002489 -0.999512 -0.031154 0.717681 0.023482
0.600641 -0.667637 0.018749 -0.002489 -0.999512 -0.031154 0.739731 0.023634
0.600429 -0.605892 0.743241 0.002490 0.999992 -0.003200 0.769348 0.332299
0.600437 -0.608210 0.018749 0.002490 0.999992 -0.003200 0.762572 0.023107
0.489808 -0.607935 0.018749 0.002490 0.999992 -0.003200 0.784594 0.022528
0.489800 -0.605616 0.743241 0.002490 0.999992 -0.003200 0.791166 0.332329
0.489800 -0.605616 0.743241 -0.999994 -0.003420 0.000000 0.683520 0.331956
0.489808 -0.607935 0.018749 -0.999994 -0.003420 0.000000 0.694867 0.022528
0.490011 -0.667362 0.018749 -0.999994 -0.003420 0.000000 0.717681 0.023482
0.490089 -0.690263 0.753487 -0.999994 -0.003420 0.000000 0.715607 0.336649
0.600429 -0.605892 1.084797 0.999994 0.003420 -0.000000 0.765863 0.474667
0.600429 -0.605892 1.203448 0.999994 0.003420 -0.000000 0.759490 0.524775
0.600610 -0.658799 1.203448 0.999994 0.003420 -0.000000 0.738861 0.521394
0.600719 -0.690539 1.049662 0.999994 0.003420 -0.000000 0.736450 0.457227
0.489095 0.443916 0.018749 0.002060 0.827307 -0.561747 0.069326 0.043088
0.599725 0.443640 0.018749 0.002060 0.827307 -0.561747 0.067188 0.073053
0.581330 0.430955 -0.000000 0.002060 0.827307 -0.561747 0.059808 0.066091
0.507577 0.431139 -0.000000 0.002060 0.827307 -0.561747 0.060671 0.050300
0.599725 0.443640 0.881687 0.002490 0.999997 0.000000 0.497978 0.387531
0.599725 0.443640 0.018749 0.002490 0.999997 0.000000 0.497266 0.022952
0.489095 0.443916 0.018749 0.002490 0.999997 0.000000 0.519019 0.022902
0.489095 0.443916 0.881687 0.002490 0.999997 0.000000 0.519737 0.387426
0.600051 0.348118 0.881687 -0.002489 -0.999751 -0.022171 0.461678 0.387767
0.489422 0.348393 0.881687 -0.002489 -0.999751 -0.022171 0.439888 0.386937
0.489356 0.367530 0.018749 -0.002489 -0.999751 -0.022171 0.446524 0.022528
0.599986 0.367255 0.018749 -0.002489 -0.999751 -0.022171 0.468267 0.023018
0.489422 0.348393 0.881687 -0.999994 -0.003420 -0.000000 0.555960 0.387309
0.489095 0.443916 0.881687 -0.999994 -0.003420 -0.000000 0.519737 0.387426
0.489095 0.443916 0.018749 -0.999994 -0.003420 -0.000000 0.519019 0.022902
0.489356 0.367530 0.018749 -0.999994 -0.003420 -0.000000 0.548016 0.022835
0.600088 0.337604 1.687153 0.999994 0.003421 0.000001 0.349996 0.363664
0.599725 0.443640 1.687153 0.999994 0.003421 0.000001 0.436293 0.363664
0.599805 0.420162 1.744624 0.999994 0.003421 0.000001 0.403803 0.376013
0.599986 0.367255 1.744624 0.999994 0.003421 0.000001 0.381638 0.379247
-0.491108 -0.664919 0.018749 -0.002201 -0.884206 -0.467092 0.319162 0.444188
-0.601738 -0.664644 0.018749 -0.002201 -0.884206 -0.467092 0.322236 0.414155
-0.583333 -0.654785 -0.000000 -0.002201 -0.884206 -0.467092 0.328583 0.421262
-0.509580 -0.654969 -0.000000 -0.002201 -0.884206 -0.467092 0.327570 0.436921
-0.601659 -0.687545 0.753487 -0.002488 -0.999512 -0.031154 0.373302 0.782585
-0.601738 -0.664644 0.018749 -0.002488 -0.999512 -0.031154 0.376215 0.469499
-0.491108 -0.664919 0.018749 -0.002488 -0.999512 -0.031154 0.398263 0.469812
-0.491030 -0.687821 0.753487 -0.002488 -0.999512 -0.031154 0.394999 0.782967
-0.601949 -0.602898 0.743241 0.002490 0.999992 -0.003200 0.341342 0.777484
-0.491319 -0.603174 0.743241 0.002490 0.999992 -0.003200 0.319527 0.777054
-0.491311 -0.605492 0.018749 0.002490 0.999992 -0.003200 0.331378 0.467447
-0.601941 -0.605217 0.018749 0.002490 0.999992 -0.003200 0.353387 0.468489
-0.491319 -0.603174 0.743241 0.999994 0.003420 0.000000 0.427160 0.778952
-0.491030 -0.687821 0.753487 0.999994 0.003420 0.000000 0.394999 0.782967
-0.491108 -0.664919 0.018749 0.999994 0.003420 0.000000 0.398263 0.469812
-0.491311 -0.605492 0.018749 0.999994 0.003420 0.000000 0.421089 0.469340
-0.601949 -0.602898 1.084797 -0.999994 -0.003421 -0.000000 0.342402 0.919901
-0.601659 -0.687545 1.049662 -0.999994 -0.003421 -0.000000 0.372107 0.903084
-0.601768 -0.655806 1.203448 -0.999994 -0.003421 -0.000000 0.368604 0.967188
-0.601949 -0.602898 1.203448 -0.999994 -0.003421 -0.000000 0.347921 0.970134
-0.510419 0.433674 -0.000000 0.002060 0.827307 -0.561746 0.344352 0.064739
-0.584172 0.433857 -0.000000 0.002060 0.827307 -0.561746 0.344926 0.048833
-0.602654 0.446634 0.018749 0.002060 0.827307 -0.561746 0.353601 0.041942
-0.492024 0.446359 0.018749 0.002060 0.827307 -0.561746 0.351628 0.071915
-0.602654 0.446634 0.881687 0.002490 0.999997 0.000000 0.622498 0.387529
-0.492024 0.446359 0.881687 0.002490 0.999997 0.000000 0.600740 0.387420
-0.492024 0.446359 0.018749 0.002490 0.999997 0.000000 0.601508 0.022896
-0.602654 0.446634 0.018749 0.002490 0.999997 0.000000 0.623260 0.022947
-0.602327 0.351111 0.881687 -0.002489 -0.999751 -0.022171 0.658799 0.387772
-0.602392 0.370249 0.018749 -0.002489 -0.999751 -0.022171 0.652260 0.023016
-0.491763 0.369973 0.018749 -0.002489 -0.999751 -0.022171 0.674003 0.022528
-0.491697 0.350836 0.881687 -0.002489 -0.999751 -0.022171 0.680589 0.386946
-0.491697 0.350836 0.881687 0.999994 0.003420 -0.000000 0.564517 0.387295
-0.491763 0.369973 0.018749 0.999994 0.003420 -0.000000 0.572511 0.022825
-0.492024 0.446359 0.018749 0.999994 0.003420 -0.000000 0.601508 0.022896
-0.492024 0.446359 0.881687 0.999994 0.003420 -0.000000 0.600740 0.387420
-0.602291 0.340597 1.687153 -0.999994 -0.003420 -0.000000 0.349510 0.300626
-0.602392 0.370249 1.744624 -0.999994 -0.003420 -0.000000 0.381151 0.285043
-0.602573 0.423156 1.744624 -0.999994 -0.003420 -0.000000 0.403316 0.288277
-0.602654 0.446634 1.687153 -0.999994 -0.003420 -0.000000 0.435807 0.300626
0.489175 0.420438 1.744624 0.000000 0.000000 1.000000 0.401133 0.393677
0.489356 0.367530 1.744624 0.000000 0.000000 1.000000 0.384327 0.392590
0.599986 0.367255 1.744624 0.000000 0.000000 1.000000 0.381638 0.379247
0.599805 0.420162 1.744624 0.000000 0.000000 1.000000 0.403803 0.376013
-0.491763 0.369973 1.744624 -0.000000 0.000000 1.000000 0.383841 0.271700
-0.491944 0.422881 1.744624 -0.000000 0.000000 1.000000 0.400647 0.270613
-0.602573 0.423156 1.744624 -0.000000 0.000000 1.000000 0.403316 0.288277
-0.602392 0.370249 1.744624 -0.000000 0.000000 1.000000 0.381151 0.285043
-0.491763 0.369973 1.693370 -0.999994 -0.003420 0.000000 0.257391 0.969896
-0.491944 0.422881 1.693370 -0.999994 -0.003420 0.000000 0.237363 0.969896
-0.491944 0.422881 1.197745 -0.999994 -0.003420 0.000000 0.237363 0.761145
-0.491763 0.369973 1.197745 -0.999994 -0.003420 0.000000 0.257391 0.761145
0.489356 0.367530 1.693370 0.999994 0.003420 0.000000 0.024963 0.969896
0.489356 0.367530 1.197745 0.999994 0.003420 0.000000 0.024963 0.761145
0.489175 0.420438 1.197745 0.999994 0.003420 0.000000 0.044990 0.761145
0.489175 0.420438 1.693370 0.999994 0.003420 0.000000 0.044991 0.969896
-0.491944 0.422881 1.693370 0.000000 0.000000 1.000000 0.237363 0.969896
-0.491763 0.369973 1.693370 0.000000 0.000000 1.000000 0.237363 0.992180
0.489356 0.367530 1.693370 0.000000 0.000000 1.000000 0.044991 0.992179
0.489175 0.420438 1.693370 0.000000 0.000000 1.000000 0.044991 0.969896
0.489175 0.420438 1.197745 0.000000 0.000000 -1.000000 0.044990 0.761145
0.489356 0.367530 1.197745 0.000000 0.000000 -1.000000 0.044990 0.738861
-0.491763 0.369973 1.197745 0.000000 0.000000 -1.000000 0.237363 0.738861
-0.491944 0.422881 1.197745 0.000000 0.000000 -1.000000 0.237363 0.761145
0.489175 0.420438 1.693370 0.002490 0.999997 0.000000 0.044991 0.969896
0.489175 0.420438 1.197745 0.002490 0.999997 0.000000 0.044990 0.761145
-0.491944 0.422881 1.197745 0.002490 0.999997 0.000000 0.237363 0.761145
-0.491944 0.422881 1.693370 0.002490 0.999997 0.000000 0.237363 0.969896
0.399741 0.367753 1.622882 -0.002490 -0.999997 0.000000 0.818328 0.220186
0.399741 0.367753 1.268234 -0.002490 -0.999997 0.000000 0.955149 0.220075
0.489356 0.367530 1.197745 -0.002490 -0.999997 0.000000 0.982296 0.239956
0.489356 0.367530 1.693370 -0.002490 -0.999997 0.000000 0.791166 0.240124
-0.357551 0.352552 1.603184 -0.125675 -0.945250 0.301096 0.827041 0.053573
0.355261 0.350777 1.603184 0.121555 -0.945830 0.300943 0.827064 0.209142
0.399741 0.367753 1.622882 0.065310 -0.996277 0.055727 0.818328 0.220186
-0.402147 0.369750 1.622882 -0.070101 -0.995972 0.055513 0.818314 0.042569
-0.402147 0.369750 1.268234 -0.002490 -0.999997 -0.000000 0.955134 0.042466
-0.491763 0.369973 1.197745 -0.002490 -0.999997 -0.000000 0.982296 0.022528
-0.402147 0.369750 1.622882 -0.002490 -0.999997 0.000000 0.818314 0.042569
-0.491763 0.369973 1.693370 -0.002490 -0.999997 0.000000 0.791166 0.022686
-0.357551 0.352552 1.603184 -0.002490 -0.999997 0.000000 0.827041 0.053573
-0.357551 0.352552 1.287932 -0.002490 -0.999997 0.000000 0.946392 0.053504
0.355261 0.350777 1.287932 -0.002490 -0.999997 0.000000 0.946415 0.209076
0.355261 0.350777 1.603184 -0.002490 -0.999997 0.000000 0.827064 0.209142
0.355261 0.350777 1.287932 0.121555 -0.945830 -0.300943 0.946415 0.209076
-0.357551 0.352552 1.287932 -0.125675 -0.945250 -0.301096 0.946392 0.053504
-0.402147 0.369750 1.268234 -0.070101 -0.995972 -0.055513 0.955134 0.042466
0.399741 0.367753 1.268234 0.065310 -0.996277 -0.055727 0.955149 0.220075
0.600719 -0.690539 1.049662 -0.002490 -0.999997 0.000000 0.736450 0.457227
0.490089 -0.690263 1.049662 -0.002490 -0.999997 0.000000 0.716556 0.457406
0.490089 -0.690263 0.753487 -0.002490 -0.999997 0.000000 0.715607 0.336649
0.600719 -0.690539 0.753487 -0.002490 -0.999997 0.000000 0.737307 0.336725
0.600429 -0.605892 1.084797 0.002491 0.999997 0.000000 0.765863 0.474667
0.600429 -0.605892 0.743241 0.002491 0.999997 0.000000 0.769348 0.332299
0.489800 -0.605616 0.743241 0.002491 0.999997 0.000000 0.791166 0.332329
0.489800 -0.605616 1.084797 0.002491 0.999997 0.000000 0.787512 0.476586
0.489800 -0.605616 1.084797 -0.999994 -0.003421 0.000000 0.687095 0.475532
0.489800 -0.605616 0.743241 -0.999994 -0.003421 0.000000 0.683520 0.331956
0.490089 -0.690263 0.753487 -0.999994 -0.003421 0.000000 0.715607 0.336649
0.490089 -0.690263 1.049662 -0.999994 -0.003421 0.000000 0.716556 0.457406
0.600437 -0.608210 0.018749 0.999994 0.003420 0.000000 0.762572 0.023107
0.600429 -0.605892 0.743241 0.999994 0.003420 0.000000 0.769348 0.332299
0.600719 -0.690539 0.753487 0.999994 0.003420 0.000000 0.737307 0.336725
0.600641 -0.667637 0.018749 0.999994 0.003420 0.000000 0.739731 0.023634
-0.601659 -0.687545 1.049662 -0.002490 -0.999997 0.000000 0.372107 0.903084
-0.601659 -0.687545 0.753487 -0.002490 -0.999997 0.000000 0.373302 0.782585
-0.491030 -0.687821 0.753487 -0.002490 -0.999997 0.000000 0.394999 0.782967
-0.491030 -0.687821 1.049662 -0.002490 -0.999997 0.000000 0.391993 0.903681
-0.601949 -0.602898 1.084797 0.002491 0.999997 0.000000 0.342402 0.919901
-0.491319 -0.603174 1.084797 0.002491 0.999997 0.000000 0.320724 0.921362
-0.491319 -0.603174 0.743241 0.002491 0.999997 0.000000 0.319527 0.777054
-0.601949 -0.602898 0.743241 0.002491 0.999997 0.000000 0.341342 0.777484
-0.491319 -0.603174 1.084797 0.999994 0.003420 0.000000 0.421141 0.922426
-0.491030 -0.687821 1.049662 0.999994 0.003420 0.000000 0.391993 0.903681
-0.601941 -0.605217 0.018749 -0.999994 -0.003421 -0.000000 0.353387 0.468489
-0.601738 -0.664644 0.018749 -0.999994 -0.003421 -0.000000 0.376215 0.469499
-0.601659 -0.687545 0.753487 -0.999994 -0.003421 -0.000000 0.373302 0.782585
-0.601949 -0.602898 0.743241 -0.999994 -0.003421 -0.000000 0.341342 0.777484
0.600610 -0.658799 1.203448 -0.002438 -0.979357 0.202126 0.738861 0.521394
0.489981 -0.658524 1.203448 -0.002438 -0.979357 0.202126 0.716079 0.521726
0.490089 -0.690263 1.049662 -0.002438 -0.979357 0.202126 0.716556 0.457406
0.600719 -0.690539 1.049662 -0.002438 -0.979357 0.202126 0.736450 0.457227
0.600429 -0.605892 1.203448 0.002491 0.999997 0.000000 0.759490 0.524775
0.489800 -0.605616 1.203448 0.002491 0.999997 0.000000 0.781751 0.527871
0.489800 -0.605616 1.203448 -0.999994 -0.003421 0.000000 0.695830 0.526060
0.489981 -0.658524 1.203448 -0.999994 -0.003421 0.000000 0.716079 0.521726
-0.601768 -0.655806 1.203448 -0.002438 -0.979356 0.202126 0.368604 0.967188
-0.601659 -0.687545 1.049662 -0.002438 -0.979356 0.202126 0.372107 0.903084
-0.491030 -0.687821 1.049662 -0.002438 -0.979356 0.202126 0.391993 0.903681
-0.491138 -0.656081 1.203448 -0.002438 -0.979356 0.202126 0.391375 0.968000
-0.601949 -0.602898 1.203448 0.002491 0.999997 0.000000 0.347921 0.970134
-0.491319 -0.603174 1.203448 0.002491 0.999997 0.000000 0.325611 0.972760
-0.491319 -0.603174 1.203448 0.999994 0.003419 0.000000 0.411547 0.972760
-0.491138 -0.656081 1.203448 0.999994 0.003419 0.000000 0.391375 0.968000
-0.491030 -0.687821 1.049662 0.999994 0.003419 0.000000 0.391993 0.903681
-0.491319 -0.603174 1.084797 0.999994 0.003419 0.000000 0.421141 0.922426
0.599725 0.443640 1.038543 0.002490 0.999997 0.000000 0.498454 0.453546
0.489095 0.443916 1.038543 0.002490 0.999997 0.000000 0.520057 0.453459
0.600088 0.337604 1.038543 -0.002485 -0.997758 -0.066877 0.458530 0.453771
0.489458 0.337879 1.038543 -0.002485 -0.997758 -0.066877 0.436974 0.453187
0.489422 0.348393 0.881687 -0.002485 -0.997758 -0.066877 0.439888 0.386937
0.600051 0.348118 0.881687 -0.002485 -0.997758 -0.066877 0.461678 0.387767
0.489458 0.337879 1.038543 -0.999994 -0.003420 0.000000 0.560114 0.453363
0.489095 0.443916 1.038543 -0.999994 -0.003420 0.000000 0.520057 0.453459
0.599986 0.367255 0.018749 0.999994 0.003420 -0.000000 0.468267 0.023018
0.599725 0.443640 0.018749 0.999994 0.003420 -0.000000 0.497266 0.022952
0.599725 0.443640 0.881687 0.999994 0.003420 -0.000000 0.497978 0.387531
0.600051 0.348118 0.881687 0.999994 0.003420 -0.000000 0.461678 0.387767
-0.602654 0.446634 1.038543 0.002490 0.999997 0.000000 0.622011 0.453544
-0.492024 0.446359 1.038543 0.002490 0.999997 0.000000 0.600407 0.453451
-0.602291 0.340597 1.038543 -0.002484 -0.997758 -0.066877 0.661935 0.453778
-0.602327 0.351111 0.881687 -0.002484 -0.997758 -0.066877 0.658799 0.387772
-0.491697 0.350836 0.881687 -0.002484 -0.997758 -0.066877 0.680589 0.386946
-0.491661 0.340322 1.038543 -0.002484 -0.997758 -0.066877 0.683491 0.453199
-0.491661 0.340322 1.038543 0.999994 0.003420 -0.000000 0.560351 0.453347
-0.492024 0.446359 1.038543 0.999994 0.003420 -0.000000 0.600407 0.453451
-0.602392 0.370249 0.018749 -0.999994 -0.003420 -0.000000 0.652260 0.023016
-0.602327 0.351111 0.881687 -0.999994 -0.003420 -0.000000 0.658799 0.387772
-0.602654 0.446634 0.881687 -0.999994 -0.003420 -0.000000 0.622498 0.387529
-0.602654 0.446634 0.018749 -0.999994 -0.003420 -0.000000 0.623260 0.022947
0.600088 0.337604 1.038543 0.999994 0.003422 0.000000 0.458530 0.453771
0.599725 0.443640 1.038543 0.999994 0.003422 0.000000 0.498454 0.453546
0.599725 0.443640 1.687153 0.999994 0.003422 0.000000 0.498548 0.725784
0.600088 0.337604 1.687153 0.999994 0.003422 0.000000 0.458534 0.725789
-0.602291 0.340597 1.038543 -0.999994 -0.003422 0.000000 0.661935 0.453778
-0.602291 0.340597 1.687153 -0.999994 -0.003422 0.000000 0.661875 0.725794
-0.602654 0.446634 1.687153 -0.999994 -0.003422 0.000000 0.621861 0.725779
-0.602654 0.446634 1.038543 -0.999994 -0.003422 0.000000 0.622011 0.453544
0.599805 0.420162 1.744624 0.002305 0.925732 0.378173 0.403803 0.376013
0.599725 0.443640 1.687153 0.002305 0.925732 0.378173 0.436293 0.363664
0.489095 0.443916 1.687153 0.002305 0.925732 0.378173 0.421010 0.407087
0.489175 0.420438 1.744624 0.002305 0.925732 0.378173 0.401133 0.393677
0.599986 0.367255 1.744624 -0.002213 -0.888693 0.458497 0.381638 0.379247
0.489356 0.367530 1.744624 -0.002213 -0.888693 0.458497 0.384327 0.392590
0.489458 0.337879 1.687153 -0.002213 -0.888693 0.458497 0.364571 0.407053
0.600088 0.337604 1.687153 -0.002213 -0.888693 0.458497 0.349996 0.363664
0.489356 0.367530 1.744624 -0.999994 -0.003420 0.000000 0.384327 0.392590
0.489175 0.420438 1.744624 -0.999994 -0.003420 0.000000 0.401133 0.393677
0.489095 0.443916 1.687153 -0.999994 -0.003420 0.000000 0.421010 0.407087
0.489458 0.337879 1.687153 -0.999994 -0.003420 0.000000 0.364571 0.407053
-0.602573 0.423156 1.744624 0.002305 0.925732 0.378173 0.403316 0.288277
-0.491944 0.422881 1.744624 0.002305 0.925732 0.378173 0.400647 0.270613
-0.492024 0.446359 1.687153 0.002305 0.925732 0.378173 0.420524 0.257203
-0.602654 0.446634 1.687153 0.002305 0.925732 0.378173 0.435807 0.300626
-0.602392 0.370249 1.744624 -0.002213 -0.888693 0.458497 0.381151 0.285043
-0.602291 0.340597 1.687153 -0.002213 -0.888693 0.458497 0.349510 0.300626
-0.491661 0.340322 1.687153 -0.002213 -0.888693 0.458497 0.364085 0.257237
-0.491763 0.369973 1.744624 -0.002213 -0.888693 0.458497 0.383841 0.271700
-0.491763 0.369973 1.744624 0.999994 0.003420 0.000000 0.383841 0.271700
-0.491661 0.340322 1.687153 0.999994 0.003420 0.000000 0.364085 0.257237
-0.492024 0.446359 1.687153 0.999994 0.003420 0.000000 0.420524 0.257203
-0.491944 0.422881 1.744624 0.999994 0.003420 0.000000 0.400647 0.270613
0.599725 0.443640 1.687153 0.002490 0.999997 0.000000 0.498548 0.725784
0.489095 0.443916 1.687153 0.002490 0.999997 0.000000 0.520181 0.725781
0.600088 0.337604 1.687153 -0.002490 -0.999997 0.000000 0.458534 0.725789
0.489458 0.337879 1.687153 -0.002490 -0.999997 0.000000 0.436889 0.725780
0.489458 0.337879 1.038543 -0.002490 -0.999997 0.000000 0.436974 0.453187
0.600088 0.337604 1.038543 -0.002490 -0.999997 0.000000 0.458530 0.453771
0.489458 0.337879 1.687153 -0.999994 -0.003420 0.000000 0.560205 0.725764
0.489095 0.443916 1.687153 -0.999994 -0.003420 0.000000 0.520181 0.725781
-0.602654 0.446634 1.687153 0.002490 0.999997 0.000000 0.621861 0.725779
-0.492024 0.446359 1.687153 0.002490 0.999997 0.000000 0.600228 0.725771
-0.602291 0.340597 1.687153 -0.002490 -0.999997 0.000000 0.661875 0.725794
-0.602291 0.340597 1.038543 -0.002490 -0.999997 0.000000 0.661935 0.453778
-0.491661 0.340322 1.038543 -0.002490 -0.999997 0.000000 0.683491 0.453199
-0.491661 0.340322 1.687153 -0.002490 -0.999997 0.000000 0.683520 0.725792
-0.491661 0.340322 1.687153 0.999994 0.003420 0.000000 0.560205 0.725744
-0.492024 0.446359 1.687153 0.999994 0.003420 0.000000 0.600228 0.725771
0.600051 0.348118 0.881687 0.999994 0.003421 -0.000000 0.461678 0.387767
0.599725 0.443640 0.881687 0.999994 0.003421 -0.000000 0.497978 0.387531
0.599725 0.443640 1.038543 0.999994 0.003421 -0.000000 0.498454 0.453546
0.600088 0.337604 1.038543 0.999994 0.003421 -0.000000 0.458530 0.453771
-0.602327 0.351111 0.881687 -0.999994 -0.003421 0.000000 0.658799 0.387772
-0.602291 0.340597 1.038543 -0.999994 -0.003421 0.000000 0.661935 0.453778
-0.602654 0.446634 1.038543 -0.999994 -0.003421 0.000000 0.622011 0.453544
-0.602654 0.446634 0.881687 -0.999994 -0.003421 0.000000 0.622498 0.387529
0.527613 -0.642433 0.850239 -0.002490 -0.999997 0.000000 0.299943 0.442348
-0.531942 -0.639795 0.850239 -0.002490 -0.999997 0.000000 0.077332 0.452764
-0.531942 -0.639795 0.743334 -0.002490 -0.999997 0.000000 0.075631 0.407776
0.527613 -0.642433 0.743334 -0.002490 -0.999997 0.000000 0.298242 0.397360
-0.531942 -0.639795 0.850239 -1.000000 -0.000617 0.000000 0.035200 0.405806
-0.532577 0.389298 0.850239 -1.000000 -0.000617 0.000000 0.047471 0.094101
-0.532577 0.389298 0.743334 -1.000000 -0.000617 0.000000 0.087902 0.096071
-0.531942 -0.639795 0.743334 -1.000000 -0.000617 0.000000 0.075631 0.407776
-0.532577 0.389298 0.850239 0.002490 0.999997 0.000000 0.086202 0.051084
0.526978 0.386660 0.850239 0.002490 0.999997 0.000000 0.308813 0.040668
0.526978 0.386660 0.743334 0.002490 0.999997 0.000000 0.310513 0.085655
-0.532577 0.389298 0.743334 0.002490 0.999997 0.000000 0.087902 0.096071
0.526978 0.386660 0.850239 1.000000 0.000617 0.000000 0.350944 0.087625
0.527613 -0.642433 0.850239 1.000000 0.000617 0.000000 0.338673 0.399330
0.527613 -0.642433 0.743334 1.000000 0.000617 0.000000 0.298242 0.397360
0.526978 0.386660 0.743334 1.000000 0.000617 0.000000 0.310513 0.085655
0.527613 -0.642433 0.743334 0.000000 -0.000000 -1.000000 0.298242 0.397360
-0.531942 -0.639795 0.743334 0.000000 -0.000000 -1.000000 0.075631 0.407776
-0.532577 0.389298 0.743334 0.000000 -0.000000 -1.000000 0.087902 0.096071
0.526978 0.386660 0.743334 0.000000 -0.000000 -1.000000 0.310513 0.085655
0.460290 0.318044 0.850239 0.000000 0.000000 1.000000 0.300979 0.482769
0.461021 -0.584879 0.850239 0.000000 0.000000 1.000000 0.046858 0.482632
0.527613 -0.642433 0.850239 0.000000 0.000000 1.000000 0.030750 0.467447
0.526978 0.386660 0.850239 0.000000 0.000000 1.000000 0.319527 0.467447
-0.380344 0.289676 0.886638 -0.152318 0.280953 0.947539 0.264584 0.689083
0.397073 0.264451 0.886638 0.183172 0.248390 0.951170 0.278957 0.501893
0.460290 0.318044 0.850239 0.070284 0.079104 0.994354 0.300979 0.482769
-0.460210 0.330503 0.850239 -0.082125 0.059786 0.994812 0.284060 0.708553
-0.460210 0.330503 0.850239 0.000000 0.000000 1.000000 0.284060 0.708553
-0.532577 0.389298 0.850239 0.000000 0.000000 1.000000 0.300169 0.723738
-0.470987 -0.582559 0.850239 0.000000 -0.000000 1.000000 0.029940 0.708416
-0.531942 -0.639795 0.850239 0.000000 -0.000000 1.000000 0.011392 0.723738
0.397073 0.264451 0.886638 0.000000 -0.000000 1.000000 0.278957 0.501893
-0.380344 0.289676 0.886638 0.000000 -0.000000 1.000000 0.264584 0.689083
-0.407747 -0.535527 0.886638 0.000000 -0.000000 1.000000 0.051962 0.689292
0.381132 -0.537491 0.886638 0.000000 -0.000000 1.000000 0.066335 0.502102
0.381132 -0.537491 0.886638 0.162694 -0.270211 0.948943 0.066335 0.502102
0.461021 -0.584879 0.850239 0.078310 -0.063631 0.994873 0.046858 0.482632
-0.407747 -0.535527 0.886638 -0.175359 -0.254402 0.951048 0.051962 0.689292
-0.470987 -0.582559 0.850239 -0.072085 -0.072542 0.994751 0.029940 0.708416
0.508280 -0.617885 -0.000000 0.000000 0.000000 -1.000000 0.040600 0.420336
0.582033 -0.618069 -0.000000 0.000000 0.000000 -1.000000 0.054849 0.419511
0.582168 -0.657687 -0.000000 0.000000 0.000000 -1.000000 0.055009 0.436027
0.508415 -0.657503 -0.000000 0.000000 0.000000 -1.000000 0.040509 0.437172
0.507751 0.380215 -0.000000 -0.000000 0.000000 -1.000000 0.039783 0.050070
0.507577 0.431139 -0.000000 -0.000000 0.000000 -1.000000 0.060671 0.050300
0.581330 0.430955 -0.000000 -0.000000 0.000000 -1.000000 0.059808 0.066091
0.581504 0.380032 -0.000000 -0.000000 0.000000 -1.000000 0.040575 0.065894
-0.509716 -0.615351 -0.000000 0.000000 0.000000 -1.000000 0.343996 0.436678
-0.509580 -0.654969 -0.000000 0.000000 0.000000 -1.000000 0.327570 0.436921
-0.583333 -0.654785 -0.000000 0.000000 0.000000 -1.000000 0.328583 0.421262
-0.583469 -0.615167 -0.000000 0.000000 0.000000 -1.000000 0.342956 0.421385
-0.510244 0.382750 -0.000000 0.000000 -0.000000 -1.000000 0.324789 0.064569
-0.583998 0.382934 -0.000000 0.000000 -0.000000 -1.000000 0.324262 0.048606
-0.584172 0.433857 -0.000000 0.000000 -0.000000 -1.000000 0.344926 0.048833
-0.510419 0.433674 -0.000000 0.000000 -0.000000 -1.000000 0.344352 0.064739
-0.492024 0.446359 0.018749 0.712994 0.002439 -0.701166 0.351628 0.071915
-0.491763 0.369973 0.018749 0.712994 0.002439 -0.701166 0.317673 0.071941
-0.510244 0.382750 -0.000000 0.712994 0.002439 -0.701166 0.324789 0.064569
-0.510419 0.433674 -0.000000 0.712994 0.002439 -0.701166 0.344352 0.064739
-0.509580 -0.654969 -0.000000 0.712994 0.002438 -0.701166 0.327570 0.436921
-0.509716 -0.615351 -0.000000 0.712994 0.002438 -0.701166 0.343996 0.436678
-0.491311 -0.605492 0.018749 0.712994 0.002438 -0.701166 0.352048 0.444188
-0.491108 -0.664919 0.018749 0.712994 0.002438 -0.701166 0.319162 0.444188
0.507577 0.431139 -0.000000 -0.712996 -0.002438 -0.701164 0.060671 0.050300
0.507751 0.380215 -0.000000 -0.712996 -0.002438 -0.701164 0.039783 0.050070
0.489356 0.367530 0.018749 -0.712996 -0.002438 -0.701164 0.030900 0.043088
0.489095 0.443916 0.018749 -0.712996 -0.002438 -0.701164 0.069326 0.043088
-0.602392 0.370249 0.018749 -0.712993 -0.002439 -0.701167 0.315365 0.041942
-0.602654 0.446634 0.018749 -0.712993 -0.002439 -0.701167 0.353601 0.041942
-0.584172 0.433857 -0.000000 -0.712993 -0.002439 -0.701167 0.344926 0.048833
-0.583998 0.382934 -0.000000 -0.712993 -0.002439 -0.701167 0.324262 0.048606
0.490011 -0.667362 0.018749 -0.712994 -0.002438 -0.701166 0.033573 0.445588
0.489808 -0.607935 0.018749 -0.712994 -0.002438 -0.701166 0.033723 0.413367
0.508280 -0.617885 -0.000000 -0.712994 -0.002438 -0.701166 0.040600 0.420336
0.508415 -0.657503 -0.000000 -0.712994 -0.002438 -0.701166 0.040509 0.437172
-0.583469 -0.615167 -0.000000 -0.712993 -0.002438 -0.701167 0.342956 0.421385
-0.583333 -0.654785 -0.000000 -0.712993 -0.002438 -0.701167 0.328583 0.421262
-0.601738 -0.664644 0.018749 -0.712993 -0.002438 -0.701167 0.322236 0.414155
-0.601941 -0.605217 0.018749 -0.712993 -0.002438 -0.701167 0.349102 0.414207
0.581504 0.380032 -0.000000 0.712995 0.002439 -0.701165 0.040575 0.065894
0.581330 0.430955 -0.000000 0.712995 0.002439 -0.701165 0.059808 0.066091
0.599725 0.443640 0.018749 0.712995 0.002439 -0.701165 0.067188 0.073053
0.599986 0.367255 0.018749 0.712995 0.002439 -0.701165 0.033342 0.073027
0.600437 -0.608210 0.018749 0.712994 0.002438 -0.701166 0.061559 0.411349
0.600641 -0.667637 0.018749 0.712994 0.002438 -0.701166 0.061559 0.443376
0.582168 -0.657687 -0.000000 0.712994 0.002438 -0.701166 0.055009 0.436027
0.582033 -0.618069 -0.000000 0.712994 0.002438 -0.701166 0.054849 0.419511
-0.491763 0.369973 0.018749 -0.002060 -0.827307 -0.561747 0.317673 0.071941
-0.602392 0.370249 0.018749 -0.002060 -0.827307 -0.561747 0.315365 0.041942
-0.583998 0.382934 -0.000000 -0.002060 -0.827307 -0.561747 0.324262 0.048606
-0.510244 0.382750 -0.000000 -0.002060 -0.827307 -0.561747 0.324789 0.064569
-0.509716 -0.615351 -0.000000 0.002201 0.884207 -0.467090 0.343996 0.436678
-0.583469 -0.615167 -0.000000 0.002201 0.884207 -0.467090 0.342956 0.421385
-0.601941 -0.605217 0.018749 0.002201 0.884207 -0.467090 0.349102 0.414207
-0.491311 -0.605492 0.018749 0.002201 0.884207 -0.467090 0.352048 0.444188
0.507751 0.380215 -0.000000 -0.002060 -0.827307 -0.561746 0.039783 0.050070
0.581504 0.380032 -0.000000 -0.002060 -0.827307 -0.561746 0.040575 0.065894
0.599986 0.367255 0.018749 -0.002060 -0.827307 -0.561746 0.033342 0.073027
0.489356 0.367530 0.018749 -0.002060 -0.827307 -0.561746 0.030900 0.043088
0.489808 -0.607935 0.018749 0.002200 0.884206 -0.467092 0.033723 0.413367
0.600437 -0.608210 0.018749 0.002200 0.884206 -0.467092 0.061559 0.411349
0.582033 -0.618069 -0.000000 0.002200 0.884206 -0.467092 0.054849 0.419511
0.508280 -0.617885 -0.000000 0.002200 0.884206 -0.467092 0.040600 0.420336
4 0 1 2 3
4 4 5 6 7
4 8 9 10 11
4 12 13 14 15
4 16 17 18 19
4 20 21 22 23
4 24 25 26 27
4 28 29 30 31
4 32 33 34 35
4 36 37 38 39
4 40 41 42 43
4 44 45 46 47
4 48 49 50 51
4 52 53 54 55
4 56 57 58 59
4 60 61 62 63
4 64 65 66 67
4 68 69 70 71
4 72 73 74 75
4 76 77 78 79
4 80 81 82 83
4 84 85 86 87
4 88 89 90 91
4 92 93 94 95
4 96 97 98 99
4 100 101 102 103
4 104 105 106 107
4 108 109 110 111
4 112 113 114 115
4 116 117 118 119
4 120 121 122 123
4 124 125 126 127
4 128 129 130 131
4 132 133 134 135
4 136 137 138 139
4 140 141 142 143
4 144 145 146 147
4 148 149 150 151
4 152 153 154 155
4 156 157 122 121
4 158 159 160 161
4 162 163 164 165
4 166 167 168 169
4 170 171 172 173
4 174 175 176 177
4 178 179 180 181
4 182 183 184 185
4 186 187 188 189
4 190 191 192 193
4 194 161 160 195
4 196 197 198 199
4 200 201 202 203
4 204 205 206 207
4 208 209 210 211
4 212 213 214 215
4 216 217 218 219
4 220 221 222 223
4 224 225 226 227
4 228 229 230 231
4 232 233 234 235
4 236 237 238 239
4 240 241 242 243
4 244 245 246 247
4 248 249 250 251
4 252 253 254 255
4 256 257 258 259
4 260 261 262 263
4 264 265 266 267
4 268 269 270 271
4 272 273 274 275
4 276 277 278 279
4 280 281 282 283
4 284 285 286 287
4 288 289 290 291
4 292 293 294 295
4 296 297 298 299
4 300 301 302 303
4 304 305 306 307
4 308 309 310 311
4 305 312 313 306
4 314 304 307 315
4 315 313 312 314
4 316 317 318 319
4 320 321 322 323
4 311 322 321 308
4 309 320 323 310
4 324 325 326 327
4 328 329 330 331
4 332 333 334 335
4 336 337 338 339
4 340 341 342 343
4 344 345 346 347
4 348 349 249 248
4 350 351 352 353
4 337 212 215 338
4 353 352 253 252
4 354 355 356 357
4 358 328 331 359
4 360 332 335 361
4 362 363 364 365
4 366 367 345 344
4 368 369 370 371
4 372 220 223 373
4 374 375 376 377
4 378 379 229 228
4 380 381 382 383
4 384 385 261 260
4 386 387 388 389
4 390 268 271 391
4 392 393 394 395
4 396 397 398 399
4 400 401 402 403
4 404 405 406 407
4 408 409 410 411
4 412 413 414 415
4 416 417 418 419
4 420 421 422 423
4 424 425 426 427
4 428 372 373 429
4 430 431 432 433
4 434 435 379 378
4 436 437 385 384
4 438 439 440 441
4 442 390 391 443
4 444 445 446 447
4 448 449 450 451
4 452 453 454 455
4 456 457 458 459
4 460 461 462 463
4 464 465 466 467
4 468 469 470 471
4 472 473 474 475
4 476 477 478 479
4 480 472 475 481
4 473 482 483 474
4 482 480 481 483
4 484 485 486 487
4 477 488 489 478
4 488 490 491 489
4 490 476 479 491
4 492 493 494 495
4 496 497 498 499
4 500 501 502 503
4 504 505 506 507
4 508 509 510 511
4 512 513 514 515
4 516 517 518 519
4 520 521 522 523
4 524 525 526 527
4 528 529 530 531
4 532 533 534 535
4 536 537 538 539
4 540 541 542 543
4 544 545 546 547
4 548 549 550 551
4 552 553 554 555
