ply
format ascii 1.0
comment Created by Blender 2.74 (sub 0) - www.blender.org, source file: 'Low-Poly-Chairs-Set.blend'
element vertex 444
property float x
property float y
property float z
property float nx
property float ny
property float nz
property float s
property float t
property uchar red
property uchar green
property uchar blue
element face 156
property list uchar uint vertex_indices
end_header
-0.363952 0.312543 0.746050 0.000000 0.000000 0.999969 0.146191 0.782176 255 255 255
-0.363952 -0.353677 0.746050 0.000000 -0.209662 0.977752 0.146191 0.141964 255 255 255
0.369524 -0.353677 0.746050 0.000000 -0.209662 0.977752 0.853809 0.141964 255 255 255
0.369524 0.312543 0.746050 0.000000 0.000000 1.000000 0.853809 0.782176 255 255 255
-0.363953 -0.401899 0.724370 0.000000 -0.631184 0.775597 0.146191 0.095623 255 255 255
0.369524 -0.401899 0.724370 0.000000 -0.631184 0.775597 0.853809 0.095624 255 255 255
-0.363953 -0.401899 0.724370 -1.000000 0.000000 0.000000 0.146191 0.095623 255 255 255
-0.363952 -0.353677 0.746050 -1.000000 0.000000 0.000000 0.146191 0.141964 255 255 255
-0.363952 -0.353677 0.726808 -1.000000 0.000000 0.000000 0.146191 0.141964 255 255 255
-0.363953 -0.389243 0.708925 -0.999969 0.000000 0.000000 0.146191 0.107785 255 255 255
-0.363952 0.312543 0.746050 -1.000000 0.000000 0.000000 0.146191 0.782176 255 255 255
-0.363952 0.312543 0.726808 -1.000000 0.000000 0.000000 0.146191 0.782176 255 255 255
0.369524 -0.353677 0.746050 1.000000 0.000000 0.000000 0.853809 0.141964 255 255 255
0.369524 -0.401899 0.724370 1.000000 0.000000 0.000000 0.853809 0.095624 255 255 255
0.369524 -0.389244 0.708925 1.000000 0.000000 0.000000 0.853809 0.107785 255 255 255
0.369524 -0.353677 0.726808 1.000000 0.000000 0.000000 0.853809 0.141964 255 255 255
0.369524 0.312543 0.746050 1.000000 0.000000 0.000000 0.853809 0.782176 255 255 255
0.369524 0.312543 0.726808 1.000000 0.000000 0.000000 0.853809 0.782176 255 255 255
-0.363952 0.312543 0.746050 0.000000 1.000000 0.000000 0.146191 0.782176 255 255 255
0.369524 0.312543 0.746050 0.000000 1.000000 0.000000 0.853809 0.782176 255 255 255
0.369524 0.312543 0.726808 0.000000 1.000000 0.000000 0.853809 0.782176 255 255 255
-0.363952 0.312543 0.726808 0.000000 1.000000 0.000000 0.146191 0.782176 255 255 255
0.369524 -0.353677 0.726808 0.000000 0.230842 -0.972961 0.853809 0.141964 255 255 255
0.369524 -0.389244 0.708925 0.000000 0.663076 -0.748527 0.853809 0.107785 255 255 255
-0.363953 -0.389243 0.708925 0.000000 0.663076 -0.748527 0.146191 0.107785 255 255 255
-0.363952 -0.353677 0.726808 0.000000 0.230842 -0.972961 0.146191 0.141964 255 255 255
0.369524 0.312543 0.726808 0.000000 0.000000 -1.000000 0.853809 0.782176 255 255 255
-0.363952 0.312543 0.726808 0.000000 0.000000 -0.999969 0.146191 0.782176 255 255 255
0.348218 0.333849 0.720325 0.000000 0.000000 1.000000 0.000000 0.000000 255 255 255
0.348218 0.375237 0.720325 -0.008637 0.948637 0.316233 1.000000 0.000000 255 255 255
0.306830 0.375237 0.720325 0.000000 0.707083 0.707083 1.000000 1.000000 255 255 255
0.306830 0.333849 0.720325 0.000000 0.000000 1.000000 0.000000 1.000000 255 255 255
-0.306982 0.333849 0.720325 0.000000 0.000000 1.000000 0.000000 0.000000 255 255 255
-0.306982 0.375237 0.720325 0.000000 0.707083 0.707083 1.000000 0.000000 255 255 255
-0.348370 0.375237 0.720325 0.008637 0.948637 0.316233 1.000000 1.000000 255 255 255
-0.348370 0.333849 0.720325 0.000000 0.000000 1.000000 0.000000 1.000000 255 255 255
-0.306982 0.375237 0.720325 1.000000 0.000000 0.000000 0.000000 0.000000 255 255 255
-0.306982 0.333849 0.720325 1.000000 0.000000 0.000000 1.000000 0.000000 255 255 255
-0.306982 0.333849 0.689058 1.000000 0.000000 0.000000 1.000000 1.000000 255 255 255
-0.306982 0.375237 0.689058 1.000000 0.000000 0.000000 0.000000 1.000000 255 255 255
-0.348370 0.375237 0.720325 0.008637 0.948637 0.316233 0.000000 0.000000 255 255 255
-0.306982 0.375237 0.689058 0.000000 0.707083 -0.707083 1.000000 1.000000 255 255 255
-0.348370 0.375237 0.689058 0.008606 0.949889 -0.312449 0.000000 1.000000 255 255 255
0.306830 0.333849 0.720325 -1.000000 0.000000 0.000000 0.000000 0.000000 255 255 255
0.306830 0.375237 0.720325 -1.000000 0.000000 0.000000 1.000000 0.000000 255 255 255
0.306830 0.375237 0.689058 -1.000000 0.000000 0.000000 1.000000 1.000000 255 255 255
0.306830 0.333849 0.689058 -1.000000 0.000000 0.000000 0.000000 1.000000 255 255 255
0.306830 0.375237 0.720325 0.000000 0.707083 0.707083 0.000000 0.000000 255 255 255
0.348218 0.375237 0.689058 -0.008606 0.949889 -0.312449 1.000000 1.000000 255 255 255
0.306830 0.375237 0.689058 0.000000 0.707083 -0.707083 0.000000 1.000000 255 255 255
0.306830 0.375237 0.689058 0.000000 0.707083 -0.707083 0.000000 0.000000 255 255 255
0.348218 0.375237 0.689058 -0.008606 0.949889 -0.312449 1.000000 0.000000 255 255 255
0.348218 0.333849 0.689058 0.000000 0.000000 -1.000000 1.000000 1.000000 255 255 255
0.306830 0.333849 0.689058 0.000000 0.000000 -1.000000 0.000000 1.000000 255 255 255
-0.348370 0.375237 0.689058 0.008606 0.949889 -0.312449 0.000000 0.000000 255 255 255
-0.306982 0.375237 0.689058 0.000000 0.707083 -0.707083 1.000000 0.000000 255 255 255
-0.306982 0.333849 0.689058 0.000000 0.000000 -1.000000 1.000000 1.000000 255 255 255
-0.348370 0.333849 0.689058 0.000000 0.000000 -1.000000 0.000000 1.000000 255 255 255
0.348218 0.333849 0.689058 1.000000 0.000000 0.000000 0.000000 0.000000 255 255 255
0.348218 0.333849 0.720325 1.000000 0.000000 0.000000 1.000000 0.000000 255 255 255
0.348218 -0.347892 0.720325 1.000000 0.000000 0.000000 1.000000 1.000000 255 255 255
0.348218 -0.347892 0.689058 1.000000 0.000000 0.000000 0.000000 1.000000 255 255 255
0.306830 0.333849 0.689058 0.000000 0.000000 -1.000000 0.000000 0.000000 255 255 255
0.348218 0.333849 0.689058 0.000000 0.000000 -1.000000 1.000000 0.000000 255 255 255
0.348218 -0.347892 0.689058 0.000000 0.346995 -0.937834 1.000000 1.000000 255 255 255
0.306830 -0.347892 0.689058 0.000000 0.344432 -0.938780 0.000000 1.000000 255 255 255
0.306830 0.333849 0.689058 -1.000000 0.000000 0.000000 1.000000 0.000000 255 255 255
0.306830 -0.347892 0.689058 -0.999939 -0.004059 -0.006745 1.000000 1.000000 255 255 255
0.306830 -0.347892 0.720325 -1.000000 0.000000 0.000000 0.000000 1.000000 255 255 255
-0.348370 0.333849 0.689058 0.000000 0.000000 -1.000000 0.000000 0.000000 255 255 255
-0.306982 0.333849 0.689058 0.000000 0.000000 -1.000000 1.000000 0.000000 255 255 255
-0.306982 -0.347892 0.689058 0.000000 0.350932 -0.936369 1.000000 1.000000 255 255 255
-0.348370 -0.347892 0.689058 0.000000 0.346995 -0.937834 0.000000 1.000000 255 255 255
-0.348370 0.333849 0.720325 -1.000000 0.000000 0.000000 0.000000 0.000000 255 255 255
-0.348370 0.333849 0.689058 -1.000000 0.000000 0.000000 1.000000 0.000000 255 255 255
-0.348370 -0.347892 0.689058 -0.999969 0.000000 0.000000 1.000000 1.000000 255 255 255
-0.348370 -0.347892 0.720325 -1.000000 0.000000 0.000000 0.000000 1.000000 255 255 255
-0.306982 0.333849 0.689058 1.000000 0.000000 0.000000 0.000000 0.000000 255 255 255
-0.306982 -0.347892 0.720325 1.000000 0.000000 0.000000 1.000000 1.000000 255 255 255
-0.306982 -0.347892 0.689058 0.999908 0.006317 0.010529 0.000000 1.000000 255 255 255
-0.348370 0.333849 0.720325 0.000000 0.000000 1.000000 1.000000 0.000000 255 255 255
-0.348370 -0.347892 0.720325 0.000000 -0.213935 0.976836 1.000000 1.000000 255 255 255
-0.306982 -0.347892 0.720325 0.000000 -0.213935 0.976836 0.000000 1.000000 255 255 255
0.306830 0.333849 0.720325 0.000000 0.000000 1.000000 1.000000 0.000000 255 255 255
0.306830 -0.347892 0.720325 0.000000 -0.213935 0.976836 1.000000 1.000000 255 255 255
0.348218 -0.347892 0.720325 0.000000 -0.213935 0.976836 0.000000 1.000000 255 255 255
-0.348370 -0.347892 0.689058 0.000000 0.346995 -0.937834 0.000000 0.000000 255 255 255
-0.306982 -0.347892 0.689058 0.000000 0.350932 -0.936369 1.000000 0.000000 255 255 255
-0.306612 -0.355713 0.682352 0.000000 0.913541 -0.406720 1.000000 1.000000 255 255 255
-0.348370 -0.355713 0.682352 0.000000 0.911313 -0.411664 0.000000 1.000000 255 255 255
0.306830 -0.347892 0.689058 0.000000 0.344432 -0.938780 0.000000 0.000000 255 255 255
0.348218 -0.347892 0.689058 0.000000 0.346995 -0.937834 1.000000 0.000000 255 255 255
0.348218 -0.355713 0.682352 0.000000 0.911313 -0.411664 1.000000 1.000000 255 255 255
0.307068 -0.355713 0.682352 0.000000 0.909909 -0.414777 0.000000 1.000000 255 255 255
0.348218 0.375237 0.689058 -0.008606 0.949889 -0.312449 0.000000 0.000000 255 255 255
0.390329 0.375814 0.720761 -0.013672 0.999878 0.000000 1.000000 1.000000 255 255 255
0.390329 0.375814 0.688622 -0.013611 0.999878 0.006745 0.000000 1.000000 255 255 255
0.348218 0.333849 0.720325 -0.013672 -0.999878 0.000000 0.000000 0.000000 255 255 255
0.348218 0.333849 0.689058 -0.013764 -0.999878 -0.006653 1.000000 0.000000 255 255 255
0.390329 0.333272 0.688622 -0.013764 -0.999878 -0.006745 1.000000 1.000000 255 255 255
0.390329 0.333272 0.720761 -0.013672 -0.999878 0.000000 0.000000 1.000000 255 255 255
-0.348370 0.333849 0.689058 0.013764 -0.999878 -0.006653 0.000000 0.000000 255 255 255
-0.348370 0.333849 0.720325 0.013672 -0.999878 0.000000 1.000000 0.000000 255 255 255
-0.390481 0.333272 0.720761 0.013672 -0.999878 0.000000 1.000000 1.000000 255 255 255
-0.390481 0.333272 0.688622 0.013764 -0.999878 -0.006745 0.000000 1.000000 255 255 255
-0.348370 0.375237 0.689058 0.008606 0.949889 -0.312449 1.000000 0.000000 255 255 255
-0.390481 0.375814 0.688622 0.013611 0.999878 0.006745 1.000000 1.000000 255 255 255
-0.390481 0.375814 0.720761 0.013672 0.999878 0.000000 0.000000 1.000000 255 255 255
0.390329 0.375814 0.720761 1.000000 0.000000 0.000000 0.000000 0.000000 255 255 255
0.390329 0.333272 0.720761 1.000000 0.000000 0.000000 1.000000 0.000000 255 255 255
0.390329 0.333272 0.688622 1.000000 0.000000 0.000000 1.000000 1.000000 255 255 255
0.390329 0.375814 0.688622 1.000000 0.000000 0.000000 0.000000 1.000000 255 255 255
-0.390481 0.333272 0.720761 -1.000000 0.000000 0.000000 0.000000 0.000000 255 255 255
-0.390481 0.375814 0.720761 -1.000000 0.000000 0.000000 1.000000 0.000000 255 255 255
-0.390481 0.375814 0.688622 -1.000000 0.000000 0.000000 1.000000 1.000000 255 255 255
-0.390481 0.333272 0.688622 -1.000000 0.000000 0.000000 0.000000 1.000000 255 255 255
-0.390481 0.375814 0.688622 0.013611 0.999878 0.006745 0.000000 0.000000 255 255 255
-0.348370 0.384441 0.003652 0.016999 0.710990 -0.702963 1.000000 1.000000 255 255 255
-0.390481 0.385017 0.003216 0.016999 0.712424 -0.701498 0.000000 1.000000 255 255 255
-0.390481 0.333272 0.688622 -1.000000 0.000000 0.000000 0.000000 0.000000 255 255 255
-0.390481 0.375814 0.688622 -1.000000 0.000000 0.000000 1.000000 0.000000 255 255 255
-0.390481 0.385017 0.003216 -1.000000 0.000000 0.000000 1.000000 1.000000 255 255 255
-0.390481 0.342476 0.003216 -1.000000 0.000000 0.000000 0.000000 1.000000 255 255 255
-0.390481 0.333272 0.688622 0.013764 -0.999878 -0.006745 1.000000 0.000000 255 255 255
-0.390481 0.342476 0.003216 0.016968 -0.702994 -0.710959 1.000000 1.000000 255 255 255
-0.348370 0.343052 0.003652 0.016968 -0.701437 -0.712516 0.000000 1.000000 255 255 255
0.390329 0.333272 0.688622 -0.013764 -0.999878 -0.006745 0.000000 0.000000 255 255 255
0.348218 0.343052 0.003652 -0.016968 -0.701437 -0.712516 1.000000 1.000000 255 255 255
0.390329 0.342475 0.003216 -0.016968 -0.702994 -0.710959 0.000000 1.000000 255 255 255
0.390329 0.375814 0.688622 1.000000 0.000000 0.000000 0.000000 0.000000 255 255 255
0.390329 0.333272 0.688622 1.000000 0.000000 0.000000 1.000000 0.000000 255 255 255
0.390329 0.342475 0.003216 1.000000 0.000000 0.000000 1.000000 1.000000 255 255 255
0.390329 0.385017 0.003216 1.000000 0.000000 0.000000 0.000000 1.000000 255 255 255
0.390329 0.375814 0.688622 -0.013611 0.999878 0.006745 1.000000 0.000000 255 255 255
0.390329 0.385017 0.003216 -0.016999 0.712424 -0.701498 1.000000 1.000000 255 255 255
0.348218 0.384441 0.003652 -0.016999 0.710990 -0.702963 0.000000 1.000000 255 255 255
0.348218 -0.355713 0.682352 1.000000 0.000000 0.000000 0.000000 0.000000 255 255 255
0.348218 -0.390188 0.681591 1.000000 0.000000 0.000000 1.000000 0.000000 255 255 255
0.348218 -0.380984 -0.003815 1.000000 0.000000 0.000000 1.000000 1.000000 255 255 255
0.348218 -0.346509 -0.003054 1.000000 0.000000 0.000000 0.000000 1.000000 255 255 255
0.307068 -0.355713 0.682352 0.000000 0.909909 -0.414777 0.000000 0.000000 255 255 255
0.348218 -0.355713 0.682352 0.000000 0.911313 -0.411664 1.000000 0.000000 255 255 255
0.348218 -0.346509 -0.003054 0.000000 0.719535 -0.694418 1.000000 1.000000 255 255 255
0.307068 -0.346509 -0.003054 0.000000 0.719535 -0.694418 0.000000 1.000000 255 255 255
0.307068 -0.390188 0.681591 -0.999969 0.000061 -0.003845 0.000000 0.000000 255 255 255
0.307068 -0.355713 0.682352 -0.999908 -0.004883 -0.010285 1.000000 0.000000 255 255 255
0.307068 -0.346509 -0.003054 -1.000000 0.000000 0.000000 1.000000 1.000000 255 255 255
0.307068 -0.380984 -0.003815 -1.000000 0.000000 0.000000 0.000000 1.000000 255 255 255
-0.348370 -0.355713 0.682352 0.000000 0.911313 -0.411664 0.000000 0.000000 255 255 255
-0.306612 -0.355713 0.682352 0.000000 0.913541 -0.406720 1.000000 0.000000 255 255 255
-0.306612 -0.346509 -0.003054 0.000000 0.719535 -0.694418 1.000000 1.000000 255 255 255
-0.348370 -0.346509 -0.003054 0.000000 0.719535 -0.694418 0.000000 1.000000 255 255 255
-0.348370 -0.390188 0.681591 -1.000000 0.000000 0.000000 0.000000 0.000000 255 255 255
-0.348370 -0.355713 0.682352 -1.000000 0.000000 0.000000 1.000000 0.000000 255 255 255
-0.348370 -0.346509 -0.003054 -1.000000 0.000000 0.000000 1.000000 1.000000 255 255 255
-0.348370 -0.380984 -0.003815 -1.000000 0.000000 0.000000 0.000000 1.000000 255 255 255
-0.306612 -0.355713 0.682352 0.999817 0.007630 0.016022 0.000000 0.000000 255 255 255
-0.306612 -0.390188 0.681591 0.999969 -0.000122 0.006012 1.000000 0.000000 255 255 255
-0.306612 -0.380984 -0.003815 1.000000 0.000000 0.000000 1.000000 1.000000 255 255 255
-0.306612 -0.346509 -0.003054 1.000000 0.000000 0.000000 0.000000 1.000000 255 255 255
-0.306612 -0.390188 0.681591 0.000000 -0.974059 0.226203 0.000000 0.000000 255 255 255
-0.348370 -0.390188 0.681591 0.000000 -0.973815 0.227210 1.000000 0.000000 255 255 255
-0.348370 -0.380984 -0.003815 0.000000 -0.694418 -0.719535 1.000000 1.000000 255 255 255
-0.306612 -0.380984 -0.003815 0.000000 -0.694418 -0.719535 0.000000 1.000000 255 255 255
0.348218 -0.390188 0.681591 0.000000 -0.973815 0.227210 0.000000 0.000000 255 255 255
0.307068 -0.390188 0.681591 0.000000 -0.973693 0.227851 1.000000 0.000000 255 255 255
0.307068 -0.380984 -0.003815 0.000000 -0.694418 -0.719535 1.000000 1.000000 255 255 255
0.348218 -0.380984 -0.003815 0.000000 -0.694418 -0.719535 0.000000 1.000000 255 255 255
0.348218 0.333849 0.689058 -1.000000 0.000000 0.000000 0.000000 0.000000 255 255 255
0.348218 0.375237 0.689058 -1.000000 0.000000 0.000000 1.000000 0.000000 255 255 255
0.348218 0.384441 0.003652 -1.000000 0.000000 0.000000 1.000000 1.000000 255 255 255
0.348218 0.343052 0.003652 -1.000000 0.000000 0.000000 0.000000 1.000000 255 255 255
-0.348370 0.375237 0.689058 1.000000 0.000000 0.000000 0.000000 0.000000 255 255 255
-0.348370 0.333849 0.689058 1.000000 0.000000 0.000000 1.000000 0.000000 255 255 255
-0.348370 0.343052 0.003652 1.000000 0.000000 0.000000 1.000000 1.000000 255 255 255
-0.348370 0.384441 0.003652 1.000000 0.000000 0.000000 0.000000 1.000000 255 255 255
-0.348370 0.384441 0.003652 0.016999 0.710990 -0.702963 0.000000 0.000000 255 255 255
-0.348370 0.343052 0.003652 0.016968 -0.701437 -0.712516 1.000000 0.000000 255 255 255
0.348218 0.343052 0.003652 -0.016968 -0.701437 -0.712516 0.000000 0.000000 255 255 255
0.348218 0.384441 0.003652 -0.016999 0.710990 -0.702963 1.000000 0.000000 255 255 255
0.348218 -0.380984 -0.003815 0.000000 -0.694418 -0.719535 0.000000 0.000000 255 255 255
0.307068 -0.380984 -0.003815 0.000000 -0.694418 -0.719535 1.000000 0.000000 255 255 255
0.307068 -0.346509 -0.003054 0.000000 0.719535 -0.694418 1.000000 1.000000 255 255 255
0.348218 -0.346509 -0.003054 0.000000 0.719535 -0.694418 0.000000 1.000000 255 255 255
-0.306612 -0.380984 -0.003815 0.000000 -0.694418 -0.719535 0.000000 0.000000 255 255 255
-0.348370 -0.380984 -0.003815 0.000000 -0.694418 -0.719535 1.000000 0.000000 255 255 255
-0.348370 -0.346509 -0.003054 0.000000 0.719535 -0.694418 1.000000 1.000000 255 255 255
-0.306612 -0.346509 -0.003054 0.000000 0.719535 -0.694418 0.000000 1.000000 255 255 255
0.306830 -0.347892 0.720325 0.000000 -0.213935 0.976836 0.000000 0.000000 255 255 255
0.306830 -0.377335 0.706778 0.000000 -0.691916 0.721946 1.000000 0.000000 255 255 255
0.348218 -0.377335 0.706778 0.000000 -0.692587 0.721305 1.000000 1.000000 255 255 255
0.306830 -0.377335 0.706778 0.000000 -0.691916 0.721946 0.000000 0.000000 255 255 255
0.348218 -0.390188 0.681591 0.000000 -0.973815 0.227210 1.000000 1.000000 255 255 255
0.348218 -0.377335 0.706778 0.000000 -0.692587 0.721305 0.000000 1.000000 255 255 255
-0.348370 -0.347892 0.720325 0.000000 -0.213935 0.976836 0.000000 0.000000 255 255 255
-0.348370 -0.377334 0.706778 0.000000 -0.692587 0.721305 1.000000 0.000000 255 255 255
-0.306982 -0.377334 0.706778 0.000000 -0.693625 0.720298 1.000000 1.000000 255 255 255
-0.348370 -0.377334 0.706778 0.000000 -0.692587 0.721305 0.000000 0.000000 255 255 255
-0.306612 -0.390188 0.681591 0.000000 -0.974059 0.226203 1.000000 1.000000 255 255 255
-0.306982 -0.377334 0.706778 0.000000 -0.693625 0.720298 0.000000 1.000000 255 255 255
-0.306982 -0.377334 0.706778 0.999908 0.002228 0.011170 0.000000 0.000000 255 255 255
-0.306612 -0.355713 0.682352 0.999817 0.007630 0.016022 1.000000 0.000000 255 255 255
-0.306982 -0.347892 0.689058 0.999908 0.006317 0.010529 1.000000 1.000000 255 255 255
-0.306982 -0.347892 0.720325 1.000000 0.000000 0.000000 0.000000 0.000000 255 255 255
-0.306982 -0.377334 0.706778 0.999908 0.002228 0.011170 1.000000 0.000000 255 255 255
-0.306612 -0.355713 0.682352 0.999817 0.007630 0.016022 1.000000 1.000000 255 255 255
-0.348370 -0.377334 0.706778 -1.000000 0.000000 0.000000 0.000000 0.000000 255 255 255
-0.348370 -0.347892 0.689058 -0.999969 0.000000 0.000000 1.000000 0.000000 255 255 255
-0.348370 -0.355713 0.682352 -1.000000 0.000000 0.000000 1.000000 1.000000 255 255 255
-0.348370 -0.377334 0.706778 -1.000000 0.000000 0.000000 1.000000 0.000000 255 255 255
-0.348370 -0.347892 0.720325 -1.000000 0.000000 0.000000 1.000000 0.000000 255 255 255
0.306830 -0.377335 0.706778 -0.999969 -0.001434 -0.007172 0.000000 0.000000 255 255 255
0.306830 -0.347892 0.689058 -0.999939 -0.004059 -0.006745 1.000000 0.000000 255 255 255
0.307068 -0.355713 0.682352 -0.999908 -0.004883 -0.010285 1.000000 1.000000 255 255 255
0.306830 -0.377335 0.706778 -0.999969 -0.001434 -0.007172 1.000000 0.000000 255 255 255
0.306830 -0.347892 0.720325 -1.000000 0.000000 0.000000 1.000000 0.000000 255 255 255
0.348218 -0.377335 0.706778 1.000000 0.000000 0.000000 0.000000 0.000000 255 255 255
0.348218 -0.355713 0.682352 1.000000 0.000000 0.000000 1.000000 0.000000 255 255 255
0.348218 -0.347892 0.689058 1.000000 0.000000 0.000000 1.000000 1.000000 255 255 255
0.348218 -0.347892 0.720325 1.000000 0.000000 0.000000 0.000000 0.000000 255 255 255
0.348218 -0.377335 0.706778 1.000000 0.000000 0.000000 1.000000 0.000000 255 255 255
0.348218 -0.355713 0.682352 1.000000 0.000000 0.000000 1.000000 1.000000 255 255 255
0.390329 0.333272 0.720761 1.000000 0.000000 0.000000 0.000000 0.000000 255 255 255
0.390329 0.375814 0.720761 1.000000 0.000000 0.000000 1.000000 0.000000 255 255 255
0.390329 0.375814 1.164940 1.000000 0.000000 0.000000 1.000000 1.000000 255 255 255
0.390329 0.333272 1.164940 1.000000 0.000000 0.000000 0.000000 1.000000 255 255 255
-0.390481 0.375814 0.720761 -1.000000 0.000000 0.000000 0.000000 0.000000 255 255 255
-0.390481 0.333272 0.720761 -1.000000 0.000000 0.000000 1.000000 0.000000 255 255 255
-0.390481 0.333272 1.164940 -1.000000 0.000000 0.000000 1.000000 1.000000 255 255 255
-0.390481 0.375814 1.164940 -1.000000 0.000000 0.000000 0.000000 1.000000 255 255 255
-0.390481 0.375814 0.720761 0.013672 0.999878 0.000000 1.000000 0.000000 255 255 255
-0.390481 0.375814 1.164940 0.013672 0.999878 0.000000 1.000000 1.000000 255 255 255
-0.348370 0.375237 1.164940 0.013672 0.999878 0.000000 0.000000 1.000000 255 255 255
-0.390481 0.333272 0.720761 0.013672 -0.999878 0.000000 0.000000 0.000000 255 255 255
-0.348370 0.333849 1.164940 0.013672 -0.999878 0.000000 1.000000 1.000000 255 255 255
-0.390481 0.333272 1.164940 0.013672 -0.999878 0.000000 0.000000 1.000000 255 255 255
0.390329 0.333272 0.720761 -0.013672 -0.999878 0.000000 1.000000 0.000000 255 255 255
0.390329 0.333272 1.164940 -0.013672 -0.999878 0.000000 1.000000 1.000000 255 255 255
0.348218 0.333849 1.164940 -0.013672 -0.999878 0.000000 0.000000 1.000000 255 255 255
0.390329 0.375814 0.720761 -0.013672 0.999878 0.000000 0.000000 0.000000 255 255 255
0.348218 0.375237 1.164940 -0.013672 0.999878 0.000000 1.000000 1.000000 255 255 255
0.390329 0.375814 1.164940 -0.013672 0.999878 0.000000 0.000000 1.000000 255 255 255
-0.348370 0.333849 0.720325 1.000000 0.000000 0.000000 0.000000 0.000000 255 255 255
-0.348370 0.375237 0.720325 1.000000 0.000000 0.000000 1.000000 0.000000 255 255 255
-0.348370 0.375237 1.164940 1.000000 0.000000 0.000000 1.000000 1.000000 255 255 255
-0.348370 0.333849 1.164940 1.000000 0.000000 0.000000 0.000000 1.000000 255 255 255
0.348218 0.375237 0.720325 -1.000000 0.000000 0.000000 0.000000 0.000000 255 255 255
0.348218 0.333849 0.720325 -1.000000 0.000000 0.000000 1.000000 0.000000 255 255 255
0.348218 0.333849 1.164940 -1.000000 0.000000 0.000000 1.000000 1.000000 255 255 255
0.348218 0.375237 1.164940 -1.000000 0.000000 0.000000 0.000000 1.000000 255 255 255
0.369524 -0.406359 0.683186 0.000000 0.832698 -0.553697 0.853809 0.091338 255 255 255
-0.363953 -0.406359 0.683186 0.000000 0.832698 -0.553697 0.146191 0.091338 255 255 255
0.369524 -0.423820 0.694121 0.999969 0.000000 0.000000 0.853809 0.074559 255 255 255
0.369524 -0.406359 0.683186 1.000000 0.000000 0.000000 0.853809 0.091338 255 255 255
-0.363953 -0.406359 0.683186 -1.000000 0.000000 0.000000 0.146191 0.091338 255 255 255
-0.363953 -0.423820 0.694121 -1.000000 0.000000 0.000000 0.146191 0.074558 255 255 255
-0.363953 -0.423820 0.694121 0.000000 -0.981597 -0.190893 0.146191 0.074558 255 255 255
0.369524 -0.423820 0.694121 0.000000 -0.981597 -0.190893 0.853809 0.074559 255 255 255
-0.363953 -0.406359 0.683186 0.000000 -0.530747 -0.847499 0.146191 0.091338 255 255 255
0.369524 -0.406359 0.683186 0.000000 -0.530747 -0.847499 0.853809 0.091338 255 255 255
-0.285652 0.361420 1.392164 -0.761071 0.000000 0.648610 0.841237 0.876875 255 255 255
-0.111175 0.413292 1.436764 -0.135014 0.000000 0.990814 0.667132 0.954079 255 255 255
-0.111175 0.452603 1.436764 -0.112552 0.000000 0.993622 0.667132 0.954079 255 255 255
-0.285652 0.400731 1.392164 -0.656056 0.000000 0.754692 0.841237 0.876875 255 255 255
0.108867 0.413292 1.436764 0.135014 0.000000 0.990814 0.345542 0.949245 255 255 255
0.108867 0.452603 1.436764 0.112552 0.000000 0.993622 0.345542 0.949245 255 255 255
0.283344 0.361420 1.392164 0.761071 0.000000 0.648610 0.138070 0.884126 255 255 255
0.283344 0.400731 1.392164 0.656056 0.000000 0.754692 0.138070 0.884126 255 255 255
0.340963 0.334525 0.893116 0.784020 0.000000 -0.620716 0.092237 0.061692 255 255 255
0.108867 0.413292 0.893116 0.000000 0.000000 -1.000000 0.336670 0.054139 255 255 255
0.108867 0.452603 0.893116 0.000000 0.000000 -1.000000 0.336670 0.054139 255 255 255
0.340963 0.373836 0.893116 0.637562 0.000000 -0.770379 0.092237 0.061692 255 255 255
-0.111175 0.413292 0.893116 0.000000 0.000000 -1.000000 0.668399 0.052205 255 255 255
-0.111175 0.452603 0.893116 0.000000 0.000000 -1.000000 0.668399 0.052205 255 255 255
-0.343271 0.334525 0.893116 -0.784020 0.000000 -0.620716 0.919109 0.046405 255 255 255
-0.343271 0.373836 0.893116 -0.637562 0.000000 -0.770379 0.919109 0.046405 255 255 255
-0.338441 0.333028 0.749014 -0.266732 0.512467 -0.816218 0.942488 0.014638 255 255 255
-0.357027 0.343908 0.775933 -0.627003 0.778741 0.019929 0.967108 0.000000 255 255 255
0.348248 0.343908 0.775933 0.627003 0.778741 0.019929 0.032892 0.000000 255 255 255
0.329662 0.333028 0.749014 0.266732 0.512467 -0.816218 0.057512 0.014638 255 255 255
-0.338441 0.329738 0.802852 -0.262673 0.479537 0.837245 0.942488 0.019064 255 255 255
0.329662 0.329737 0.802852 0.262673 0.479537 0.837245 0.057512 0.019064 255 255 255
0.329661 -0.388513 0.749014 0.291360 -0.501480 -0.814600 0.057512 0.985363 255 255 255
0.348248 -0.399393 0.775933 0.658376 -0.752434 0.019379 0.032892 1.000000 255 255 255
-0.357028 -0.399393 0.775933 -0.658376 -0.752403 0.019379 0.967108 1.000000 255 255 255
-0.338441 -0.388513 0.749014 -0.291360 -0.501480 -0.814600 0.942488 0.985362 255 255 255
0.329661 -0.385222 0.802852 0.288949 -0.466140 0.836177 0.057512 0.980936 255 255 255
-0.338441 -0.385222 0.802852 -0.288949 -0.466140 0.836177 0.942488 0.980936 255 255 255
0.340963 0.334525 1.164940 0.992859 0.000000 0.119175 0.078297 0.376073 255 255 255
0.340963 0.373836 1.164940 0.991729 0.000000 0.128178 0.078297 0.376073 255 255 255
-0.343271 0.334525 1.164940 -0.992859 0.000000 0.119175 0.915307 0.397523 255 255 255
-0.343271 0.373836 1.164940 -0.991729 0.000000 0.128178 0.915307 0.397523 255 255 255
-0.111175 0.413292 0.893116 0.162847 -0.986633 0.000000 0.668399 0.052205 255 255 255
-0.111175 0.413292 1.164940 0.158391 -0.987335 0.004089 0.660795 0.500000 255 255 255
-0.343271 0.334525 1.164940 0.313639 -0.949492 0.007324 0.915307 0.397523 255 255 255
-0.343271 0.334525 0.893116 0.321360 -0.946928 0.000000 0.919109 0.046405 255 255 255
-0.111175 0.413292 1.436764 0.141209 -0.989929 0.007508 0.667132 0.954079 255 255 255
-0.285652 0.361420 1.392164 0.304239 -0.952422 0.016175 0.841237 0.876875 255 255 255
0.108867 0.413292 0.893116 -0.162847 -0.986633 0.000000 0.336670 0.054139 255 255 255
0.108867 0.413292 1.164940 -0.158391 -0.987335 0.004089 0.339205 0.500000 255 255 255
0.108867 0.413292 1.436764 -0.141209 -0.989929 0.007508 0.345542 0.949245 255 255 255
0.340963 0.334525 0.893116 -0.321360 -0.946928 0.000000 0.092237 0.061692 255 255 255
0.340963 0.334525 1.164940 -0.313639 -0.949492 0.007324 0.078297 0.376073 255 255 255
0.283344 0.361420 1.392164 -0.304239 -0.952422 0.016175 0.138070 0.884126 255 255 255
0.108867 0.452603 0.893116 0.162847 0.986633 0.000000 0.336670 0.054139 255 255 255
0.108867 0.452603 1.164940 0.158391 0.987335 -0.004089 0.339205 0.500000 255 255 255
0.340963 0.373836 1.164940 0.313639 0.949492 -0.007324 0.078297 0.376073 255 255 255
0.340963 0.373836 0.893116 0.321360 0.946928 0.000000 0.092237 0.061692 255 255 255
0.108867 0.452603 1.436764 0.141209 0.989929 -0.007508 0.345542 0.949245 255 255 255
0.283344 0.400731 1.392164 0.304239 0.952422 -0.016175 0.138070 0.884126 255 255 255
-0.111175 0.452603 0.893116 -0.162847 0.986633 0.000000 0.668399 0.052205 255 255 255
-0.111175 0.452603 1.164940 -0.158391 0.987335 -0.004089 0.660795 0.500000 255 255 255
-0.111175 0.452603 1.436764 -0.141209 0.989929 -0.007508 0.667132 0.954079 255 255 255
-0.343271 0.373836 0.893116 -0.321360 0.946928 0.000000 0.919109 0.046405 255 255 255
-0.343271 0.373836 1.164940 -0.313639 0.949492 -0.007324 0.915307 0.397523 255 255 255
-0.285652 0.400731 1.392164 -0.304239 0.952422 -0.016175 0.841237 0.876875 255 255 255
0.307068 -0.357831 0.644484 0.000000 0.707083 -0.707083 0.000000 0.000000 255 255 255
0.307068 -0.389137 0.644484 0.000000 -0.707083 -0.707083 1.000000 0.000000 255 255 255
-0.306612 -0.389137 0.644484 0.000000 -0.707083 -0.707083 1.000000 1.000000 255 255 255
-0.306612 -0.357831 0.644484 0.000000 0.707083 -0.707083 0.000000 1.000000 255 255 255
0.307068 -0.357831 0.673787 0.000000 0.707083 0.707083 0.000000 0.000000 255 255 255
0.307068 -0.357831 0.644484 0.000000 0.707083 -0.707083 1.000000 0.000000 255 255 255
-0.306612 -0.357831 0.644484 0.000000 0.707083 -0.707083 1.000000 1.000000 255 255 255
-0.306612 -0.357831 0.673787 0.000000 0.707083 0.707083 0.000000 1.000000 255 255 255
0.307068 -0.389137 0.644484 0.000000 -0.707083 -0.707083 0.000000 0.000000 255 255 255
0.307068 -0.389137 0.673787 0.000000 -0.707083 0.707083 1.000000 0.000000 255 255 255
-0.306612 -0.389137 0.673787 0.000000 -0.707083 0.707083 1.000000 1.000000 255 255 255
-0.306612 -0.389137 0.644484 0.000000 -0.707083 -0.707083 0.000000 1.000000 255 255 255
0.307068 -0.389137 0.673787 0.000000 -0.707083 0.707083 0.000000 0.000000 255 255 255
0.307068 -0.357831 0.673787 0.000000 0.707083 0.707083 1.000000 0.000000 255 255 255
-0.306612 -0.357831 0.673787 0.000000 0.707083 0.707083 1.000000 1.000000 255 255 255
-0.306612 -0.389137 0.673787 0.000000 -0.707083 0.707083 0.000000 1.000000 255 255 255
0.348882 0.360578 1.060759 -0.347453 -0.937681 0.000000 0.000000 0.000000 255 255 255
0.348882 0.360578 1.157068 -0.347453 -0.937681 0.000000 1.000000 0.000000 255 255 255
0.311241 0.374525 1.157068 -0.347453 -0.937681 0.000000 1.000000 1.000000 255 255 255
0.311241 0.374525 1.060664 -0.347453 -0.937681 0.000000 0.000000 1.000000 255 255 255
-0.311394 0.374525 1.060664 0.347453 -0.937681 0.000000 0.000000 0.000000 255 255 255
-0.311394 0.374525 1.157068 0.347453 -0.937681 0.000000 1.000000 0.000000 255 255 255
-0.349034 0.360578 1.157068 0.347453 -0.937681 0.000000 1.000000 1.000000 255 255 255
-0.349034 0.360578 1.060759 0.347453 -0.937681 0.000000 0.000000 1.000000 255 255 255
0.311241 0.374525 1.060664 0.002503 0.000000 -0.999969 0.000000 0.000000 255 255 255
0.311241 0.400030 1.060664 0.002503 0.000000 -0.999969 1.000000 0.000000 255 255 255
0.348882 0.386082 1.060759 0.002503 0.000000 -0.999969 1.000000 1.000000 255 255 255
0.348882 0.360578 1.060759 0.002503 0.000000 -0.999969 0.000000 1.000000 255 255 255
-0.349034 0.360578 1.060759 -0.002503 0.000000 -0.999969 0.000000 0.000000 255 255 255
-0.349034 0.386082 1.060759 -0.002503 0.000000 -0.999969 1.000000 0.000000 255 255 255
-0.311394 0.400030 1.060664 -0.002503 0.000000 -0.999969 1.000000 1.000000 255 255 255
-0.311394 0.374525 1.060664 -0.002503 0.000000 -0.999969 0.000000 1.000000 255 255 255
0.348882 0.360578 1.060759 1.000000 0.000000 0.000000 0.000000 0.000000 255 255 255
0.348882 0.386082 1.060759 0.820490 0.571612 0.000000 1.000000 0.000000 255 255 255
0.348882 0.386082 1.157068 0.820795 0.571184 0.000000 1.000000 1.000000 255 255 255
0.348882 0.360578 1.157068 1.000000 0.000000 0.000000 0.000000 1.000000 255 255 255
-0.349034 0.360578 1.157068 -1.000000 0.000000 0.000000 0.000000 0.000000 255 255 255
-0.349034 0.386082 1.157068 -0.820795 0.571184 0.000000 1.000000 0.000000 255 255 255
-0.349034 0.386082 1.060759 -0.820490 0.571612 0.000000 1.000000 1.000000 255 255 255
-0.349034 0.360578 1.060759 -1.000000 0.000000 0.000000 0.000000 1.000000 255 255 255
-0.311394 0.374525 1.157068 0.000000 0.000000 0.999969 0.000000 0.000000 255 255 255
-0.311394 0.400030 1.157068 0.000000 0.000000 1.000000 1.000000 0.000000 255 255 255
-0.349034 0.386082 1.157068 0.000000 0.000000 0.999969 1.000000 1.000000 255 255 255
-0.349034 0.360578 1.157068 0.000000 0.000000 1.000000 0.000000 1.000000 255 255 255
-0.311394 0.374525 1.060664 1.000000 0.000000 0.000000 0.000000 0.000000 255 255 255
-0.311394 0.400030 1.060664 0.572069 0.820185 0.000000 1.000000 0.000000 255 255 255
-0.311394 0.400030 1.157068 0.571184 0.820795 0.000000 1.000000 1.000000 255 255 255
-0.311394 0.374525 1.157068 1.000000 0.000000 0.000000 0.000000 1.000000 255 255 255
0.311241 0.374525 1.157068 -1.000000 0.000000 0.000000 0.000000 0.000000 255 255 255
0.311241 0.400030 1.157068 -0.571184 0.820795 0.000000 1.000000 0.000000 255 255 255
0.311241 0.400030 1.060664 -0.572069 0.820185 0.000000 1.000000 1.000000 255 255 255
0.311241 0.374525 1.060664 -1.000000 0.000000 0.000000 0.000000 1.000000 255 255 255
0.348882 0.360578 1.157068 0.000000 0.000000 1.000000 0.000000 0.000000 255 255 255
0.348882 0.386082 1.157068 0.000000 0.000000 1.000000 1.000000 0.000000 255 255 255
0.311241 0.400030 1.157068 0.000000 0.000000 0.999969 1.000000 1.000000 255 255 255
0.311241 0.374525 1.157068 0.000000 0.000000 0.999969 0.000000 1.000000 255 255 255
-0.311394 0.400030 1.157068 0.571184 0.820795 0.000000 -0.003174 0.996985 255 255 255
-0.311394 0.400030 1.060664 0.572069 0.820185 0.000000 -0.003174 0.003015 255 255 255
-0.349034 0.386082 1.060759 -0.820490 0.571612 0.000000 1.003174 0.003015 255 255 255
-0.349034 0.386082 1.157068 -0.820795 0.571184 0.000000 1.003174 0.996985 255 255 255
0.348882 0.386082 1.157068 0.820795 0.571184 0.000000 -0.003174 0.996985 255 255 255
0.348882 0.386082 1.060759 0.820490 0.571612 0.000000 -0.003174 0.003015 255 255 255
0.311241 0.400030 1.060664 -0.572069 0.820185 0.000000 1.003174 0.003015 255 255 255
0.311241 0.400030 1.157068 -0.571184 0.820795 0.000000 1.003174 0.996985 255 255 255
-0.348370 0.375237 1.164940 0.624348 0.613727 0.483169 0.000000 0.000000 255 255 255
-0.351880 0.371836 1.173861 0.460067 0.456313 0.761620 1.000000 0.000000 255 255 255
-0.351880 0.337250 1.173861 0.460067 -0.456313 0.761620 1.000000 1.000000 255 255 255
-0.348370 0.333849 1.164940 0.624348 -0.613727 0.483169 0.000000 1.000000 255 255 255
-0.390481 0.375814 1.164940 -0.612293 0.622181 0.487808 0.000000 0.000000 255 255 255
-0.386972 0.372220 1.173861 -0.455275 0.460097 0.762230 1.000000 0.000000 255 255 255
-0.351880 0.371836 1.173861 0.460067 0.456313 0.761620 1.000000 1.000000 255 255 255
-0.348370 0.375237 1.164940 0.624348 0.613727 0.483169 0.000000 1.000000 255 255 255
-0.390481 0.333272 1.164940 -0.612293 -0.622181 0.487777 0.000000 0.000000 255 255 255
-0.386972 0.336865 1.173861 -0.455275 -0.460097 0.762230 1.000000 0.000000 255 255 255
-0.386972 0.372220 1.173861 -0.455275 0.460097 0.762230 1.000000 1.000000 255 255 255
-0.390481 0.375814 1.164940 -0.612293 0.622181 0.487808 0.000000 1.000000 255 255 255
-0.348370 0.333849 1.164940 0.624348 -0.613727 0.483169 0.000000 0.000000 255 255 255
-0.351880 0.337250 1.173861 0.460067 -0.456313 0.761620 1.000000 0.000000 255 255 255
-0.386972 0.336865 1.173861 -0.455275 -0.460097 0.762230 1.000000 1.000000 255 255 255
-0.390481 0.333272 1.164940 -0.612293 -0.622181 0.487777 0.000000 1.000000 255 255 255
-0.351880 0.337250 1.173861 0.460067 -0.456313 0.761620 0.000000 0.000000 255 255 255
-0.386972 0.336865 1.173861 -0.455275 -0.460097 0.762230 0.000000 1.000000 255 255 255
0.348218 0.333849 1.164940 -0.624348 -0.613727 0.483169 0.000000 0.000000 255 255 255
0.351727 0.337249 1.173861 -0.460067 -0.456313 0.761620 1.000000 0.000000 255 255 255
0.351727 0.371836 1.173861 -0.460067 0.456313 0.761620 1.000000 1.000000 255 255 255
0.348218 0.375237 1.164940 -0.624348 0.613727 0.483169 0.000000 1.000000 255 255 255
0.390329 0.333272 1.164940 0.612293 -0.622181 0.487777 0.000000 0.000000 255 255 255
0.386820 0.336865 1.173861 0.455275 -0.460097 0.762230 1.000000 0.000000 255 255 255
0.351727 0.337249 1.173861 -0.460067 -0.456313 0.761620 1.000000 1.000000 255 255 255
0.348218 0.333849 1.164940 -0.624348 -0.613727 0.483169 0.000000 1.000000 255 255 255
0.390329 0.375814 1.164940 0.612293 0.622181 0.487777 0.000000 0.000000 255 255 255
0.386820 0.372220 1.173861 0.455275 0.460097 0.762230 1.000000 0.000000 255 255 255
0.386820 0.336865 1.173861 0.455275 -0.460097 0.762230 1.000000 1.000000 255 255 255
0.390329 0.333272 1.164940 0.612293 -0.622181 0.487777 0.000000 1.000000 255 255 255
0.348218 0.375237 1.164940 -0.624348 0.613727 0.483169 0.000000 0.000000 255 255 255
0.351727 0.371836 1.173861 -0.460067 0.456313 0.761620 1.000000 0.000000 255 255 255
0.386820 0.372220 1.173861 0.455275 0.460097 0.762230 1.000000 1.000000 255 255 255
0.390329 0.375814 1.164940 0.612293 0.622181 0.487777 0.000000 1.000000 255 255 255
0.351727 0.371836 1.173861 -0.460067 0.456313 0.761620 0.000000 0.000000 255 255 255
0.386820 0.372220 1.173861 0.455275 0.460097 0.762230 0.000000 1.000000 255 255 255
-0.361964 -0.293245 0.750563 -0.462111 -0.045076 -0.885647 0.973646 0.857194 255 255 255
0.353184 -0.293245 0.750563 0.462111 -0.045076 -0.885647 0.026354 0.857194 255 255 255
-0.361964 0.266462 0.750563 -0.466597 0.065462 -0.882015 0.973646 0.104192 255 255 255
0.353184 0.266462 0.750563 0.466597 0.065462 -0.882015 0.026354 0.104192 255 255 255
-0.361963 0.263910 0.802336 -0.461623 0.066561 0.884548 0.973646 0.107626 255 255 255
0.353184 0.263909 0.802336 0.461623 0.066561 0.884548 0.026354 0.107626 255 255 255
-0.361964 -0.290692 0.802336 -0.458419 -0.046144 0.887509 0.973646 0.853760 255 255 255
0.353184 -0.290693 0.802336 0.458419 -0.046144 0.887509 0.026354 0.853760 255 255 255
-0.381859 -0.301685 0.776449 -0.990600 -0.136509 0.006104 1.000000 0.868548 255 255 255
-0.381859 0.274902 0.776449 -0.982452 0.186285 0.008026 1.000000 0.092838 255 255 255
0.373080 0.274901 0.776449 0.982452 0.186285 0.008026 0.000000 0.092838 255 255 255
0.373079 -0.301685 0.776449 0.990600 -0.136509 0.006104 0.000000 0.868549 255 255 255
-0.348370 0.384441 0.003652 0.010346 0.000000 -0.999939 0.000000 0.000000 255 255 255
-0.348370 0.343052 0.003652 0.010346 0.000000 -0.999939 1.000000 0.000000 255 255 255
-0.390481 0.342476 0.003216 0.010346 0.000000 -0.999939 1.000000 1.000000 255 255 255
-0.390481 0.385017 0.003216 0.010346 0.000000 -0.999939 0.000000 1.000000 255 255 255
0.348218 0.343052 0.003652 -0.010346 0.000000 -0.999939 0.000000 0.000000 255 255 255
0.348218 0.384441 0.003652 -0.010346 0.000000 -0.999939 1.000000 0.000000 255 255 255
0.390329 0.385017 0.003216 -0.010346 0.000000 -0.999939 1.000000 1.000000 255 255 255
0.390329 0.342475 0.003216 -0.010346 0.000000 -0.999939 0.000000 1.000000 255 255 255
0.348218 -0.380984 -0.003815 0.000000 0.022065 -0.999756 0.000000 0.000000 255 255 255
0.307068 -0.380984 -0.003815 0.000000 0.022065 -0.999756 1.000000 0.000000 255 255 255
0.307068 -0.346509 -0.003054 0.000000 0.022065 -0.999756 1.000000 1.000000 255 255 255
0.348218 -0.346509 -0.003054 0.000000 0.022065 -0.999756 0.000000 1.000000 255 255 255
-0.306612 -0.380984 -0.003815 0.000000 0.022065 -0.999756 0.000000 0.000000 255 255 255
-0.348370 -0.380984 -0.003815 0.000000 0.022065 -0.999756 1.000000 0.000000 255 255 255
-0.348370 -0.346509 -0.003054 0.000000 0.022065 -0.999756 1.000000 1.000000 255 255 255
-0.306612 -0.346509 -0.003054 0.000000 0.022065 -0.999756 0.000000 1.000000 255 255 255
4 0 1 2 3
4 1 4 5 2
4 6 7 8 9
4 7 10 11 8
4 12 13 14 15
4 16 12 15 17
4 18 19 20 21
4 22 23 24 25
4 26 22 25 27
4 28 29 30 31
4 32 33 34 35
4 36 37 38 39
4 40 33 41 42
4 43 44 45 46
4 47 29 48 49
4 50 51 52 53
4 54 55 56 57
4 58 59 60 61
4 62 63 64 65
4 43 66 67 68
4 69 70 71 72
4 73 74 75 76
4 77 37 78 79
4 32 80 81 82
4 28 83 84 85
4 86 87 88 89
4 90 91 92 93
4 94 29 95 96
4 97 98 99 100
4 101 102 103 104
4 40 105 106 107
4 108 109 110 111
4 112 113 114 115
4 116 105 117 118
4 119 120 121 122
4 101 123 124 125
4 126 98 127 128
4 129 130 131 132
4 94 133 134 135
4 136 137 138 139
4 140 141 142 143
4 144 145 146 147
4 148 149 150 151
4 152 153 154 155
4 156 157 158 159
4 160 161 162 163
4 164 165 166 167
4 168 169 170 171
4 172 173 174 175
4 176 177 124 118
4 178 179 134 128
4 180 181 182 183
4 184 185 186 187
4 188 189 190 85
4 191 165 192 193
4 194 195 196 82
4 197 161 198 199
3 200 201 202
3 203 204 202
3 200 157 205
3 206 207 208
3 152 209 208
3 206 210 75
3 211 212 213
3 144 214 213
3 211 215 67
3 216 217 218
3 219 220 218
3 216 137 221
4 222 223 224 225
4 226 227 228 229
4 40 230 231 232
4 233 102 234 235
4 97 236 237 238
4 239 29 240 241
4 242 243 244 245
4 246 247 248 249
4 24 23 250 251
4 14 13 252 253
4 6 9 254 255
4 5 4 256 257
4 257 256 258 259
4 260 261 262 263
4 261 264 265 262
4 264 266 267 265
4 268 269 270 271
4 269 272 273 270
4 272 274 275 273
4 276 277 278 279
4 277 280 281 278
4 282 283 284 285
4 283 286 287 284
4 266 288 289 267
4 288 268 271 289
4 274 290 291 275
4 290 260 263 291
4 292 293 294 295
4 293 296 297 294
4 298 299 293 292
4 299 300 296 293
4 301 302 299 298
4 302 303 300 299
4 304 305 306 307
4 305 308 309 306
4 310 311 305 304
4 311 312 308 305
4 313 314 311 310
4 314 315 312 311
4 316 317 318 319
4 320 321 322 323
4 324 325 326 327
4 328 329 330 331
4 332 333 334 335
4 336 337 338 339
4 340 341 342 343
4 344 345 346 347
4 348 349 350 351
4 352 353 354 355
4 356 357 358 359
4 360 361 362 363
4 364 365 366 367
4 368 369 370 371
4 372 373 374 375
4 376 377 378 379
4 380 381 382 383
4 384 385 386 387
4 388 389 390 391
4 392 393 394 395
4 396 381 390 397
4 398 399 400 401
4 402 403 404 405
4 406 407 408 409
4 410 411 412 413
4 414 399 408 415
4 285 416 417 282
4 416 418 419 417
4 418 276 279 419
4 280 420 421 281
4 420 422 423 421
4 422 287 286 423
4 284 424 416 285
4 424 425 418 416
4 425 277 276 418
4 287 422 424 284
4 422 420 425 424
4 420 280 277 425
4 278 426 419 279
4 426 427 417 419
4 427 283 282 417
4 281 421 426 278
4 421 423 427 426
4 423 286 283 427
4 428 429 430 431
4 432 433 434 435
4 436 437 438 439
4 440 441 442 443
