# Blender v2.74 (sub 0) OBJ File: 'Low-Poly-Chairs-Set.blend'
# www.blender.org
mtllib chair_6.mtl
o chair_6
v 0.346654 1.197745 -0.415304
v 0.346797 1.197745 -0.373374
v 0.427101 1.197745 -0.415104
v 0.427245 1.197745 -0.373173
v 0.346654 0.855348 -0.415304
v 0.346797 0.793508 -0.373374
v 0.427101 0.855348 -0.415104
v 0.427245 0.793508 -0.373173
v 0.193803 1.197745 -0.415685
v 0.193947 1.197745 -0.373754
v 0.274251 1.197745 -0.415484
v 0.274394 1.197745 -0.373554
v 0.193803 0.855348 -0.415685
v 0.193947 0.793508 -0.373754
v 0.274251 0.855348 -0.415484
v 0.274394 0.793508 -0.373554
v 0.040953 1.197745 -0.416065
v 0.041096 1.197745 -0.374135
v 0.121400 1.197745 -0.415865
v 0.121544 1.197745 -0.373935
v 0.040953 0.855348 -0.416065
v 0.041096 0.793508 -0.374135
v 0.121400 0.855348 -0.415865
v 0.121544 0.793508 -0.373935
v -0.111898 1.197745 -0.416446
v -0.111754 1.197745 -0.374515
v -0.031450 1.197745 -0.416246
v -0.031307 1.197745 -0.374315
v -0.111898 0.855348 -0.416446
v -0.111754 0.793508 -0.374515
v -0.031450 0.855348 -0.416246
v -0.031307 0.793508 -0.374315
v -0.264748 1.197745 -0.416826
v -0.264605 1.197745 -0.374896
v -0.184300 1.197745 -0.416626
v -0.184157 1.197745 -0.374696
v -0.264748 0.855348 -0.416826
v -0.264605 0.793508 -0.374896
v -0.184300 0.855348 -0.416626
v -0.184157 0.793508 -0.374696
v -0.417598 1.197745 -0.417207
v -0.417455 1.197745 -0.375276
v -0.337151 1.197745 -0.417007
v -0.337007 1.197745 -0.375076
v -0.417598 0.855348 -0.417207
v -0.417455 0.793508 -0.375276
v -0.337151 0.855348 -0.417007
v -0.337007 0.793508 -0.375076
v 0.623097 1.203448 0.605948
v 0.623195 1.203448 0.667909
v 0.467133 1.203448 0.605560
v 0.467231 1.203448 0.667521
v 0.607188 1.273314 0.596119
v 0.607286 1.256682 0.658080
v 0.482974 1.273314 0.595810
v 0.483073 1.256682 0.657771
v 0.622426 1.203448 -0.433548
v 0.466462 1.203448 -0.433936
v 0.606551 1.273314 -0.433587
v 0.482338 1.273314 -0.433896
v -0.624616 1.203448 0.602842
v -0.624518 1.203448 0.664802
v -0.468652 1.203448 0.603230
v -0.468554 1.203448 0.665191
v -0.608774 1.273314 0.593092
v -0.608676 1.256682 0.655052
v -0.484561 1.273314 0.593401
v -0.484463 1.256682 0.655362
v -0.625287 1.203448 -0.436654
v -0.469322 1.203448 -0.436266
v -0.609411 1.273314 -0.436615
v -0.485198 1.273314 -0.436305
v 0.600437 0.018749 0.608210
v 0.600429 1.203448 0.605892
v 0.490011 0.018749 0.667362
v 0.600610 1.203448 0.658799
v 0.600641 0.018749 0.667637
v 0.489808 0.018749 0.607935
v 0.489800 1.203448 0.605616
v 0.489981 1.203448 0.658524
v 0.599986 0.018749 -0.367255
v 0.599986 1.744624 -0.367255
v 0.489095 0.018749 -0.443916
v 0.599805 1.744624 -0.420162
v 0.599725 0.018749 -0.443640
v 0.489356 0.018749 -0.367530
v 0.489356 1.744624 -0.367530
v 0.489175 1.744624 -0.420438
v -0.601941 0.018749 0.605217
v -0.601949 1.203448 0.602898
v -0.491108 0.018749 0.664919
v -0.601768 1.203448 0.655806
v -0.601738 0.018749 0.664644
v -0.491311 0.018749 0.605492
v -0.491319 1.203448 0.603174
v -0.491138 1.203448 0.656081
v -0.602392 0.018749 -0.370249
v -0.602392 1.744624 -0.370249
v -0.492024 0.018749 -0.446359
v -0.602573 1.744624 -0.423156
v -0.602654 0.018749 -0.446634
v -0.491763 0.018749 -0.369973
v -0.491763 1.744624 -0.369973
v -0.491944 1.744624 -0.422881
v -0.491944 1.197745 -0.422881
v -0.491763 1.197745 -0.369973
v -0.491763 1.693370 -0.369973
v -0.491944 1.693370 -0.422881
v 0.489175 1.197745 -0.420438
v 0.489356 1.197745 -0.367530
v 0.489356 1.693370 -0.367530
v 0.489175 1.693370 -0.420438
v -0.402147 1.268234 -0.369750
v -0.402147 1.622882 -0.369750
v 0.399741 1.268234 -0.367753
v 0.399741 1.622882 -0.367753
v -0.357551 1.287932 -0.352552
v -0.357551 1.603184 -0.352552
v 0.355261 1.287932 -0.350777
v 0.355261 1.603184 -0.350777
v 0.600429 0.743241 0.605892
v 0.490089 0.753487 0.690263
v 0.600719 0.753487 0.690539
v 0.489800 0.743241 0.605616
v -0.601949 0.743241 0.602898
v -0.491030 0.753487 0.687821
v -0.601659 0.753487 0.687545
v -0.491319 0.743241 0.603174
v 0.600429 1.084797 0.605892
v 0.600719 1.049662 0.690539
v -0.601949 1.084797 0.602898
v -0.601659 1.049662 0.687545
v 0.490089 1.049662 0.690263
v 0.489800 1.084797 0.605616
v -0.491030 1.049662 0.687821
v -0.491319 1.084797 0.603174
v 0.600051 0.881687 -0.348118
v 0.489095 0.881687 -0.443916
v 0.599725 0.881687 -0.443640
v 0.489422 0.881687 -0.348393
v -0.602327 0.881687 -0.351111
v -0.492024 0.881687 -0.446359
v -0.602654 0.881687 -0.446634
v -0.491697 0.881687 -0.350836
v 0.600088 1.687153 -0.337604
v 0.599725 1.687153 -0.443640
v -0.602291 1.687153 -0.340597
v -0.602654 1.687153 -0.446634
v 0.489095 1.687153 -0.443916
v 0.489458 1.687153 -0.337879
v -0.492024 1.687153 -0.446359
v -0.491661 1.687153 -0.340322
v 0.600088 1.038543 -0.337604
v 0.599725 1.038543 -0.443640
v -0.602291 1.038543 -0.340597
v -0.602654 1.038543 -0.446634
v 0.489095 1.038543 -0.443916
v 0.489458 1.038543 -0.337879
v -0.492024 1.038543 -0.446359
v -0.491661 1.038543 -0.340322
v 0.527613 0.743334 0.642433
v -0.531942 0.743334 0.639795
v -0.532577 0.743334 -0.389298
v 0.526978 0.743334 -0.386660
v 0.527613 0.850239 0.642433
v -0.531942 0.850239 0.639795
v -0.532577 0.850239 -0.389298
v 0.526978 0.850239 -0.386660
v 0.461021 0.850239 0.584879
v -0.470987 0.850239 0.582559
v -0.460210 0.850239 -0.330503
v 0.460290 0.850239 -0.318044
v 0.381132 0.886638 0.537491
v -0.407747 0.886638 0.535527
v -0.380344 0.886638 -0.289676
v 0.397073 0.886638 -0.264451
v 0.582033 -0.000000 0.618069
v 0.508415 -0.000000 0.657503
v 0.582168 -0.000000 0.657687
v 0.508280 -0.000000 0.617885
v 0.581504 -0.000000 -0.380032
v 0.507577 -0.000000 -0.431139
v 0.581330 -0.000000 -0.430955
v 0.507751 -0.000000 -0.380215
v -0.583469 -0.000000 0.615167
v -0.509580 -0.000000 0.654969
v -0.583333 -0.000000 0.654785
v -0.509716 -0.000000 0.615351
v -0.583998 -0.000000 -0.382934
v -0.510419 -0.000000 -0.433674
v -0.584172 -0.000000 -0.433857
v -0.510244 -0.000000 -0.382750
vt 0.370751 0.073788
vt 0.387452 0.048012
vt 0.383006 0.219858
vt 0.366986 0.219345
vt 0.415240 0.220476
vt 0.398927 0.220368
vt 0.403372 0.048522
vt 0.416518 0.075941
vt 0.431427 0.220475
vt 0.431426 0.072479
vt 0.419188 0.040927
vt 0.794932 0.381183
vt 0.811632 0.355407
vt 0.807186 0.527254
vt 0.791166 0.526741
vt 0.839420 0.527871
vt 0.823107 0.527764
vt 0.827553 0.355917
vt 0.840699 0.383336
vt 0.855607 0.527871
vt 0.855607 0.379875
vt 0.843368 0.348323
vt 0.751732 0.560731
vt 0.768433 0.534955
vt 0.763987 0.706802
vt 0.747966 0.706288
vt 0.796220 0.707419
vt 0.779907 0.707312
vt 0.784353 0.535465
vt 0.797499 0.562884
vt 0.812408 0.707419
vt 0.812407 0.559423
vt 0.800169 0.527871
vt 0.828065 0.563057
vt 0.841340 0.535759
vt 0.844868 0.707419
vt 0.828575 0.707419
vt 0.876867 0.707055
vt 0.860797 0.707238
vt 0.857259 0.535130
vt 0.873870 0.561051
vt 0.812408 0.707313
vt 0.813194 0.559502
vt 0.825585 0.528071
vt 0.849988 0.758768
vt 0.863279 0.731436
vt 0.866812 0.903309
vt 0.850498 0.903309
vt 0.898757 0.902496
vt 0.882735 0.902904
vt 0.879203 0.731031
vt 0.895766 0.756917
vt 0.834311 0.903202
vt 0.835099 0.755209
vt 0.847505 0.723738
vt 0.699196 0.562901
vt 0.712488 0.535569
vt 0.716020 0.707442
vt 0.699707 0.707442
vt 0.747966 0.706629
vt 0.731943 0.707036
vt 0.728411 0.535164
vt 0.744974 0.561050
vt 0.683520 0.707335
vt 0.684307 0.559342
vt 0.696713 0.527871
vt 0.461965 0.859674
vt 0.482995 0.859308
vt 0.483524 0.893816
vt 0.462610 0.895274
vt 0.467841 0.950346
vt 0.468157 0.919703
vt 0.488958 0.922523
vt 0.488780 0.948275
vt 0.441106 0.892131
vt 0.440592 0.863778
vt 0.482825 0.977267
vt 0.461161 0.974347
vt 0.791013 0.923269
vt 0.790948 0.950523
vt 0.817619 0.862788
vt 0.817619 0.890012
vt 0.791048 0.893492
vt 0.791048 0.859309
vt 0.790833 0.980318
vt 0.461921 0.851770
vt 0.462875 0.816192
vt 0.483771 0.817869
vt 0.482955 0.852372
vt 0.468556 0.761197
vt 0.489471 0.763478
vt 0.489441 0.789223
vt 0.468623 0.791831
vt 0.440592 0.847438
vt 0.441352 0.819102
vt 0.462072 0.737140
vt 0.483751 0.734437
vt 0.791649 0.764197
vt 0.791598 0.791435
vt 0.817730 0.852202
vt 0.791122 0.855420
vt 0.791395 0.821224
vt 0.817948 0.824968
vt 0.791674 0.734436
vt 0.040509 0.437172
vt 0.055009 0.436027
vt 0.061559 0.443376
vt 0.033573 0.445588
vt 0.737307 0.336725
vt 0.715607 0.336649
vt 0.717681 0.023482
vt 0.739731 0.023634
vt 0.769348 0.332299
vt 0.762572 0.023107
vt 0.784594 0.022528
vt 0.791166 0.332329
vt 0.683520 0.331956
vt 0.694867 0.022528
vt 0.765863 0.474667
vt 0.759490 0.524775
vt 0.738861 0.521394
vt 0.736450 0.457227
vt 0.069326 0.043088
vt 0.067188 0.073053
vt 0.059808 0.066091
vt 0.060671 0.050300
vt 0.497978 0.387531
vt 0.497266 0.022952
vt 0.519019 0.022902
vt 0.519737 0.387426
vt 0.461678 0.387767
vt 0.439888 0.386937
vt 0.446524 0.022528
vt 0.468267 0.023018
vt 0.555960 0.387309
vt 0.548016 0.022835
vt 0.349996 0.363664
vt 0.436293 0.363664
vt 0.403803 0.376013
vt 0.381638 0.379247
vt 0.319162 0.444188
vt 0.322236 0.414155
vt 0.328583 0.421262
vt 0.327570 0.436921
vt 0.373302 0.782585
vt 0.376215 0.469499
vt 0.398263 0.469812
vt 0.394999 0.782967
vt 0.341342 0.777484
vt 0.319527 0.777054
vt 0.331378 0.467447
vt 0.353387 0.468489
vt 0.427160 0.778952
vt 0.421089 0.469340
vt 0.342402 0.919901
vt 0.372107 0.903084
vt 0.368604 0.967188
vt 0.347921 0.970134
vt 0.344352 0.064739
vt 0.344926 0.048833
vt 0.353601 0.041942
vt 0.351628 0.071915
vt 0.622498 0.387529
vt 0.600740 0.387420
vt 0.601508 0.022896
vt 0.623260 0.022947
vt 0.658799 0.387772
vt 0.652260 0.023016
vt 0.674003 0.022528
vt 0.680589 0.386946
vt 0.564517 0.387295
vt 0.572511 0.022825
vt 0.349510 0.300626
vt 0.381151 0.285043
vt 0.403316 0.288277
vt 0.435807 0.300626
vt 0.401133 0.393677
vt 0.384327 0.392590
vt 0.383841 0.271700
vt 0.400647 0.270613
vt 0.257391 0.969896
vt 0.237363 0.969896
vt 0.237363 0.761145
vt 0.257391 0.761145
vt 0.024963 0.969896
vt 0.024963 0.761145
vt 0.044990 0.761145
vt 0.044991 0.969896
vt 0.237363 0.992180
vt 0.044991 0.992179
vt 0.044990 0.738861
vt 0.237363 0.738861
vt 0.818328 0.220186
vt 0.955149 0.220075
vt 0.982296 0.239956
vt 0.791166 0.240124
vt 0.955134 0.042466
vt 0.982296 0.022528
vt 0.818314 0.042569
vt 0.791166 0.022686
vt 0.716556 0.457406
vt 0.787512 0.476586
vt 0.687095 0.475532
vt 0.391993 0.903681
vt 0.320724 0.921362
vt 0.421141 0.922426
vt 0.716079 0.521726
vt 0.781751 0.527871
vt 0.695830 0.526060
vt 0.391375 0.968000
vt 0.325611 0.972760
vt 0.411547 0.972760
vt 0.498454 0.453546
vt 0.520057 0.453459
vt 0.458530 0.453771
vt 0.436974 0.453187
vt 0.560114 0.453363
vt 0.622011 0.453544
vt 0.600407 0.453451
vt 0.661935 0.453778
vt 0.683491 0.453199
vt 0.560351 0.453347
vt 0.498548 0.725784
vt 0.458534 0.725789
vt 0.661875 0.725794
vt 0.621861 0.725779
vt 0.421010 0.407087
vt 0.364571 0.407053
vt 0.420524 0.257203
vt 0.364085 0.257237
vt 0.520181 0.725781
vt 0.436889 0.725780
vt 0.560205 0.725764
vt 0.600228 0.725771
vt 0.683520 0.725792
vt 0.560205 0.725744
vt 0.299943 0.442348
vt 0.077332 0.452764
vt 0.075631 0.407776
vt 0.298242 0.397360
vt 0.035200 0.405806
vt 0.047471 0.094101
vt 0.087902 0.096071
vt 0.086202 0.051084
vt 0.308813 0.040668
vt 0.310513 0.085655
vt 0.350944 0.087625
vt 0.338673 0.399330
vt 0.300979 0.482769
vt 0.046858 0.482632
vt 0.030750 0.467447
vt 0.319527 0.467447
vt 0.284060 0.708553
vt 0.300169 0.723738
vt 0.029940 0.708416
vt 0.011392 0.723738
vt 0.040600 0.420336
vt 0.054849 0.419511
vt 0.039783 0.050070
vt 0.040575 0.065894
vt 0.343996 0.436678
vt 0.342956 0.421385
vt 0.324789 0.064569
vt 0.324262 0.048606
vt 0.317673 0.071941
vt 0.352048 0.444188
vt 0.030900 0.043088
vt 0.315365 0.041942
vt 0.033723 0.413367
vt 0.349102 0.414207
vt 0.033342 0.073027
vt 0.061559 0.411349
vt 0.827041 0.053573
vt 0.946392 0.053504
vt 0.946415 0.209076
vt 0.827064 0.209142
vt 0.278957 0.501893
vt 0.264584 0.689083
vt 0.051962 0.689292
vt 0.066335 0.502102
vn -1.000000 0.000000 0.003400
vn 1.000000 0.000000 -0.003400
vn -0.002500 0.000000 1.000000
vn 0.002500 0.000000 -1.000000
vn 0.002100 -0.561200 -0.827700
vn 0.000000 -1.000000 0.000000
vn -0.000600 0.965800 0.259300
vn -0.002400 0.180900 0.983500
vn -0.966400 0.254400 0.035700
vn 0.966400 0.255000 0.032700
vn 0.000000 1.000000 -0.000000
vn -0.975200 0.221400 0.000600
vn 0.975100 0.221800 -0.000600
vn -0.002200 -0.467100 0.884200
vn -0.002500 -0.031200 0.999500
vn 0.002500 -0.003200 -1.000000
vn 0.002100 -0.561700 -0.827300
vn -0.002500 -0.022200 0.999800
vn -0.002400 0.202100 0.979400
vn -0.002500 -0.066900 0.997800
vn 0.002300 0.378200 -0.925700
vn -0.002200 0.458500 0.888700
vn -1.000000 0.000000 0.000600
vn 1.000000 0.000000 -0.000600
vn 0.713000 -0.701200 -0.002400
vn -0.713000 -0.701200 0.002400
vn -0.002100 -0.561700 0.827300
vn 0.002200 -0.467100 -0.884200
vn -0.125700 0.301100 0.945200
vn 0.121600 0.300900 0.945800
vn 0.065300 0.055700 0.996300
vn -0.070100 0.055500 0.996000
vn 0.121600 -0.300900 0.945800
vn -0.125700 -0.301100 0.945200
vn -0.070100 -0.055500 0.996000
vn 0.065300 -0.055700 0.996300
vn -0.152300 0.947500 -0.281000
vn 0.183200 0.951200 -0.248400
vn 0.070300 0.994400 -0.079100
vn -0.082100 0.994800 -0.059800
vn 0.162700 0.948900 0.270200
vn 0.078300 0.994900 0.063600
vn -0.175400 0.951000 0.254400
vn -0.072100 0.994800 0.072500
usemtl Material.224
s off
f 5/1/1 6/2/1 2/3/1 1/4/1
f 3/5/2 4/6/2 8/7/2 7/8/2
f 4/6/3 2/3/3 6/2/3 8/7/3
f 1/9/4 3/5/4 7/8/4 5/10/4
f 5/10/5 7/8/5 8/7/5 6/11/5
f 13/12/1 14/13/1 10/14/1 9/15/1
f 11/16/2 12/17/2 16/18/2 15/19/2
f 12/17/3 10/14/3 14/13/3 16/18/3
f 9/20/4 11/16/4 15/19/4 13/21/4
f 13/21/5 15/19/5 16/18/5 14/22/5
f 21/23/1 22/24/1 18/25/1 17/26/1
f 19/27/2 20/28/2 24/29/2 23/30/2
f 20/28/3 18/25/3 22/24/3 24/29/3
f 17/31/4 19/27/4 23/30/4 21/32/4
f 21/32/5 23/30/5 24/29/5 22/33/5
f 29/34/1 30/35/1 26/36/1 25/37/1
f 27/38/2 28/39/2 32/40/2 31/41/2
f 28/39/3 26/36/3 30/35/3 32/40/3
f 25/37/4 27/42/4 31/43/4 29/34/4
f 29/34/5 31/43/5 32/44/5 30/35/5
f 37/45/1 38/46/1 34/47/1 33/48/1
f 35/49/2 36/50/2 40/51/2 39/52/2
f 36/50/3 34/47/3 38/46/3 40/51/3
f 33/48/4 35/53/4 39/54/4 37/45/4
f 37/45/5 39/54/5 40/55/5 38/46/5
f 45/56/1 46/57/1 42/58/1 41/59/1
f 43/60/2 44/61/2 48/62/2 47/63/2
f 44/61/3 42/58/3 46/57/3 48/62/3
f 41/59/4 43/64/4 47/65/4 45/56/4
f 45/56/5 47/65/5 48/66/5 46/57/5
f 52/67/6 51/68/6 49/69/6 50/70/6
f 56/71/7 54/72/7 53/73/7 55/74/7
f 52/67/8 50/70/8 54/75/8 56/76/8
f 56/71/9 55/74/9 51/77/9 52/78/9
f 50/70/10 49/69/10 53/73/10 54/72/10
f 55/74/11 53/73/11 59/79/11 60/80/11
f 60/81/4 59/82/4 57/83/4 58/84/4
f 60/80/12 58/85/12 51/77/12 55/74/12
f 57/83/13 59/79/13 53/73/13 49/69/13
f 58/84/6 57/83/6 49/69/6 51/68/6
f 64/86/6 62/87/6 61/88/6 63/89/6
f 68/90/7 67/91/7 65/92/7 66/93/7
f 64/86/8 68/94/8 66/95/8 62/87/8
f 68/90/10 64/96/10 63/97/10 67/91/10
f 62/87/9 66/93/9 65/92/9 61/88/9
f 67/91/11 72/98/11 71/99/11 65/92/11
f 72/100/4 70/101/4 69/102/4 71/103/4
f 72/98/13 67/91/13 63/97/13 70/104/13
f 69/102/12 61/88/12 65/92/12 71/99/12
f 70/101/6 63/89/6 61/88/6 69/102/6
f 178/105/14 179/106/14 77/107/14 75/108/14
f 123/109/15 122/110/15 75/111/15 77/112/15
f 121/113/16 73/114/16 78/115/16 124/116/16
f 124/117/1 78/118/1 75/111/1 122/110/1
f 129/119/2 74/120/2 76/121/2 130/122/2
f 83/123/17 85/124/17 183/125/17 182/126/17
f 139/127/4 85/128/4 83/129/4 138/130/4
f 137/131/18 140/132/18 86/133/18 81/134/18
f 140/135/1 138/130/1 83/129/1 86/136/1
f 145/137/2 146/138/2 84/139/2 82/140/2
f 91/141/14 93/142/14 187/143/14 186/144/14
f 127/145/15 93/146/15 91/147/15 126/148/15
f 125/149/16 128/150/16 94/151/16 89/152/16
f 128/153/2 126/148/2 91/147/2 94/154/2
f 131/155/1 132/156/1 92/157/1 90/158/1
f 190/159/17 191/160/17 101/161/17 99/162/17
f 143/163/4 142/164/4 99/165/4 101/166/4
f 141/167/18 97/168/18 102/169/18 144/170/18
f 144/171/2 102/172/2 99/165/2 142/164/2
f 147/173/1 98/174/1 100/175/1 148/176/1
f 88/177/11 87/178/11 82/140/11 84/139/11
f 103/179/11 104/180/11 100/175/11 98/174/11
f 107/181/1 108/182/1 105/183/1 106/184/1
f 111/185/2 110/186/2 109/187/2 112/188/2
f 108/182/11 107/189/11 111/190/11 112/188/11
f 109/187/6 110/191/6 106/192/6 105/183/6
f 112/188/4 109/187/4 105/183/4 108/182/4
f 116/193/3 115/194/3 110/195/3 111/196/3
f 115/194/3 113/197/3 106/198/3 110/195/3
f 114/199/3 116/193/3 111/196/3 107/200/3
f 107/200/3 106/198/3 113/197/3 114/199/3
f 130/122/3 133/201/3 122/110/3 123/109/3
f 129/119/4 121/113/4 124/116/4 134/202/4
f 134/203/1 124/117/1 122/110/1 133/201/1
f 73/114/2 121/113/2 123/109/2 77/112/2
f 132/156/3 127/145/3 126/148/3 135/204/3
f 131/155/4 136/205/4 128/150/4 125/149/4
f 136/206/2 135/204/2 126/148/2 128/153/2
f 89/152/1 93/146/1 127/145/1 125/149/1
f 121/113/2 129/119/2 130/122/2 123/109/2
f 125/149/1 127/145/1 132/156/1 131/155/1
f 76/121/19 80/207/19 133/201/19 130/122/19
f 74/120/4 129/119/4 134/202/4 79/208/4
f 79/209/1 134/203/1 133/201/1 80/207/1
f 92/157/19 132/156/19 135/204/19 96/210/19
f 90/158/4 95/211/4 136/205/4 131/155/4
f 95/212/2 96/210/2 135/204/2 136/206/2
f 154/213/4 139/127/4 138/130/4 157/214/4
f 153/215/20 158/216/20 140/132/20 137/131/20
f 158/217/1 157/214/1 138/130/1 140/135/1
f 81/134/2 85/128/2 139/127/2 137/131/2
f 156/218/4 159/219/4 142/164/4 143/163/4
f 155/220/20 141/167/20 144/170/20 160/221/20
f 160/222/2 144/171/2 142/164/2 159/219/2
f 97/168/1 141/167/1 143/163/1 101/166/1
f 153/215/2 154/213/2 146/223/2 145/224/2
f 155/220/1 147/225/1 148/226/1 156/218/1
f 84/139/21 146/138/21 149/227/21 88/177/21
f 82/140/22 87/178/22 150/228/22 145/137/22
f 87/178/1 88/177/1 149/227/1 150/228/1
f 100/175/21 104/180/21 151/229/21 148/176/21
f 98/174/22 147/173/22 152/230/22 103/179/22
f 103/179/2 152/230/2 151/229/2 104/180/2
f 146/223/4 154/213/4 157/214/4 149/231/4
f 145/224/3 150/232/3 158/216/3 153/215/3
f 150/233/1 149/231/1 157/214/1 158/217/1
f 148/226/4 151/234/4 159/219/4 156/218/4
f 147/225/3 155/220/3 160/221/3 152/235/3
f 152/236/2 160/222/2 159/219/2 151/234/2
f 137/131/2 139/127/2 154/213/2 153/215/2
f 141/167/1 155/220/1 156/218/1 143/163/1
f 165/237/3 166/238/3 162/239/3 161/240/3
f 166/241/23 167/242/23 163/243/23 162/239/23
f 167/244/4 168/245/4 164/246/4 163/243/4
f 168/247/24 165/248/24 161/240/24 164/246/24
f 161/240/6 162/239/6 163/243/6 164/246/6
f 172/249/11 169/250/11 165/251/11 168/252/11
f 171/253/11 172/249/11 168/252/11 167/254/11
f 169/250/11 170/255/11 166/256/11 165/251/11
f 170/255/11 171/253/11 167/254/11 166/256/11
f 180/257/6 177/258/6 179/106/6 178/105/6
f 184/259/6 182/126/6 183/125/6 181/260/6
f 188/261/6 186/144/6 187/143/6 185/262/6
f 192/263/6 189/264/6 191/160/6 190/159/6
f 99/162/25 102/265/25 192/263/25 190/159/25
f 186/144/25 188/261/25 94/266/25 91/141/25
f 182/126/26 184/259/26 86/267/26 83/123/26
f 97/268/26 101/161/26 191/160/26 189/264/26
f 75/108/26 78/269/26 180/257/26 178/105/26
f 185/262/26 187/143/26 93/142/26 89/270/26
f 181/260/25 183/125/25 85/124/25 81/271/25
f 73/272/25 77/107/25 179/106/25 177/258/25
f 102/265/27 97/268/27 189/264/27 192/263/27
f 188/261/28 185/262/28 89/270/28 94/266/28
f 184/259/27 181/260/27 81/271/27 86/267/27
f 78/269/28 73/272/28 177/258/28 180/257/28
usemtl Material.225
f 118/273/3 117/274/3 119/275/3 120/276/3
f 176/277/11 175/278/11 174/279/11 173/280/11
s 1
f 118/273/29 120/276/30 116/193/31 114/199/32
f 119/275/33 117/274/34 113/197/35 115/194/36
f 114/199/32 113/197/35 117/274/34 118/273/29
f 120/276/30 119/275/33 115/194/36 116/193/31
f 175/278/37 176/277/38 172/249/39 171/253/40
f 176/277/38 173/280/41 169/250/42 172/249/39
f 173/280/41 174/279/43 170/255/44 169/250/42
f 174/279/43 175/278/37 171/253/40 170/255/44
