# Blender v2.74 (sub 0) OBJ File: 'Low-Poly-Chairs-Set.blend'
# www.blender.org
mtllib chair_3.mtl
o chair_3
v -0.363952 0.746050 -0.312543
v 0.369524 0.746050 -0.312543
v 0.369524 0.724370 0.401899
v -0.363953 0.724370 0.401899
v 0.369524 0.746050 0.353677
v -0.363952 0.746050 0.353677
v -0.363953 0.708925 0.389243
v -0.363952 0.726808 0.353677
v -0.363952 0.726808 -0.312543
v 0.369524 0.708925 0.389244
v 0.369524 0.726808 0.353677
v 0.369524 0.726808 -0.312543
v 0.306830 0.720325 -0.375237
v 0.348218 0.720325 -0.375237
v 0.348218 0.720325 -0.333849
v 0.306830 0.720325 -0.333849
v -0.348370 0.720325 -0.333849
v -0.306982 0.720325 -0.333849
v -0.306982 0.720325 -0.375237
v -0.348370 0.720325 -0.375237
v -0.348370 0.689058 -0.375237
v -0.306982 0.689058 -0.375237
v -0.306982 0.689058 -0.333849
v -0.348370 0.689058 -0.333849
v 0.306830 0.689058 -0.333849
v 0.348218 0.689058 -0.333849
v 0.348218 0.689058 -0.375237
v 0.306830 0.689058 -0.375237
v 0.348218 0.720325 0.347892
v 0.348218 0.689058 0.347892
v 0.306830 0.689058 0.347892
v 0.306830 0.720325 0.347892
v -0.348370 0.689058 0.347892
v -0.306982 0.689058 0.347892
v -0.348370 0.720325 0.347892
v -0.306982 0.720325 0.347892
v 0.348218 0.681591 0.390188
v 0.307068 0.681591 0.390188
v -0.306612 0.681591 0.390188
v -0.348370 0.681591 0.390188
v -0.306612 0.682352 0.355713
v -0.348370 0.682352 0.355713
v 0.307068 0.682352 0.355713
v 0.348218 0.682352 0.355713
v 0.390329 0.688622 -0.375814
v 0.390329 0.688622 -0.333272
v 0.390329 0.720761 -0.375814
v 0.390329 0.720761 -0.333272
v -0.390481 0.688622 -0.333272
v -0.390481 0.720761 -0.333272
v -0.390481 0.688622 -0.375814
v -0.390481 0.720761 -0.375814
v -0.348370 0.003652 -0.384441
v -0.390481 0.003216 -0.385017
v -0.390481 0.003216 -0.342476
v -0.348370 0.003652 -0.343052
v 0.348218 0.003652 -0.343052
v 0.390329 0.003216 -0.342475
v 0.390329 0.003216 -0.385017
v 0.348218 0.003652 -0.384441
v 0.348218 -0.003815 0.380984
v 0.348218 -0.003054 0.346509
v 0.307068 -0.003054 0.346509
v 0.307068 -0.003815 0.380984
v -0.348370 -0.003054 0.346509
v -0.306612 -0.003054 0.346509
v -0.348370 -0.003815 0.380984
v -0.306612 -0.003815 0.380984
v 0.306830 0.706778 0.377335
v 0.348218 0.706778 0.377335
v -0.348370 0.706778 0.377334
v -0.306982 0.706778 0.377334
v 0.390329 1.164940 -0.375814
v 0.390329 1.164940 -0.333272
v -0.390481 1.164940 -0.333272
v -0.390481 1.164940 -0.375814
v -0.348370 1.164940 -0.375237
v -0.348370 1.164940 -0.333849
v 0.348218 1.164940 -0.333849
v 0.348218 1.164940 -0.375237
v -0.363953 0.683186 0.406359
v 0.369524 0.683186 0.406359
v 0.369524 0.694121 0.423820
v -0.363953 0.694121 0.423820
v -0.343271 0.893116 -0.334525
v 0.340963 0.893116 -0.334525
v 0.283344 1.392164 -0.361420
v -0.285652 1.392164 -0.361420
v 0.283344 1.392164 -0.400731
v -0.285652 1.392164 -0.400731
v 0.340963 0.893116 -0.373836
v -0.343271 0.893116 -0.373836
v -0.111175 0.893116 -0.413292
v 0.108867 0.893116 -0.413292
v 0.108867 1.436764 -0.413292
v -0.111175 1.436764 -0.413292
v 0.108867 1.436764 -0.452603
v -0.111175 1.436764 -0.452603
v 0.108867 0.893116 -0.452603
v -0.111175 0.893116 -0.452603
v 0.329661 0.749014 0.388513
v 0.329662 0.749014 -0.333028
v -0.338441 0.749014 -0.333028
v -0.338441 0.749014 0.388513
v -0.338441 0.802852 -0.329738
v -0.338441 0.802852 0.385222
v 0.329662 0.802852 -0.329737
v 0.329661 0.802852 0.385222
v -0.357027 0.775933 -0.343908
v -0.357028 0.775933 0.399393
v 0.348248 0.775933 -0.343908
v 0.348248 0.775933 0.399393
v -0.343271 1.164940 -0.334525
v 0.340963 1.164940 -0.334525
v 0.340963 1.164940 -0.373836
v -0.343271 1.164940 -0.373836
v -0.111175 1.164940 -0.413292
v 0.108867 1.164940 -0.413292
v 0.108867 1.164940 -0.452603
v -0.111175 1.164940 -0.452603
v 0.307068 0.673787 0.389137
v 0.307068 0.673787 0.357831
v 0.307068 0.644484 0.389137
v 0.307068 0.644484 0.357831
v -0.306612 0.644484 0.389137
v -0.306612 0.644484 0.357831
v -0.306612 0.673787 0.357831
v -0.306612 0.673787 0.389137
v 0.311241 1.157068 -0.374525
v -0.311394 1.157068 -0.374525
v -0.349034 1.157068 -0.360578
v 0.348882 1.157068 -0.360578
v -0.349034 1.060759 -0.360578
v 0.348882 1.060759 -0.360578
v -0.311394 1.060664 -0.374525
v 0.311241 1.060664 -0.374525
v 0.348882 1.060759 -0.386082
v 0.311241 1.060664 -0.400030
v -0.311394 1.060664 -0.400030
v -0.349034 1.060759 -0.386082
v 0.348882 1.157068 -0.386082
v -0.349034 1.157068 -0.386082
v -0.311394 1.157068 -0.400030
v 0.311241 1.157068 -0.400030
v -0.351880 1.173861 -0.337250
v -0.351880 1.173861 -0.371836
v -0.386972 1.173861 -0.372220
v -0.386972 1.173861 -0.336865
v 0.351727 1.173861 -0.371836
v 0.351727 1.173861 -0.337249
v 0.386820 1.173861 -0.336865
v 0.386820 1.173861 -0.372220
v 0.353184 0.750563 0.293245
v 0.353184 0.750563 -0.266462
v -0.361964 0.750563 -0.266462
v -0.361964 0.750563 0.293245
v -0.361963 0.802336 -0.263910
v -0.361964 0.802336 0.290692
v 0.353184 0.802336 -0.263909
v 0.353184 0.802336 0.290693
v -0.381859 0.776449 -0.274902
v -0.381859 0.776449 0.301685
v 0.373080 0.776449 -0.274901
v 0.373079 0.776449 0.301685
v -0.348370 0.003652 -0.384441
v -0.390481 0.003216 -0.385017
v -0.390481 0.003216 -0.342476
v -0.348370 0.003652 -0.343052
v 0.348218 0.003652 -0.343052
v 0.390329 0.003216 -0.342475
v 0.390329 0.003216 -0.385017
v 0.348218 0.003652 -0.384441
v 0.348218 -0.003815 0.380984
v 0.348218 -0.003054 0.346509
v 0.307068 -0.003054 0.346509
v 0.307068 -0.003815 0.380984
v -0.348370 -0.003054 0.346509
v -0.306612 -0.003054 0.346509
v -0.348370 -0.003815 0.380984
v -0.306612 -0.003815 0.380984
v -0.363952 0.746050 -0.312543
v -0.363952 0.746050 -0.312543
v 0.369524 0.746050 -0.312543
v 0.369524 0.746050 -0.312543
v 0.369524 0.746050 0.353677
v 0.369524 0.724370 0.401899
v -0.363952 0.746050 0.353677
v -0.363953 0.724370 0.401899
v -0.363953 0.708925 0.389243
v -0.363952 0.726808 0.353677
v -0.363952 0.726808 -0.312543
v -0.363952 0.726808 -0.312543
v 0.369524 0.708925 0.389244
v 0.369524 0.726808 0.353677
v 0.369524 0.726808 -0.312543
v 0.369524 0.726808 -0.312543
v 0.348218 0.720325 -0.375237
v 0.348218 0.720325 -0.333849
v 0.348218 0.720325 -0.333849
v 0.348218 0.720325 -0.333849
v 0.306830 0.720325 -0.375237
v 0.306830 0.720325 -0.333849
v -0.348370 0.720325 -0.333849
v -0.348370 0.720325 -0.333849
v -0.348370 0.720325 -0.333849
v -0.348370 0.720325 -0.375237
v -0.306982 0.720325 -0.333849
v -0.306982 0.720325 -0.375237
v -0.306982 0.689058 -0.375237
v -0.306982 0.689058 -0.333849
v -0.348370 0.689058 -0.375237
v -0.348370 0.689058 -0.333849
v -0.348370 0.689058 -0.333849
v -0.348370 0.689058 -0.333849
v 0.348218 0.689058 -0.333849
v 0.348218 0.689058 -0.333849
v 0.348218 0.689058 -0.333849
v 0.306830 0.689058 -0.375237
v 0.306830 0.689058 -0.333849
v 0.348218 0.689058 -0.375237
v 0.348218 0.720325 0.347892
v 0.348218 0.689058 0.347892
v 0.306830 0.689058 0.347892
v 0.306830 0.720325 0.347892
v -0.306982 0.689058 0.347892
v -0.348370 0.689058 0.347892
v -0.348370 0.720325 0.347892
v -0.306982 0.720325 0.347892
v -0.306612 0.682352 0.355713
v -0.348370 0.682352 0.355713
v 0.307068 0.682352 0.355713
v 0.348218 0.682352 0.355713
v 0.390329 0.688622 -0.375814
v 0.390329 0.720761 -0.375814
v 0.390329 0.688622 -0.333272
v 0.390329 0.720761 -0.333272
v -0.390481 0.688622 -0.333272
v -0.390481 0.720761 -0.333272
v -0.390481 0.688622 -0.375814
v -0.390481 0.720761 -0.375814
v -0.348370 0.003652 -0.384441
v -0.390481 0.003216 -0.385017
v -0.390481 0.003216 -0.342476
v -0.348370 0.003652 -0.343052
v 0.348218 0.003652 -0.343052
v 0.390329 0.003216 -0.342475
v 0.390329 0.003216 -0.385017
v 0.348218 0.003652 -0.384441
v 0.348218 0.681591 0.390188
v 0.348218 -0.003815 0.380984
v 0.348218 -0.003054 0.346509
v 0.307068 -0.003054 0.346509
v 0.307068 -0.003815 0.380984
v 0.307068 0.681591 0.390188
v -0.306612 -0.003054 0.346509
v -0.348370 -0.003054 0.346509
v -0.348370 -0.003815 0.380984
v -0.348370 0.681591 0.390188
v -0.306612 0.681591 0.390188
v -0.306612 -0.003815 0.380984
v 0.306830 0.706778 0.377335
v 0.348218 0.706778 0.377335
v -0.348370 0.706778 0.377334
v -0.306982 0.706778 0.377334
v 0.390329 1.164940 -0.375814
v 0.390329 1.164940 -0.375814
v 0.390329 1.164940 -0.333272
v 0.390329 1.164940 -0.333272
v -0.390481 1.164940 -0.333272
v -0.390481 1.164940 -0.333272
v -0.390481 1.164940 -0.375814
v -0.390481 1.164940 -0.375814
v -0.348370 1.164940 -0.375237
v -0.348370 1.164940 -0.375237
v -0.348370 1.164940 -0.333849
v -0.348370 1.164940 -0.333849
v 0.348218 1.164940 -0.333849
v 0.348218 1.164940 -0.333849
v 0.348218 1.164940 -0.375237
v 0.348218 1.164940 -0.375237
v 0.369524 0.683186 0.406359
v 0.369524 0.683186 0.406359
v -0.363953 0.683186 0.406359
v -0.363953 0.683186 0.406359
v 0.369524 0.694121 0.423820
v -0.363953 0.694121 0.423820
v -0.343271 0.893116 -0.334525
v -0.111175 0.893116 -0.413292
v 0.108867 0.893116 -0.413292
v 0.340963 0.893116 -0.334525
v 0.283344 1.392164 -0.361420
v 0.108867 1.436764 -0.413292
v -0.111175 1.436764 -0.413292
v -0.285652 1.392164 -0.361420
v 0.283344 1.392164 -0.400731
v 0.108867 1.436764 -0.452603
v -0.111175 1.436764 -0.452603
v -0.285652 1.392164 -0.400731
v 0.340963 0.893116 -0.373836
v 0.108867 0.893116 -0.452603
v -0.111175 0.893116 -0.452603
v -0.343271 0.893116 -0.373836
v -0.343271 1.164940 -0.334525
v 0.340963 1.164940 -0.334525
v 0.340963 1.164940 -0.373836
v -0.343271 1.164940 -0.373836
v 0.311241 1.157068 -0.374525
v 0.311241 1.157068 -0.374525
v 0.348882 1.157068 -0.360578
v 0.348882 1.157068 -0.360578
v 0.311241 1.060664 -0.374525
v 0.311241 1.060664 -0.374525
v -0.311394 1.157068 -0.374525
v -0.311394 1.157068 -0.374525
v -0.311394 1.060664 -0.374525
v -0.311394 1.060664 -0.374525
v -0.349034 1.157068 -0.360578
v -0.349034 1.157068 -0.360578
v -0.349034 1.060759 -0.360578
v -0.349034 1.060759 -0.360578
v 0.348882 1.060759 -0.360578
v 0.348882 1.060759 -0.360578
v 0.348882 1.060759 -0.386082
v 0.311241 1.060664 -0.400030
v -0.311394 1.060664 -0.400030
v -0.349034 1.060759 -0.386082
v 0.348882 1.157068 -0.386082
v -0.349034 1.157068 -0.386082
v -0.311394 1.157068 -0.400030
v 0.311241 1.157068 -0.400030
vt -0.003174 0.996985
vt -0.003174 0.003015
vt 1.003174 0.003015
vt 1.003174 0.996985
vt 0.000000 0.000000
vt 1.000000 0.000000
vt 1.000000 1.000000
vt 0.000000 1.000000
vt 0.942488 0.014638
vt 0.967108 0.000000
vt 0.032892 0.000000
vt 0.057512 0.014638
vt 0.942488 0.019064
vt 0.057512 0.019064
vt 0.057512 0.985363
vt 0.032892 1.000000
vt 0.967108 1.000000
vt 0.942488 0.985362
vt 0.057512 0.980936
vt 0.942488 0.980936
vt 0.973646 0.857194
vt 0.026354 0.857194
vt 0.973646 0.104192
vt 0.026354 0.104192
vt 0.973646 0.107626
vt 0.026354 0.107626
vt 0.973646 0.853760
vt 0.026354 0.853760
vt 1.000000 0.868548
vt 1.000000 0.092838
vt 0.000000 0.092838
vt 0.000000 0.868549
vt 0.841237 0.876875
vt 0.667132 0.954079
vt 0.345542 0.949245
vt 0.138070 0.884126
vt 0.092237 0.061692
vt 0.336670 0.054139
vt 0.668399 0.052205
vt 0.919109 0.046405
vt 0.078297 0.376073
vt 0.915307 0.397523
vt 0.660795 0.500000
vt 0.339205 0.500000
vt 0.146191 0.782176
vt 0.146191 0.141964
vt 0.853809 0.141964
vt 0.853809 0.782176
vt 0.146191 0.095623
vt 0.853809 0.095624
vt 0.146191 0.107785
vt 0.853809 0.107785
vt 0.853809 0.091338
vt 0.146191 0.091338
vt 0.853809 0.074559
vt 0.146191 0.074558
vn 0.571200 0.000000 -0.820800
vn 0.572100 0.000000 -0.820200
vn -0.820500 0.000000 -0.571600
vn -0.820800 0.000000 -0.571200
vn 0.000000 1.000000 0.000000
vn -0.008600 0.316200 -0.948600
vn 0.000000 0.707100 -0.707100
vn 0.008600 0.316200 -0.948600
vn 1.000000 0.000000 0.000000
vn 0.000000 -0.707100 -0.707100
vn 0.008600 -0.312400 -0.949900
vn -1.000000 0.000000 0.000000
vn -0.008600 -0.312400 -0.949900
vn 0.000000 -1.000000 0.000000
vn 0.000000 -0.937800 -0.347000
vn 0.000000 -0.938800 -0.344400
vn -0.999900 -0.006700 0.004100
vn 0.000000 -0.936400 -0.350900
vn 0.999900 0.010500 -0.006300
vn 0.000000 0.976800 0.213900
vn 0.000000 -0.406700 -0.913500
vn 0.000000 -0.411700 -0.911300
vn 0.000000 -0.414800 -0.909900
vn -0.013700 0.000000 -0.999900
vn -0.013600 0.006700 -0.999900
vn -0.013700 0.000000 0.999900
vn -0.013800 -0.006700 0.999900
vn 0.013800 -0.006700 0.999900
vn 0.013700 0.000000 0.999900
vn 0.013600 0.006700 -0.999900
vn 0.013700 0.000000 -0.999900
vn 0.017000 -0.703000 -0.711000
vn 0.017000 -0.701500 -0.712400
vn 0.017000 -0.711000 0.703000
vn 0.017000 -0.712500 0.701400
vn -0.017000 -0.712500 0.701400
vn -0.017000 -0.711000 0.703000
vn -0.017000 -0.701500 -0.712400
vn -0.017000 -0.703000 -0.711000
vn 0.000000 -0.694400 -0.719500
vn -1.000000 -0.003800 -0.000100
vn -0.999900 -0.010300 0.004900
vn 0.999800 0.016000 -0.007600
vn 1.000000 0.006000 0.000100
vn 0.000000 0.226200 0.974100
vn 0.000000 0.227200 0.973800
vn 0.000000 -0.719500 0.694400
vn 0.000000 0.227900 0.973700
vn 0.000000 0.721900 0.691900
vn 0.000000 0.721300 0.692600
vn 0.000000 0.720300 0.693600
vn 0.999900 0.011200 -0.002200
vn -1.000000 -0.007200 0.001400
vn 0.000000 -0.707100 0.707100
vn 0.000000 0.707100 0.707100
vn -0.347500 0.000000 0.937700
vn 0.347500 0.000000 0.937700
vn 0.002500 -1.000000 0.000000
vn -0.002500 -1.000000 0.000000
vn 0.820500 0.000000 -0.571600
vn 0.820800 0.000000 -0.571200
vn -0.571200 0.000000 -0.820800
vn -0.572100 0.000000 -0.820200
vn 0.624300 0.483200 -0.613700
vn 0.460100 0.761600 -0.456300
vn 0.460100 0.761600 0.456300
vn 0.624300 0.483200 0.613700
vn -0.612300 0.487800 -0.622200
vn -0.455300 0.762200 -0.460100
vn -0.612300 0.487800 0.622200
vn -0.455300 0.762200 0.460100
vn -0.624300 0.483200 0.613700
vn -0.460100 0.761600 0.456300
vn -0.460100 0.761600 -0.456300
vn -0.624300 0.483200 -0.613700
vn 0.612300 0.487800 0.622200
vn 0.455300 0.762200 0.460100
vn 0.612300 0.487800 -0.622200
vn 0.455300 0.762200 -0.460100
vn 0.010300 -0.999900 0.000000
vn -0.010300 -0.999900 0.000000
vn 0.000000 -0.999800 -0.022100
vn -0.266700 -0.816200 -0.512500
vn -0.627000 0.019900 -0.778700
vn 0.627000 0.019900 -0.778700
vn 0.266700 -0.816200 -0.512500
vn -0.262700 0.837200 -0.479500
vn 0.262700 0.837200 -0.479500
vn 0.291400 -0.814600 0.501500
vn 0.658400 0.019400 0.752400
vn -0.658400 0.019400 0.752400
vn -0.291400 -0.814600 0.501500
vn 0.288900 0.836200 0.466100
vn -0.288900 0.836200 0.466100
vn -0.462100 -0.885600 0.045100
vn 0.462100 -0.885600 0.045100
vn -0.466600 -0.882000 -0.065500
vn 0.466600 -0.882000 -0.065500
vn -0.461600 0.884500 -0.066600
vn 0.461600 0.884500 -0.066600
vn -0.458400 0.887500 0.046100
vn 0.458400 0.887500 0.046100
vn -0.990600 0.006100 0.136500
vn -0.982500 0.008100 -0.186300
vn 0.982500 0.008000 -0.186300
vn 0.990600 0.006100 0.136500
vn -0.761100 0.648600 0.000000
vn -0.135000 0.990800 0.000000
vn -0.112600 0.993600 0.000000
vn -0.656100 0.754700 0.000000
vn 0.135000 0.990800 0.000000
vn 0.112600 0.993600 0.000000
vn 0.761100 0.648600 0.000000
vn 0.656100 0.754700 0.000000
vn 0.784000 -0.620700 0.000000
vn 0.637600 -0.770400 0.000000
vn -0.784000 -0.620700 0.000000
vn -0.637600 -0.770400 0.000000
vn 0.992900 0.119200 0.000000
vn 0.991700 0.128200 0.000000
vn -0.992900 0.119200 0.000000
vn -0.991700 0.128200 0.000000
vn 0.162800 0.000000 0.986600
vn 0.158400 0.004100 0.987300
vn 0.313600 0.007300 0.949500
vn 0.321400 0.000000 0.946900
vn 0.141200 0.007500 0.989900
vn 0.304200 0.016200 0.952400
vn -0.162800 0.000000 0.986600
vn -0.158400 0.004100 0.987300
vn -0.141200 0.007500 0.989900
vn -0.321400 0.000000 0.946900
vn -0.313600 0.007300 0.949500
vn -0.304200 0.016200 0.952400
vn 0.162800 0.000000 -0.986600
vn 0.158400 -0.004100 -0.987300
vn 0.313600 -0.007300 -0.949500
vn 0.321400 0.000000 -0.946900
vn 0.141200 -0.007500 -0.989900
vn 0.304200 -0.016200 -0.952400
vn -0.162800 0.000000 -0.986600
vn -0.158400 -0.004100 -0.987300
vn -0.141200 -0.007500 -0.989900
vn -0.321400 0.000000 -0.946900
vn -0.313600 -0.007300 -0.949500
vn -0.304200 -0.016200 -0.952400
vn 0.000000 0.977800 0.209700
vn 0.000000 0.775600 0.631200
vn 0.000000 0.000000 -1.000000
vn 0.000000 -0.973000 -0.230800
vn 0.000000 -0.748500 -0.663100
vn 0.000000 -0.553700 -0.832700
vn 0.000000 -0.190900 0.981600
vn 0.000000 -0.847500 0.530700
usemtl Material.012
s 1
f 329/1/1 325/2/2 326/3/3 142/4/4
usemtl Material.012_NONE
f 15/5/5 14/6/6 13/7/7 16/8/5
f 18/5/5 19/6/7 20/7/8 17/8/5
f 208/5/9 207/6/9 23/7/9 22/8/9
f 20/5/8 19/6/7 209/7/10 21/8/11
f 202/5/12 201/6/12 28/7/12 25/8/12
f 13/5/7 14/6/6 27/7/13 218/8/10
f 218/5/10 27/6/13 26/7/14 219/8/14
f 21/5/11 209/6/10 210/7/14 24/8/14
f 215/5/9 198/6/9 29/7/9 30/8/9
f 219/5/14 26/6/14 222/7/15 31/8/16
f 202/5/12 25/6/12 223/7/17 32/8/12
f 24/5/14 210/6/14 34/7/18 33/8/15
f 203/5/12 212/6/12 226/7/12 35/8/12
f 23/5/9 207/6/9 36/7/9 225/8/19
f 18/5/5 17/6/5 227/7/20 228/8/20
f 15/5/5 16/6/5 224/7/20 221/8/20
f 33/5/15 34/6/18 229/7/21 42/8/22
f 31/5/16 222/6/15 44/7/22 43/8/23
f 27/5/13 14/6/6 47/7/24 45/8/25
f 199/5/26 216/6/27 235/7/27 48/8/26
f 213/5/28 204/6/29 50/7/29 49/8/28
f 20/5/8 21/6/11 239/7/30 52/8/31
f 234/5/9 236/6/9 46/7/9 233/8/9
f 238/5/12 240/6/12 51/7/12 237/8/12
f 239/5/30 21/6/11 53/7/32 54/8/33
f 237/5/12 51/6/12 242/7/12 55/8/12
f 213/5/28 49/6/28 243/7/34 56/8/35
f 235/5/27 216/6/27 57/7/36 58/8/37
f 233/5/9 46/6/9 246/7/9 59/8/9
f 27/5/13 45/6/25 247/7/38 60/8/39
f 232/5/9 249/6/9 61/7/9 62/8/9
f 43/5/23 44/6/22 251/7/40 63/8/40
f 254/5/41 231/6/42 252/7/12 64/8/12
f 42/5/22 229/6/21 66/7/40 65/8/40
f 258/5/12 230/6/12 256/7/12 67/8/12
f 41/5/43 259/6/44 68/7/9 255/8/9
f 39/5/45 40/6/46 257/7/47 260/8/47
f 37/5/46 38/6/48 253/7/47 250/8/47
f 217/5/12 220/6/12 248/7/12 245/8/12
f 211/5/9 214/6/9 244/7/9 241/8/9
f 53/5/32 56/6/35 243/7/34 54/8/33
f 57/5/36 60/6/39 247/7/38 58/8/37
f 250/5/47 253/6/47 63/7/40 251/8/40
f 260/5/47 257/6/47 65/7/40 66/8/40
f 224/5/20 69/6/49 70/7/50 221/8/20
f 69/5/49 38/6/48 37/7/46 70/8/50
f 227/5/20 71/6/50 72/7/51 228/8/20
f 71/5/50 40/6/46 39/7/45 72/8/51
f 264/5/52 41/6/43 225/7/19
f 36/5/9 264/6/52 225/7/19
f 264/5/52 259/6/44 41/7/43
f 263/5/12 226/6/12 230/7/12
f 258/5/12 263/6/12 230/7/12
f 263/5/12 35/6/12 226/7/12
f 261/5/53 223/6/17 231/7/42
f 254/5/41 261/6/53 231/7/42
f 261/5/53 32/6/12 223/7/17
f 262/5/9 232/6/9 30/7/9
f 29/5/9 262/6/9 30/7/9
f 262/5/9 249/6/9 232/7/9
f 236/5/9 234/6/9 73/7/9 74/8/9
f 240/5/12 238/6/12 75/7/12 76/8/12
f 20/5/8 52/6/31 271/7/31 77/8/31
f 50/5/29 204/6/29 78/7/29 269/8/29
f 199/5/26 48/6/26 267/7/26 79/8/26
f 47/5/24 14/6/6 80/7/24 265/8/24
f 205/5/9 206/6/9 273/7/9 275/8/9
f 197/5/12 200/6/12 277/7/12 279/8/12
f 124/5/10 123/6/54 125/7/54 126/8/10
f 122/5/7 124/6/10 126/7/10 127/8/7
f 123/5/54 121/6/55 128/7/55 125/8/54
f 121/5/55 122/6/7 127/7/7 128/8/55
f 134/5/56 132/6/56 129/7/56 136/8/56
f 135/5/57 130/6/57 131/7/57 133/8/57
f 311/5/58 138/6/58 137/7/58 321/8/58
f 319/5/59 140/6/59 139/7/59 315/8/59
f 322/5/9 323/6/60 141/7/61 309/8/9
f 317/5/12 142/6/4 326/7/3 320/8/12
f 313/5/5 143/6/5 328/7/5 318/8/5
f 316/5/9 325/6/2 329/7/1 314/8/9
f 307/5/12 144/6/62 324/7/63 312/8/12
f 310/5/5 327/6/5 330/7/5 308/8/5
f 274/5/64 146/6/65 145/7/66 276/8/67
f 272/5/68 147/6/69 146/7/65 274/8/64
f 270/5/70 148/6/71 147/7/69 272/8/68
f 276/5/67 145/6/66 148/7/71 270/8/70
f 145/5/66 146/6/65 147/7/69 148/8/71
f 278/5/72 150/6/73 149/7/74 280/8/75
f 268/5/76 151/6/77 150/7/73 278/8/72
f 266/5/78 152/6/79 151/7/77 268/8/76
f 280/5/75 149/6/74 152/7/79 266/8/78
f 149/5/74 150/6/73 151/7/77 152/8/79
f 165/5/80 168/6/80 167/7/80 166/8/80
f 169/5/81 172/6/81 171/7/81 170/8/81
f 173/5/82 176/6/82 175/7/82 174/8/82
f 180/5/82 179/6/82 177/7/82 178/8/82
usemtl Material.031
f 103/9/83 109/10/84 111/11/85 102/12/86
f 109/10/84 105/13/87 107/14/88 111/11/85
f 101/15/89 112/16/90 110/17/91 104/18/92
f 112/16/90 108/19/93 106/20/94 110/17/91
f 104/18/92 156/21/95 153/22/96 101/15/89
f 156/21/95 155/23/97 154/24/98 153/22/96
f 155/23/97 103/9/83 102/12/86 154/24/98
f 105/13/87 157/25/99 159/26/100 107/14/88
f 157/25/99 158/27/101 160/28/102 159/26/100
f 158/27/101 106/20/94 108/19/93 160/28/102
f 110/17/91 162/29/103 156/21/95 104/18/92
f 162/29/103 161/30/104 155/23/97 156/21/95
f 161/30/104 109/10/84 103/9/83 155/23/97
f 106/20/94 158/27/101 162/29/103 110/17/91
f 158/27/101 157/25/99 161/30/104 162/29/103
f 157/25/99 105/13/87 109/10/84 161/30/104
f 111/11/85 163/31/105 154/24/98 102/12/86
f 163/31/105 164/32/106 153/22/96 154/24/98
f 164/32/106 112/16/90 101/15/89 153/22/96
f 107/14/88 159/26/100 163/31/105 111/11/85
f 159/26/100 160/28/102 164/32/106 163/31/105
f 160/28/102 108/19/93 112/16/90 164/32/106
usemtl Material.039
f 141/1/61 323/2/60 324/3/63 144/4/62
usemtl Material.046
f 88/33/107 96/34/108 98/34/109 90/33/110
f 96/34/108 95/35/111 97/35/112 98/34/109
f 95/35/111 87/36/113 89/36/114 97/35/112
f 86/37/115 94/38/14 99/38/14 91/37/116
f 94/38/14 93/39/14 100/39/14 99/38/14
f 93/39/14 85/40/117 92/40/118 100/39/14
f 87/36/113 114/41/119 115/41/120 89/36/114
f 114/41/119 86/37/115 91/37/116 115/41/120
f 85/40/117 113/42/121 116/42/122 92/40/118
f 113/42/121 88/33/107 90/33/110 116/42/122
f 288/39/123 117/43/124 303/42/125 287/40/126
f 117/43/124 293/34/127 294/33/128 303/42/125
f 289/38/129 118/44/130 117/43/124 288/39/123
f 118/44/130 292/35/131 293/34/127 117/43/124
f 290/37/132 304/41/133 118/44/130 289/38/129
f 304/41/133 291/36/134 292/35/131 118/44/130
f 300/38/135 119/44/136 305/41/137 299/37/138
f 119/44/136 296/35/139 295/36/140 305/41/137
f 301/39/141 120/43/142 119/44/136 300/38/135
f 120/43/142 297/34/143 296/35/139 119/44/136
f 302/40/144 306/42/145 120/43/142 301/39/141
f 306/42/145 298/33/146 297/34/143 120/43/142
usemtl Material.046_NONE
f 1/45/5 6/46/147 5/47/147 2/48/5
f 6/46/147 4/49/148 3/50/148 5/47/147
f 188/49/12 187/46/12 8/46/12 7/51/12
f 187/46/12 181/45/12 9/45/12 8/46/12
f 185/47/9 186/50/9 10/52/9 11/47/9
f 183/48/9 185/47/9 11/47/9 12/48/9
f 182/45/149 184/48/149 195/48/149 191/45/149
f 194/47/150 193/52/151 189/51/151 190/46/150
f 196/48/14 194/47/150 190/46/150 192/45/14
f 189/51/151 193/52/151 82/53/152 81/54/152
f 10/52/9 186/50/9 83/55/9 281/53/9
f 188/49/12 7/51/12 283/54/12 84/56/12
f 3/50/148 4/49/148 286/56/153 285/55/153
f 285/55/153 286/56/153 284/54/154 282/53/154
